<svg width="402" height="100" viewBox="0 0 402 100" fill="none" xmlns="http://www.w3.org/2000/svg">
<path fill-rule="evenodd" clip-rule="evenodd" d="M318.963 48.3239H346.94V71.9802H338.589L338.102 65.0224C333.926 69.545 327.315 72.6064 317.92 72.6064C301.635 72.6064 291.683 64.5354 291.683 49.9242C291.683 35.3129 301.635 27.2419 319.799 27.2419C337.475 27.2419 346.244 34.1301 346.94 45.0537H335.387C334.761 41.714 331.699 36.7045 319.729 36.7045C304.975 36.7045 302.957 44.845 302.957 50.1329C302.957 55.4904 305.045 63.8396 319.729 63.8396C330.725 63.8396 335.109 59.0388 335.387 55.6991H318.963V48.3239ZM249.719 62.6568H276.095L280.897 72.0498H293.423L270.597 27.9377H255.286L232.529 72.0498H244.987L249.719 62.6568ZM262.942 36.3566L271.919 54.238H253.894L262.942 36.3566ZM160.297 27.9687V72.0312H171.643V39.8921L188.377 72.0312H200.291L217.025 39.8921V72.0312H228.371V27.9687H211.331L194.334 60.6122L177.337 27.9687H160.297ZM366.356 45.9583V36.9828H401.64V27.9377H355.013V72.189H401.64V63.1439H366.356V54.1684H401.64V45.9583H366.356Z" fill="black"/>
<path opacity="0.4" d="M104.359 6.10352e-05L132.328 7.41038e-05L80.2185 100L52.2497 100L104.359 6.10352e-05Z" fill="black"/>
<path d="M80.2191 1.30687e-05L52.4063 0L0.296936 100L28.2657 100L52.2501 53.9733V100H80.2188V0.00059871L80.2191 1.30687e-05Z" fill="black"/>
<path d="M104.359 1.84057e-05H132.328V100H104.359V1.84057e-05Z" fill="black"/>
</svg>
