<svg width="1000" height="1000" viewBox="0 0 1000 1000" fill="none" xmlns="http://www.w3.org/2000/svg">
<path d="M458.084 24.2003C484.022 9.22512 515.979 9.22511 541.917 24.2003L891.097 225.8C917.035 240.775 933.013 268.45 933.013 298.401V701.599C933.013 731.55 917.035 759.225 891.097 774.2L541.917 975.8C515.979 990.775 484.022 990.775 458.084 975.8L108.904 774.2C82.9662 759.225 66.9878 731.55 66.9878 701.599V298.401C66.9878 268.45 82.9661 240.775 108.904 225.8L458.084 24.2003Z" fill="black"/>
<path d="M514.971 84.4196L852.419 279.245C861.682 284.594 867.389 294.478 867.389 305.174V694.826C867.389 705.522 861.682 715.406 852.419 720.755L514.971 915.58C505.707 920.929 494.294 920.929 485.03 915.58L147.582 720.755C138.319 715.406 132.612 705.522 132.612 694.826V305.174C132.612 294.478 138.319 284.594 147.582 279.245L485.03 84.4196C494.294 79.0714 505.707 79.0714 514.971 84.4196Z" stroke="#00FB82" stroke-width="11.976"/>
<path d="M866.981 704.491L507.088 81.1377M863.474 709.851L136.827 290.322M863.005 290.419L136.527 709.851M134.403 297.904L492.913 918.862" stroke="#00FB82" stroke-opacity="0.3" stroke-width="11.976"/>
<circle cx="132" cy="292" r="25" fill="black" stroke="#00FB82" stroke-width="10"/>
<circle cx="132" cy="711" r="25" fill="black" stroke="#00FB82" stroke-width="10"/>
<circle cx="866" cy="292" r="25" fill="black" stroke="#00FB82" stroke-width="10"/>
<circle cx="866" cy="711" r="30" fill="#00FB82"/>
<circle cx="500" cy="919" r="30" fill="#00FB82"/>
<circle cx="500" cy="82" r="30" fill="#00FB82"/>
<path d="M577.842 368.959L656.747 368.96L509.738 650.724L430.834 650.724L577.842 368.959Z" fill="black"/>
<path d="M509.74 368.96L431.276 368.959L284.268 650.724H363.171L430.835 521.037V650.724H509.739V368.961L509.74 368.96Z" fill="black"/>
<path d="M577.843 368.96H656.747V650.724H577.843V368.96Z" fill="black"/>
<path opacity="0.4" d="M577.842 368.959L656.747 368.96L509.738 650.724L430.834 650.724L577.842 368.959Z" fill="white"/>
<path d="M509.74 368.96L431.276 368.959L284.268 650.724H363.171L430.835 521.037V650.724H509.739V368.961L509.74 368.96Z" fill="white"/>
<path d="M577.843 368.96H656.747V650.724H577.843V368.96Z" fill="white"/>
</svg>
