<svg width="1000" height="1000" viewBox="0 0 1000 1000" fill="none" xmlns="http://www.w3.org/2000/svg">
<path d="M458.084 24.2003C484.022 9.22512 515.978 9.22511 541.916 24.2003L891.096 225.8C917.034 240.775 933.013 268.45 933.013 298.401V701.599C933.013 731.55 917.034 759.225 891.097 774.2L541.916 975.8C515.978 990.775 484.022 990.775 458.084 975.8L108.903 774.2C82.9657 759.225 66.9873 731.55 66.9873 701.599V298.401C66.9873 268.45 82.9657 240.775 108.903 225.8L458.084 24.2003Z" fill="black"/>
<path d="M147.582 279.245L485.03 84.4195C494.293 79.0712 505.706 79.0712 514.97 84.4195L852.418 279.245C861.681 284.594 867.388 294.478 867.388 305.174L867.388 694.826C867.388 705.522 861.682 715.406 852.418 720.755L514.97 915.58C505.706 920.929 494.293 920.929 485.03 915.58L147.582 720.755C138.318 715.406 132.612 705.522 132.612 694.826L132.612 305.174C132.612 294.478 138.318 284.594 147.582 279.245Z" stroke="#00FB82" stroke-width="11.976"/>
<mask id="mask0_7285_70" style="mask-type:alpha" maskUnits="userSpaceOnUse" x="128" y="74" width="739" height="851">
<path d="M496.707 74.2515L132.635 287.126L128.743 709.581L500.898 924.251L866.168 709.581V282.335L496.707 74.2515Z" fill="#D9D9D9"/>
</mask>
<g mask="url(#mask0_7285_70)">
<path fill-rule="evenodd" clip-rule="evenodd" d="M504.79 504.195V-247.904H495.209V498.714L504.79 504.195ZM482.036 491.177V-247.904H472.455V485.695L482.036 491.177ZM459.281 478.158V-247.904H449.7V472.677L459.281 478.158ZM436.527 465.14V-247.904H426.946V459.658L436.527 465.14ZM413.772 452.121V-247.904H404.191V446.64L413.772 452.121ZM391.018 439.102V-247.904H381.437V433.621L391.018 439.102ZM368.263 426.084V-247.904H358.683V420.602L368.263 426.084ZM345.509 413.065V-247.904H335.928V407.584L345.509 413.065ZM322.754 400.047V-247.904H313.174V394.565L322.754 400.047ZM300 387.028V-247.904H290.419V381.547L300 387.028ZM277.245 374.009V-247.904H267.665V368.528L277.245 374.009ZM254.491 360.991V-247.904H244.91V355.509L254.491 360.991ZM231.736 347.972V-247.904H222.156V342.491L231.736 347.972ZM208.982 334.954V-247.904H199.401V329.472L208.982 334.954ZM186.227 321.935V-247.904H176.647V316.454L186.227 321.935ZM163.473 308.916V-247.904H153.892V303.435L163.473 308.916Z" fill="#00FB82"/>
<path d="M885.724 1121.19L-91.0174 557.266L-95.8079 565.563L880.934 1129.49L885.724 1121.19Z" fill="#00FB82"/>
<path d="M897.102 1101.48L-79.6402 537.56L-84.4306 545.857L892.311 1109.78L897.102 1101.48Z" fill="#00FB82"/>
<path d="M-68.263 517.854L908.479 1081.78L903.689 1090.07L-73.0534 526.151L-68.263 517.854Z" fill="#00FB82"/>
<path d="M919.856 1062.07L-56.8857 498.148L-61.6761 506.445L915.066 1070.37L919.856 1062.07Z" fill="#00FB82"/>
<path d="M-45.5085 478.442L931.233 1042.36L926.443 1050.66L-50.2989 486.739L-45.5085 478.442Z" fill="#00FB82"/>
<path d="M942.611 1022.66L-34.1312 458.736L-38.9216 467.033L937.82 1030.96L942.611 1022.66Z" fill="#00FB82"/>
<path d="M-22.754 439.03L953.988 1002.95L949.198 1011.25L-27.5444 447.327L-22.754 439.03Z" fill="#00FB82"/>
<path d="M965.365 983.246L-11.3767 419.324L-16.1671 427.621L960.575 991.543L965.365 983.246Z" fill="#00FB82"/>
<path d="M0.000513088 399.618L976.742 963.54L971.952 971.837L-4.78991 407.915L0.000513088 399.618Z" fill="#00FB82"/>
<path d="M988.12 943.834L11.3778 379.912L6.58734 388.209L983.329 952.131L988.12 943.834Z" fill="#00FB82"/>
<path d="M22.755 360.206L999.497 924.128L994.707 932.425L17.9646 368.503L22.755 360.206Z" fill="#00FB82"/>
<path d="M1010.87 904.422L34.1323 340.5L29.3418 348.797L1006.08 912.719L1010.87 904.422Z" fill="#00FB82"/>
<path d="M45.5095 320.794L1022.25 884.716L1017.46 893.014L40.7191 329.091L45.5095 320.794Z" fill="#00FB82"/>
<path d="M1033.63 865.01L56.8867 301.088L52.0963 309.385L1028.84 873.308L1033.63 865.01Z" fill="#00FB82"/>
<path d="M68.264 281.382L1045.01 845.304L1040.22 853.602L63.4736 289.679L68.264 281.382Z" fill="#00FB82"/>
<path d="M1056.38 825.598L79.6412 261.676L74.8508 269.973L1051.59 833.896L1056.38 825.598Z" fill="#00FB82"/>
<path fill-rule="evenodd" clip-rule="evenodd" d="M836.527 309.901L846.108 304.419V1087.43H836.527V309.901ZM813.772 322.921L823.353 317.439V1087.43H813.772V322.921ZM791.018 335.941L800.599 330.459V1087.43H791.018V335.941ZM768.263 348.961L777.844 343.479V1087.43H768.263V348.961ZM745.509 361.981L755.09 356.499V1087.43H745.509V361.981ZM722.754 375.001L732.335 369.519V1087.43H722.754V375.001ZM700 388.021L709.581 382.539V1087.43H700V388.021ZM677.245 401.041L686.826 395.559V1087.43H677.245V401.041ZM654.491 414.061L664.072 408.579V1087.43H654.491V414.061ZM631.736 427.081L641.317 421.599V1087.43H631.736V427.081ZM608.982 440.101L618.563 434.619V1087.43H608.982V440.101ZM586.227 453.121L595.808 447.639V1087.43H586.227V453.121ZM563.473 466.141L573.054 460.659V1087.43H563.473V466.141ZM540.718 479.161L550.299 473.679V1087.43H540.718V479.161ZM517.964 492.181L527.545 486.699V1087.43H517.964V492.181ZM495.209 505.201L504.79 499.719V1087.43H495.209V505.201Z" fill="#00FB82"/>
<path fill-rule="evenodd" clip-rule="evenodd" d="M504.26 102.731L504.303 91.6928L1182.41 483.196L1177.62 491.493L504.26 102.731ZM504.158 128.947L504.201 117.909L1171.03 502.902L1166.24 511.199L504.158 128.947ZM504.057 155.163L504.1 144.125L1159.65 522.608L1154.86 530.905L504.057 155.163ZM503.955 181.379L503.998 170.341L1148.27 542.314L1143.48 550.611L503.955 181.379ZM503.854 207.595L503.896 196.557L1136.9 562.02L1132.11 570.317L503.854 207.595ZM503.752 233.811L503.795 222.773L1125.52 581.726L1120.73 590.023L503.752 233.811ZM503.65 260.027L503.693 248.989L1114.14 601.432L1109.35 609.729L503.65 260.027ZM503.549 286.243L503.592 275.205L1102.77 621.138L1097.97 629.435L503.549 286.243ZM503.447 312.459L503.49 301.421L1091.39 640.844L1086.6 649.141L503.447 312.459ZM503.346 338.675L503.388 327.637L1080.01 660.55L1075.22 668.847L503.346 338.675ZM503.244 364.891L503.287 353.852L1068.63 680.255L1063.84 688.553L503.244 364.891ZM503.143 391.107L503.185 380.068L1057.26 699.961L1052.47 708.259L503.143 391.107ZM503.041 417.323L503.084 406.284L1045.88 719.667L1041.09 727.965L503.041 417.323ZM502.939 443.539L502.982 432.5L1034.5 739.373L1029.71 747.671L502.939 443.539ZM502.838 469.755L502.881 458.716L1023.12 759.079L1018.33 767.377L502.838 469.755ZM502.736 495.971L502.779 484.932L1011.75 778.785L1006.96 787.083L502.736 495.971Z" fill="#00FB82"/>
</g>
<path d="M595.598 326.008L696 326.008L508.939 684.539L408.538 684.539L595.598 326.008Z" fill="black"/>
<path d="M508.941 326.008L409.1 326.008L222.04 684.539L322.441 684.539L408.539 519.519V684.539H508.94V326.01L508.941 326.008Z" fill="black"/>
<path d="M595.599 326.008H696V684.539H595.599V326.008Z" fill="black"/>
</svg>
