<svg width="1000" height="1000" viewBox="0 0 1000 1000" fill="none" xmlns="http://www.w3.org/2000/svg">
<path d="M458.084 24.2003C484.022 9.22512 515.979 9.22511 541.917 24.2003L891.097 225.8C917.035 240.775 933.013 268.45 933.013 298.401V701.599C933.013 731.55 917.035 759.225 891.097 774.2L541.917 975.8C515.979 990.775 484.022 990.775 458.084 975.8L108.904 774.2C82.9662 759.225 66.9878 731.55 66.9878 701.599V298.401C66.9878 268.45 82.9661 240.775 108.904 225.8L458.084 24.2003Z" fill="black"/>
<path d="M514.971 84.4196L852.419 279.245C861.682 284.594 867.389 294.478 867.389 305.174V694.826C867.389 705.522 861.682 715.406 852.419 720.755L514.971 915.58C505.707 920.929 494.294 920.929 485.03 915.58L147.582 720.755C138.319 715.406 132.612 705.522 132.612 694.826V305.174C132.612 294.478 138.319 284.594 147.582 279.245L485.03 84.4196C494.294 79.0714 505.707 79.0714 514.971 84.4196Z" stroke="white" stroke-width="11.976"/>
<path d="M866.981 704.491L507.088 81.1377M863.473 709.851L136.827 290.322M863.005 290.419L136.527 709.851M134.403 297.904L492.913 918.862" stroke="#00FB82" stroke-width="11.976"/>
<g filter="url(#filter0_f_7285_32)">
<circle cx="502.995" cy="526.347" r="218.563" fill="black"/>
</g>
<mask id="mask0_7285_32" style="mask-type:alpha" maskUnits="userSpaceOnUse" x="126" y="74" width="748" height="852">
<path fill-rule="evenodd" clip-rule="evenodd" d="M503.345 86.6308C498.132 85.8964 492.732 86.888 488.025 89.6054L150.577 284.431L144.589 274.06L482.037 79.2339C493.153 72.8159 506.849 72.8159 517.965 79.2339L855.413 274.06C866.529 280.478 873.377 292.338 873.377 305.174V694.826C873.377 707.662 866.529 719.523 855.413 725.94L517.965 920.766C506.849 927.184 493.153 927.184 482.037 920.766L144.589 725.94C133.473 719.523 126.625 707.662 126.625 694.826V305.174C126.625 292.338 133.473 280.478 144.589 274.06L150.577 284.431C148.675 285.529 146.96 286.867 145.462 288.393L500.001 493.086L678.509 390.024L503.345 86.6308ZM522.349 95.5935L849.425 284.431C851.327 285.529 853.042 286.867 854.54 288.392L688.881 384.036L522.349 95.5935ZM138.601 317.15V694.826C138.601 697.022 138.902 699.176 139.474 701.236L305.133 605.593L138.601 317.15ZM145.462 711.608C146.96 713.133 148.675 714.471 150.577 715.569L477.653 904.407L311.121 615.964L145.462 711.608ZM496.657 913.369C501.87 914.104 507.27 913.112 511.977 910.395L849.425 715.569C851.327 714.471 853.042 713.133 854.54 711.608L500.001 506.914L321.493 609.976L496.657 913.369ZM861.401 682.85V305.174C861.401 302.978 861.1 300.824 860.528 298.764L694.869 394.407L861.401 682.85ZM511.977 500L684.497 400.395L857.018 699.209L511.977 500ZM142.984 300.791L488.025 500L315.505 599.605L142.984 300.791Z" fill="white"/>
</mask>
<g mask="url(#mask0_7285_32)">
<circle cx="254.492" cy="362.874" r="29.9401" fill="#34404C"/>
<circle cx="580.24" cy="203.593" r="29.9401" fill="#34404C"/>
<circle cx="781.438" cy="337.725" r="29.9401" fill="#34404C"/>
<circle cx="211.378" cy="669.461" r="29.9401" fill="#34404C"/>
<circle cx="788.624" cy="556.288" r="29.9401" fill="#34404C"/>
<circle cx="609.582" cy="865.269" r="29.9401" fill="#34404C"/>
<circle cx="779.043" cy="765.269" r="29.9401" fill="#34404C"/>
<circle cx="867.067" cy="419.76" r="29.9401" fill="#34404C"/>
<circle cx="133.534" cy="602.395" r="29.9401" fill="#34404C"/>
<circle cx="134.133" cy="425.15" r="29.9401" fill="#34404C"/>
<circle cx="401.198" cy="130.539" r="29.9401" fill="#34404C"/>
<circle cx="440.719" cy="831.138" r="29.9401" fill="#34404C"/>
</g>
<path opacity="0.4" d="M578.229 368.959L657.133 368.96L510.125 650.724L431.221 650.724L578.229 368.959Z" fill="white"/>
<path d="M510.126 368.96L431.662 368.959L284.654 650.724H363.558L431.222 521.037V650.724H510.125V368.961L510.126 368.96Z" fill="white"/>
<path d="M578.23 368.96H657.133V650.724H578.23V368.96Z" fill="white"/>
<defs>
<filter id="filter0_f_7285_32" x="222.156" y="245.509" width="561.677" height="561.677" filterUnits="userSpaceOnUse" color-interpolation-filters="sRGB">
<feFlood flood-opacity="0" result="BackgroundImageFix"/>
<feBlend mode="normal" in="SourceGraphic" in2="BackgroundImageFix" result="shape"/>
<feGaussianBlur stdDeviation="31.1377" result="effect1_foregroundBlur_7285_32"/>
</filter>
</defs>
</svg>
