<svg width="260" height="260" viewBox="0 0 260 260" fill="none" xmlns="http://www.w3.org/2000/svg">
<path fill-rule="evenodd" clip-rule="evenodd" d="M127.039 51.3891C130.85 52.5468 133.447 56.0723 133.423 60.0557L132.762 168.206L207.49 55.0413C209.685 51.7172 213.804 50.2315 217.615 51.3891C221.427 52.5467 224.024 56.0722 224 60.0555L223.153 199.056C223.123 204.026 219.069 208.031 214.099 208.001C209.128 207.97 205.123 203.916 205.154 198.946L205.816 90.2418L131.087 203.408C128.892 206.732 124.773 208.218 120.961 207.06C117.15 205.902 114.553 202.377 114.577 198.393L115.238 90.2429L40.5103 203.408C37.7713 207.556 32.1885 208.698 28.0406 205.959C23.8928 203.22 22.7507 197.637 25.4897 193.489L116.913 55.0413C119.108 51.7172 123.227 50.2315 127.039 51.3891Z" fill="#6D6D6D"/>
</svg>
