<svg width="260" height="260" viewBox="0 0 260 260" fill="none" xmlns="http://www.w3.org/2000/svg">
<path fill-rule="evenodd" clip-rule="evenodd" d="M132.039 19.3891C135.85 20.5468 138.447 24.0723 138.423 28.0557L137.762 136.206L212.49 23.0413C214.685 19.7172 218.804 18.2315 222.615 19.3891C226.427 20.5467 229.024 24.0722 229 28.0555L228.153 167.056C228.123 172.026 224.069 176.031 219.099 176.001C214.128 175.97 210.123 171.916 210.154 166.946L210.816 58.2418L136.087 171.408C133.892 174.732 129.773 176.218 125.961 175.06C122.15 173.902 119.553 170.377 119.577 166.393L120.238 58.2429L45.5103 171.408C42.7713 175.556 37.1885 176.698 33.0406 173.959C28.8928 171.22 27.7507 165.637 30.4897 161.489L121.913 23.0413C124.108 19.7172 128.227 18.2315 132.039 19.3891Z" fill="#6D6D6D"/>
<path d="M10 231.5C10 217.969 20.969 207 34.5 207H226.5C240.031 207 251 217.969 251 231.5V231.5C251 245.031 240.031 256 226.5 256H34.5C20.969 256 10 245.031 10 231.5V231.5Z" fill="#00C868"/>
</svg>
