<svg width="260" height="260" viewBox="0 0 260 260" fill="none" xmlns="http://www.w3.org/2000/svg">
<path d="M23.0287 57.7328L118.769 2.6688C124.879 -0.845816 132.389 -0.883774 138.535 2.56889L236.796 57.7682C243.099 61.309 247 67.9757 247 75.2052V184.796C247 192.026 243.099 198.693 236.796 202.233L138.535 257.433C132.389 260.885 124.879 260.847 118.769 257.333L23.0287 202.269C16.8245 198.7 13 192.089 13 184.932V75.0699C13 67.9127 16.8245 61.3011 23.0287 57.7328Z" fill="#DADADA"/>
<path fill-rule="evenodd" clip-rule="evenodd" d="M140.982 53.0044C133.641 48.9097 124.692 48.9548 117.391 53.1232L68.0994 81.2691C60.6178 85.5412 56 93.4955 56 102.111V157.889C56 166.505 60.6178 174.459 68.0993 178.731L117.391 206.877C124.692 211.045 133.641 211.09 140.982 206.996L191.69 178.715C199.29 174.476 204 166.456 204 157.754V102.246C204 93.5441 199.29 85.524 191.69 81.2854L140.982 53.0044ZM121.358 60.0704C126.225 57.2915 132.191 57.2614 137.086 59.9912L187.793 88.2722C192.86 91.0979 196 96.4447 196 102.246V157.754C196 163.555 192.86 168.902 187.793 171.728L137.086 200.009C132.191 202.739 126.225 202.709 121.358 199.93L72.0662 171.784C67.0785 168.936 64 163.633 64 157.889V102.111C64 96.3673 67.0785 91.0644 72.0662 88.2164L121.358 60.0704Z" fill="white"/>
<path fill-rule="evenodd" clip-rule="evenodd" d="M23.0287 57.7328L118.769 2.6688C124.879 -0.845816 132.389 -0.883774 138.535 2.56889L236.796 57.7682C243.099 61.309 247 67.9757 247 75.2052V184.796C247 192.026 243.099 198.693 236.796 202.233L138.535 257.433C132.389 260.885 124.879 260.847 118.769 257.333L23.0287 202.269C16.8245 198.7 13 192.089 13 184.932V75.0699C13 67.9127 16.8245 61.3011 23.0287 57.7328ZM27.0172 64.6677L122.757 9.60363C126.424 7.49485 130.929 7.47208 134.617 9.54368L232.877 64.743C236.659 66.8675 239 70.8675 239 75.2052V184.796C239 189.134 236.659 193.134 232.877 195.259L134.617 250.458C130.929 252.529 126.424 252.507 122.757 250.398L27.0172 195.334C23.2947 193.193 21 189.226 21 184.932V75.0699C21 70.7756 23.2947 66.8086 27.0172 64.6677Z" fill="white"/>
</svg>
