<svg width="260" height="260" viewBox="0 0 260 260" fill="none" xmlns="http://www.w3.org/2000/svg">
<path d="M122.423 34.0557C122.447 30.0723 119.85 26.5468 116.039 25.3891C112.227 24.2315 108.108 25.7172 105.913 29.0413L14.4897 167.489C11.7507 171.637 12.8928 177.22 17.0406 179.959C21.1885 182.698 26.7713 181.556 29.5103 177.408L104.238 64.2429L103.577 172.393C103.553 176.377 106.15 179.902 109.961 181.06C113.773 182.218 117.892 180.732 120.087 177.408L194.816 64.2418L194.419 129.389C196.911 129.132 199.44 129 202 129C205.537 129 209.015 129.252 212.417 129.738L213 34.0555C213.024 30.0722 210.427 26.5467 206.615 25.3891C202.804 24.2315 198.685 25.7172 196.49 29.0413L121.762 142.206L122.423 34.0557Z" fill="#6D6D6D"/>
<path d="M260 202C260 234.033 234.033 260 202 260C169.967 260 144 234.033 144 202C144 169.967 169.967 144 202 144C234.033 144 260 169.967 260 202Z" fill="#00C868"/>
</svg>
