<svg width="260" height="260" viewBox="0 0 260 260" fill="none" xmlns="http://www.w3.org/2000/svg">
<path fill-rule="evenodd" clip-rule="evenodd" d="M141.808 10.3081C133.84 5.8517 124.118 5.90073 116.196 10.4373L31.0801 59.1762C22.9906 63.8085 18 72.417 18 81.739V178.8C18 188.122 22.9906 196.731 31.0801 201.363L116.196 250.102C124.118 254.638 133.84 254.687 141.808 250.231L229.192 201.357C237.409 196.761 242.5 188.081 242.5 178.665V81.8741C242.5 72.4584 237.409 63.7784 229.192 59.1822L141.808 10.3081ZM135 20.2965C135.321 20.4453 135.638 20.6069 135.95 20.7813L223.334 69.6554C223.621 69.816 223.901 69.9859 224.174 70.1645L135 120.04V20.2965ZM123 20.4064C122.716 20.5444 122.435 20.6925 122.159 20.8508L37.0432 69.5898C36.7253 69.7718 36.4164 69.9652 36.1168 70.1693L123 119.92V20.4064ZM30.0526 80.5249C30.0177 80.9265 30 81.3315 30 81.739V178.8C30 179.208 30.0177 179.613 30.0527 180.015L116.926 130.27L30.0526 80.5249ZM36.1177 190.37C36.417 190.574 36.7257 190.767 37.0432 190.949L122.159 239.688C122.435 239.846 122.716 239.995 123 240.133V140.62L36.1177 190.37ZM135 240.243C135.321 240.094 135.638 239.932 135.95 239.758L223.334 190.884C223.621 190.723 223.901 190.554 224.173 190.375L135 140.501V240.243ZM230.424 180.122C230.474 179.641 230.5 179.155 230.5 178.665V81.8741C230.5 81.3845 230.474 80.8986 230.424 80.418L141.292 130.27L230.424 180.122Z" fill="#6D6D6D"/>
</svg>
