<svg width="260" height="260" viewBox="0 0 260 260" fill="none" xmlns="http://www.w3.org/2000/svg">
<path d="M260 202C260 234.033 234.033 260 202 260C169.967 260 144 234.033 144 202C144 169.967 169.967 144 202 144C234.033 144 260 169.967 260 202Z" fill="#00C868"/>
<path fill-rule="evenodd" clip-rule="evenodd" d="M99.196 10.4177C107.118 5.8812 116.84 5.83217 124.808 10.2886L212.192 59.1627C220.409 63.7589 225.5 72.4389 225.5 81.8546V132.865C221.635 131.552 217.625 130.553 213.5 129.901V81.8546C213.5 81.365 213.474 80.8791 213.424 80.3984L124.292 130.251L154.092 146.918C150.966 149.64 148.074 152.623 145.449 155.833L118 140.481V240.223C118.321 240.074 118.638 239.913 118.95 239.738L134.907 230.814C136.498 234.514 138.386 238.057 140.542 241.411L124.808 250.211C116.84 254.668 107.118 254.619 99.196 250.082L14.0801 201.343C5.99058 196.711 1 188.102 1 178.781V81.7195C1 72.3975 5.99059 63.7889 14.0801 59.1567L99.196 10.4177ZM118.95 20.7618C118.638 20.5873 118.321 20.4257 118 20.2769V120.02L207.174 70.145C206.901 69.9663 206.621 69.7965 206.334 69.6359L118.95 20.7618ZM105.159 20.8313C105.435 20.673 105.716 20.5249 106 20.3869V119.901L19.1168 70.1497C19.4164 69.9456 19.7253 69.7523 20.0432 69.5703L105.159 20.8313ZM13 81.7195C13 81.3119 13.0177 80.9069 13.0526 80.5054L99.9256 130.251L13.0527 179.996C13.0177 179.594 13 179.188 13 178.781V81.7195ZM20.0432 190.93C19.7257 190.748 19.417 190.555 19.1177 190.351L106 140.6V240.113C105.716 239.975 105.435 239.827 105.159 239.669L20.0432 190.93Z" fill="#6D6D6D"/>
</svg>
