<svg width="260" height="260" viewBox="0 0 260 260" fill="none" xmlns="http://www.w3.org/2000/svg">
<path d="M250 130C250 196.274 196.274 250 130 250C63.7258 250 10 196.274 10 130C10 63.7258 63.7258 10 130 10C196.274 10 250 63.7258 250 130Z" fill="#0500FF"/>
<path fill-rule="evenodd" clip-rule="evenodd" d="M93 89.3149C93 79.2293 103.986 72.985 112.651 78.1454L180.97 118.83C189.435 123.87 189.435 136.128 180.97 141.169L112.651 181.853C103.986 187.013 93 180.769 93 170.683V89.3149ZM106.512 88.4557C105.845 88.0587 105 88.5391 105 89.3149V170.683C105 171.459 105.845 171.94 106.512 171.543L174.831 130.858C175.482 130.471 175.482 129.528 174.831 129.14L106.512 88.4557Z" fill="white"/>
</svg>
