<svg width="260" height="260" viewBox="0 0 260 260" fill="none" xmlns="http://www.w3.org/2000/svg">
<path d="M250 130C250 196.274 196.274 250 130 250C63.7258 250 10 196.274 10 130C10 63.7258 63.7258 10 130 10C196.274 10 250 63.7258 250 130Z" fill="#00C868"/>
<path fill-rule="evenodd" clip-rule="evenodd" d="M176.183 92.4148C178.992 94.1727 179.844 97.875 178.086 100.684L132.086 174.184C131.129 175.714 129.534 176.731 127.743 176.955C125.953 177.178 124.157 176.584 122.853 175.337L88.3527 142.337C85.958 140.046 85.8736 136.248 88.1642 133.853C90.4547 131.459 94.2527 131.374 96.6473 133.665L125.823 161.572L167.914 94.3177C169.672 91.5088 173.374 90.6568 176.183 92.4148Z" fill="white"/>
</svg>
