<svg width="260" height="260" viewBox="0 0 260 260" fill="none" xmlns="http://www.w3.org/2000/svg">
<path d="M16.5287 122.617L122.745 10.6471C126.689 6.49004 133.312 6.49004 137.255 10.6471L243.472 122.617C247.132 126.475 247.132 132.523 243.472 136.381L137.255 248.351C133.312 252.508 126.689 252.508 122.745 248.351L16.5287 136.381C12.8687 132.523 12.8687 126.475 16.5287 122.617Z" fill="#FF3B3B"/>
<path d="M136 74.5C136 71.1863 133.314 68.5 130 68.5C126.686 68.5 124 71.1863 124 74.5V141.5C124 144.814 126.686 147.5 130 147.5C133.314 147.5 136 144.814 136 141.5V74.5Z" fill="white"/>
<path d="M136 173.5C136 170.186 133.314 167.5 130 167.5C126.686 167.5 124 170.186 124 173.5V184C124 187.314 126.686 190 130 190C133.314 190 136 187.314 136 184V173.5Z" fill="white"/>
</svg>
