<svg width="260" height="260" viewBox="0 0 260 260" fill="none" xmlns="http://www.w3.org/2000/svg">
<path d="M155.343 165.657C152.219 162.533 152.219 157.467 155.343 154.343C158.467 151.219 163.533 151.219 166.657 154.343L205 192.686L243.343 154.343C246.467 151.219 251.533 151.219 254.657 154.343C257.781 157.467 257.781 162.533 254.657 165.657L216.314 204L254.657 242.343C257.781 245.467 257.781 250.533 254.657 253.657C251.533 256.781 246.467 256.781 243.343 253.657L205 215.314L166.657 253.657C163.533 256.781 158.467 256.781 155.343 253.657C152.219 250.533 152.219 245.467 155.343 242.343L193.686 204L155.343 165.657Z" fill="#FF3B3B"/>
<path d="M122.423 34.0557C122.447 30.0723 119.85 26.5468 116.039 25.3891C112.227 24.2315 108.108 25.7172 105.913 29.0413L14.4897 167.489C11.7507 171.637 12.8928 177.22 17.0406 179.959C21.1885 182.698 26.7713 181.556 29.5103 177.408L104.238 64.2429L103.577 172.393C103.553 176.377 106.15 179.902 109.961 181.06C113.773 182.218 117.892 180.732 120.087 177.408L194.816 64.2418L194.419 132C194.419 132 195.336 140 203.418 140C211.5 140 212.417 132 212.417 132L213 34.0555C213.024 30.0722 210.427 26.5467 206.615 25.3891C202.804 24.2315 198.685 25.7172 196.49 29.0413L121.762 142.206L122.423 34.0557Z" fill="#6D6D6D"/>
</svg>
