<svg xmlns="http://www.w3.org/2000/svg" width="40" height="40" fill="none"><rect width="40" height="40" fill="url(#a)" rx="6.788"/><g filter="url(#b)"><path fill="url(#c)" d="M34.673 12.123H20.217v-.221c0-.903.367-1.775 1-2.411a3.468 3.468 0 0 1 2.426-1.006h11.03v3.639z"/><path fill="url(#d)" d="M5.759 12.124h14.456v.221a3.39 3.39 0 0 1-1.015 2.412 3.453 3.453 0 0 1-2.426.99H5.759v-3.623z"/><path fill="url(#e)" d="M34.672 26.664H5.759v3.639h28.913v-3.639z"/><path fill="url(#f)" d="M34.673 19.387H20.216v-.222c0-.903.368-1.775 1-2.411a3.468 3.468 0 0 1 2.427-1.006h11.03v3.639z"/><path fill="url(#g)" d="M5.758 19.387h14.457v.222c0 .902-.368 1.775-1.015 2.41a3.454 3.454 0 0 1-2.427.992H5.758v-3.624z"/></g><defs><linearGradient id="a" x1="37.273" x2="-2.016" y1="2.424" y2="41.75" gradientUnits="userSpaceOnUse"><stop stop-color="#5951FF"/><stop offset="1" stop-color="#1C184D"/></linearGradient><linearGradient id="c" x1="34.242" x2="30.007" y1="8.582" y2="18.433" gradientUnits="userSpaceOnUse"><stop stop-color="#fff"/><stop offset=".29" stop-color="#fff"/><stop offset="1" stop-color="#5951FF"/></linearGradient><linearGradient id="d" x1="19.784" x2="15.578" y1="12.221" y2="22.044" gradientUnits="userSpaceOnUse"><stop stop-color="#fff"/><stop offset=".29" stop-color="#fff"/><stop offset="1" stop-color="#5951FF"/></linearGradient><linearGradient id="e" x1="33.81" x2="31.412" y1="26.762" y2="37.918" gradientUnits="userSpaceOnUse"><stop stop-color="#fff"/><stop offset=".29" stop-color="#fff"/><stop offset="1" stop-color="#5951FF"/></linearGradient><linearGradient id="f" x1="34.242" x2="30.006" y1="15.845" y2="25.697" gradientUnits="userSpaceOnUse"><stop stop-color="#fff"/><stop offset=".29" stop-color="#fff"/><stop offset="1" stop-color="#5951FF"/></linearGradient><linearGradient id="g" x1="19.784" x2="15.578" y1="19.484" y2="29.308" gradientUnits="userSpaceOnUse"><stop stop-color="#fff"/><stop offset=".29" stop-color="#fff"/><stop offset="1" stop-color="#5951FF"/></linearGradient><filter id="b" width="30.854" height="23.758" x="4.789" y="8.485" color-interpolation-filters="sRGB" filterUnits="userSpaceOnUse"><feFlood flood-opacity="0" result="BackgroundImageFix"/><feColorMatrix in="SourceAlpha" result="hardAlpha" values="0 0 0 0 0 0 0 0 0 0 0 0 0 0 0 0 0 0 127 0"/><feOffset dy=".97"/><feGaussianBlur stdDeviation=".485"/><feComposite in2="hardAlpha" operator="out"/><feColorMatrix values="0 0 0 0 0.109804 0 0 0 0 0.0941176 0 0 0 0 0.301961 0 0 0 0.9 0"/><feBlend in2="BackgroundImageFix" result="effect1_dropShadow_28_226"/><feBlend in="SourceGraphic" in2="effect1_dropShadow_28_226" result="shape"/><feColorMatrix in="SourceAlpha" result="hardAlpha" values="0 0 0 0 0 0 0 0 0 0 0 0 0 0 0 0 0 0 127 0"/><feOffset dy=".97"/><feGaussianBlur stdDeviation=".485"/><feComposite in2="hardAlpha" k2="-1" k3="1" operator="arithmetic"/><feColorMatrix values="0 0 0 0 0.847059 0 0 0 0 0.870588 0 0 0 0 0.992157 0 0 0 1 0"/><feBlend in2="shape" result="effect2_innerShadow_28_226"/></filter></defs></svg>