<?xml version="1.0" encoding="utf-8"?>
<!-- Generator: Adobe Illustrator 16.0.0, SVG Export Plug-In . SVG Version: 6.00 Build 0)  -->
<!DOCTYPE svg PUBLIC "-//W3C//DTD SVG 1.1//EN" "http://www.w3.org/Graphics/SVG/1.1/DTD/svg11.dtd">
<svg version="1.1" id="Layer_1" xmlns="http://www.w3.org/2000/svg" xmlns:xlink="http://www.w3.org/1999/xlink" x="0px" y="0px"
	 width="2200px" height="2250px" viewBox="7201.628 -1242.985 2200 2250" enable-background="new 7201.628 -1242.985 2200 2250"
	 xml:space="preserve">
<g id="Layer_x0020_1">
	<g id="_510868992">
		<path d="M8223.579,371.799c-10.385-44.545-39.03-65.671-83.933-80.28c-19.551-6.302-38.242-7.52-58.437-9.668
			c-40.678,20.339-81.283,41.25-120.169,64.597c-60.515,36.38-95.319,66.243-141.224,118.092
			c-12.246-62.662-5.586-113.938,24.778-182.044c50.273-112.792,136.067-165.357,253.443-196.581
			c39.173-10.455,83.001-23.99,118.951-43.326c7.09-3.796,22.272-12.533,27.643-19.05c12.748-17.188,8.236-36.953-1.933-81.139
			h-5.371c-64.096-0.071-122.533,9.31-175.098,48.053c-34.375,25.423-63.951,60.515-92.669,92.024
			c-18.548,20.481-37.382,40.534-57.22,59.727c-23.99,23.131-49.127,44.902-75.553,65.169
			c-38.601,29.577-86.367,48.411-134.205,55.931c-53.567,8.379-110.572,2.937-159.485-21.27
			c-40.964-20.195-72.616-51.849-93.17-92.597c-2.864-5.658-5.515-11.387-8.093-17.188c-17.688-40.462-28.932-85.007-35.879-128.548
			c-4.583-28.431-6.588-54.355-7.806-82.93c45.905,5.586,76.484,7.377,119.31-16.614c28.072-15.755,52.278-38.027,78.99-56.002
			c69.322-46.478,104.986-33.086,179.322-17.617c-42.109,11.816-61.517,62.232-69.681,130.123
			c-6.374,52.994,3.008,99.615,56.504,121.601c9.167-10.313,18.262-20.625,27.285-30.794c30.937-34.733,62.161-68.606,96.822-99.759
			c39.89-35.807,83.001-66.816,130.696-91.451c60.657-31.296,136.568-34.017,203.527-26.569c-0.716-7.161-1.289-14.322-1.861-21.341
			c-2.65-37.024-3.438-75.84-2.292-113.007l3.509-58.366c15.898,35.664,13.178,36.523,18.549-7.806
			c2.649-21.413,5.442-42.754,8.951-64.023c1.647-10.169,3.509-20.267,5.515-30.364c21.842-109.498,25.279-57.936,25.279-130.267
			c-1.074-21.771,6.374-43.685,23.489-53.639l2.363-9.812c2.722-11.458,8.594-24.205,16.257-33.086
			c9.167-10.599,21.556-16.471,35.449-15.325l6.731-5.801c11.172-9.739,28.002-15.11,42.539-10.957
			c22.701,6.374,29.361,34.231,28.359,55.358c7.52,2.793,14.036,7.447,18.834,14.107c9.238,12.891,9.668,29.505,4.799,44.114
			c-5.3,16.113-16.615,29.863-30.365,39.603c-4.512,3.151-14.179,58.08-15.396,66.673c-2.363,16.83-4.082,33.874-5.228,50.99
			c3.079-1.791,6.158-3.51,9.381-5.014c3.867-1.934,7.806-3.795,11.745-5.514c24.42-10.957,52.135-20.625,78.06-27.5l50.56-13.32
			c13.177-6.087,26.641-11.53,40.318-16.328c19.694-6.731,41.608-13.679,63.881-19.121l10.813-14.753
			c32.656-44.329,77.057-87.083,127.401-110.644c15.827-7.376,34.59-13.894,52.136-14.753c15.182-0.716,32.011,3.223,39.315,17.976
			c2.937,6.087,4.44,12.532,3.939,19.264c-1.003,14.896-11.816,27.715-19.766,39.746c-11.53,17.402-18.906,34.231-23.704,54.642
			c-7.878,33.516-20.267,66.53-37.239,96.536c-6.445,11.387-14.824,24.778-23.49,34.733l-9.668,11.028
			c0.717,1.575,1.361,3.151,2.006,4.727c4.297,10.313,8.809,20.481,13.32,30.651c11.458,25.709,23.06,51.275,34.088,77.128
			c8.952,20.84,17.617,41.966,25.352,63.308c6.445,17.76,12.747,36.737,16.256,55.357c3.939,21.055,1.289,41.895-7.447,61.445
			c-11.888,26.641-35.306,49.844-62.232,65.455c4.941,11.028,2.864,23.991-8.308,34.017c1.289,1.862,2.363,3.939,3.151,5.944
			c3.223,8.235,2.506,16.471-0.645,23.99l1.575,6.518c9.739,39.173,14.466,78.704,9.954,119.022
			c-0.859,7.376-2.005,14.538-3.365,21.628c8.379,0.501,16.758,0.143,24.993-1.146c11.101-1.646,22.486-3.724,33.229-6.875
			c0.788-0.215,1.576-0.43,2.435-0.716c-4.726-9.524-7.662-19.837-8.45-30.794c-1.146-14.466,1.719-27.571,9.739-39.746
			c23.061-34.661,69.538-23.919,55.788,18.118c5.3-1.79,11.745-3.866,17.474-6.588c-2.22-1.79-4.153-3.938-5.729-6.445
			c-7.663-12.317-2.865-27.285,5.299-37.956c8.451-10.885,20.983-18.691,34.519-21.27c13.249-2.435,26.712,0,36.81,9.238
			c15.469,14.108,16.256,36.596,9.811,55.287c16.186,18.189,6.303,47.122-4.869,65.168l-0.573,0.859
			c3.366,10.886,1.79,24.492-5.943,38.386c-15.827,28.288-70.039,61.087-97.683,79.778c-12.103,8.235-26.497,14.466-40.104,19.693
			c-1.433,0.502-2.793,1.003-4.226,1.504l-46.549,22.631c-7.019,3.438-15.183,6.302-23.562,8.594
			c12.246,8.092,22.416,19.049,28.861,33.73c8.88,19.98,17.33,40.175,25.709,60.37c11.673,28.216,23.131,56.647,34.375,85.078
			c26.497,67.031-26.211,112.362-88.014,120.384c11.172,22.415,24.85,43.541,36.021,66.1
			c61.087,122.962,14.538,241.627-73.978,130.338c-9.524-11.888-19.622-23.346-29.434-35.02
			c-11.816-13.965-23.418-28.072-34.16-42.969c-12.174-16.829-23.561-34.947-31.725-54.068c-3.724-8.736-6.875-17.76-8.952-26.927
			c-9.166,2.722-18.333,5.442-27.5,8.164c-82.428,24.492-106.418,74.479-210.832,74.479c-4.226,29.505-8.88,58.938-14.18,88.229
			c-5.228,29.361-15.182,92.812-28.789,118.234c-17.259,32.084-50.918,39.316-86.08,11.459
			c-33.802-26.784-43.398-82.715-42.969-122.317c0.286-31.582,5.515-64.095,10.886-95.247
			c-50.989-7.448-99.473-29.863-131.484-71.328c-10.456-13.535-19.264-29.505-23.848-46.119
			c-12.103-43.757,22.487-80.566,44.473-114.583c25.781-39.89,48.77-81.927,68.464-125.038
			C8216.919,389.129,8220.428,380.535,8223.579,371.799z"/>
		<path fill="#4E32BC" d="M7828.697,429.161c0,0-10.742-45.618,31.224-139.791c42.038-94.244,111.575-152.395,242.415-187.199
			c130.839-34.805,155.689-68.464,155.689-68.464s-22.2,37.813,5.37,28.217c27.644-9.597,82.214-60.873,114.655-115.514
			c32.369-54.57,54.569-97.468,54.569-97.468s11.674,20.052,19.193,38.672c7.52,18.691,10.24,27.644,10.24,27.644
			s8.666,99.257-137.141,210.259C8179.106,236.52,7940.345,303.12,7828.697,429.161z"/>
		<path fill="#A698DD" d="M8280.297,53.115c29.362-19.05,71.042-61.731,97.754-106.705c21.27-35.808,38.099-66.674,47.193-83.574
			C8399.606-9.404,8280.297,53.115,8280.297,53.115L8280.297,53.115z"/>
		<path fill="#392589" d="M8428.825-143.896c2.506-4.583,3.795-7.161,3.795-7.161s11.674,20.052,19.193,38.672
			c7.52,18.691,10.24,27.644,10.24,27.644s4.297,49.915-45.117,118.593C8452.314-48.004,8439.065-113.604,8428.825-143.896z"/>
		<path fill="#A698DD" d="M7828.697,429.161c0,0-10.742-45.618,31.224-139.791c42.038-94.244,111.575-152.395,242.415-187.199
			c130.839-34.805,155.689-68.464,155.689-68.464c-44.831,64.597-191.497,71.901-288.177,137.643
			C7854.12,250.197,7828.697,429.161,7828.697,429.161z"/>
		<path fill="#25185A" d="M8108.279,267.814c11.673,1.218,23.991,3.652,36.523,7.734c70.325,22.773,88.372,73.189,88.372,73.189
			s23.991-89.231,16.901-154.687C8205.174,219.762,8156.619,243.752,8108.279,267.814z"/>
		<path fill="#A698DD" d="M8265.544,184.313c0,0,11.315,114.01-37.238,220.214c-48.483,106.204-103.197,175.24-103.197,175.24
			s42.611-11.459,112.793,75.553c70.254,87.012,220.214,120.599,341.457,22.2c121.171-98.397,191.354-133.202,235.754-140.363
			c44.401-7.233,64.238,7.806,64.238,7.806s-41.393-106.204-69.609-169.798c-28.216-63.594-147.597-40.247-147.597-40.247
			s19.192-11.101,38.958-14.108c19.837-3.008,34.805-0.572,34.805-0.572s-20.697-39.03-18.262-101.406
			c1.79-47.48,9.524-89.518,8.951-137.428c0,0-37.453,43.255-125.683,13.822c-88.157-29.362-128.978-155.403-128.978-155.403
			S8468.356,73.023,8265.544,184.313z"/>
		<path fill="#867BB3" d="M8390.512,736.028c61.158,6.732,128.548-9.596,188.847-58.509c51.275-41.68,93.457-71.9,128.404-93.528
			c10.098-26.783,17.259-53.925,18.906-79.205c7.09-111.575-50.56-198.014-130.553-13.177
			C8537.679,626.745,8475.374,699.004,8390.512,736.028z"/>
		<path fill="#CCC1F4" d="M8862.163,537.872c11.673,2.937,17.188,7.09,17.188,7.09s-41.393-106.204-69.609-169.798
			c-23.704-53.353-111.432-45.547-139.146-41.607c0.645,0,90.95-5.515,123.606,38.027
			C8816.76,401.662,8833.446,487.455,8862.163,537.872z"/>
		<path fill="#867BB3" d="M8265.544,184.313c0,0,3.151,32.012-1.074,77.916c14.682-13.033,29.147-23.561,43.041-30.794
			C8450.954,156.955,8473.87-2.673,8473.87-2.673s44.401,108.281,127.188,114.654c23.489,1.791,42.109-1.217,56.79-6.517
			c-15.898-0.071-34.805-2.864-56.934-10.24c-88.157-29.362-128.978-155.403-128.978-155.403S8468.356,73.023,8265.544,184.313z
			 M8721.942,276.122c-3.08-15.612-5.156-34.948-4.297-57.292c1.79-47.48,9.524-89.518,8.951-137.428c0,0-4.941,5.729-15.468,11.602
			c1.575,18.835,1.575,46.979-4.44,83.86C8700.673,213.459,8710.556,249.338,8721.942,276.122z"/>
		<path fill="#25185A" d="M8116.157,606.406c-11.745,19.408,20.553,114.44,142.655,131.771l7.448-38.241l0,0
			C8205.389,649.089,8140.147,566.732,8116.157,606.406z M8622.613,663.698c10.313-3.008,20.052-5.944,29.219-8.665
			c-0.215-5.085,0-10.098,0.43-14.968C8642.235,647.729,8632.353,655.605,8622.613,663.698L8622.613,663.698z M8795.705,617.436
			c0.501-0.072,0.931-0.144,1.433-0.215c57.005-7.162,105.631-62.663,46.191-67.174c-13.249-1.003-29.291,1.79-47.123,7.662
			c-1.146,7.305-2.22,15.612-3.294,24.707C8791.479,595.307,8793.056,607.338,8795.705,617.436z"/>
		<path fill="#EEEAFF" d="M8280.655,711.321c-8.594,42.539-18.978,101.478-19.336,138.718
			c-0.501,52.779,15.97,100.26,46.334,115.155c-42.324-50.059-22.2-119.954-22.2-119.954c-1.146,24.277,4.512,114.512,47.552,124.18
			c-10.957-25.566-19.264-68.965,8.737-124.824c0,0-12.461,51.92-6.159,91.38c17.116,107.564,50.99-90.592,64.238-183.333
			C8327.706,749.206,8280.727,711.321,8280.655,711.321z"/>
		<path fill="#CCC1F4" d="M8280.655,711.321c-2.436,12.104-5.014,25.495-7.448,39.316c14.323,10.527,29.147,19.837,41.966,24.778
			c40.82,15.612,56.433,20.124,50.417,64.955c-5.156,38.6-15.325,104.914-28.431,104.198
			c17.474,87.584,49.771-101.835,62.662-191.927C8327.706,749.206,8280.727,711.321,8280.655,711.321z M8274.425,925.448
			c7.806,18.548,18.978,32.728,33.229,39.746c-8.379-9.954-14.322-20.625-18.404-31.367
			C8286.527,934.113,8281.872,931.822,8274.425,925.448z M8296.696,926.594c7.162,21.127,18.549,38.887,36.309,42.826
			c-2.578-5.944-4.941-12.891-6.803-20.769C8318.324,946.217,8306.293,940.487,8296.696,926.594z"/>
		<path fill="#EEEAFF" d="M8774.507,565.873c-3.365,24.277-3.867,51.92,5.658,71.9c20.982,43.828,52.779,80.423,66.028,154.83
			c0.286,1.862,0.645,3.725,0.859,5.515c-13.392-47.91-34.446-60.586-34.446-60.586c13.392,19.909,56.002,97.396,20.338,114.297
			c6.088-20.696,3.151-61.302-51.563-101.836c56.146,66.602,55.859,151.751-9.095,70.183
			c-37.168-46.693-117.018-123.678-101.979-193.431C8671.097,626.172,8733.329,581.843,8774.507,565.873L8774.507,565.873z"/>
		<path fill="#CCC1F4" d="M8774.507,565.873c-1.217,9.095-2.148,18.691-2.22,28.145c-22.559,9.668-47.409,22.988-64.095,39.817
			c-37.598,37.741,53.711,157.767,82.213,181.185c16.615,13.678,27.143,18.189,31.152,14.681
			c4.44,28.933-11.458,37.956-49.271-9.524c-37.168-46.693-117.018-123.678-101.979-193.431
			C8671.097,626.172,8733.329,581.843,8774.507,565.873L8774.507,565.873z M8840.321,765.963c2.22,8.308,4.153,17.188,5.872,26.641
			c0.286,1.862,0.645,3.725,0.859,5.515c-3.079-11.028-6.517-20.124-10.098-27.644
			C8837.958,769.4,8839.175,767.896,8840.321,765.963z M8845.334,811.367c3.509,18.047,1.504,33.873-12.39,40.462
			c2.793-9.453,3.652-22.988-1.36-38.815c3.366,2.363,6.804,3.366,10.098,2.006C8843.4,814.231,8844.618,813.014,8845.334,811.367z"
			/>
		<path fill="#4E32BC" d="M8741.35,69.014c0,0,0.573,74.264-4.798,125.038c-5.443,50.703-2.363,80.137,4.798,97.825
			s15.612,31.51,15.612,31.51c-6.016-106.633,60.943-144.23,23.99-293.117C8780.952,30.27,8763.335,49.176,8741.35,69.014z"/>
		<path fill="#A698DD" d="M8777.587,202.932c12.891-43.971,23.346-91.952,3.365-172.662c0,0-3.652,3.867-9.596,9.955
			C8780.38,71.019,8791.694,129.599,8777.587,202.932z"/>
		<path fill="#EEEAFF" d="M8798.713,183.381c9.238,0.859,20.267,0.859,32.585-1.002c36.666-5.515,48.053-12.031,48.053-12.031
			s5.228,6.302,13.463,9.023c8.236,2.721,12.891,1.217,12.891,1.217s-30.293-18.763-32.942-54.427
			c-1.074-13.965,2.722-22.845,7.019-29.218c11.314-17.045,37.239-21.413,23.775,8.736c-3.223,7.233-5.657,14.824,2.148,18.835
			c15.898,8.092,25.495,21.27,25.495,21.27c1.003-8.451-7.878-23.49-9.597-22.344c17.761-6.445,40.104-11.745,47.338-30.508
			c4.654-1.218,14.107-9.883,13.32-17.546c-3.151,5.586-15.326,14.538-27.93,12.461c-18.047-2.864-3.725-33.014,21.842-37.813
			c25.71-4.798,37.024,18.691,26.927,44.616c0,0-21.341-7.663-39.315,13.033c-17.976,20.697-18.764,32.227-16.687,40.033
			c2.148,7.806,5.729,8.88,5.729,8.88s-17.546,10.313-18.119,25.494c-0.645,15.111,18.906,19.909,32.514,12.461
			c13.678-7.52,9.596-15.755,9.596-15.755s-10.025,10.026-23.99,10.026s-8.379-23.991,17.832-29.721
			c26.282-5.657,35.878,12.031,22.988,35.092c-12.891,23.131-62.734,54.068-92.383,74.12
			c-29.721,20.124-90.664,34.231-97.252,37.813c-6.589,3.581,8.45,4.798,8.45,4.798s-18.047,8.737-41.465,11.602
			c-0.573-9.524-0.286-23.632,2.578-43.541C8778.088,247.978,8791.337,205.653,8798.713,183.381z M8980.255,109.762
			c-11.387,9.597-22.486,23.704-21.842,31.797c0.286,4.297,2.578,8.307,6.588,9.954c4.655-1.575,10.241-2.936,15.756-3.223
			c11.959-7.52,15.755-19.049,15.755-19.049s4.225,8.235-3.938,20.481c2.864,0.931,5.585,2.435,7.948,4.583
			c12.246-19.622,13.821-37.454,6.445-45.403C9001.524,103.03,8988.563,102.815,8980.255,109.762z"/>
		<path fill="#FFFFFF" d="M8872.618,124.515c-0.645-13.034,3.08-21.413,7.162-27.571c9.883-14.968,31.009-20.124,27.07-1.003
			c-1.862-3.509-6.732-4.583-16.615,1.074C8882.286,101.598,8876.414,113.915,8872.618,124.515z M8948.101,84.625
			c-6.947-8.665,6.588-30.579,28.072-34.59c17.116-3.223,27.858,6.159,30.149,20.41c-5.156-6.158-14.681-12.604-30.579-7.662
			C8963.497,66.578,8954.331,75.745,8948.101,84.625z M8965.503,125.302c12.818-12.246,28.145-20.267,44.615-11.028
			c-0.716-2.077-1.79-3.938-3.151-5.371c-5.442-5.872-18.404-6.087-26.712,0.859
			C8974.884,114.345,8969.585,119.859,8965.503,125.302z"/>
		<path fill="#CCC1F4" d="M8969.012,193.479c11.53-7.232,7.806-14.681,7.806-14.681s-10.025,10.026-23.99,10.026
			c-0.287,0-0.573,0-0.932,0c-0.286-1.146-0.215-2.793,0.502-5.014c4.297-12.604,35.162-19.407,46.907-8.736
			c0.071,5.514-1.719,12.103-5.657,19.121c-12.891,23.131-62.734,54.068-92.383,74.12c-29.721,20.124-90.664,34.231-97.252,37.813
			c-6.589,3.581,8.45,4.798,8.45,4.798s-18.047,8.737-41.465,11.602c-0.573-9.524-0.286-23.632,2.578-43.541
			c0.215-1.36,0.43-2.722,0.645-4.153c21.27-2.65,55-9.238,101.119-25.781C8939.649,226.063,8961.922,203.791,8969.012,193.479z
			 M8966.29,151.083c6.589-10.957,26.928-41.321,45.046-30.436c0.572,9.023-2.865,20.911-10.814,33.658
			c-2.363-2.148-5.084-3.652-7.948-4.583c8.163-12.246,3.938-20.481,3.938-20.481s-3.796,11.529-15.755,19.049
			C8975.743,148.577,8970.659,149.723,8966.29,151.083z"/>
		<path fill="#FFFFFF" d="M8798.713,183.381c9.238,0.859,20.267,0.859,32.585-1.002c36.666-5.515,48.053-12.031,48.053-12.031
			s0,6.517-39.102,19.336c-15.54,5.084-31.868,7.09-46.048,7.591C8795.849,192.118,8797.353,187.392,8798.713,183.381z"/>
		<path fill="#6B50D7" d="M7415.77-60.179c0,0,4.727,113.866,49.199,202.096c68.749,136.496,257.167,132.128,361.58,52.135
			c188.775-144.661,186.913-268.625,410.78-268.481c-3.008-13.894-5.658-27.5-8.021-40.319c-43.398-6.804-86.868-8.809-124.322-1.36
			C7964.12-88.252,7827.479,61.78,7827.479,61.78c0-10.813,111.791-136.497,249.791-181.185
			c40.605-13.177,94.531-12.891,150.462-3.867c-1.647-9.166-3.079-17.832-4.44-25.853c-70.039-8.307-142.44-4.439-198.229,24.277
			c-197.584,102.051-268.911,291.685-381.561,318.898c-112.721,27.142-158.983-74.693-158.983-74.693s50.989,79.85,136.21,64.237
			c85.149-15.611,129.551-88.229,129.551-88.229c-111.79-45.977-47.409-234.608-8.379-260.39
			C7585.925-197.392,7569.955-41.416,7415.77-60.179z"/>
		<path fill="#A698DD" d="M8225.584-135.589c-0.788-4.655-1.575-9.238-2.292-13.535c-70.039-8.307-142.44-4.439-198.229,24.277
			c-197.584,102.051-268.911,291.685-381.561,318.898c-72.474,17.474-117.52-18.405-140.363-46.263l0,0
			c0,0,30.077,49.056,89.23,55.645c90.306,10.025,150.82-64.095,206.536-127.115c83.788-94.746,217.922-227.376,357.283-218.567
			C8184.979-140.387,8207.681-138.096,8225.584-135.589z"/>
		<path fill="#A698DD" d="M7744.98,103.03c3.509-4.727,5.3-7.663,5.3-7.663c-111.79-45.977-47.409-234.608-8.379-260.39
			c-64.955-13.463-105.631,5.729-142.154,31.367c15.396-6.66,31.367-13.105,44.472-17.402c37.813-12.389,72.044-8.021,72.044-8.021
			C7666.204-77.223,7653.457,77.75,7744.98,103.03z"/>
		<path fill="#4E32BC" d="M7487.313,176.649c81.067,100.26,244.634,89.876,339.236,17.402
			c188.775-144.661,186.913-268.625,410.78-268.481c-3.008-13.894-5.658-27.5-8.021-40.319c-28.574-4.512-57.22-6.875-84.146-5.872
			c-220.357,39.889-335.871,341.027-530.662,341.027C7565.3,220.406,7522.618,201.93,7487.313,176.649z"/>
		<path fill="#4E32BC" d="M8399.392-424.553c7.878-5.729,15.97-10.813,23.775-14.681c38.959-19.192,86.726-31.797,86.726-31.797
			s-21.27,14.108-50.989,44.688c-29.721,30.651-34.733,56.719-34.733,56.719s49.414-87.012,177.818-131.412
			c128.404-44.401,180.611-29.362,174.596-9.597c-6.016,19.837-31.797,56.433-18.62,97.181
			c13.249,40.82,84.004,178.248,96.608,245.422c8.379,44.473-19.05,81.354-52.852,103.77c-21.126,12.39-56.433,16.328-83.001,17.402
			c25.709-10.599,61.016-28.646,88.443-55.788c48.913-48.411,13.535-122.389-8.235-169.797
			c-21.771-47.409-70.97-134.349-61.946-176.959s34.231-63.594-25.208-48.626c-59.368,15.039-168.079,59.439-249.647,225.585
			c-11.745,23.99-20.983,45.977-28.145,66.1c-5.658-3.438-11.029-6.23-15.827-8.521c7.161-58.725,32.871-100.69,32.871-100.69
			c-18.691,19.265-31.152,41.895-39.244,65.241c-4.154-26.283-8.093-58.724-10.814-97.825
			C8399.033-375.854,8398.676-401.492,8399.392-424.553z"/>
		<path fill="#392589" d="M8824.136-82.379c-6.875,6.803-14.466,12.891-22.415,18.118c-21.198,12.39-56.433,16.328-83.001,17.402
			c25.709-10.599,61.016-28.646,88.443-55.788c48.913-48.411,13.535-122.389-8.235-169.797
			c-21.771-47.409-70.97-134.349-61.946-176.959s34.231-63.594-25.208-48.626c-59.368,15.039-168.079,59.439-249.647,225.585
			c-11.745,23.99-20.983,45.977-28.145,66.1c-4.082-2.506-8.021-4.654-11.745-6.517c5.442-25.925,31.653-121.387,138.001-211.549
			c124.466-105.56,203.313-95.533,198.443-77.701c-4.799,17.832-35.951,57.435,7.806,142.44
			c43.828,85.006,91.81,178.678,75.052,238.977C8837.671-106.871,8831.44-93.98,8824.136-82.379z M8437.347-299.442
			c-11.387,15.325-19.622,32.012-25.565,49.128c-2.148-13.535-4.226-28.789-6.159-45.69c4.011,0.717,7.806,1.146,11.243,1.003
			C8426.247-295.288,8432.835-297.222,8437.347-299.442z"/>
		<path fill="#A698DD" d="M8399.392-424.553c7.878-5.729,15.97-10.813,23.775-14.681c38.959-19.192,86.726-31.797,86.726-31.797
			s-16.257,10.742-40.176,33.874c-0.645-2.865-7.233-2.722-26.067,4.798c-20.41,8.093-34.661,17.044-44.544,24.851
			C8399.105-413.309,8399.177-419.038,8399.392-424.553z M8426.604-373.563c11.315-17.402,63.236-88.659,175.384-127.474
			c128.404-44.401,180.611-29.362,174.596-9.597c-0.358,1.289-0.859,2.65-1.433,4.154c-7.305-12.748-31.295-20.268-98.326-6.589
			C8540.901-485.281,8426.677-373.563,8426.604-373.563z"/>
		<path fill="#6B50D7" d="M8427.679-176.194c25.925,27.858,32.299,47.552,52.064,96.25
			c38.958,95.963,62.305,153.541,147.812,169.798c85.579,16.185,134.491-53.139,147.955-69.323c13.535-16.185,0-25.208,0-25.208
			s-47.409,19.622-53.997,27.285c-6.589,7.662,6.302,11.744,6.302,11.744s-24.563,4.44-15.254-15.039
			c9.238-19.479,54.57-29.361,68.965-41.679c14.395-12.318-3.008-23.132-3.008-23.132c-53.066,22.988-142.369,12.317-192.284-14.681
			c0,0,20.41,33.73,45.117,44.544c24.778,10.813,36.666,2.864,36.666,2.864s-13.535,17.832-40.462,6.445
			s-52.278-45.618-72.044-78.274c-19.837-32.728-49.199-65.742-63.594-74.693c-14.395-9.023-20.123-7.52-20.123-7.52
			s22.2,11.96,51.275,76.484c29.147,64.524,43.828,114.296,91.81,133.202s63.594,5.371,56.074-3.581
			c-7.448-9.023-19.192-13.248-19.192-13.248s30.006,5.013,33.945,23.346c3.867,18.405-43.542,18.979-76.198,3.366
			c-32.728-15.612-59.583-49.485-83.431-110.357c-10.098-25.781-17.617-47.48-34.088-72.259
			c-19.193-29.004-46.479-58.366-70.971-71.829C8421.019-201.617,8423.669-189.657,8427.679-176.194z"/>
		<path fill="#4E32BC" d="M8498.005-35.83c30.078,69.609,58.079,112.076,129.55,125.684
			c85.579,16.185,134.491-53.139,147.955-69.323c13.535-16.185,0-25.208,0-25.208s-14.251,5.872-28.145,12.461
			c10.098,1.074,18.118,7.662-1.647,33.658c-33.944,44.473-115.012,55.287-174.882,18.62
			C8548.564,46.383,8521.423,5.635,8498.005-35.83z M8710.412,27.047c0-2.005,0.645-4.583,2.148-7.734
			c9.238-19.479,54.57-29.361,68.965-41.679c6.589-5.658,6.517-10.957,4.512-15.111c-5.944,6.875-17.331,16.257-38.528,23.991
			C8709.123,0.55,8710.412,27.047,8710.412,27.047L8710.412,27.047z M8553.004-23.369c15.397,31.295,32.37,54.642,61.875,66.243
			c47.981,18.906,63.594,5.371,56.074-3.581c-1.074-1.36-2.292-2.578-3.509-3.724C8613.304,16.448,8595.829,35.354,8553.004-23.369z
			"/>
		<path fill="#A698DD" d="M8774.292-43.779c-53.496,20.696-139.433,9.883-188.059-16.399c0,0,2.578,4.297,7.018,10.241
			c14.824,9.022,52.494,27.356,111.934,26.568C8742.854-23.87,8763.264-33.682,8774.292-43.779z M8630.992-5.036
			c-1.074-0.357-2.22-0.787-3.438-1.289c-26.927-11.387-52.278-45.618-72.044-78.274c-19.837-32.728-49.199-65.742-63.594-74.693
			c-14.395-9.023-20.123-7.52-20.123-7.52s6.66,3.581,17.474,17.474c9.883,6.302,37.454,29.792,62.591,75.911
			C8579-23.799,8611.942-5.537,8630.992-5.036z M8629.847,60.062c-7.019-1.79-13.965-4.226-20.339-7.305
			c-32.728-15.612-59.583-49.485-83.431-110.357c-10.098-25.781-17.617-47.48-34.088-72.259
			c-19.193-29.004-46.479-58.366-70.971-71.829c0,0,1.862,8.594,4.87,19.336c11.243,6.373,23.418,16.328,36.237,31.295
			c60.943,71.328,68.678,155.618,117.089,190.136C8598.407,52.757,8615.882,58.343,8629.847,60.062z"/>
		<path fill="#EEEAFF" d="M8622.04-444.103c20.912-5.801,43.686-11.172,60.944-12.533c42.037-3.294,28.072,10.814,17.688,18.763
			c-10.313,7.949-26.211,11.53-26.211,11.53s11.674,7.376,30.437,6.589c18.763-0.717,26.21,12.747,3.294,21.341
			c-22.988,8.522-42.181,2.722-42.181,2.722s4.655,13.177,16.543,18.834c11.816,5.729-8.093,15.039-25.352,5.443
			c-17.259-9.597-21.628-18.764-21.628-18.764s1.361,19.98,27.143,31.225c25.853,11.243,41.106-5.729,35.735-14.252
			c-5.442-8.594-7.806-11.387-7.806-11.387s46.19,19.05,57.291,84.434c11.1,65.384,16.471,82.213,27.93,105.56
			c6.66,13.75,7.877,36.523-3.652,48.053c0,0,7.305,1.36,14.752-2.864c-0.645,31.725-20.696,72.115-103.769,102.479
			c-41.536-2.291-90.95-14.036-112.292-46.764c-31.581-48.555-74.049-82.571-91.164-90.091
			c-17.116-7.52-28.789-17.903-28.789-17.903C8490.986-335.106,8569.69-408.296,8622.04-444.103z"/>
		<path fill="#CCC1F4" d="M8786.896-149.41h0.071c-0.645,31.725-20.696,72.115-103.769,102.479
			c-14.896-0.787-30.866-2.864-46.12-6.659C8692.366-63.115,8759.611-87.607,8786.896-149.41z M8488.479-178.987
			c-3.365-2.148-6.302-3.724-8.736-4.798c-17.116-7.52-28.789-17.903-28.789-17.903c16.9-56.289,40.677-101.836,66.458-138.431
			C8498.22-290.275,8482.536-230.979,8488.479-178.987z"/>
		<path fill="#FFFFFF" d="M8654.124-452.052c10.384-2.221,20.338-3.867,28.86-4.584c42.037-3.294,28.072,10.814,17.688,18.763
			c-2.507,1.934-5.371,3.652-8.307,5.085c2.792-3.867,4.869-8.45,3.294-12.174C8693.655-449.617,8672.386-451.407,8654.124-452.052z
			 M8698.166-364.539c1.647-3.008,1.862-6.23,0.287-8.666c-5.442-8.594-7.806-11.387-7.806-11.387s46.19,19.05,57.291,84.434
			c11.1,65.384,16.471,82.213,27.93,105.56c2.148,4.439,3.724,9.811,4.512,15.469c-7.448-20.195-24.206-23.49-33.659-85.794
			C8737.983-322.646,8710.484-353.368,8698.166-364.539z M8676.897-425.054c4.368,2.077,14.251,5.872,28.001,5.3
			c16.256-0.645,23.99,9.453,10.885,17.688c-0.573-5.228-7.376-8.88-17.402-10.241
			C8682.483-414.383,8676.897-425.054,8676.897-425.054L8676.897-425.054z M8666.728-394.045
			c1.719,3.725,6.589,12.748,15.827,17.188c7.591,3.652,2.148,8.809-7.305,9.525c1.79-2.507,2.435-5.801-1.433-9.525
			C8665.511-384.878,8666.728-394.045,8666.728-394.045z"/>
		<path d="M8523.714-343.271c13.249-0.716,30.723,0.43,45.403,8.594c28.216,15.612,30.651,36.381,17.116,30.293
			c-4.082-1.861-8.093-5.514-13.535-9.381c-0.358,19.049-11.172,34.303-24.421,34.303c-13.463,0-24.42-15.898-24.42-35.449
			c0-4.225,0.501-8.235,1.433-12.031c-2.793,0.072-5.729,0.144-8.809,0.358C8497.718-325.224,8502.087-342.124,8523.714-343.271z"/>
		<path d="M8736.838-291.493c-4.583-5.442-12.891-13.033-25.064-14.681c-19.479-2.649-33.73,2.435-40.032,13.177
			c-3.223,5.515,1.934,7.949,9.31,5.156c2.005-0.716,4.011-1.433,5.944-2.005c-0.358,2.148-0.573,4.297-0.573,6.588
			c0,15.756,9.023,28.574,20.195,28.574c11.1,0,20.123-12.818,20.123-28.574c0-0.572,0-1.146,0-1.719
			c5.371,3.652,12.031,9.597,14.896,7.807C8744.429-278.817,8739.272-288.629,8736.838-291.493z"/>
		
			<ellipse transform="matrix(0.1906 -0.9817 0.9817 0.1906 7223.061 8130.1743)" fill="#FFFFFF" cx="8541.618" cy="-314.932" rx="11.387" ry="7.375"/>
		
			<ellipse transform="matrix(0.1905 -0.9817 0.9817 0.1905 7322.7656 8312.5176)" fill="#FFFFFF" cx="8701.947" cy="-284.138" rx="9.545" ry="6.183"/>
		<path d="M8682.196-214.364c0,0-2.435-29.29-13.678-41.536c-20.769-22.773-69.323,3.008-87.729,18.906
			c0,0,19.193-9.955,32.943-12.461c13.821-2.578,21.055,1.79,26.712,14.107c5.729,12.246,20.696,7.09,27.5,1.791
			C8674.677-238.856,8682.196-214.364,8682.196-214.364z"/>
		<path d="M8663.72-187.796c-7.591-7.662-20.195-16.543-41.106-18.046c-37.168-2.65-62.09,21.054-62.376,54.784
			s8.521,60.729,39.889,67.031s41.107-4.226,45.261-26.712C8652.978-151.129,8685.921-165.523,8663.72-187.796z"/>
		<path fill="#FFFFFF" d="M8618.961-195.888c0,0-3.867,25.494,0,28.145c3.796,2.721,13.249,5.729,17.474,2.864
			c4.154-2.864,14.108-21.413,14.108-21.413S8642.235-194.098,8618.961-195.888z"/>
		<path fill="#FF547D" d="M8570.836-126.924c33.301-1.504,61.517,35.378,46.406,35.521
			C8604.638-91.188,8575.921-96.559,8570.836-126.924z"/>
		<path d="M8444.866-398.914l-4.297-22.272c-4.654-23.848-4.368-50.345-1.146-74.264c6.159-45.762,23.776-88.73,49.343-127.044
			c17.545-26.14,35.95-52.564,56.288-76.556c10.313-12.175,21.055-22.845,32.083-34.231c7.807-8.021,14.538-16.042,20.983-25.208
			c10.313-14.467,26.426-31.654,46.263-27.07c33.874,7.806,33.015,70.11,32.227,96.106c-0.787,25.352-5.872,51.49-12.103,75.982
			c-8.235,32.441-19.121,64.596-31.296,95.82C8528.87-491.153,8468.284-428.133,8444.866-398.914z"/>
		<path fill="#EEEAFF" d="M8457.041-424.409c-4.011-20.768-13.821-99.83,45.69-188.703
			c69.465-103.841,79.706-94.245,109.068-135.638c29.434-41.394,50.416-20.41,47.981,58.795
			c-1.647,55.286-27.715,129.336-43.327,168.938c-28.216,8.952-52.493,19.693-73.046,30.865
			c20.481-32.154,45.904-67.317,61.517-99.329c27.571-56.36,14.107-115.299,14.107-115.299s-0.071,45.332-7.52,72.044
			c-18.477,66.745-66.887,108.854-97.538,160.273C8475.589-447.039,8457.041-424.409,8457.041-424.409z"/>
		<path fill="#CCC1F4" d="M8618.746-692.891c-0.501,15.254-2.22,42.037-7.233,60.155c-18.477,66.745-66.887,108.854-97.538,160.273
			c-19.909,13.177-34.446,25.566-43.828,34.446c4.44-34.231,14.108-77.559,34.519-122.604
			C8536.247-630.443,8588.883-673.627,8618.746-692.891z"/>
		<path fill="#FFFFFF" d="M8493.421-598.288c2.937-4.941,6.016-9.883,9.311-14.824c69.465-103.841,79.706-94.245,109.068-135.638
			c29.434-41.394,50.416-20.41,47.981,58.795c-1.647,55.286-27.715,129.336-43.327,168.938c-3.724,1.218-7.376,2.363-10.885,3.652
			c23.489-72.259,51.705-191.783,35.449-217.564c-18.979-30.149-22.058,0.573-71.973,47.981
			C8546.846-665.82,8518.271-630.802,8493.421-598.288z"/>
		<path fill="#EEEAFF" d="M8684.703-540.854c0,0,52.206-13.822,89.446-4.154c0.787,0.144,1.575,0.43,2.291,0.645
			c25.71-63.092,73.262-74.765,73.262-74.765c-35.521,22.559-53.782,53.209-63.809,79.134c21.342,14.251,8.021,45.833,1.074,57.362
			c-5.299,8.594-20.338,39.675-9.883,58.223c0,0,38.027-43.398,57.006-124.036c15.755-66.815,52.851-77.916,40.819-102.337
			C8862.951-675.273,8765.698-650.782,8684.703-540.854z"/>
		<path fill="#CCC1F4" d="M8829.077-603.588c-22.344,19.98-35.306,43.255-43.184,63.594c21.342,14.251,8.021,45.833,1.074,57.362
			c-3.867,6.23-12.818,24.421-13.463,40.964C8813.752-491.44,8826.142-563.699,8829.077-603.588z"/>
		<path fill="#FFFFFF" d="M8684.703-540.854c0,0,12.532-3.295,29.647-5.515c21.342-29.075,52.064-65.455,84.577-86.367
			c36.309-23.202,65.455-24.491,77.987-12.031c-0.286-1.934-1.002-3.938-2.005-6.016
			C8862.951-675.273,8765.698-650.782,8684.703-540.854z"/>
		<path fill="#CCC1F4" d="M8749.514-1174.139c0,0-41.106-12.318-42.896,24.277c-1.791,36.595,24.921,58.222,38.671,50.703
			c13.822-7.448,9.311-31.797,9.311-31.797s53.711,106.205,118.521,126.041c88.157,26.927,33.587-86.653-33.587-130.839
			c79.205,41.537,146.308,140.722,94.101,172.662c-44.615,27.285-179.68-45.833-226.802-119.238
			C8666.656-1144.92,8659.423-1207.726,8749.514-1174.139z"/>
		<path fill="#CCC1F4" d="M7722.493-749.466c129.908-274.068,551.358-373.183,795.707-232.675c0,0-60.729-68.034-151.106-104.557
			c-90.449-36.452-161.275-39.818-161.275-39.818s33.802,18.047,17.688,28.431C8207.466-1087.7,7860.136-1084.836,7722.493-749.466z
			"/>
		<path fill="#CCC1F4" d="M9032.104-915.826c0,0,53.64,89.446-13.177,186.269c-54.642,79.205-195.507,231.887-151.178,340.239
			c0,0-0.645-67.818,27.571-88.229s50.989,7.161,36.595,104.986c-12.532,85.364,15.469,210.546,91.81,262.323
			c0,0-79.205-96.536-60.013-264.113c19.193-167.577,42.468-207.61,88.73-317.968
			C9098.705-802.747,9052.442-900.572,9032.104-915.826z"/>
		<path fill="#CCC1F4" d="M9128.712-739.727c0,0,56.432,83.001,45.617,209.758c-10.813,126.829-88.801,195.221-88.801,195.221
			s23.274-6.875,45.045-15.612c21.843-8.665,36.523,9.74,12.533,66.243c-23.991,56.504-70.756,88.229-70.756,88.229
			C9236.133-247.021,9240.43-617.839,9128.712-739.727z"/>
		<path fill="#CCC1F4" d="M8233.175-1183.521c0,0,148.242-33.372,245.565,0c97.396,33.373,135.78,78.418,135.78,78.418
			s-56.432-99.615-178.176-117.018C8314.528-1239.522,8233.175-1183.521,8233.175-1183.521z"/>
		<g>
			<path fill="#A698DE" d="M8754.169-994.101c-42.468-45.547-113.795-48.053-159.342-5.657
				c-45.547,42.467-48.054,113.795-5.586,159.341c42.467,45.546,113.795,48.053,159.27,5.586
				C8794.058-877.298,8796.564-948.625,8754.169-994.101z"/>
			<path fill="#7A65CD" d="M8729.748-971.399c-29.863-32.011-80.064-33.801-112.147-3.939
				c-32.084,29.863-33.803,80.065-3.939,112.148c29.863,32.083,80.065,33.802,112.148,3.939
				C8757.821-889.114,8759.611-939.316,8729.748-971.399z"/>
			<path fill="#4D2C80" fill-opacity="0.302" d="M8594.827-999.758c-45.547,42.467-48.054,113.795-5.586,159.341
				c42.467,45.546,113.795,48.053,159.27,5.586c13.393-12.461-3.652-26.855-19.407-28.574c-22.057-2.292-60.8-1.79-86.653-29.075
				c-25.137-26.497-22.486-62.877-22.916-85.579C8619.247-992.74,8611.871-1015.585,8594.827-999.758z"/>
			<path fill="#FFFFFF" fill-opacity="0.702" d="M8719.364-1001.262c-17.259-10.312-36.38-12.46-42.754-4.798
				c-6.373,7.591,2.507,22.128,19.766,32.441c17.259,10.241,36.451,12.39,42.754,4.727
				C8745.503-976.483,8736.623-991.021,8719.364-1001.262z"/>
			<path d="M8750.373-803.965c0,0,21.914-21.197,32.728-27.715c10.742-6.517,11.674-46.62,8.737-58.007
				c-2.937-11.387-12.532-15.254-14.824,1.432c-2.22,16.615-14.18,39.102-41.106,54.427c-26.927,15.254-19.121,1.719-44.043,11.244
				c-24.922,9.453-35.162-0.215-49.342-2.363c-14.108-2.148-15.039-10.313-7.09-29.505c8.021-19.193,12.891-41.823,29.075-64.024
				c16.257-22.128,34.303-28,29.935-35.306c-4.439-7.233-45.547,6.302-71.614,30.651c-26.067,24.277-33.372,47.552-45.69,34.303
				c-12.317-13.249-5.013-39.102-6.087-63.378c-0.716-16.328,14.323-39.889,26.712-50.13c18.764-16.328,41.608-25.423,64.812-27.285
				c-2.435-2.148-2.077-2.435-8.093-5.515c-21.197-10.885-55.787,19.551-76.556,29.792c-16.113,7.877-16.543,21.269-31.224,44.759
				c-14.609,23.489-19.479,29.147-15.611,57.792c3.867,28.575,8.235,55.501-10.886,66.673c-19.05,11.1-32.012,9.811-34.375,23.346
				c-2.292,13.535-7.376,42.181-23.848,60.729c-3.223,3.652-19.05,18.69-42.253,40.533l0,0
				c10.886,15.755,12.031,35.808,8.522,56.074l64.524-60.156c10.098-9.382,47.695-20.481,62.52-20.195
				c14.824,0.358,12.174-17.259,21.771-29.72s40.104-13.392,65.886-8.45c25.853,5.013,46.979,5.729,67.317-6.947
				C8730.607-793.581,8742.854-793.938,8750.373-803.965z M8278.507-579.884c-86.939,80.638-171.946,159.127-171.946,159.127
				s-22.128,22.988-49.843,35.808c-27.644,12.891-48.412,13.32-54.929,26.139c-6.589,12.747-21.27,60.228-31.081,73.262
				c-9.811,13.105-42.18,27.142-47.766,42.61c-5.658,15.469-6.159,28.86-25.639,39.531c-19.407,10.67-36.881,50.13-36.38,58.294
				c0.573,8.092,27.715-19.192,52.995-32.942c25.279-13.679,80.136-31.081,96.679-56.719s25.566-56.003,51.777-63.164
				c26.282-7.232,39.388-9.238,48.34-33.301c8.951-24.062,21.197-47.981,32.513-58.58l161.776-150.748
				c1.504-6.731,2.649-15.11,2.507-24.851C8307.296-593.133,8278.507-579.884,8278.507-579.884z"/>
			<path fill="#4D4D4D" d="M8533.812-858.678c-1.36,9.739-5.228,17.688-13.606,22.558c-19.05,11.1-32.012,9.811-34.375,23.346
				c-2.292,13.535-7.376,42.181-23.848,60.729c-3.223,3.652-19.05,18.69-42.253,40.533l0,0c2.077,2.937,3.725,6.016,5.085,9.238
				c33.157-31.797,58.079-59.153,61.589-80.279c4.654-27.93,15.54-24.707,36.38-45.261
				C8533.096-838.053,8534.743-849.583,8533.812-858.678z M8278.507-579.884c-86.939,80.638-171.946,159.127-171.946,159.127
				s-22.128,22.988-49.843,35.808c-27.644,12.891-48.412,13.32-54.929,26.139c-4.655,9.023-13.32,35.378-21.484,54.642v0.072
				c-8.164,25.423-37.454,72.187-37.454,72.187c25.924-19.407,34.017-32.942,49.127-73.333
				c15.111-40.318,28.002-50.774,56.361-59.94c28.359-9.167,73.404-54.355,73.404-54.355l174.953-163.066
				C8288.461-584.467,8278.507-579.884,8278.507-579.884z M8779.878-829.531c1.146-0.859,2.221-1.575,3.223-2.148
				c10.742-6.517,11.674-46.62,8.737-58.007c-2.937-11.387-12.532-15.254-14.824,1.432c-2.22,16.615-14.18,39.102-41.106,54.427
				c-26.927,15.254-19.121,1.719-44.043,11.244c-24.205,9.166-34.59,0.286-48.125-2.148c7.377,3.509,16.543,10.313,27.143,16.614
				c13.248,7.877,27.356-7.949,49.484-10.098c22.058-2.148,53.854-35.521,57.793-46.263c3.939-10.742,9.74-7.018,5.944,18.405
				C8783.244-840.345,8781.74-834.759,8779.878-829.531z M8686.207-940.891c6.589-5.585,10.527-9.023,8.235-12.891
				c-4.439-7.233-45.547,6.302-71.614,30.651c-26.067,24.277-33.372,47.552-45.69,34.303c-0.931-0.931-1.719-2.005-2.363-3.08
				c5.085,10.957,15.827,13.75,26.14,4.082c17.044-15.826,18.405-29.576,56.862-49.342
				C8676.468-946.691,8684.774-946.477,8686.207-940.891z M8643.524-1026.47c6.23-1.576,12.676-2.65,19.05-3.151
				c-2.435-2.148-2.077-2.435-8.093-5.515c-21.197-10.885-55.787,19.551-76.556,29.792c-6.302,3.079-10.241,7.018-13.535,12.103
				c9.023-6.445,19.479-8.522,41.895-22.773C8626.122-1028.476,8637.294-1028.977,8643.524-1026.47z"/>
		</g>
		<path fill="#EEEAFF" d="M8421.807-622.064c0,0-27.857,26.14-44.114,9.954c-16.185-16.256,21.341-44.759,48.053-37.525
			c26.641,7.161,23.347,46.478-8.45,68.964c-31.796,22.487-47.408,25.209-47.408,25.209s9.597,3.58,22.058,0
			c12.46-3.581,14.823-5.085,14.823-5.085s-25.565,82.786-16.614,212.408c9.023,129.55,31.224,185.982,31.224,185.982
			s-34.732,70.826-63.593,112.22c-28.861,41.393-77.988,79.777-77.988,79.777s-19.837-88.229-34.805-151.822
			c-15.039-63.593-11.387-178.176-11.387-178.176s5.944,13.32,11.101,14.107c4.082,0.573,9.381-93.241,25.064-171.874
			c4.941-24.993,14.466-54.642,26.497-77.271c10.671-2.22,23.132-4.368,37.956-13.965s22.773-27.285,22.773-27.285
			s16.472-5.515,24.851-17.402c6.087-1.146,11.602-2.148,16.256-3.294C8426.892-604.376,8421.807-622.064,8421.807-622.064z"/>
		<path fill="#CCC1F4" d="M8357.426-49.437c-28.933,41.178-77.63,79.276-77.63,79.276s-19.837-88.229-34.805-151.822
			c-15.039-63.593-11.387-178.176-11.387-178.176s5.944,13.32,11.101,14.107c4.082,0.573,9.381-93.241,25.064-171.874
			c4.941-24.993,14.466-54.642,26.497-77.271c10.671-2.22,23.132-4.368,37.956-13.965s22.773-27.285,22.773-27.285
			s16.472-5.515,24.851-17.402c0,0-18.405,41.608-43.398,56.003c-24.994,14.395-46.621,99.758-50.202,211.62
			c-3.581,111.861-19.837,66.171-19.837,66.171s-4.011,103.698,36.595,177.818C8319.685-55.452,8338.878-48.004,8357.426-49.437z"/>
		<path fill="#EEEAFF" d="M8323.194-560.619c2.435-19.408-2.363-55.43-27.858-30.866c0-19.908,7.233-41.895,26.712-42.539
			c18.835-0.716,27.07,10.814,28.574,24.922C8352.843-587.618,8342.888-568.568,8323.194-560.619z M8373.825-696.472
			c0,0,13.178-11.387,26.999-7.448c10.885,3.08,17.831,20.482,15.897,41.25c-8.092,0.43-16.829,2.363-24.992,5.658
			C8390.226-670.189,8385.499-684.87,8373.825-696.472z M8320.759-650.997c0.788-3.223,10.241-40.175,36.596-35.233
			c13.606,2.506,21.771,17.188,24.635,34.088c-13.606,8.235-23.346,21.198-21.055,38.601c0.932,7.09,4.727,11.673,8.809,14.609
			c-3.294,3.365-6.66,5.514-9.811,6.874c1.934-7.447,2.506-17.616-0.788-31.009C8353.058-647.345,8331.286-650.854,8320.759-650.997
			z"/>
		<path fill="#FFFFFF" d="M8298.272-612.396c3.724-11.888,11.172-21.198,23.775-21.628c18.835-0.716,27.07,10.814,28.574,24.922
			c0.287,3.295,0.358,6.518,0.144,9.597c-2.435-10.384-8.379-21.484-22.487-23.633
			C8319.542-624.499,8308.871-619.701,8298.272-612.396z M8395.31-556.466c9.524-2.864,11.458-4.082,11.458-4.082
			s-25.565,82.786-16.614,212.408c1.218,17.545,2.722,33.802,4.297,48.697C8362.296-411.304,8387.862-527.462,8395.31-556.466z
			 M8373.825-620.919c-0.286-15.826,29.577-34.732,51.92-28.717c15.111,4.082,20.625,18.477,16.758,34.303
			c-2.363-12.031-8.736-25.638-25.423-26.282C8396.384-642.475,8381.202-629.226,8373.825-620.919z M8327.706-668.757
			c11.744-5.586,27.07-9.739,36.094,0.144c7.232,7.734,9.811,15.683,10.455,22.057c2.363-2.077,4.941-3.938,7.734-5.586
			c-2.864-16.9-11.028-31.582-24.635-34.088C8342.745-688.952,8333.363-678.854,8327.706-668.757z M8378.695-699.838
			c9.883-0.357,22.129,1.862,26.855,13.822c4.368,11.243,2.649,19.336,0.43,24.778c3.652-0.788,7.305-1.218,10.741-1.433
			c1.934-20.768-5.013-38.17-15.897-41.25C8392.159-706.426,8383.78-702.846,8378.695-699.838z"/>
		<path fill="#CCC1F4" d="M7858.919-34.685c0,0-74.98-195.578-31.439-389.725c43.542-194.074,95.82-170.729,102.48-146.165
			c6.589,24.636,0,78.633,0,78.633s19.766-57.506,66.602-167.506c46.764-110.071,162.277-185.839,385.142-177.46
			c222.863,8.308,313.241,44.4,452.388,39.603c139.218-4.87,148.814-103.268,148.814-103.268s-19.265,77.486-183.978,63.665
			c-164.713-13.893-446.014-112.864-729.177-10.814C7786.517-745.742,7678.522-343.485,7858.919-34.685z"/>
	</g>
</g>
</svg>
