<?xml version="1.0" encoding="utf-8"?>
<!-- Generator: Adobe Illustrator 16.0.0, SVG Export Plug-In . SVG Version: 6.00 Build 0)  -->
<!DOCTYPE svg PUBLIC "-//W3C//DTD SVG 1.1//EN" "http://www.w3.org/Graphics/SVG/1.1/DTD/svg11.dtd">
<svg version="1.1" id="Layer_1" xmlns="http://www.w3.org/2000/svg" xmlns:xlink="http://www.w3.org/1999/xlink" x="0px" y="0px"
	 width="2200px" height="2500px" viewBox="4249.771 -1367.468 2200 2500" enable-background="new 4249.771 -1367.468 2200 2500"
	 xml:space="preserve">
<g id="Layer_x0020_1">
	<g id="_324334048">
		<g>
			<path fill="#0A35A4" d="M6107.71-55.458c6.854,4.284,11.922,9.995,12.707,18.349c0.572,5.997-0.498,12.137-4.711,16.706
				c-7.496,8.068-19.777,5.926-28.986,2.428c-15.635-5.926-31.984-18.349-44.621-28.986c-46.264-38.91-98.311-29.558-146.432,0.571
				c-3.068,1.928-6.996,1.285-9.352-1.428c-2.285-2.784-2.213-6.782,0.143-9.496c4.355-4.783,9.496-9.566,14.35-13.778
				c11.852-10.21,24.775-19.277,38.482-26.845c41.053-22.703,86.174-30.2,131.652-16.492
				c50.262,15.136,115.801,42.266,144.074,89.672c3.211,5.426,5.568,11.494,7.211,17.563c2.355,8.639,3.498,18.42,2.641,27.345
				c-0.715,7.639-3.355,16.991-11.209,20.133c-9.139,3.642-17.705-3.641-23.275-9.995c-9.994-11.565-18.42-28.272-24.844-41.979
				c-5.141-10.995-15.207-23.347-23.633-31.985c-6.639-6.854-14.492-13.851-22.773-18.563c-4.285-2.428-11.424-5.783-16.492-4.069
				C6090.86-62.312,6103.069-58.456,6107.71-55.458z M5974.915-618.761c3.57,2.284,14.852,3.641,17.92,3.927
				c7.426,0.643,14.994,0.785,22.49,0.785c10.281-0.143,20.633-0.643,30.914-1.285c43.121-2.855,89.957,4.998,129.58,22.418
				c27.346,11.994,63.756,34.698,71.039,65.969c2.641,11.352,3.641,26.416-7.068,34.126c-9.996,7.283-24.275,3.499-34.555-1.213
				c-13.137-5.926-25.703-15.778-35.484-26.345c-16.563-17.991-40.266-30.129-63.754-35.983
				c-34.699-8.496-70.396-4.283-103.666,7.782c-20.848,7.567-43.979,11.423-65.896,14.279c-25.061,3.284-50.334,5.212-75.465,7.639
				c-30.342,2.856-61.756,6.212-91.385,13.708c-23.702,5.926-49.262,15.492-67.039,32.913
				c-17.563,17.206-6.926,18.134,12.209,20.562c16.706,2.07,34.126,2.428,50.976,3.498c15.85,1,32.698,2.356,48.048,6.212
				c12.566,3.212,26.916,8.853,33.555,20.847c2.428,4.427,3.5,9.21,3.5,14.279c0,7.425-1.785,14.564-6.213,20.704
				c-15.135,20.704-53.688,18.849-76.105,16.85c-18.705-1.643-37.411-4.712-55.83-8.211c-20.49-3.784-40.838-8.21-61.114-12.637
				c-20.49-4.498-40.98-8.996-61.613-13.137c-50.119-9.995-99.738,4.355-141.361,32.771c-17.991,12.279-34.698,27.344-48.405,44.336
				c-9.996,12.279-20.205,27.986-24.632,43.408c-6.996,24.702-9.566,51.547-5.283,77.034c3.713,21.704,12.565,42.979,28.63,58.615
				c2.713,2.642,2.855,6.996,0.356,9.853c-2.427,2.927-6.782,3.355-9.78,0.999c-5.641-4.283-11.209-9.424-16.278-14.351
				c-12.28-11.852-23.632-24.916-33.556-38.838c-28.629-40.195-45.264-87.315-38.91-137.007
				c7.782-61.756,53.117-111.304,102.38-145.358c60.114-41.552,134.936-67.325,206.901-78.035
				c28.771-4.354,57.045-11.065,84.531-20.775c22.632-7.996,44.193-17.849,65.326-29.129c18.491-9.853,36.34-20.705,54.402-31.342
				c16.921-9.924,34.127-19.563,52.117-27.345c11.994-5.141,24.275-9.424,36.982-12.494c25.131-6.14,54.547-10.209,80.463-6.854
				c12.922,1.642,35.768,6.854,37.98,22.703c1.857,13.208-12.279,22.489-22.346,27.559c-6.426,3.213-13.279,6.925-19.063,11.28
				C5979.343-623.188,5976.13-620.546,5974.915-618.761z M5601.88-113.93c-11.066-5.427-22.347-16.706-28.915-26.916
				c-17.349-27.201-13.279-58.829-0.214-86.958c4.568-9.996,10.638-19.135,17.92-27.416c36.625-41.48,100.381-54.831,153.213-58.473
				c25.131-1.713,50.476-1.428,75.606,0.286c21.489,1.499,43.122,4.069,64.325,7.854c29.201,5.212,61.258,2.355,90.172-3.355
				c24.703-4.927,49.191-12.28,72.68-21.347c18.42-7.14,37.555-15.707,54.402-26.06c15.85-9.71,34.627-16.135,52.762-19.99
				c20.633-4.355,44.193-6.14,65.111-2.642c16.207,2.713,35.697,9.566,42.551,26.059c2.855,6.854,3.641,14.351,0.572,21.348
				c-8.211,18.49-37.768,22.561-55.475,23.06c-10.852,0.286-22.418-0.499-33.055-2.855c-14.352-3.142-33.414-1.143-47.691,1.785
				c-11.924,2.427-24.703,6.354-35.484,12.137c-5.711,3.07-14.635,8.853-16.35,15.636c-0.07,0.356-0.143,0.714-0.07,1.143
				c0.643,3.212,8.566,6.782,11.137,7.853c10.566,4.284,23.346,6.64,34.555,8.354c16.207,2.499,32.771,3.927,49.191,4.998
				c18.777,1.142,37.555,1.713,56.33,1.927c5.426,0.072,10.852,0.072,16.279,0.072c74.605,0,125.225,30.984,136.363,106.663
				c1.428,10.066,1.713,21.562-1.57,31.343c-2.57,7.639-7.641,14.564-15.637,17.063c-11.994,3.855-23.488-3.855-31.057-12.494
				c-11.566-13.208-18.42-32.198-22.275-48.977c-4.354-18.776-16.205-34.983-33.482-43.836c-5.926-2.999-12.994-5.283-19.705-5.354
				c-3.355,0-8.141,0.643-10.496,3.355c-2.57,2.999-1.498,8.067-0.428,11.352c3.283,9.924,11.852,20.49,18.777,27.986
				c30.984,33.627,55.258,81.89,65.324,126.226c3.713,16.492,5.641,35.341,3.213,52.118c-1.57,10.781-6.068,26.345-18.275,29.415
				c-11.066,2.784-20.348-6.64-26.203-14.707c-10.494-14.564-18.277-34.983-23.988-51.833
				c-31.627-94.026-113.945-164.351-215.396-165.563c-33.699-0.357-69.467-2.214-102.451-9.71
				c-10.424-2.428-20.563-5.426-30.557-9.139c-8.211-2.999-16.207-6.497-24.203-9.924c-9.424-4.141-18.777-7.996-28.559-11.138
				c-12.637-3.998-25.559-6.64-38.624-8.496c-40.124-5.568-83.603-4.641-123.227,4.07c-27.272,5.997-63.327,18.276-81.818,40.48
				c-12.138,14.564-17.063,31.699-14.136,50.404c1.142,7.425,4.212,17.492,8.139,23.988c1.713,2.785,1.428,6.212-0.785,8.639
				C5608.162-113.073,5604.735-112.431,5601.88-113.93z"/>
			<path fill="#C3DBF3" d="M5891.884-52.53c0,0,76.178-85.389,176.986-55.046c76.75,23.132,120.443,53.761,139.934,86.459
				c19.348,32.413,8.426,102.522-36.768,6.354c-8.281-17.635-34.27-48.191-55.688-56.83c-17.207-6.997-32.127,7.068-25.703,13.993
				c5.213,5.568,21.42,8.567,22.633,21.204c1.785,19.205-19.133,23.846-66.539-16.135
				C5999.261-92.44,5944.646-85.586,5891.884-52.53z M5393.836-149.771c0,0-99.596-76.106-85.959-183.555
				c13.636-107.449,150.285-194.407,303.142-217.254c152.927-22.774,205.259-99.596,294.002-121.156
				c88.814-21.633,139.219,5.997,91.242,29.985s-39.48,39.624,50.477,33.627c89.885-6.068,182.342,36.554,193.121,82.817
				c10.781,46.264-35.982,31.271-64.826,0c-28.771-31.271-92.385-60.114-175.201-30.057
				c-82.818,30.057-239.886,9.067-302.355,70.181c-62.471,61.186,146.215,9.639,146.215,70.538s-142.003,18.563-252.308-3.498
				c-110.233-21.99-207.044,70.466-222.751,125.582C5352.927-237.442,5361.423-181.397,5393.836-149.771z M6046.739-201.888
				c-150.072-1.714-137.293-36.34-223.536-48.334c-86.245-11.995-178.558,7.496-211.542,47.049
				c-32.984,39.624-6.641,82.817-6.641,82.817s-60.257-29.914-25.773-104.379c44.693-96.525,217.611-89.029,303.285-73.751
				c75.891,13.565,177.914-24.488,222.322-51.689c47.977-29.414,136.291-32.984,150,0c13.707,32.984-46.836,38.981-79.82,31.842
				c-32.984-7.21-101.379,8.996-107.947,34.77c-6.641,25.773,87.172,33.342,174.346,33.342c87.244,0,120.799,43.122,129.223,100.451
				c8.426,57.33-39.623,57.33-56.4-15.706c-16.779-72.966-124.941-72.966-57.615,0c31.984,34.697,54.545,83.103,63.541,123.013
				c15.563,68.61-15.422,117.872-51.334,11.066C6236.292-127.995,6151.546-200.675,6046.739-201.888z"/>
			<path fill="#C3DBF3" d="M5891.884-52.53c0,0,76.178-85.389,176.986-55.046c76.75,23.132,120.443,53.761,139.934,86.459
				c19.348,32.413,8.426,102.522-36.768,6.354c-8.281-17.635-34.27-48.191-55.688-56.83c-17.207-6.997-32.127,7.068-25.703,13.993
				c5.213,5.568,21.42,8.567,22.633,21.204c1.785,19.205-19.133,23.846-66.539-16.135
				C5999.261-92.44,5944.646-85.586,5891.884-52.53z M5393.836-149.771c0,0-99.596-76.106-85.959-183.555
				c13.636-107.449,150.285-194.407,303.142-217.254c152.927-22.774,205.259-99.596,294.002-121.156
				c88.814-21.633,139.219,5.997,91.242,29.985s-39.48,39.624,50.477,33.627c89.885-6.068,182.342,36.554,193.121,82.817
				c10.781,46.264-35.982,31.271-64.826,0c-28.771-31.271-92.385-60.114-175.201-30.057
				c-82.818,30.057-239.886,9.067-302.355,70.181c-62.471,61.186,146.215,9.639,146.215,70.538s-142.003,18.563-252.308-3.498
				c-110.233-21.99-207.044,70.466-222.751,125.582C5352.927-237.442,5361.423-181.397,5393.836-149.771z M6046.739-201.888
				c-150.072-1.714-137.293-36.34-223.536-48.334c-86.245-11.995-178.558,7.496-211.542,47.049
				c-32.984,39.624-6.641,82.817-6.641,82.817s-60.257-29.914-25.773-104.379c44.693-96.525,217.611-89.029,303.285-73.751
				c75.891,13.565,177.914-24.488,222.322-51.689c47.977-29.414,136.291-32.984,150,0c13.707,32.984-46.836,38.981-79.82,31.842
				c-32.984-7.21-101.379,8.996-107.947,34.77c-6.641,25.773,87.172,33.342,174.346,33.342c87.244,0,120.799,43.122,129.223,100.451
				c8.426,57.33-39.623,57.33-56.4-15.706c-16.779-72.966-124.941-72.966-57.615,0c31.984,34.697,54.545,83.103,63.541,123.013
				c15.563,68.61-15.422,117.872-51.334,11.066C6236.292-127.995,6151.546-200.675,6046.739-201.888z"/>
			<path fill="#FFFFFF" d="M5902.308-62.74c24.203-21.704,87.887-68.538,166.563-44.836c76.75,23.132,120.443,53.761,139.934,86.459
				c14.779,24.774,11.924,71.537-10.424,49.334c22.418-9.995,1.857-51.262-40.693-86.459
				c-46.836-38.696-52.904-15.136-110.947-39.624C5988.624-122.354,5902.38-62.812,5902.308-62.74z M6091.931-67.452
				c-2.998,3.213-3.854,7.068-1.285,9.853c5.213,5.568,21.42,8.567,22.633,21.204c0.715,7.64-2.213,12.994-8.924,14.137
				c1.498-7.211-0.357-15.778-10.566-22.204C6074.226-56.743,6091.931-67.452,6091.931-67.452L6091.931-67.452z M5571.966-205.101
				c12.279-28.986,35.84-57.83,80.247-72.751c109.376-36.697,189.267-8.067,256.448,0c67.184,8.067,126.012-21.918,154.783-38.696
				c28.844-16.849,128.654-61.185,163.922-30.628c10.781,9.424,13.279,18.205,11.566,25.916
				c13.779-5.283,21.918-14.493,15.922-28.915c-13.709-32.984-102.023-29.414-150,0c-44.408,27.201-146.432,65.255-222.322,51.689
				c-85.674-15.278-258.592-22.774-303.285,73.751C5576.035-217.809,5573.679-211.313,5571.966-205.101z M6068.942-288.204
				L6068.942-288.204c0,0-20.205,29.271,28.129,35.84c48.264,6.568,72.895,13.637,122.656,13.637
				c49.834,0,113.59,6.068,131.152,62.898c11.209,36.411,4.783,59.187-9.281,62.471c17.42,12.922,34.34-0.5,29.057-36.412
				c-8.424-57.329-41.979-100.451-129.223-100.451c-87.174,0-180.986-7.568-174.346-33.342
				C6067.442-285.134,6068.085-286.705,6068.942-288.204z M6241.003-216.881L6241.003-216.881c0,0-26.344,9.853-0.57,45.55
				c25.844,35.697,71.109,105.593,71.395,157.14c0.213,22.632-9.424,30.485-20.348,32.198c24.703,34.627,40.838-7.067,28.701-60.471
				c-8.996-39.91-31.557-88.315-63.541-123.013C6231.294-192.964,6230.866-210.099,6241.003-216.881z"/>
			<path fill="#FFFFFF" d="M5323.727-383.729c29.7-42.123,74.107-85.745,136.435-103.38c135.578-38.196,221.109-34.983,261.59-74.25
				c40.48-39.268,149.428-93.027,212.398-97.168c62.971-4.213,19.205,28.2,9.639,45.55c-9.639,17.42-3.641,25.845,79.176,19.848
				c82.818-5.997,176.988,21.418,196.764,67.753c8.711,20.276-3.213,23.489-19.348,20.704c24.273,14.279,47.406,13.352,39.48-20.633
				c-10.779-46.264-103.236-88.886-193.121-82.817c-89.957,5.997-98.453-9.639-50.477-33.627s-2.428-51.618-91.242-29.985
				c-88.743,21.561-141.075,98.382-294.002,121.156C5482.937-531.445,5366.206-467.262,5323.727-383.729z M5384.769-157.48
				c-15.064-15.064-42.693-53.546-31.984-127.011c14.35-99.238,119.515-163.352,211.828-141.504
				c13.422,3.141,26.272,6.64,38.48,10.209c-3.926-0.785-7.853-1.57-11.708-2.355c-110.233-21.99-207.044,70.466-222.751,125.582
				c-15.707,55.117-7.211,111.162,25.202,142.789C5393.836-149.771,5390.338-152.411,5384.769-157.48z M5693.265-480.755
				L5693.265-480.755c0,0-35.126,28.558,2.713,39.695c37.768,11.066,113.375-1.285,127.226,21.918
				c6.996,11.709,3.212,23.561-2.142,32.342c14.207-4.355,22.631-13.065,22.631-27.844
				C5843.692-474.044,5645.573-426.566,5693.265-480.755z"/>
			<path fill="#5396DC" d="M5352.142-367.88c-43.193,68.253-8.139,143.931,0.643,83.389c6.14-42.337,26.701-87.315,57.829-112.946
				c31.914-26.202,102.166-51.262,144.074-44.836c81.176,12.565,119.515-3.07,83.461-14.422
				c-36.126-11.352,34.483-43.122,53.331-56.973c17.706-12.994-62.47,29.558-169.848,43.265
				C5446.312-460.836,5386.34-421.854,5352.142-367.88z M5724.179-436.634c-9.924,2.999-17.35,7.568-13.494,14.493
				c9.139,16.278,105.807,14.279,108.306-1.713C5802.855-436.705,5759.305-433.92,5724.179-436.634z M5856.759-602.769
				c34.768-3.569,32.555,29.558,73.82,29.558c41.195,0,33.557,15.421-51.047,18.42c-57.686,2.07-105.377,12.637-124.797,14.921
				C5712.398-534.801,5841.337-601.198,5856.759-602.769z"/>
			<path fill="#5396DC" d="M5584.959-189.68c-1.214,16.278,3.427-38.624,83.246-65.611c49.12-16.563,122.728-26.987,205.044,3.855
				c120.016,44.835,127.869,25.202,173.49,25.202c45.549,0,106.02,13.564,143.289,44.979c37.338,31.484,19.561-39.553-31.199-44.979
				c-50.691-5.426-102.881,5.068-123.871-22.561c-20.99-27.559-31.842-16.136-63.184-8.354s-92.455,3.642-140.789-14.064
				c-43.337-15.921-152.428-22.775-213.97,21.561C5594.312-233.302,5587.173-218.809,5584.959-189.68z M6246.929-119.927
				c8.426,11.423,22.846,28.271,33.127,64.969c11.281,40.124,25.988,45.764,31.557,34.555
				c-2.428-33.698-22.061-74.107-42.266-107.448C6250.499-159.052,6214.729-163.478,6246.929-119.927z M6312.47-222.021
				c9.566,10.281,19.633,26.202,20.99,48.834c1.855,30.628,16.92,38.696,23.131,28.344c-0.285-8.781-2.07-19.134-5.711-30.985
				C6343.954-198.176,6329.962-212.597,6312.47-222.021z M6089.075-329.542c-3.998,5.427-4.498,9.425,5.855,6.783
				c24.059-6.141,58.4-23.846,95.453-17.492c24.775,4.213,37.197,1.714,40.838-3.213c-1.143-1.213-2.428-2.427-3.855-3.712
				C6199.31-371.45,6130.556-348.461,6089.075-329.542z"/>
			<path fill="#5396DC" d="M5969.489-95.653c-1.143,1.285-1.641,2.499-1.143,3.642c2.357,4.783,50.262-8.139,71.539,12.28
				c21.346,20.418,32.412,20.133,29.699,5.711c-1.213-6.711,6.641-10.352,15.35-12.208c-10.066-1.785-22.133-4.855-38.195-11.638
				C6023.036-107.79,5994.763-103.863,5969.489-95.653z M6172.179-45.177c11.352,22.561,16.635,44.479,25.559,51.118
				c4.285,3.213,7.426,2.713,8.854-0.143C6203.165-8.409,6190.813-26.972,6172.179-45.177z"/>
			<path fill="#0A35A4" d="M5791.004-846.295c-79.962-3.998-180.271-48.905-288.006,35.626
				c-66.683,52.332-194.407,79.247-153.569,39.623c40.766-39.623,5.068-54.474-61.971,11.78
				c-67.111,66.255-179.629,93.527-213.612,238.887c-25.345,108.377,39.338,153.927,79.177,170.133
				c8.924,3.642,23.631,6.568,7.211-11.494c-85.174-93.813-32.271-246.525,135.078-281.651
				c62.613-13.137,113.731-21.133,150.714-27.201c15.921-2.57,36.911-3.142,51.476-7.068c16.206-4.355,21.062-14.351-10.638-26.202
				c-72.823-27.13,76.106-93.384,154.141-74.393c77.963,18.99,104.379,4.783,58.187-22.204s35.412-34.198,80.391-18.563
				C5823.346-803.887,5845.478-843.511,5791.004-846.295z"/>
			<path fill="#C3DBF3" d="M5712.185-783.825c-4.498-4.426-10.639-8.281-15.992-11.423c-7.283-4.284-18.706-11.994-16.422-21.989
				c2.356-10.281,17.35-13.423,26.06-14.637c13.922-1.999,29.415-1.57,43.337,0.072c10.852,1.285,22.061,3.498,32.413,7.067
				c8.353,2.928,18.634,4.498,27.201,1.643c2.713-0.857,8.281-3.499,8.425-6.997c0.071-2.142-2.713-4.212-4.355-5.141
				c-6.068-3.569-15.278-4.712-22.203-5.068c-66.469-3.284-179.486-47.62-284.008,34.412
				c-13.851,10.566-29.201,19.562-44.765,27.272c-24.132,11.994-51.404,22.418-77.677,28.415c-9.211,2.07-19.634,3.998-29.13,3.927
				c-6.567-0.071-15.492-1.143-18.634-7.925c-3.569-7.854,3.57-16.063,8.781-21.133c4.855-4.712,10.21-10.566,13.423-16.563
				c2.855-5.354,3.784-7.854-3.07-6.711c-4.997,0.856-10.424,3.213-14.921,5.568c-17.563,9.067-34.984,24.203-48.977,38.054
				c-17.421,17.206-37.555,31.628-57.688,45.479c-20.99,14.422-42.194,28.486-61.971,44.621
				c-48.619,39.695-77.963,84.246-92.313,145.859c-6.568,28.058-8.354,58.115,0.428,85.888
				c6.354,20.204,17.777,37.554,33.556,51.689c12.28,10.995,26.916,19.776,42.266,25.916c0.929,0.357,1.928,0.785,2.927,1.143
				c-26.059-27.272-42.479-61.757-44.55-100.452c-2.356-43.979,14.422-86.102,43.051-119.086
				c35.126-40.409,84.817-64.47,136.721-75.321c28.558-5.997,57.259-11.423,86.03-16.492c22.061-3.784,44.122-7.354,66.184-10.995
				c22.917-3.712,83.103-4.854,38.48-21.489c-10.066-3.713-22.132-10.424-23.346-22.347c-0.785-7.925,3.713-15.064,8.925-20.562
				c6.425-6.854,15.136-12.494,23.346-16.992c21.419-11.852,47.406-20.133,71.323-24.846c24.417-4.783,53.046-6.996,77.392-1.07
				c10.138,2.427,20.49,4.641,30.843,6.211c7.639,1.143,15.492,2.07,23.274,2.285C5703.26-775.4,5722.18-773.973,5712.185-783.825z"
				/>
			<path fill="#5396DC" d="M5291.671-754.981c-17.421,17.206-37.555,31.628-57.688,45.479
				c-20.99,14.422-42.194,28.486-61.971,44.621c-48.619,39.695-77.963,84.246-92.313,145.859
				c-6.568,28.058-8.354,58.115,0.428,85.888c0.357,1.285,0.785,2.499,1.214,3.712c-3.355-47.905,1.785-101.451,29.771-142.574
				c65.683-96.74,162.494-115.517,212.898-123.156c50.477-7.639,82.032-4.354,82.89-17.277c0.928-12.922-26.345-7.496-62.685,0
				s-54.831-10.209-37.625-33.912C5323.727-770.046,5302.38-764.977,5291.671-754.981z M5541.479-804.958
				c13.922-4.783,42.338-13.137,67.04-11.852c34.198,1.785,46.192-8.71,28.771-18.348c-17.349-9.567-76.178,2.142-109.447,25.559
				C5481.58-777.114,5525.702-799.532,5541.479-804.958z"/>
			<path fill="#FFFFFF" d="M5712.185-783.825c-4.498-4.426-10.639-8.281-15.992-11.423c-7.283-4.284-18.706-11.994-16.422-21.989
				c2.356-10.281,17.35-13.423,26.06-14.637c13.922-1.999,29.415-1.57,43.337,0.072c10.852,1.285,22.061,3.498,32.413,7.067
				c8.353,2.928,18.634,4.498,27.201,1.643c2.713-0.857,8.281-3.499,8.425-6.997c0.071-2.142-2.713-4.212-4.355-5.141
				c-2.998-1.713-6.711-2.927-10.566-3.712c11.923,10.566-14.064,8.21-50.833,2.855c-44.979-6.64-110.376,7.782-92.956,28.772
				c17.35,20.989-54.045,1.213-127.225,20.989c-73.18,19.848-97.239,55.331-85.602,70.253c11.637,14.921,9.138,25.202-39.196,29.985
				c-48.405,4.783-114.16,23.274-168.705,42.694c-54.546,19.419-116.088,54.26-131.509,156.282
				c-15.422,102.095,52.617,132.723,52.617,132.723c-26.059-27.272-42.479-61.757-44.55-100.452
				c-2.356-43.979,14.422-86.102,43.051-119.086c35.126-40.409,84.817-64.47,136.721-75.321
				c28.558-5.997,57.259-11.423,86.03-16.492c22.061-3.784,44.122-7.354,66.184-10.995c22.917-3.712,83.103-4.854,38.48-21.489
				c-10.066-3.713-22.132-10.424-23.346-22.347c-0.785-7.925,3.713-15.064,8.925-20.562c6.425-6.854,15.136-12.494,23.346-16.992
				c21.419-11.852,47.406-20.133,71.323-24.846c24.417-4.783,53.046-6.996,77.392-1.07c10.138,2.427,20.49,4.641,30.843,6.211
				c7.639,1.143,15.492,2.07,23.274,2.285C5703.26-775.4,5722.18-773.973,5712.185-783.825z M5404.116-755.553
				c-6.639,2.07-13.351,3.784-19.918,5.354c-9.211,2.07-19.634,3.998-29.13,3.927c-6.567-0.071-15.492-1.143-18.634-7.925
				c-3.569-7.854,3.57-16.063,8.781-21.133c4.855-4.712,10.21-10.566,13.423-16.563c2.855-5.354,3.784-7.854-3.07-6.711
				c-4.997,0.856-10.424,3.213-14.921,5.568c-3.855,1.999-7.782,4.284-11.638,6.782c6.14-0.071,9.424,0.857,8.425,3.284
				c-5.926,14.351-29.986,53.403,26.13,41.409C5378.7-744.844,5392.337-749.913,5404.116-755.553z"/>
			<path fill="#0A35A4" d="M4939.838-87.871c-65.04-58.9-168.276-177.986-143.574-322.846
				c35.483-208.258,44.193-165.778,24.488-242.599c-19.705-76.821,0.643-107.521,31.984-137.007
				c31.343-29.485,62.042-9.709,27.772,34.341c-34.27,44.051-2.998,75.465,31.842,30.414
				c34.841-45.05,108.092-135.649,138.006-138.648c29.914-2.998-15.563,46.264,45.265,21.062
				c60.828-25.273,197.049-66.183,207.758-31.128c10.638,35.055-125.797,39.268-256.235,111.09
				c-130.438,71.823-166.492,176.559-169.919,257.164c-3.212,75.464-97.739,173.846,73.68,408.805
				C4970.966-69.736,4973.108-57.671,4939.838-87.871z"/>
			<path fill="#C3DBF3" d="M4953.546-83.587c-13.494-17.92-26.273-36.269-38.268-55.188c-16.421-25.916-31.414-53.046-43.551-81.247
				c-17.492-40.766-28.986-83.674-29.344-128.296c-0.285-32.056,5.283-61.113,13.779-91.813c3.285-11.923,6.926-23.774,9.924-35.697
				c2.499-9.924,4.713-20.204,5.141-30.485c1.999-47.335,14.637-93.313,38.125-134.579c31.557-55.401,79.462-97.024,134.936-127.582
				c29.486-16.206,60.4-29.628,92.027-41.194c26.845-9.781,54.046-18.063,81.533-26.059c10.994-3.284,21.989-6.426,32.912-9.853
				c8.639-2.713,17.278-5.498,25.631-8.925c5.355-2.142,20.276-8.425,21.49-15.064c0.143-0.999,0-1.999-0.286-2.998
				c-3.212-10.566-28.843-9.495-36.911-8.996c-12.564,0.786-25.273,2.856-37.625,5.354c-14.207,2.856-28.343,6.426-42.336,10.281
				c-15.136,4.283-30.2,8.996-45.122,14.136c-12.637,4.355-25.273,8.996-37.696,14.137c-7.496,3.142-16.992,6.782-25.06,7.567
				c-5.568,0.5-11.423-0.356-14.85-5.283c-3.142-4.426-2.713-10.066-2.356-15.207c0.072-1.143,0.5-6.426-0.214-7.354
				c-0.714-0.571-3.713-0.357-4.498-0.285c-9.924,0.999-26.845,15.635-33.983,22.132c-16.707,15.136-32.413,32.413-47.192,49.477
				c-18.205,20.99-35.697,42.766-52.688,64.684c-6.568,8.567-15.351,17.42-25.417,21.775c-7.425,3.142-15.992,3.927-22.917-0.929
				c-7.854-5.497-9.854-15.35-8.782-24.346c1.428-12.351,8.282-24.56,15.85-34.269c5.497-7.068,11.709-16.707,13.351-25.702
				c0.643-3.498,0.857-8.425-2.07-10.995c-2.784-2.499-7.425-2.142-10.709-1.285c-7.211,1.714-14.207,6.711-19.563,11.709
				c-7.71,7.282-15.135,14.993-21.275,23.703c-8.924,12.708-13.922,26.059-15.778,41.48c-2.499,21.632,1.429,45.05,6.854,65.968
				c2.498,9.853,5.211,19.848,7.354,29.771c1.57,7.068,2.784,14.065,3.07,21.276c0.285,7.639-0.571,14.992-1.785,22.489
				c-1.714,10.852-4.141,21.703-6.426,32.413c-3.784,17.849-7.496,35.626-10.994,53.546c-5.641,28.415-10.781,56.973-15.636,85.602
				c-16.136,94.598,22.774,182.271,81.39,254.379C4904.641-129.494,4928.272-105.362,4953.546-83.587z"/>
			<path fill="#5396DC" d="M4821.608-731.564c-0.785,3.499-1.428,7.068-1.856,10.781c-2.499,21.632,1.429,45.05,6.854,65.968
				c2.498,9.853,5.211,19.848,7.354,29.771c1.57,7.068,2.784,14.065,3.07,21.276c0.285,7.639-0.571,14.992-1.785,22.489
				c-1.714,10.852-4.141,21.703-6.426,32.413c-3.784,17.849-7.496,35.626-10.994,53.546c-5.641,28.415-10.781,56.973-15.636,85.602
				c-12.423,72.608,7.71,141.219,44.265,201.833c-36.697-92.242-40.767-177.202-28.629-213.113
				c19.348-57.115,16.706-103.665,25.201-162.279c8.568-58.615,42.838-99.239,8.14-99.81
				C4834.031-683.373,4825.678-707.361,4821.608-731.564z M5224.488-867c-28.272,7.14-66.683,18.206-76.749,28.059
				c-12.209,11.852,58.9-6.14,97.096-16.421c8.14-6.568,3.998-11.28-14.421-11.638C5228.486-867,5226.487-867.071,5224.488-867z
				 M5032.365-814.524c15.85-4.498,20.704,6.64-8.71,25.416c-29.415,18.705-49.191,36.697-57.615,44.193
				C4957.687-737.419,5000.31-805.386,5032.365-814.524z"/>
			<path fill="#FFFFFF" d="M4953.546-83.587c-13.494-17.92-26.273-36.269-38.268-55.188c-16.421-25.916-31.414-53.046-43.551-81.247
				c-17.492-40.766-28.986-83.674-29.344-128.296c-0.285-32.056,5.283-61.113,13.779-91.813c3.285-11.923,6.926-23.774,9.924-35.697
				c2.499-9.924,4.713-20.204,5.141-30.485c1.999-47.335,14.637-93.313,38.125-134.579c31.557-55.401,79.462-97.024,134.936-127.582
				c29.486-16.206,60.4-29.628,92.027-41.194c26.845-9.781,54.046-18.063,81.533-26.059c10.994-3.284,21.989-6.426,32.912-9.853
				c8.639-2.713,17.278-5.498,25.631-8.925c5.355-2.142,20.276-8.425,21.49-15.064c0.143-0.999,0-1.999-0.286-2.998
				c-3.212-10.566-28.843-9.495-36.911-8.996c-12.564,0.786-25.273,2.856-37.625,5.354c-14.207,2.856-28.343,6.426-42.336,10.281
				c-10.639,2.998-21.348,6.282-31.914,9.71c28.201-6.854,57.473-11.28,81.604-10.781c42.551,0.857,8.853,24.917-75.321,40.838
				c-84.246,15.85-123.37,42.552-186.697,95.169c-63.256,52.618-103.736,115.374-111.518,179.2
				c-7.711,63.827-5.712,85.174-27.916,188.981C4806.759-259.004,4953.546-83.587,4953.546-83.587z M5065.778-830.374
				c-3.07-0.714-5.854-2.214-7.782-4.998c-3.142-4.426-2.713-10.066-2.356-15.207c0.072-1.143,0.5-6.426-0.214-7.354
				c-0.714-0.571-3.713-0.357-4.498-0.285c-9.924,0.999-26.845,15.635-33.983,22.132c-16.707,15.136-32.413,32.413-47.192,49.477
				c-4.854,5.568-9.638,11.209-14.351,16.849c22.704-19.49,48.049-41.337,59.544-53.402c22.489-23.703,33.27-24.846,33.27-18.849
				C5048.215-837.442,5048.215-827.804,5065.778-830.374z M4895.073-701.864c-1.143,0.643-2.284,1.214-3.427,1.714
				c-7.425,3.142-15.992,3.927-22.917-0.929c-7.854-5.497-9.854-15.35-8.782-24.346c1.428-12.351,8.282-24.56,15.85-34.269
				c5.497-7.068,11.709-16.707,13.351-25.702c0.643-3.498,0.857-8.425-2.07-10.995c-2.784-2.499-7.425-2.142-10.709-1.285
				c-7.211,1.714-14.207,6.711-19.563,11.709c-1.784,1.714-3.498,3.427-5.283,5.141c12.994-7.64,20.134-8.854,19.135-0.357
				c-1.5,12.923-43.979,66.325-7.497,81.89C4877.938-693.011,4888.006-695.796,4895.073-701.864z"/>
		</g>
		<g>
			<path d="M5212.708,385.761c-10.995,17.349-21.775,34.769-32.271,52.403c-4.712,7.854-9.353,15.778-13.708,23.774
				c-2.784,4.998-5.997,10.709-8.139,15.992c-5.069,12.565-16.492,22.633-27.486,30.058c-10.067,6.854-26.845,15.921-38.839,18.491
				c-12.852,2.784-24.774-0.571-32.984-8.14c-12.565,8.14-37.054,0.571-45.979-11.065c-10.138-6.354-18.134-10.139-23.988-21.49
				c-14.636-28.129,6.568-59.472,35.911-66.754c17.206-4.283,16.35,0.856,26.202-14.136c6.64-9.995,12.708-20.562,18.705-30.985
				c-31.342-7.925-60.685-21.419-83.103-45.764c-14.351-15.564-21.419-36.697-23.133-57.544
				c-1.998-25.417,3.855-51.048,14.422-74.108c29.558-64.683,93.456-108.448,157.64-135.578c8.781-3.783,14.351-6.14,16.278-16.92
				l-8.282-1.785c-14.279-2.998-34.198-2.499-48.334,0.071c-21.49,3.927-30.129,7.925-46.906,20.205
				c-12.28,26.63-34.483,49.119-62.613,66.683c-19.348,12.065-42.337,19.919-63.97,26.915
				c-65.111,21.062-81.318,20.634-110.661,62.471c1.071-51.333,4.926-86.815,34.555-133.794
				c42.552-67.396,108.52-104.735,186.34-116.23c-17.206-62.97-73.251-104.307-129.795-130.295l-24.417-11.209l20.775-17.063
				c6.568-5.355,13.494-10.566,20.419-15.493l12.565-8.995l9.995,11.708c9.495,11.138,22.775,22.275,34.556,30.7
				c71.108,50.618,130.938,26.701,207.9,11.138l-29.2-17.992c21.704-6.568,41.766-12.423,62.898-20.989
				c30.7-12.423,60.971-26.702,90.671-41.338c36.34-17.849,70.967-40.623,102.809-65.611c11.28-8.854,22.988-18.42,33.77-28.344
				c2.57-2.356-27.844-33.841-27.844-33.912c25.273,5.782,50.618,14.636,65.683,28.344c-4.212,18.563-9.781,35.126-21.204,56.687
				l39.268-3.855l11.708,11.066c53.546-6.497,113.231-5.926,162.352,13.351c39.409,15.493,73.394,40.553,99.167,74.107
				c3.713,4.855,13.279,19.063,12.352,24.203c-2.143,11.709-22.133,14.208-30.843,20.419c-9.495,6.854-21.062,10.78-31.913,14.851
				c-6.783,2.498-20.633,7.425-24.632,13.85c-3.142,5.141-4.569,11.281-4.569,17.35c0.286,27.558,4.498,24.417-21.775,16.135
				c-52.475-16.421-110.161-8.996-158.281,16.635c6.996,17.35,14.207,33.342,23.488,49.69c13.352,1.356,25.773,3.284,38.91,5.926
				c25.06,5.069,49.977,12.138,73.822,21.204c65.54,24.846,126.582,65.826,159.139,129.725
				c32.484,63.826,29.486,136.792,10.281,204.045c-15.207,53.547-33.627,86.316-62.113,133.294
				c-10.21-51.975-29.771-96.097-65.112-136.078c-17.849,30.058-42.979,51.262-72.822,64.612
				c8.067,18.42,16.135,36.911,24.417,55.26c7.211,15.921,5.283,22.274,22.346,25.63c7.354,1.429,14.279,2.928,21.205,5.854
				c34.483,14.636,30.057,64.327,17.991,91.6c-9.353,21.133-33.913,24.131-53.403,17.563
				c-23.061,32.342-81.176-5.354-102.451-23.488c-21.918-18.705-58.473-118.658-70.181-151.143
				c-44.051-11.423-102.737-29.058-146.645-37.196C5290.313,382.477,5255.401,384.904,5212.708,385.761z"/>
			<path d="M4782.128-271.141c3.641-1.856,7.139-3.498,10.352-4.927c7.64-3.427,24.346-9.709,33.056-12.637
				c10.78-3.641,1.856-4.854-6.497-9.424c18.349-4.926,45.479-10.353,76.25-6.14l19.848,2.784l-7.354,18.134
				c-1.714,6.212,1.355,18.349,3.355,23.989c3.213,9.495,6.854,18.919,10.852,28.058c1.714,3.998,4.141,9.924,6.426,13.423
				c1.928,2.784,3.927,5.568,5.854,8.353l9.066,12.565l-12.493,9.139c-3.57,2.642-7.782,5.854-11.924,9.281
				c17.92,9.139,35.983,20.133,50.833,31.414l66.111,49.976l-79.747-22.489c-55.331-15.635-111.447-18.634-168.491-15.635
				c-4.712,0.285-8.354,1.284-11.923,4.497c-5.641,4.998-10.924,13.993-16.064,20.063c-10.066,11.923-21.632,19.704-36.696,24.273
				c-13.423,4.142-29.272,6.497-42.979,1.928c-11.852-3.927-21.204-13.279-22.133-26.201c-0.57-8.14,2.499-15.993,7.996-21.919
				c8.996-9.638,23.489-8.566,22.704-14.35c-0.714-5.426-2.285-10.566-4.641-15.493c-7.354-15.563-23.132-30.842-34.483-43.765
				c-4.998-5.641-12.423,13.137-27.701,16.35c-19.776,4.212-33.77-13.208-33.984-31.985c-0.143-16.277,8.567-31.413,19.42-42.907
				c13.922-14.708,32.698-20.063,52.261-19.205c7.567-11.495,24.987-14.279,37.554-13.994c4.854,0.071,9.995,0.785,15.135,1.999
				c9.853-7.925,24.488-8.139,36.055-4.141C4760.923-295.7,4773.703-282.778,4782.128-271.141z"/>
			<path d="M4917.206-205.458c-7.282-11.709-12.637-24.845-18.135-38.553c-6.068-15.207-12.494-33.556-4.783-49.405
				c5.926-12.137,18.063-18.776,29.629-24.56c2.998-1.499,6.14-2.927,9.424-4.283l2.642-9.567
				c7.568-27.201,1.071-50.762-1.928-77.82c-1.428-12.922-1.642-24.916-0.143-36.482c-19.134,0.929-35.555-7.211-36.482-10.995
				c-0.929-3.854,17.634-8.995,33.198-27.629c-2.213-7.282-4.641-14.564-7.782-22.347c-4.283-10.566-8.639-20.99-13.065-31.485
				c-5.211-12.208-10.423-24.346-15.563-36.482c-2.784-6.497-9.281-18.848-8.353-25.845c0.285-1.999,0.856-3.927,1.642-5.712
				c7.425-16.42,29.485-14.778,44.122-12.779c19.348,2.713,39.623,8.425,58.043,14.778c12.923,4.498,25.702,9.567,37.911,15.636
				l14.351,7.14c41.123-17.777,104.164-32.128,149.571-29.7c26.63,1.428,44.979,7.854,51.547-2.07
				c12.708-19.277,24.202-39.339,34.697-57.544c5.427-9.425,10.067-19.42,15.707-28.63c6.568-10.78,15.564-21.204,29.558-20.133
				c26.844,2.142,41.623,37.054,49.404,58.758c11.852,33.127,19.277,70.395,24.561,105.093c4.569,29.7,7.854,59.972,9.139,89.957
				c0.856,19.49,1.499,46.192-3.213,65.111l-2.214,8.996c19.563,19.348,36.84,41.552,54.117,62.97
				c-5.354,8.068-10.638,16.064-16.349,23.846c-1.429,1.928-2.856,3.855-4.284,5.783c-68.967,95.812-224.036,164.85-341.623,176.416
				S4917.206-205.458,4917.206-205.458z"/>
			<path fill="#9AC2EB" d="M5039.862-329.756c-24.774,3.855-77.606,11.352-108.377,26.773
				c-24.917,12.494-30.129,19.276-16.778,52.688c6.068,15.136,14.636,33.057,26.13,49.191
				c44.551,62.685,122.156,63.612,191.98,58.758c26.559-1.856,53.76,11.923,37.482,37.625c0-20.633-26.06-27.772-37.768-25.702
				c13.707,20.633,47.263,47.834,73.893,37.268c14.708-5.854,33.913-20.276,33.913-20.276
				c-20.919-28.558-55.831-47.334-85.174-65.54c21.704-6.568,41.766-12.423,62.898-20.989c30.7-12.423,60.971-26.702,90.671-41.338
				c36.34-17.849,70.967-40.623,102.809-65.611c5.926-4.641,11.923-9.496,17.849-14.422c1.57-2.213,3.069-4.498,4.641-6.711
				c-15.493-19.134-33.413-40.48-45.835-52.618c-26.416-25.916-46.121-32.056-46.121-32.056s12.922-1.928,28.629,2.57
				c10.709,3.069,14.564,4.497,15.921,5.068c13.493-54.045-16.992-294.217-64.969-298.072c-9.853-0.785-17.349,19.491-29.344,40.338
				c-21.632,37.625-48.763,84.389-80.461,114.518l18.563-39.053c-57.687-18.206-135.864-0.5-188.839,24.06
				c-47.264,21.847-73.894,72.18-118.801,103.308c0,0,41.694-5.283,60.614-24.773c0.071,23.274,9.71,41.194,9.71,41.194
				c5.64-7.425,25.345-30.985,34.126-32.271c-3.142,10.924-1.713,17.277-1.214,28.059c10.139-10.639,43.266-35.483,56.902-35.055
				c0,0-35.127,33.198-44.693,46.264c-9.566,13.064-13.137,22.489-13.137,22.489c-7.211-10.853-9.781-15.707-10.709-28.63
				c-9.71,10.21-14.422,22.847-15.992,36.626c-18.277-15.278-25.988-35.841-29.844-49.191c-3.712,1.785-9.353,3.998-17.277,6.069
				c-4.141,14.778-1.855,30.771,0.357,45.478c10.709,5.926,22.061,12.923,32.199,19.848c18.919,12.994,23.846,12.423,23.988,8.496
				c0.428-11.066,9.924-4.783,10.352,5.926c0.144,5.426-0.713,13.922-7.996,14.493c-1.713,0.143-4.497-0.856-8.067-2.642
				c0.5,7.496-0.643,14.493-2.998,20.062C5013.517-338.466,5028.153-336.823,5039.862-329.756z M4953.974-387.442l1.071,8.21
				c1.856,16.278,2.284,33.128-2.927,51.904c4.712-1.643,10.852-3.569,17.849-5.354c-4.784-5.498-8.354-13.494-9.71-22.775
				c-1.214-8.424-0.429-16.349,1.999-22.632l1.214-3.427C4960.328-383.516,4957.115-385.515,4953.974-387.442z"/>
			<path fill="#5396DC" d="M5112.898-141.131c6.64-0.357,13.279-0.714,19.919-1.214c26.559-1.856,53.76,11.923,37.482,37.625
				c0-20.633-26.06-27.772-37.768-25.702c13.707,20.633,47.263,47.834,73.893,37.268c14.708-5.854,33.913-20.276,33.913-20.276
				c-18.349-25.059-47.549-42.622-74.251-58.828c0,0-29.629,19.419-86.102,25.845c-27.701,3.141-55.759-1.571-77.178-7.282
				c33.698,12.851,72.466,14.278,110.02,12.565H5112.898z M5186.292-188.537c10.566-3.427,20.99-7.068,31.771-11.423
				c30.7-12.423,60.971-26.702,90.671-41.338c36.34-17.849,70.967-40.623,102.809-65.611c5.926-4.641,11.923-9.496,17.849-14.422
				c1.57-2.213,3.069-4.498,4.641-6.711c-0.071,0-17.421,6.426-45.336,18.063C5282.675-265.644,5266.683-258.361,5186.292-188.537z"
				/>
			<path fill="#5396DC" d="M5062.922-463.335c-9.638,9.639-20.133,20.49-24.702,26.773c-2.285,3.141-4.283,6.14-5.926,8.781
				l6.568,13.137C5038.862-414.644,5050.643-448.413,5062.922-463.335z M5019.157-423.711c-2.855-5.497-4.141-10.495-4.783-18.991
				c-6.926,7.282-11.352,15.85-13.851,25.203c4.212,5.854,8.925,11.208,13.922,14.492
				C5014.445-403.007,5014.374-413.002,5019.157-423.711z"/>
			<path fill="#FFFFFF" d="M5370.133-410.289c0.143,0,0.357,0.071,0.571,0.144c10.709,3.069,14.564,4.497,15.921,5.068
				c13.493-54.045-16.992-294.217-64.969-298.072c-2.214-0.214-4.355,0.714-6.426,2.499c5.926,2.213,11.138,6.568,15.207,13.708
				c26.13,45.906,41.052,160.424,41.48,223.607C5372.132-432.421,5371.133-417.499,5370.133-410.289z M5434.031-328.042
				c-15.493-19.134-33.413-40.48-45.835-52.618c-10.71-10.495-20.276-17.706-27.916-22.632
				c16.85,20.848,53.261,56.116,49.477,84.674C5425.035-324.758,5434.031-328.042,5434.031-328.042z"/>
			<path fill="#9AC2EB" d="M4971.537-531.73c-10.353-18.063-23.274-31.843-33.27-40.909c0.499,0.285,0.999,0.5,1.499,0.785
				c12.565,6.782,28.486,17.635,38.196,32.342l0,0c10.495-11.78,24.56-24.417,42.122-34.412
				c-43.836-21.775-115.658-38.768-117.515-24.774c-0.071,0.071,27.272,65.397,40.409,98.953
				C4955.474-509.099,4971.537-531.73,4971.537-531.73z"/>
			<path fill="#FFFFFF" d="M5003.808-563.287c5.068-3.713,10.495-7.354,16.277-10.638c-42.051-20.919-109.732-37.411-116.943-26.345
				c8.781-1.285,19.562-0.5,32.698,3.427C4980.318-583.421,4997.739-569.57,5003.808-563.287z M4953.974-387.442l1.071,8.21
				c1.856,16.278,2.284,33.128-2.927,51.904c0,0,5.426-9.639,8.566-25.631c-0.214-0.785-0.356-1.642-0.428-2.499
				c-1.214-8.424-0.429-16.349,1.999-22.632c-0.143-1.428-0.286-2.927-0.356-4.354
				C4959.257-384.158,4956.616-385.801,4953.974-387.442z M4960.614-398.58c-1.357-20.062-1.285-41.623,7.924-56.688
				c-3.712,1.785-9.353,3.998-17.277,6.069c-4.141,14.778-1.855,30.771,0.357,45.478
				C4954.616-402.078,4957.615-400.365,4960.614-398.58z M4922.774-459.979c0,0,23.703-8.139,41.552-25.345
				c43.837-42.266,52.476-56.973,116.587-81.033c-26.559,13.565-38.481,31.343-38.481,31.343
				c54.617-34.198,119.657-50.548,183.127-42.123l4.855-10.209c-57.687-18.206-135.864-0.5-188.839,24.06
				C4992.813-540.727,4966.111-490.036,4922.774-459.979z M5039.862-329.756c-24.774,3.855-77.606,11.352-108.377,26.773
				c-24.917,12.494-30.129,19.276-16.778,52.688c4.212,10.566,9.638,22.418,16.421,34.056c-7.782-25.773-12.994-51.047-8.496-63.112
				C4933.698-309.194,5039.862-329.756,5039.862-329.756z"/>
			<path fill="#136ECF" d="M4971.537-531.73c-10.353-18.063-23.274-31.843-33.27-40.909l0,0c-16.636-8.996-15.207-7.068-9.425,6.925
				c5.355,13.065,15.564,34.556,23.989,56.901C4962.542-519.094,4971.537-531.73,4971.537-531.73L4971.537-531.73z"/>
			<path d="M5148.096-410.003c1,1.07,7.925,10.352,8.853,11.565c4.213,5.569,7.14,12.565,8.282,20.348
				c3.07,20.776-7.996,39.624-24.631,42.052c-16.635,2.427-32.628-12.423-35.697-33.199c-0.571-3.926-0.643-7.781-0.214-11.423
				L5148.096-410.003z"/>
			<path fill="#FFFFFF" d="M5122.037-380.589c4.212-0.643,8.425,3.998,9.353,10.281c0.928,6.354-1.785,11.994-5.997,12.565
				c-4.212,0.643-8.425-3.998-9.353-10.281C5115.111-374.377,5117.824-379.946,5122.037-380.589z"/>
			<path fill="#136ECF" d="M5237.768-535.8c0,0,47.478,25.63,75.749,85.173c28.344,59.543,19.705-169.704,11.495-200.118
				C5316.802-681.231,5327.438-636.752,5237.768-535.8z"/>
			<path d="M5237.768-535.8c0,0,47.478,25.63,75.749,85.173c10.281,21.633,15.707,5.212,17.992-25.845
				c-6.141,23.346-17.492,9.639-27.701-9.353c-14.564-27.272-48.977-51.404-48.977-51.404c39.98-50.19,53.617-84.603,57.473-106.163
				C5302.879-623.615,5283.246-586.99,5237.768-535.8z"/>
			<path fill="#FFFFFF" d="M4974.679-368.38c-3.57-0.5-6.354,3.641-6.283,9.21c0.143,5.497,3.142,10.423,6.711,10.923
				c3.57,0.5,6.354-3.641,6.212-9.139C4981.247-362.954,4978.248-367.88,4974.679-368.38z"/>
			<path d="M4909.853-270.784c7.854,9.354,19.49,20.348,28.486,23.632c14.564,5.354,15.278-7.14,22.846-15.707
				c7.64-8.639,47.049-30.699,13.994-34.555c-20.419-2.427-42.694-0.571-56.688,1.928
				C4908.21-293.559,4903.142-278.708,4909.853-270.784z"/>
			<path fill="#0A35A4" d="M5195.716-173.688c0,0,69.609,42.837,110.447,120.871c18.777,35.841,31.699,79.462,51.976,122.156
				c-14.351-41.979-22.774-97.739-15.35-169.562c1.57,124.154,20.204,241.385,138.362,302.427
				c120.8,62.399,175.416,73.18,223.965,127.796c48.619,54.546,58.829,106.164,58.829,106.164s96.597-159.566,31.199-288.006
				C5729.747,19.792,5543.122,1.087,5543.122,1.087s25.202,35.197,50.762,57.687c25.487,22.489,43.765,27.63,43.765,27.63
				s-34.483,0.571-71.681-36.34c-37.196-36.911-63.041-100.452-63.041-100.452s-17.349,27.272-38.41,2.356
				c-40.623-48.191-28.13-176.845,16.635-221.109l-36.697,3.641c0,0-33.912,17.992-55.83,44.408
				c-21.847,26.344-30.271,45.906-30.271,45.906s4.783-33.341,28.201-57.9c23.418-24.632,50.119-40.838,50.119-40.838
				s9.066-14.065,18.134-33.627c9.139-19.491,9.781-22.775,9.781-22.775s-63.684,62.399-148.429,104.094
				C5231.484-184.539,5195.716-173.688,5195.716-173.688z"/>
			<path fill="#82B3E6" d="M5195.716-173.688c0,0,64.755,39.839,105.949,112.661c-27.129-71.038-77.748-109.091-77.748-109.091
				c177.059-75.75,240.671-160.21,240.671-160.21s-63.684,62.399-148.429,104.094
				C5231.484-184.539,5195.716-173.688,5195.716-173.688z M5618.515,82.977c-13.494-4.142-32.627-13.137-52.547-32.913
				c-37.196-36.911-63.041-100.452-63.041-100.452s-3.355,5.354-8.996,9.139C5517.206,16.294,5553.688,68.983,5618.515,82.977
				L5618.515,82.977z M5440.956-161.122c3.784-43.407,17.992-86.102,40.195-108.02l-36.697,3.641c0,0-15.92,8.425-32.983,22.275
				c8.425-4.212,19.419-8.853,29.2-10.638c19.205-3.427,21.489-2.999,21.489-2.999S5436.03-213.525,5440.956-161.122z
				 M5812.637,303.871c8.924-48.834,8.495-104.735-17.492-155.712C5729.747,19.792,5543.122,1.087,5543.122,1.087
				s3.855,5.354,10.066,13.208C5724.393,53.062,5822.846,118.245,5812.637,303.871z"/>
			<path fill="#072778" d="M4909.566-177.043c0,0,7.64-6.282,18.991-14.421c32.699,45.549,80.462,61.471,131.295,65.396
				c4.854,10.353,11.994,23.989,16.492,31.557c29.985,50.69,48.334,67.183,57.329,81.604c8.996,14.35,13.779,38.695,13.779,38.695
				s-25.487-5.426-54.902,0c-29.415,5.354-42.622,14.993-42.622,14.993S5091.979-93.154,4909.566-177.043z"/>
			<path fill="#0A35A4" d="M5037.935-15.334c16.277,58.758-15.564,101.951-60.686,130.224
				c-46.192,28.844-127.083,35.626-151.714,68.967C4825.535,183.856,4847.168,11.082,5037.935-15.334z"/>
			<path fill="#072778" d="M5038.862,40.567c-8.496,31.2-32.271,55.974-61.613,74.322c-46.192,28.844-127.083,35.626-151.714,68.967
				c0,0,21.918-38.981,129.296-76.035C4997.811,92.972,5023.513,66.698,5038.862,40.567z M5317.729-28.328
				c13.208,30.343,24.56,64.327,40.409,97.668c-11.638-34.056-19.348-77.106-17.92-130.438c-1.928,11.708-4.854,24.273-9.21,29.485
				C5328.581-28.685,5323.655-27.899,5317.729-28.328z M5343.074-85.229c2.927,118.516,24.702,228.819,138.077,287.435
				c120.8,62.399,175.416,73.18,223.965,127.796c44.836,50.263,56.973,98.025,58.615,105.236
				C5703.188,134.38,5388.053,274.171,5343.074-85.229z"/>
			<path fill="#136ECF" d="M5324.726,26.646c0,0-93.098,9.71-154.426-33.841c-58.33-41.479-81.604-83.889-95.383-118.015
				c13.992,0.428,28.058,0.143,41.979-0.5l2.642,3.927c17.777,26.63,89.672,72.18,119.301,77.963l-35.127-30.985
				c0,0,28.772-11.28,39.91-18.349c11.066-7.067,11.066-7.067,11.066-7.067S5297.882-51.031,5324.726,26.646z"/>
			<path fill="#0F59A7" d="M5324.726,26.646c0,0-93.098,9.71-154.426-33.841c-58.33-41.479-81.604-83.889-95.383-118.015
				c4.997,0.143,9.924,0.214,14.85,0.214c9.353,24.774,47.049,109.733,128.652,126.083c50.048,9.995,74.465-5.426,86.316-22.489
				C5311.804-6.98,5318.657,9.154,5324.726,26.646z"/>
			<path fill="#82B3E6" d="M5100.476-125.139c5.498-0.143,10.995-0.357,16.421-0.571l2.642,3.927
				c15.35,22.989,71.037,60.114,105.021,73.536l0,0c0,0-18.349-0.856-59.758-25.773
				C5134.388-92.369,5110.828-114.644,5100.476-125.139z M5209.71-69.522l-5.998-5.283c0,0,28.772-11.28,39.91-18.349
				c11.066-7.067,11.066-7.067,11.066-7.067s1.998,2.284,5.426,6.568C5246.264-80.518,5221.489-72.664,5209.71-69.522z"/>
			<path fill="#C3DBF3" d="M5156.306-4.554c0,0,13.209,21.204,13.494,39.339c0.285,18.134-6.711,26.701-6.711,26.701
				s77.392,60.4,201.118,43.266c-14.136-23.489-26.701-49.69-33.627-64.97C5279.462,44.423,5207.14,40.711,5156.306-4.554z"/>
			<path fill="#5396DC" d="M5353.854,86.617c-0.356-0.714-0.713-1.356-1.07-1.999C5353.142,85.261,5353.498,85.903,5353.854,86.617z
				 M5352.07,83.262c-0.357-0.571-0.714-1.214-1-1.856C5351.356,82.048,5351.713,82.69,5352.07,83.262z M5335.863,51.134
				c-1.999-4.212-3.784-8.067-5.283-11.352c-10.495,0.929-21.918,1.5-33.77,1.5c3.355,3.069,6.997,7.139,10.281,12.422
				C5316.302,53.419,5325.939,52.563,5335.863,51.134z"/>
			<path fill="#5396DC" d="M5165.802,15.437c2.142,6.141,3.927,12.923,3.998,19.349c0.285,18.134-6.711,26.701-6.711,26.701
				s77.392,60.4,201.118,43.266c-11.065-18.349-21.133-38.411-28.344-53.618C5247.691,63.628,5187.862,30.644,5165.802,15.437z"/>
			<path fill="#136ECF" d="M5320.014,107.821c13.993,0,28.701-0.928,44.193-3.069c-11.065-18.349-21.133-38.411-28.344-53.618
				c-9.924,1.429-19.562,2.285-28.771,2.57c2.927,4.713,5.64,10.281,7.853,17.063
				C5321.014,89.474,5320.942,101.396,5320.014,107.821z"/>
			<path fill="#136ECF" d="M5156.306,70.768c0,0,47.692,49.191,152.714,50.405c23.988,0.285,44.621-0.929,62.185-2.856
				c21.989,39.268,54.617,72.822,102.736,97.739c38.625,19.919,77.678,37.768,117.016,56.188
				c25.202,11.852,51.262,24.346,73.537,41.267c6.068,4.568,11.779,9.424,17.205,14.564
				c-17.848,32.698-53.117,69.252-122.513,77.534c-76.963,9.139-123.227-7.425-188.981-53.832
				c-66.468-46.906-138.006-61.97-174.56-61.97c32.842,4.641,106.735,22.132,171.062,71.251
				c7.639,5.783,33.127,21.633,50.833,32.913c-49.19-12.779-96.026-29.129-168.563-26.201
				c-131.938,5.426-208.187-5.997-249.596-50.977C4957.972,271.743,4973.036,141.591,5156.306,70.768z"/>
			<path fill="#0F59A7" d="M5244.336,113.604c18.491,4.355,39.98,7.282,64.684,7.568c23.988,0.285,44.621-0.929,62.185-2.856
				c8.853,15.778,19.419,30.628,31.984,44.407c-30.771-11.923-59.043-20.133-80.104-23.346
				C5290.386,134.309,5263.755,123.813,5244.336,113.604z M5576.892,265.675c4.712,2.142,9.353,4.355,14.064,6.568
				c25.202,11.852,51.262,24.346,73.537,41.267c6.068,4.568,11.779,9.424,17.205,14.564c-11.065,20.275-28.914,42.051-57.4,57.687
				c5.64-19.705,4.712-46.978-15.992-81.89C5600.595,290.877,5589.813,278.026,5576.892,265.675z M5271.822,309.654
				c1.214,0.428,2.499,0.928,3.784,1.428c-2.784-1-4.283-1.499-4.283-1.499S5271.323,309.511,5271.822,309.654z M5301.951,322.22
				c21.418,9.924,43.622,22.703,64.755,38.838c7.639,5.783,33.127,21.633,50.833,32.913c-49.19-12.779-96.026-29.129-168.563-26.201
				c-100.238,4.141-168.277-1.5-213.327-24.132c11.852,2.428,24.917,3.784,39.41,3.784c110.161,0,143.717-6.426,199.833,2.57
				C5321.299,357.417,5316.587,334.499,5301.951,322.22z"/>
			<path fill="#82B3E6" d="M5156.306,70.768c0,0,4.427,4.498,13.423,10.853c-23.061,3.498-56.045,20.633-72.894,31.556
				c-42.837,27.559-103.951,79.819-116.445,144.289C4981.961,199.278,5027.725,120.458,5156.306,70.768z"/>
			<path fill="#9AC2EB" d="M5088.053,376.337c-10.352,18.419-25.63,44.336-32.341,50.761c-10.781,10.21-37.982,2.143-49.905,25.203
				c-11.923,23.132,5.782,34.126,5.782,34.126s1.357-20.704,13.494-29.558c12.065-8.853,32.77-7.496,32.77-7.496
				s-30.414,7.782-34.412,27.701c-3.998,19.848,8.211,26.059,17.492,27.13s9.281,0,9.281,0s-2.07-21.775,10.281-31.699
				c12.351-9.995,33.056-12.637,33.056-12.637s-27.63,12.065-28.701,30.057c-1.071,17.992,13.922,22.347,23.917,20.134
				c9.924-2.142,46.479-19.063,54.26-38.41c7.782-19.348,50.477-87.03,50.477-87.03l0,0
				C5151.88,384.618,5117.039,382.119,5088.053,376.337z"/>
			<path fill="#5396DC" d="M5009.162,447.089c-1.214,1.499-2.356,3.284-3.355,5.212c-11.923,23.132,5.782,34.126,5.782,34.126
				s1.071-16.35,9.854-26.202C5016.087,459.439,5009.733,456.441,5009.162,447.089z M5029.581,465.294
				c-2.928,3.355-5.212,7.211-6.141,11.78c-3.998,19.848,8.211,26.059,17.492,27.13s9.281,0,9.281,0s-1.643-17.349,6.782-28.13
				c-3.641,0.571-8.21,0.715-13.708-0.071C5034.436,474.646,5030.938,469.363,5029.581,465.294z M5068.634,479.287
				c-2.142,3.284-3.57,6.783-3.784,10.638c-1.071,17.992,13.922,22.347,23.917,20.134c9.924-2.142,46.479-19.063,54.26-38.41
				c7.782-19.348,50.477-87.03,50.477-87.03l0,0c-19.776,0-37.982-0.571-54.76-1.785c6.497,5.427,11.352,13.494,8.496,25.131
				c-6.568,27.273-14.85,52.832-26.273,61.114c-11.352,8.21-28.558,16.35-41.694,15.563
				C5073.346,484.285,5070.204,481.857,5068.634,479.287z"/>
			<path fill="#9AC2EB" d="M5497.001,424.385c8.924,24.774,46.549,126.512,64.398,141.719
				c20.275,17.277,64.897,43.051,77.248,27.201c12.423-15.85-1.428-45.05-18.776-52.476c-17.349-7.425-17.349-6.996-17.349-6.996
				s24.06-1.214,40.909,11.423c16.777,12.637,14.064,40.909,14.064,40.909s25.773,9.139,33.413-8.21
				c7.71-17.35,1.285-47.549-20.063-53.261c-21.275-5.712-30.699-3.927-30.699-3.927s25.987-6.711,42.337,0.929
				c16.349,7.71,17.135,15.921,17.135,15.921s-0.357-21.562-17.849-28.986c-17.492-7.425-34.198-2.999-42.623-19.349
				c-5.068-9.852-21.489-47.263-33.912-75.535c-12.565,4.498-26.701,7.925-42.694,9.853
				C5538.124,426.455,5516.777,426.813,5497.001,424.385z"/>
			<path fill="#5396DC" d="M5497.001,424.385c8.924,24.774,46.549,126.512,64.398,141.719
				c20.275,17.277,64.897,43.051,77.248,27.201c5.783-7.354,5.854-17.706,2.499-27.345c-6.425,2.428-19.919,3.927-42.837-3.283
				c-34.197-10.781-47.977-73.466-61.542-107.378c-5.426-13.779-4.497-23.203-1.499-29.486
				C5521.704,426.313,5509.066,425.885,5497.001,424.385z M5654.854,562.391c3.784,11.78,2.642,23.774,2.642,23.774
				s25.773,9.139,33.413-8.21c4.354-9.781,4.212-23.632-0.572-34.912c-0.713,4.498-3.212,10.066-10.138,14.351
				C5672.132,562.391,5661.994,562.604,5654.854,562.391z M5695.121,530.12c4.212,4.284,4.498,7.497,4.498,7.497
				s-0.071-5.212-2.285-11.353C5696.763,527.693,5695.906,528.979,5695.121,530.12z"/>
			<path fill="#9AC2EB" d="M4893.146-288.775c-2.784-0.356-5.283-0.714-7.354-0.928c-16.849-1.643-34.555,0-34.555,0
				s4.283,2.355,7.354,4.854c3.07,2.428,3.855,3.713,3.855,3.713s-30.914,4.569-63.612,19.276
				c-32.699,14.707-45.265,28.486-45.265,28.486s0.571-11.638,6.926-17.991c6.282-6.354,11.137-7.496,11.137-7.496
				s-14.278-21.562-28.629-26.56c-14.422-4.997-21.918,2.285-21.918,2.285s4.498,2.07,7.639,6.14
				c3.143,4.069,1.928,7.068,1.928,7.068s-12.851-11.994-33.983-12.494c-21.204-0.429-24.773,7.996-24.773,7.996
				s9.138,1.356,13.065,5.497c3.854,4.213,3.426,7.068,3.426,7.068s-44.406-19.134-69.895,7.782
				c-25.488,26.986-14.137,51.903,0,48.905c14.064-2.999,22.203-34.483,42.622-11.353c20.348,23.061,39.268,40.481,42.837,67.469
				c3.642,26.986-15.564,15.063-26.63,26.986c-11.138,11.995,0.856,32.984,41.052,20.705c40.195-12.28,34.198-47.691,68.396-49.477
				c25.63-1.356,97.881-5.212,173.56,16.206c-30.985-23.488-68.539-39.338-68.539-39.338c8.282-10.066,25.917-23.846,30.2-27.13
				c-7.14-11.28-13.279-23.346-18.563-35.626c-2.499-5.426-4.926-11.352-7.068-17.563
				C4888.434-277.209,4893.146-288.775,4893.146-288.775z"/>
			<path fill="#5396DC" d="M4617.206-204.958c0.428-0.071,0.856-0.071,1.285-0.214c14.064-2.999,22.203-34.483,42.622-11.353
				c20.348,23.061,39.268,40.481,42.837,67.469c3.642,26.986-15.564,15.063-26.63,26.986c-11.138,11.995,0.856,32.984,41.052,20.705
				c40.195-12.28,34.198-47.691,68.396-49.477c25.63-1.356,97.881-5.212,173.56,16.206c-19.419-14.778-41.552-26.487-55.259-33.198
				c-24.274-2.428-51.976-4.069-80.391-3.498c-84.889,1.785-88.814,26.701-101.095,11.709
				c-12.352-14.993-26.131-37.84-47.691-61.543c-21.562-23.631-41.98-14.064-50.119,0
				C4621.989-214.597,4619.205-209.027,4617.206-204.958z"/>
			<path fill="#FFFFFF" d="M4893.146-288.775c-2.784-0.356-5.283-0.714-7.354-0.928c-16.849-1.643-34.555,0-34.555,0
				s4.283,2.355,7.354,4.854c3.07,2.428,3.855,3.713,3.855,3.713s-30.914,4.569-63.612,19.276
				c-32.699,14.707-45.265,28.486-45.265,28.486c37.554-19.348,98.524-35.126,140.005-30.485
				C4889.79-280.422,4893.146-288.775,4893.146-288.775z M4764.136-254.648c4.427-3.499,7.496-4.212,7.496-4.212
				s-14.278-21.562-28.629-26.56c-14.422-4.997-21.918,2.285-21.918,2.285s3.427,1.57,6.426,4.712
				c1.785-0.714,6.854-1.999,14.85,1.856C4749.929-272.926,4759.638-260.717,4764.136-254.648z M4730.651-269.927
				c0,0-12.851-11.994-33.983-12.494c-21.204-0.429-24.773,7.996-24.773,7.996s5.925,0.856,10.28,3.355
				c30.843-7.925,55.188,16.921,55.188,16.921s-0.071-3.213-1.999-7.854C4733.365-266.643,4730.651-269.927,4730.651-269.927z
				 M4688.386-261.859c0,0-44.406-19.134-69.895,7.782c-16.207,17.135-17.492,33.412-12.709,42.266
				c1.785-10.495,5.998-21.633,14.637-30.7c17.991-18.705,54.474-16.991,82.246-5.212
				C4696.239-259.86,4688.386-261.859,4688.386-261.859z"/>
			<path fill="#9AC2EB" d="M5490.861-256.79c48.191-7.996,120.8-13.708,178.272,8.924c44.407,17.42,73.536,44.622,91.956,68.61
				c-1,10.852-6.069,14.422-14.922,20.775c-17.206,12.28-49.69,15.207-61.042,33.484c-4.855,7.854-7.14,16.992-7.068,26.345
				c-67.824-21.347-145.217-6.14-203.26,38.41C5441.599-103.792,5454.021-218.095,5490.861-256.79z"/>
			<path fill="#5396DC" d="M5684.626-124.14c-4.498,7.64-6.64,16.492-6.568,25.488c-67.824-21.347-145.217-6.14-203.26,38.41
				c-14.779-19.348-20.49-52.761-19.063-87.315c5.426,11.923,13.493,20.704,25.416,21.847
				C5516.563-122.497,5600.38-159.979,5684.626-124.14z"/>
			<path fill="#FFFFFF" d="M5490.861-256.79c48.191-7.996,120.8-13.708,178.272,8.924c44.407,17.42,73.536,44.622,91.956,68.61
				c-0.571,6.354-2.57,10.209-5.926,13.565c-21.919-35.412-61.471-69.253-132.509-76.464c-72.894-7.354-120.3,2.499-150.356,15.492
				C5477.438-238.87,5483.722-249.223,5490.861-256.79z"/>
			<path d="M4989.6-233.516c10.566-0.357,23.204-2.428,34.912-8.425c91.742-46.835,102.166,65.54,51.618,83.317
				c-34.197,11.994-49.833-4.854-61.898-33.341C5007.877-206.886,4997.024-222.878,4989.6-233.516z"/>
			<path fill="#FF99CC" d="M5043.432-169.903c0-26.63,30.414-49.619,49.477-45.621
				C5102.832-183.683,5069.276-156.553,5043.432-169.903z"/>
			<path fill="#82B3E6" d="M4909.566-177.043c0,0,7.64-6.282,18.991-14.421c1.499,2.142,3.142,4.283,4.712,6.282l-8.995,6.925
				c0,0,28.414,16.992,55.401,43.479C4961.113-149.627,4938.053-163.906,4909.566-177.043z M5037.935-15.334
				c1.07,3.855,1.928,7.567,2.569,11.28c-77.677,5.997-140.861,56.473-183.626,103.665
				C4885.364,51.634,4938.839-1.626,5037.935-15.334z"/>
			<path d="M5077.415-376.162c0.286,5.426,1.785,13.851,9.139,13.851c9.71,0,52.975-40.124,82.604-55.902
				c25.56-13.707,29.843-27.13-4.141-11.137c-14.422,6.711-36.626,21.775-54.475,36.125c-17.849,14.422-22.846,14.279-23.274,10.353
				C5085.982-393.939,5076.987-386.871,5077.415-376.162z"/>
		</g>
		<g>
			<path d="M5610.804-462.621c26.702-16.563,53.332,4.355,67.396-11.994c14.064-16.278,46.192-12.779,65.684-10.353
				c19.49,2.428,47.62,8.854,45.121,16.207c-2.499,7.282-2.142,23.774-1.499,34.412c0.714,10.709-30.843,54.688-49.263,100.238
				c-18.42,45.549,12.708,45.478,16.85,78.605c4.212,33.056-5.498,66.754,9.353,106.521c11.138,29.628,17.491,36.625,46.335,102.95
				c7.925,18.349,43.121,60.186,81.604,86.674c19.848,13.636,18.277,11.137,19.99,28.914c1.215,12.923,1.215,41.124,11.637,71.752
				c8.283,24.346,19.992,53.617,35.555,86.744c35.197,74.893,61.043,93.955,70.895,149.929
				c9.854,55.902,22.848,93.813,12.281,109.591s-40.268-81.39-101.166-203.403c-34.127-68.539-46.264-79.677-75.893-109.876
				c-23.203-23.561-42.837-38.054-55.83-47.264c-15.922-11.352-15.922-11.637-16.422-35.126
				c-0.57-26.63-10.066-90.386-18.563-110.804c-31.199-75.321-45.978-107.807-74.607-135.15
				c-28.7-27.344-48.048-20.704-71.965-68.61c-23.846-47.905-65.469-60.471-53.403-68.396c11.994-7.925,29.771-19.348,58.258,2.57
				c28.415,21.989,46.264,11.852,27.415-20.348c-18.848-32.199,33.199-53.688-11.779-62.97
				c-45.051-9.282-65.897,13.422-100.523,15.35c-34.556,1.928-72.18,1.57-66.611-5.997
				C5508.067-398.438,5575.321-440.632,5610.804-462.621z"/>
			<path fill="#4D4D4D" d="M5610.804-462.621c26.702-16.563,53.332,4.355,67.396-11.994c14.064-16.278,46.192-12.779,65.684-10.353
				c17.634,2.143,42.337,7.711,45.05,14.137c-8.567-0.071-34.27-8.639-51.404-9.781c-22.561-1.499-45.978-0.643-54.617,8.281
				c-8.639,8.925-12.637,7.068-33.983,7.711c-7.568,0.286-18.991,0.357-23.632,1.356c-8.853,1.785-25.416,11.994-37.411,21.133
				c-6.854,5.212-6.14,9.067-12.637,11.352c-20.633,7.211-47.477,30.771-63.326,40.838c-11.852,7.497-24.988,22.204-30.771,28.986
				c-0.071-0.5,0.143-0.999,0.5-1.499C5508.067-398.438,5575.321-440.632,5610.804-462.621z"/>
			<path fill="#4D4D4D" d="M5573.251-289.561c0.356-0.5,0.928-0.999,1.642-1.499c11.994-7.925,29.771-19.348,58.258,2.57
				c28.415,21.989,46.264,11.852,27.415-20.348c-13.922-23.774,10.781-41.694,6.568-53.189c4.498,5.641,3.213,14.922-0.214,25.988
				c-4.569,14.921-4.569,21.561,2.57,31.984c9.781,14.422,5.141,24.417,0.214,30.914c-6.282,8.496-15.921,3.855-29.629,0.643
				c-9.066-2.213-18.134,0.143-23.131-6.568c-6.568-8.567-19.991-15.421-35.483-10.852
				C5577.748-288.847,5575.106-288.847,5573.251-289.561z M5740.813-340.322c-0.856,2.07-1.713,4.142-2.57,6.212
				c-18.42,45.549,12.708,45.478,16.85,78.605c4.212,33.056-5.498,66.754,9.353,106.521c11.138,29.628,17.491,36.625,46.335,102.95
				c6.282,14.637,29.984,44.266,58.828,69.039c-23.273-12.065-38.98-28.272-50.761-42.837
				c-18.991-23.417-68.61-127.511-75.535-162.351c-6.997-34.841,3.069-71.966-14.422-99.738
				C5711.399-309.694,5740.813-340.322,5740.813-340.322L5740.813-340.322z M5914.229,93.757
				c1.285,13.493,3.855,30.129,9.781,47.549c8.283,24.346,19.992,53.617,35.555,86.744c35.197,74.893,61.043,93.955,70.895,149.929
				c2.785,15.636,5.783,29.914,8.496,42.694c-22.131-78.178-48.977-116.802-80.246-171.562
				C5920.942,182.857,5914.229,93.757,5914.229,93.757L5914.229,93.757z"/>
			<path fill="#82B3E6" d="M5595.383-388.37c3.998-3.855,9.995-13.28,17.206-15.85c8.639-3.213,54.046-25.773,62.613-23.489
				c8.639,2.284,44.479,3.998,59.328,2.855c14.851-1.142,15.993,0.144,7.426,6.568c-8.567,6.497-28.201,21.276-43.194,31.842
				c-14.992,10.638-19.276,14.065-28.558,10.781c-18.92-6.64-26.772-12.78-47.763-10.71c-8.853,0.929-19.276,2-24.917,3.356
				C5592.384-381.731,5588.743-381.802,5595.383-388.37z M5599.523-411.146c-0.999-2.355-10.495-8.924-16.849-12.423
				c-3.784-2.07-4.355-2.284-8.425-0.214c-10.495,5.354-34.841,23.846-46.121,33.698c-13.137,11.423-21.347,15.563-11.923,15.85
				c9.424,0.285,38.553-4.712,48.62-7.211c10.138-2.499,19.134-7.354,23.774-12.708
				C5592.741-398.865,5601.095-407.647,5599.523-411.146z M5592.599-428.352c6.782,4.927,17.063,14.136,22.275,13.493
				c5.283-0.643,52.902-22.632,75.32-32.698c22.418-9.995,37.768-12.851,55.188-14.636c17.349-1.714,22.061-4.855,14.707-6.354
				c-7.282-1.499-53.974-8.639-65.255-4.641c-11.28,3.998-17.491,14.351-33.841,16.136c-16.278,1.784-39.195-1.643-45.55,1.784
				c-4.712,2.57-14.35,10.638-19.205,14.779C5592.456-437.133,5585.959-433.206,5592.599-428.352z M5690.837-433.92
				c8.14,0.071,42.623-0.786,51.976-1.856c9.281-1,19.491-3.355,23.274-6.64c3.855-3.284,12.28-15.564,8.925-16.635
				c-3.284-1-37.554,6.068-54.831,8.067c-13.565,1.57-30.129,9.995-36.697,13.493
				C5676.059-433.421,5687.981-433.991,5690.837-433.92z"/>
			<path fill="#136ECF" d="M5742.599-418.784c-0.215,0.214-0.429,0.356-0.643,0.499c-8.567,6.497-28.201,21.276-43.194,31.842
				c-14.992,10.638-19.276,14.065-28.558,10.781c-18.92-6.64-26.772-12.78-47.763-10.71c-8.853,0.929-19.276,2-24.917,3.356
				c-1.713,0.428-3.284,0.714-4.355,0.643c2.856-0.643,6.641-1.856,11.852-4.07c14.922-6.425,22.633-11.352,33.413-8.281
				c10.853,3.069,32.698,12.137,39.124,10.995C5682.413-384.587,5722.251-407.147,5742.599-418.784z M5517.134-374.234
				c3.428-0.5,8.425-1.856,15.493-4.927c17.135-7.425,49.334-15.706,55.831-20.347c4.212-2.999,8.639-7.568,11.279-10.424
				c-0.285,3.998-7.425,11.494-11.137,15.778c-4.641,5.354-13.637,10.209-23.774,12.708
				C5555.045-379.018,5527.415-374.234,5517.134-374.234z M5594.384-427.066c6.282,2.142,16.42,4.997,21.632,3.927
				c7.854-1.57,48.405-16.992,59.044-23.061c10.637-6.068,26.844-12.922,38.98-14.279c7.426-0.785,23.489-1.57,34.77-2.07
				c-1.07,0.143-2.213,0.286-3.427,0.357c-17.421,1.785-32.771,4.641-55.188,14.636c-22.418,10.066-70.037,32.056-75.32,32.698
				C5610.09-414.287,5601.095-421.997,5594.384-427.066z M5695.192-433.991c9.566-1.214,22.489-2.785,33.342-3.784
				c19.848-1.785,32.983-4.641,36.125-7.282c2.142-1.856,7.639-8.14,11.138-12.923c0.285,3.213-6.426,12.708-9.71,15.564
				c-3.783,3.284-13.993,5.64-23.274,6.64C5734.674-434.849,5707.472-434.063,5695.192-433.991z"/>
			<path fill="#FFFFFF" d="M5512.637-376.733c0.429,0.357,1.428,0.357,3.212-0.285c8.568-3.213,52.333-36.911,56.474-38.91
				c4.212-1.999,6.782,4.641,9.639,10.066c2.855,5.426,4.997,5.568,9.495,1.856c3.07-2.57,6.711-5.354,7.854-7.568
				c-1.785-2.642-10.638-8.71-16.635-11.994c-3.784-2.07-4.355-2.284-8.425-0.214c-10.495,5.354-34.841,23.846-46.121,33.698
				C5520.347-383.302,5514.278-379.089,5512.637-376.733z M5595.383-388.37c3.998-3.855,9.995-13.28,17.206-15.85
				c8.639-3.213,54.046-25.773,62.613-23.489c8.639,2.284,44.479,3.998,59.328,2.855c5.998-0.428,9.71-0.499,11.566,0
				c-0.5,0.714-1.57,1.5-3.213,2.142c-4.069,1.643-44.979,14.351-50.976,16.278c-6.068,1.928-13.351-8.139-17.277-11.708
				c-3.855-3.642-37.482,10.994-47.835,13.778c-10.352,2.713-16.849,7.497-28.271,16.563c-3.498,2.785-5.426,3.57-6.354,3.355
				C5592.67-385.372,5593.669-386.657,5595.383-388.37z M5681.913-436.419c1.57,0.5,4.283,0.571,8.996-0.857
				c10.637-3.069,19.49-7.067,39.053-9.281c19.562-2.213,33.412-1.428,39.267-6.996c2.57-2.428,4.284-4.284,5.069-5.568
				c-5.998-0.286-37.697,6.282-54.117,8.139c-13.565,1.57-30.129,9.995-36.697,13.493
				C5682.841-437.062,5682.271-436.776,5681.913-436.419z M5590.456-430.493c1.785-0.215,4.142-1.071,6.854-2.855
				c7.782-5.069,14.064-8.996,28.558-10.853c14.422-1.785,37.696-2.07,48.405-10.138c10.638-7.996,15.564-13.565,22.632-12.423
				c6.283,1.071,59.615,3.142,65.469-1.143c-0.499-0.214-1.284-0.429-2.284-0.643c-7.282-1.499-53.974-8.639-65.255-4.641
				c-11.28,3.998-17.491,14.351-33.841,16.136c-16.278,1.784-39.195-1.643-45.55,1.784c-4.712,2.57-14.35,10.638-19.205,14.779
				C5593.026-437.633,5587.815-434.349,5590.456-430.493z"/>
			<path fill="#82B3E6" d="M5893.312,168.222c-5.211-7.925-10.994-18.563-13.85-27.701c-5.57-17.777-18.92-52.618-20.633-57.544
				c-1.715-4.855,5.996,4.426,22.916,16.849c16.922,12.352,20.348,12.137,24.775,27.273c4.426,15.135,10.424,52.188,16.277,71.751
				C5928.224,216.627,5896.167,172.647,5893.312,168.222z M5799.999,26.503c0,0,5.926,52.047,7.14,69.753
				c1.285,17.777,14.065,17.42,37.769,39.481c23.773,22.061,31.057,24.202,15.705-17.135
				c-15.35-41.338-48.904-105.308-56.758-115.445C5796.073-7.052,5799.999,26.503,5799.999,26.503z M5813.851-0.698
				c4.212,6.997,13.207,22.347,21.489,36.982c11.28,19.919,26.06,32.271,39.409,43.193c13.352,10.924,24.631,17.277,23.561,6.069
				c-1-11.209,0.643-27.63-11.137-34.127c-11.709-6.497-41.695-26.987-55.902-44.622C5824.845-1.198,5795.288-32.04,5813.851-0.698z
				"/>
			<path fill="#136ECF" d="M5893.312,168.222c-2.783-4.213-5.711-9.21-8.354-14.351c6.498,7.068,16.492,17.635,20.063,20.419
				c3.998,3.142,3.641-22.418,2.998-41.338c4.213,17.421,9.568,48.549,14.779,65.897
				C5928.224,216.627,5896.167,172.647,5893.312,168.222z M5811.352,108.393c4.141,2.999,15.992-4.354,20.704,0.143
				c4.712,4.427,26.559,23.989,27.344,21.562s-3.713-20.919-6.354-30.343c2.783,6.568,5.354,12.923,7.566,18.849
				c15.352,41.337,8.068,39.195-15.705,17.135C5828.271,120.244,5816.991,115.817,5811.352,108.393z M5846.905,53.062
				c3.57,2.071,18.42,14.279,23.561,17.992c6.496,4.783,14.279,1.57,17.635,0.499c4.711-1.57,6.068-3.355,6.639-11.637
				c3.428,7.71,2.855,17.92,3.57,25.631c1.07,11.208-10.209,4.854-23.561-6.069C5865.54,71.981,5855.759,63.843,5846.905,53.062z"/>
			<path fill="#FFFFFF" d="M5879.817,141.734c-0.143-0.429-0.285-0.857-0.355-1.214c-5.57-17.777-18.92-52.618-20.633-57.544
				c-1.715-4.855,5.996,4.426,22.916,16.849c11.354,8.282,16.637,10.924,20.205,16.278c0.285,2.784-1.213,4.569-6.426,2.57
				c-10.709-4.142-17.348-5.641-16.848,5.068C5878.89,128.454,5879.39,135.38,5879.817,141.734z M5850.476,93.899
				c-16.777-38.41-40.267-82.461-46.621-90.742c-7.781-10.209-3.855,23.346-3.855,23.346s5.926,52.047,7.14,69.753
				c0.286,3.641,1,6.497,2.214,8.924c0,0-1-7.567-0.215-17.92c0.785-10.424,0.429-37.125-0.071-42.622
				c-1.07-11.709,4.498-0.714,10.21,11.209C5825.06,67.912,5842.407,82.905,5850.476,93.899z M5838.41,41.354
				c-1.856-5.926-2.928-9.281-4.355-14.851c-1.499-5.64,25.202,28.772,32.413,29.914c7.281,1.143,23.273-0.214,24.703-1.927
				c-1.143-1.214-2.428-2.214-3.998-3.07c-11.709-6.497-41.695-26.987-55.902-44.622c-6.426-7.996-35.982-38.838-17.42-7.496
				c4.212,6.997,13.207,22.347,21.489,36.982C5836.339,38.069,5837.339,39.711,5838.41,41.354z"/>
		</g>
		<g>
			<path d="M5740.028-162.05c7.139-5.141,15.563-13.708,16.492-22.918c40.48,3.07,78.962,35.27,85.529,77.535
				c0.572,3.712,1,7.425,1.285,11.137c2.215,31.771-5.854,77.178-39.338,90.672c-14.278,5.782-32.841,7.71-47.691,3.355
				c-25.202-7.497-22.488-26.916-25.273-36.84c-1.428-5.069-2.498-5.568-6.782-4.212c-8.639,2.855-17.777,2.855-26.416-0.215
				c-19.134-6.925-30.7-27.059-32.771-46.478c-1.285-12.28,1.071-24.702,7.497-35.055c7.782-12.494,25.202-17.777,38.267-23.561
				C5721.537-152.626,5732.246-156.481,5740.028-162.05z"/>
			<path fill="#9AC2EB" d="M5749.452-44.534c9.21,2.713,23.274,0.785,35.34-3.784c0.643-0.285,22.847-9.353,19.634-30.557
				c-5.64,10.923-18.563,19.562-39.195,23.061c-32.271,5.354-47.478-14.993-41.837-34.841c12.065,3.355,29.557-0.285,44.121-8.924
				c2.928-1.785,15.85-10.781,14.279-28.272c-18.205,26.915-88.458,43.336-74.821-2.713c54.474-12.923,56.616-34.698,56.616-34.698
				c23.203,0,56.33,26.845,61.685,60.757c7.282,46.62-14.136,100.523-64.041,85.674
				C5742.813-24.259,5749.452-44.534,5749.452-44.534z M5691.694-121.569c-2.07,15.207,7.067,26.202,20.062,29.486
				c-3.998,8.924-0.999,26.201,7.14,32.413C5689.267-49.96,5668.99-99.08,5691.694-121.569z"/>
			<path fill="#5396DC" d="M5749.452-44.534c6.497,1.856,15.278,1.499,24.131-0.429c1.071,5.783,5.498,12.423,20.348,12.494
				c8.211,0.071,14.707-1.928,19.848-4.641c-10.78,16.492-28.271,25.487-52.546,18.277
				C5742.813-24.259,5749.452-44.534,5749.452-44.534z M5802.998-76.448c-6.211,9.781-18.705,17.421-37.768,20.634
				c-32.271,5.354-47.478-14.993-41.837-34.841c6.925,1.928,15.777,1.499,24.773-0.785c-0.928,8.424,0.215,20.562,12.923,24.202
				C5781.151-61.526,5802.927-76.376,5802.998-76.448z M5768.157-115.001c-26.559,17.92-72.394,22.418-61.185-15.563
				c3.712-0.929,7.211-1.856,10.495-2.785C5723.321-97.081,5767.515-114.715,5768.157-115.001z M5711.756-92.083
				c0,0-8.139,8.853-8.71,20.348c-0.215,4.354-3.213,6.854-7.14,7.425c6.212,5.212,14.208,7.496,22.989,4.641
				C5710.757-65.882,5707.758-83.159,5711.756-92.083z"/>
			<path fill="#FFFFFF" d="M5733.317-138.989c28.843-12.209,30.271-26.273,30.271-26.273c23.203,0,56.33,26.845,61.685,60.757
				c1.071,6.854,1.499,13.922,1.356,20.848c-1.428-43.123-40.553-71.895-70.967-60.972
				C5747.382-141.631,5739.886-139.917,5733.317-138.989z M5684.269-82.302c1.571-11.281,3.213-15.279,9.425-24.203
				c-1.999-4.283-2.784-9.424-1.999-15.064C5681.342-111.359,5679.914-95.581,5684.269-82.302z"/>
		</g>
		<g>
			<path fill="#0A35A4" d="M4633.056-477.328c-2.713,0.785-5.568,0.285-7.496-1.928c-4.784-5.497,2.07-13.208,5.64-17.277
				c5.212-5.783,11.423-11.28,17.635-15.921c6.068-4.498,13.208-8.925,20.49-11.066c8.853-2.713,18.705-2.57,26.844,2.356
				c6.212,3.783,11.28,10.78,9.71,18.419c-1.07,5.141-4.854,8.782-9.639,10.71c-5.782,2.284-12.708,2.213-18.776,1.356
				c-8.139-1.071-16.635,1.428-24.132,4.569c-3.712,1.499-7.281,3.284-10.923,4.997
				C4639.481-479.685,4636.196-478.113,4633.056-477.328z"/>
			<path fill="#0A35A4" d="M4664.684,84.118c7.71,2.999,16.563,2.499,24.631,1.214c3.927-0.643,7.854-1.499,11.78-2.355
				c3.141-0.714,6.711-1.5,9.924-1.571c2.855-0.071,5.497,1.071,6.854,3.713c3.355,6.426-5.068,12.352-9.495,15.421
				c-6.426,4.427-13.708,8.354-20.848,11.423c-6.925,2.999-14.921,5.569-22.489,6.069c-9.21,0.499-18.776-1.856-25.559-8.496
				c-5.212-5.212-8.425-13.137-5.141-20.205c2.213-4.783,6.711-7.425,11.78-8.21C4652.261,80.192,4659.043,81.905,4664.684,84.118z"
				/>
			<path fill="#0A35A4" d="M4841.385-60.526c-5.283,9.353-10.638,18.634-16.063,27.986c-13.565,23.132-33.27,41.908-56.474,55.331
				c-17.92,10.352-39.909,18.491-60.614,20.062c-7.21,0.571-14.564,1.785-21.632,2.998c-9.067,1.571-18.063,3.285-27.059,4.927
				c-14.279,2.499-29.415,5.283-43.837,5.926c-9.78,0.356-25.987,0.143-29.129-11.78c-1.07-4.212-0.785-8.639,1.928-12.208
				c3.928-5.212,10.709-6.212,16.707-6.926c1.143-0.143,4.141-0.5,6.211-0.928c-1.855-3.57-6.996-7.568-10.066-9.924
				c-6.926-5.141-14.279-9.853-21.275-14.922c-20.205-14.493-37.055-30.557-49.049-52.688c-8.139-15.137-13.922-30.7-18.49-47.192
				c-3.784-13.993-6.497-28.201-10.139-42.194c-3.284-12.851-7.282-25.131-13.351-36.982c-5.354-10.495-21.275-42.837-5.64-51.618
				c5.996-3.355,12.708-0.785,17.991,2.928c0.285-4.142,0.214-9.354,0.143-11.28c-0.143-10.639-0.571-21.205-0.286-31.843
				c0.286-8.71,0.929-17.706,2.785-26.272c3.855-17.777,12.351-33.413,23.488-47.692c7.64-9.709,15.992-18.063,24.561-26.701
				c-0.429-0.285-0.929-0.571-1.357-0.928c-8.781-7.426,0.357-21.704,4.998-28.772c14.279-21.989,42.194-35.483,66.396-43.122
				c9.996-3.213,20.134-4.783,30.486-6.068c8.924-1.214,18.063-2.143,26.772-4.498c5.069-1.356,9.924-3.213,14.564-5.783
				c4.427-2.428,9.353-4.069,14.351-4.926c7.711-1.429,16.492-1.356,24.202,0.285c6.426,1.356,15.564,4.712,15.85,12.637
				c0.215,4.927-3.069,8.067-6.996,10.138c0.714,0.286,1.356,0.571,2.07,0.786c11.065,4.426,21.775,9.353,32.271,14.992
				c10.424,5.569,19.705,12.352,28.058,20.776c6.782,6.854,12.494,14.422,18.134,22.203c10.424,14.279,19.135,25.702,34.056,35.841
				c8.282,5.64,17.491,12.779,23.774,20.633c4.283,5.212,8.924,13.351,4.141,19.776c-0.643,0.856-1.285,1.499-1.999,2.07
				c-6.068-0.357-11.994-0.357-17.706-0.071c-3.427-1.356-6.568-3.07-8.995-4.427c-0.286-0.214-0.929-0.5-1.499-0.785
				c-0.286,1.856-0.286,4.569-0.215,6.068c-13.279,1.428-24.988,4.069-34.412,6.568c8.354,4.569,17.277,5.783,6.497,9.424
				c-8.282,2.785-23.632,8.496-31.699,12.066l0.071-3.213c0.785-32.913-5.568-77.535-30.985-101.166
				c-24.06-22.418-72.751-27.487-103.665-20.705c-2.569,0.643-5.211,1.285-7.781,1.928c-8.282,2.214-16.635,4.998-24.561,8.139
				c1.143,1,2.071,2.285,2.714,3.855c1.356,3.57,0.499,7.211-1.285,10.353c-1.429,2.499-3.427,4.854-5.427,6.925
				c-4.711,4.855-10.28,9.282-15.706,13.352c-3.213,2.498-6.568,4.926-9.924,7.282c-6.069,4.427-11.566,9.566-16.492,15.207
				c-21.847,25.487-33.341,64.969-28.058,98.096c0.428,2.856,2.07,12.637,3.926,18.349c1.714-2.142,3.642-4.854,4.498-5.926
				c6.283-7.854,14.779-14.778,25.346-9.566c3.926,1.998,7.211,4.926,8.639,9.209c1.855,5.569-0.072,11.281-2.499,16.35
				c-2.642,5.354-5.926,10.495-8.853,15.707c-7.497,13.351-12.78,26.487-12.78,42.051c0,24.917,4.854,51.119,14.707,74.037
				c12.209,28.271,31.628,50.976,58.9,65.54c26.487,14.207,54.331,11.352,80.462-1.856c10.424-5.212,20.205-11.994,29.058-19.563
				c-4.783,1-9.638,0.857-13.993-1.642c-3.927-2.285-7.14-5.712-7.14-10.495c0-6.782,6.426-10.924,11.709-13.779
				c5.64-3.142,11.565-5.711,17.277-8.639c4.212-2.213,8.781-4.712,12.494-7.782c8.21-6.782,15.421-13.708,21.847-22.274
				c8.781-11.852,14.778-25.131,18.42-39.339c19.063-0.356,38.053,0.143,56.901,1.714c0.071,11.065,0.714,22.203,2.499,33.198
				c1.928,11.923,2.498,27.415-4.284,38.054c-4.712,7.496-13.708,12.208-22.347,8.067
				C4844.954-56.386,4842.884-58.242,4841.385-60.526z"/>
			<path fill="#FFFFFF" d="M4624.346-437.49c-20.276,6.426-48.691,18.777-62.613,40.195c-23.061,35.555,16.136,9.924,0,26.273
				c-16.136,16.349-43.051,40.195-50.619,75.464c-7.639,35.197,4.927,89.886-10.638,76.249
				c-15.635-13.707-25.487-3.069-4.997,36.982c20.49,40.124,16.421,78.963,41.908,126.226c25.487,47.192,72.68,60.828,80.676,78.249
				c8.067,17.42-28.985,3.927-24.488,20.989c4.427,17.063,81.532-4.997,114.089-7.496c32.556-2.499,83.816-24.488,111.447-71.823
				c27.629-47.334,26.844-49.976,26.772-34.055s28.558,15.064,21.133-29.914c-1.928-11.852-2.57-23.489-2.57-34.912
				c-7.925-0.5-15.921-0.856-23.917-1.071c-0.357,5.926-1.071,10.853-2.143,14.064c-7.781,23.918-22.203,48.049-47.12,88.958
				c-24.917,40.98-76.464,49.048-109.947,51.761c-33.484,2.713-51.262-14.278-73.822-25.916
				c-22.489-11.709-53.546-49.69-60.399-90.314c-6.926-40.694-26.559-80.747-24.203-94.383c2.428-13.637,0.643-49.049,2.999-75.107
				c2.427-26.131,25.56-77.035,40.837-92.456c15.279-15.35,16.207-30.985,27.273-43.479c11.137-12.494,67.539-30.128,90.528-30.128
				s51.976,9.853,80.462,23.132c28.558,13.279,46.763,61.756,54.902,79.604c2.927,6.426,5.64,17.92,7.854,30.058
				c5.64-1.285,11.852-2.499,18.563-3.499c-0.715-12.137,2.213-18.276,12.494-12.351c25.773,14.921,29.414-1.071-6.926-25.773
				c-36.34-24.774-37.196-55.76-79.533-78.463c-42.408-22.775-61.543-19.776-38.34-26.916c23.133-7.067-15.207-18.919-36.554-7.067
				C4675.393-442.131,4650.333-445.7,4624.346-437.49z M4829.462-290.417c1.714-1.071,1.214-1.999-0.5-2.999
				C4829.104-292.416,4829.319-291.417,4829.462-290.417z"/>
			<path fill="#C3DBF3" d="M4841.671-334.825c-8.282-8.495-29.701-31.271-36.84-47.905c-8.854-20.847-55.26-45.407-75.964-48.548
				c-20.704-3.213-20.99-17.992-42.837-10.353c-21.775,7.64-75.535,9.424-100.238,32.771c-24.773,23.274-3.569,19.562-13.207,33.198
				c-9.567,13.708-54.332,47.334-52.119,115.159c2.214,67.754-18.063,45.336-15.35,62.256c2.642,16.85,20.563,45.193,32.842,103.309
				c12.279,58.114,55.902,91.527,79.676,100.88c23.775,9.424,5.141,21.704,31.2,25.987c26.059,4.284,106.306-4.283,138.72-46.62
				c32.484-42.337,42.693-71.466,52.546-77.892c8.71-5.712,7.925-23.988,11.066-43.193c-9.639-0.429-19.276-0.571-28.986-0.5
				c-9.067,37.554-30.2,56.616-43.122,67.254c-15.778,13.064-49.977,20.348-35.27,28.914c14.708,8.496,51.048-30.128,36.126-8.924
				c-14.993,21.275-76.249,77.963-138.648,44.55c-62.398-33.341-77.463-102.165-77.463-145.931c0-43.765,38.768-67.253,19.491-76.82
				c-19.277-9.638-27.916,52.832-37.697-8.21c-6.211-39.053,9.354-92.885,47.479-120.229c18.919-13.565,47.049-35.055,16.563-31.699
				c-16.063,1.785,17.35-14.564,48.12-21.347c30.771-6.783,82.89-2.856,110.091,22.418c23.846,22.132,34.341,63.47,33.198,106.663
				c8.139-3.213,18.277-6.997,24.488-9.067c10.78-3.641,1.856-4.854-6.497-9.424c5.355-1.428,11.424-2.927,18.063-4.141
				c-1.213-8.354-1.428-13.422-1.07-16.778C4837.315-329.613,4851.522-324.687,4841.671-334.825z"/>
			<path fill="#5396DC" d="M4791.337-374.092c8.282,15.921,18.563,41.194,21.633,72.537c0.643,6.14,1.285,11.638,2.07,16.563
				c-4.212,1.57-8.639,3.213-12.779,4.854l0,0l-1.214,0.5c0.071-2.499,0.143-4.997,0.071-7.496h0.071
				c-0.285-40.409-10.852-78.32-33.341-99.167c-27.201-25.274-79.319-29.201-110.091-22.418
				c-23.203,5.068-47.905,15.635-51.761,19.776l0,0c0,0-2.428,1.856-1.214,3.998c1.071,1.928,15.207-0.144,15.85,6.068
				c-5.141,6.782-17.634,16.063-27.558,23.203c-38.125,27.344-53.689,81.176-47.479,120.229c1.429,8.853,2.856,15.136,4.213,19.348
				l0,0c0,0,2.713,12.78,9.281,14.851s12.494-3.499,20.275-15.636c2.57-3.998,5.926-4.427,9.281-3.213
				c0.43,12.28-24.845,34.341-24.845,69.681c0,43.766,15.064,112.59,77.463,145.931c62.399,33.413,123.655-23.274,138.648-44.55
				c13.851-19.634-16.278,11.994-32.484,10.066c0.071-2.855,3.498-7.854,18.491-15.992c8.996-4.783,15.564-12.352,20.348-20.276
				c12.565-11.423,28.415-29.843,35.911-61.042c4.069-0.071,8.067-0.071,12.065,0c-2.927,15.564-7.925,29.558-15.85,38.553
				c-24.131,27.487-15.777,46.264-38.481,69.039c-22.774,22.774-65.825,47.334-105.093,41.623
				c-39.338-5.712-49.048-20.99-72.251-35.197c-23.204-14.279-42.766-46.264-45.479-85.031c-2.642-38.839-27.201-69.253-21.347-91.6
				c5.783-22.347-9.71-58.615,10.066-107.306c19.776-48.763,45.621-58.187,48.762-70.253c3.07-12.137,13.137-35.411,56.402-41.479
				c43.193-6.068,48.049-9.281,73.894,3.142C4764.993-395.438,4774.202-407.219,4791.337-374.092z"/>
			<path fill="#C3DBF3" d="M4671.037-517.809c-20.918,6.354-48.12,36.982-39.481,34.697c8.64-2.284,27.701-16.063,46.764-13.493
				C4714.731-491.679,4700.88-526.876,4671.037-517.809z"/>
			<path fill="#FFFFFF" d="M4671.037-517.809c-8.353,2.499-17.634,8.924-25.345,15.563c12.279-6.282,25.987-10.78,36.197-7.068
				c8.139,2.928,11.779,7.068,13.137,11.209C4708.091-504.601,4694.598-524.948,4671.037-517.809z"/>
			<path fill="#C3DBF3" d="M4664.684,112.034c21.847-1.285,55.401-24.846,46.478-24.632c-8.924,0.215-30.699,9.21-48.619,2.285
				C4628.272,76.479,4633.556,113.89,4664.684,112.034z"/>
			<path fill="#FFFFFF" d="M4712.518,88.616c0.286-0.785-0.071-1.214-1.356-1.214c-8.924,0.215-30.699,9.21-48.619,2.285
				c-21.348-8.211-27.345,3.213-21.276,12.494c0.714-2.856,2.285-5.212,5.212-6.212c9.424-3.141,19.563,6.141,41.052-1.855
				C4700.595,89.33,4708.876,87.546,4712.518,88.616z"/>
			<path fill="#5396DC" d="M4657.187-507.313c-6.568,4.854-14.636,11.423-16.706,15.35c-3.427,6.711,13.493-13.279,29.486-12.78
				c9.71,0.357,16.706,0.857,19.776-0.428c-1.928-1.571-4.498-2.928-7.854-4.142
				C4674.821-511.883,4665.969-510.526,4657.187-507.313z"/>
			<path fill="#5396DC" d="M4647.478,95.685c0,1.57,1.07,3.713,4.141,6.497c9.924,9.067,37.696-0.571,45.835-5.712
				c8.14-5.212,5.854-6.497-4.427-2.284c-3.498,1.499-7.781,1.928-11.779,1.928C4664.612,100.111,4655.616,93.686,4647.478,95.685z"
				/>
			<path fill="#0A35A4" d="M4488.481-284.634c-0.214,2.855-1.57,5.354-4.355,6.425c-6.782,2.713-11.708-6.354-14.35-11.065
				c-3.713-6.854-6.854-14.494-9.139-21.99c-2.213-7.211-3.998-15.35-3.641-22.918c0.428-9.281,3.854-18.563,11.209-24.56
				c5.64-4.641,13.922-6.996,20.633-2.998c4.498,2.713,6.64,7.496,6.854,12.637c0.285,6.211-2.142,12.708-4.926,18.134
				c-3.784,7.354-4.213,16.207-3.784,24.346c0.143,3.998,0.643,7.925,1.071,11.923
				C4488.339-291.488,4488.767-287.847,4488.481-284.634z"/>
			<path fill="#C3DBF3" d="M4462.993-333.968c-0.999,21.847,18.777,57.758,19.563,48.834c0.714-8.854-5.926-31.485,2.855-48.549
				C4502.189-366.381,4464.493-365.096,4462.993-333.968z"/>
			<path fill="#FFFFFF" d="M4462.993-333.968c-0.428,8.71,2.499,19.633,6.212,29.129c-1.856-13.637-1.499-28.13,5.426-36.482
				c5.426-6.64,10.566-8.711,14.993-8.639C4487.839-364.453,4464.136-358.527,4462.993-333.968z"/>
			<path fill="#5396DC" d="M4468.276-317.333c2.428,7.782,5.854,17.635,8.854,20.775c5.212,5.569-7.925-17.135-2.142-31.984
				c3.498-9.067,6.354-15.492,6.14-18.848c-2.07,1.356-4.283,3.283-6.497,6.068C4469.848-335.538,4468.206-326.757,4468.276-317.333
				z"/>
			<path fill="#0A35A4" d="M4502.118-59.456c1.928,8.067,7.282,15.064,12.922,20.99c2.713,2.855,5.641,5.641,8.567,8.354
				c2.356,2.284,4.998,4.712,6.926,7.354c1.642,2.284,2.213,5.141,0.785,7.781c-3.427,6.426-13.065,2.714-18.063,0.857
				c-7.282-2.784-14.708-6.568-21.276-10.781c-6.354-4.069-12.993-9.138-17.634-15.135c-5.641-7.283-9.067-16.564-7.425-25.917
				c1.355-7.14,6.068-14.35,13.778-15.635c5.212-0.857,9.924,1.356,13.423,5.14C4498.334-71.95,4500.762-65.382,4502.118-59.456z"/>
			<path fill="#C3DBF3" d="M4479.058-43.678c13.422,17.206,51.761,31.699,46.549,24.417c-5.212-7.211-24.916-20.133-29.343-38.839
				C4487.839-93.797,4459.995-68.38,4479.058-43.678z"/>
			<path fill="#FFFFFF" d="M4525.393-17.404c0.856-0.214,0.999-0.785,0.214-1.856c-5.212-7.211-24.916-20.133-29.343-38.839
				c-5.212-22.203-17.991-20.775-22.347-10.495c2.784-0.999,5.641-1.07,8.139,0.785c7.854,5.998,5.998,19.634,24.703,32.913
				C4518.039-26.899,4524.179-21.046,4525.393-17.404z"/>
			<path fill="#5396DC" d="M4482.842-67.167c-1.285,0.929-2.499,2.999-3.07,7.14c-1.856,13.279,21.775,30.771,30.628,34.556
				c8.854,3.783,8.711,1.142-0.643-4.927c-3.213-2.07-5.926-5.283-8.21-8.639C4488.839-50.46,4489.053-61.526,4482.842-67.167z"/>
			<path fill="#0A35A4" d="M4880.651-34.325c5.355-6.282,7.926-14.778,9.425-22.703c0.785-3.998,1.285-7.925,1.784-11.923
				c0.5-3.213,0.929-6.782,1.928-9.853c0.929-2.713,2.856-4.854,5.783-5.212c7.282-0.999,9.924,8.996,11.28,14.208
				c2.07,7.496,3.284,15.706,3.713,23.488c0.429,7.496,0.214,15.921-1.928,23.132c-2.642,8.925-8.14,17.063-16.706,21.204
				c-6.568,3.142-15.207,3.498-20.776-1.999c-3.712-3.712-4.641-8.853-3.641-13.922
				C4872.728-23.973,4876.653-29.756,4880.651-34.325z"/>
			<path fill="#C3DBF3" d="M4906.854-24.829c6.212-20.99-4.498-60.543-7.354-52.118c-2.855,8.496-1.714,32.056-14.351,46.549
				C4861.09-2.697,4898.072,5.085,4906.854-24.829z"/>
			<path fill="#FFFFFF" d="M4901.071-77.805c-0.643-0.571-1.143-0.285-1.571,0.857c-2.855,8.496-1.714,32.056-14.351,46.549
				c-14.992,17.277-6.282,26.773,4.498,24.274c-2.428-1.643-4.141-3.927-4.069-7.068c0.214-9.853,12.423-16.277,12.28-39.267
				C4897.715-66.31,4898.857-74.734,4901.071-77.805z"/>
			<path fill="#5396DC" d="M4885.649-14.263c1.499,0.57,3.855,0.285,7.568-1.643c11.852-6.211,12.208-35.626,10.138-45.05
				s-4.142-7.711-3.642,3.355c0.215,3.855-0.785,7.996-2.213,11.78C4895.645-28.827,4886.577-22.545,4885.649-14.263z"/>
			<path fill="#0A35A4" d="M4867.658-377.519c-3.784-7.354-10.709-12.852-17.563-17.206c-3.355-2.142-6.854-4.141-10.352-6.068
				c-2.785-1.643-5.998-3.355-8.496-5.427c-2.143-1.855-3.355-4.497-2.642-7.354c1.713-7.067,11.994-5.854,17.349-5.211
				c7.711,0.928,15.778,2.784,23.203,5.283c7.14,2.355,14.85,5.711,20.775,10.423c7.283,5.712,12.852,13.851,13.494,23.274
				c0.428,7.354-2.428,15.493-9.566,18.563c-4.855,2.07-9.996,1.07-14.279-1.714
				C4874.369-366.381,4870.514-372.093,4867.658-377.519z"/>
			<path fill="#C3DBF3" d="M4886.221-398.366c-17.135-13.493-57.901-18.205-51.047-12.494c6.782,5.783,29.058,13.494,37.839,30.558
				C4889.862-347.604,4910.78-379.089,4886.221-398.366z"/>
			<path fill="#FFFFFF" d="M4834.888-412.645c-0.714,0.428-0.714,0.999,0.286,1.784c6.782,5.783,29.058,13.494,37.839,30.558
				c10.495,20.347,22.561,15.85,24.203,4.854c-2.428,1.643-5.141,2.356-7.996,1.143c-9.139-3.855-10.566-17.563-31.914-25.916
				C4844.312-405.22,4836.958-409.432,4834.888-412.645z"/>
			<path fill="#5396DC" d="M4888.22-374.734c1.07-1.214,1.713-3.498,1.285-7.639c-1.428-13.28-28.558-24.561-38.125-26.131
				c-9.495-1.499-8.639,1,1.856,4.641c3.569,1.214,7.068,3.713,10.066,6.426C4878.367-389.441,4880.866-378.661,4888.22-374.734z"/>
		</g>
		<path fill="#0A35A4" d="M5353.927,511.486c12.279,12.565,33.412,24.774,69.967,28.486c82.889,8.425,217.253,4.783,310.852,46.764
			c93.598,42.052,177.559,0.643,204.545-9.567c27.059-10.209,58.828,5.712,20.418,28.059s-16.135,79.319,35.412,14.564
			c51.619-64.826,156.568-79.962,209.4-210.399c52.832-130.438,3.57-232.104-41.98-299.144
			c-19.063-28.059-42.408-46.406-63.184-58.258c-10.994-6.354-35.127-15.564-9.996,10.495
			c12.209,12.708,23.133,29.129,26.346,49.048c8.424,51.975-46.193,89.457-57.615,106.235
			c-11.352,16.777,1.855,29.985,29.414,58.829c27.629,28.771,42.051,66.254-4.213,135.363
			c-10.709,16.136-24.346,26.916-39.338,33.842c3.428,19.419,4.283,33.555-1.213,41.766c-4.428,6.64-12.281-6.782-24.488-33.698
			c-44.123,8.496-92.385-6.426-113.16-15.278c-32.342-13.851-55.76,20.348-17.992,31.771c37.84,11.423,75.607,37.768,42.051,59.972
			c-33.627,22.203-125.582,31.556-186.625,5.997c-61.042-25.488-202.188,19.848-272.369-18.563
			c-34.056-18.635-54.688-34.127-69.61-44.479C5355.64,442.02,5315.659,472.291,5353.927,511.486z"/>
		<path fill="#C3DBF3" d="M6094.501,57.417c14.137,14.636,24.988,32.413,28.344,52.975c4.355,26.916-6.639,51.119-22.846,71.895
			c-6.639,8.567-14.137,16.421-21.775,24.131c-2.928,2.999-5.854,5.998-8.781,8.996c-1.785,1.999-3.855,4.141-5.355,6.426
			c-1.498,2.213-2.783,4.712-2.855,7.496c-0.213,5.354,4.07,11.423,7.141,15.422c3.141,4.141,6.639,8.067,10.209,11.922
			c4.641,4.998,9.424,9.924,14.137,14.922c6.354,6.568,12.137,13.779,16.705,21.704c24.203,41.552,4.141,86.316-20.133,122.656
			c-11.637,17.563-26.844,29.557-44.121,37.196c2.355,15.707,2.355,27.272-2.428,34.412c-3.998,6.068-10.924-4.641-21.348-26.987
			c-10.424,2.142-21.275,3.142-32.412,2.999c-28.201-0.215-60.615-7.282-86.674-18.349c-6.211-2.642-13.637-3.784-20.063-1.285
			c-3.141,1.285-6.924,3.927-7.354,7.567c-0.785,6.354,9.781,10.566,14.279,11.923c2.713,0.857,5.426,1.714,8.068,2.713
			c18.133,6.426,51.617,22.275,52.117,45.051c0.215,11.137-7.568,19.419-16.277,25.202c-14.85,9.781-36.055,15.278-53.404,18.276
			c-23.416,4.142-48.119,5.141-71.822,3.428c-22.988-1.714-46.763-6.212-68.11-15.064c-17.206-7.211-40.766-7.925-59.186-7.711
			c-26.131,0.286-52.403,2.713-78.463,4.284c-16.635,0.999-35.626,1.999-54.831,1.499c19.563,1.499,39.053,3.355,58.544,5.783
			c44.336,5.711,90.885,14.921,131.865,33.27c39.268,17.635,80.89,21.704,123.085,14.279c15.635-2.785,30.984-7.068,45.977-12.352
			c10.211-3.642,19.99-7.854,30.059-11.638c8.566-3.284,18.563-4.569,27.629-2.998c7.924,1.356,16.635,5.212,19.49,13.351
			c2,5.854,0.143,11.638-3.355,16.492c-4.283,5.783-11.066,10.566-17.205,14.136c-6.783,3.927-12.781,10.139-14.994,17.777
			c-0.998,3.498-1.57,9.21,1.428,11.994c2.857,2.57,8.141,0.929,11.139-0.428c10.709-4.712,21.418-16.563,28.557-25.488
			c1.715-2.142,3.5-4.283,5.355-6.354c13.564-15.279,29.914-27.773,46.691-39.339c17.777-12.28,36.055-23.632,53.617-36.269
			c20.563-14.707,39.553-30.699,56.188-49.833c19.99-22.918,35.127-48.62,46.551-76.821
			c22.131-54.759,28.699-111.161,15.492-169.062c-10.209-44.907-31.057-85.46-56.83-123.37
			C6140.479,90.615,6119.276,71.339,6094.501,57.417z M5518.99,539.188c-18.991-2.284-37.196-6.854-52.332-15.136
			c-14.493-7.925-28.7-16.421-42.479-25.631c-9.353-6.211-18.491-12.779-27.701-19.205c-9.139-6.354-20.633-11.637-31.913-11.708
			c-5.997,0-13.28,1.713-16.778,7.067c-2.355,3.57-2.355,7.996-1.356,11.994c1.928,7.426,7.425,14.493,12.708,19.919
			c16.707,17.135,42.409,23.989,65.541,26.345c27.772,2.785,55.973,3.998,83.816,5.712
			C5511.994,538.759,5515.492,538.974,5518.99,539.188z"/>
		<path fill="#5396DC" d="M5652.569,554.395c29.272,5.712,58.401,13.779,85.103,25.773c39.268,17.635,80.89,21.704,123.085,14.279
			c15.635-2.785,30.984-7.068,45.977-12.352c10.211-3.642,19.99-7.854,30.059-11.638c8.566-3.284,18.563-4.569,27.629-2.998
			c3.141,0.571,6.426,1.499,9.424,2.927c7.211,1.356,12.922,4.783,14.494,11.638c5.068,22.774-14.137,25.773-21.633,40.48
			c-2.713,5.354-1,10.424,3.07,12.923c7.496-5.712,14.564-13.708,19.703-20.134c1.715-2.142,3.5-4.283,5.355-6.354
			c7.924-8.925,16.777-16.85,26.131-24.274c29.771-31.985,81.318-70.253,110.732-108.234
			c38.982-50.404,54.617-90.028,50.977-172.561c-3.57-82.461-33.557-93.884-35.697-63.541
			c-2.07,30.271,31.199,56.401,10.852,141.575c-20.42,85.245-95.455,107.306-126.012,124.084c-30.629,16.777-41.695,0-50.119,22.061
			c-8.424,21.989-21.561,28.201-83.959,45.835c-62.399,17.706-103.522,18.063-172.562-5.497
			C5705.045,561.534,5679.557,557.25,5652.569,554.395z M5359.995,507.417c-1.214-4.712-1.285-9.21,1.143-12.423
			c7.996-10.495,22.346,7.64,40.194,19.848c12.494,8.496,27.272,14.422,49.12,20.205c-8.639-0.643-17.207-1.356-25.773-2.214
			C5401.975,530.478,5376.772,523.838,5359.995,507.417z"/>
		<path fill="#FFFFFF" d="M6094.501,57.417c14.137,14.636,24.988,32.413,28.344,52.975c4.355,26.916-6.639,51.119-22.846,71.895
			c-6.639,8.567-14.137,16.421-21.775,24.131c-2.928,2.999-5.854,5.998-8.781,8.996c-1.785,1.999-3.855,4.141-5.355,6.426
			c-1.498,2.213-2.783,4.712-2.855,7.496c-0.213,5.354,4.07,11.423,7.141,15.422c3.141,4.141,6.639,8.067,10.209,11.922
			c4.641,4.998,9.424,9.924,14.137,14.922c6.354,6.568,12.137,13.779,16.705,21.704c24.203,41.552,4.141,86.316-20.133,122.656
			c-11.637,17.563-26.844,29.557-44.121,37.196c1.213,8.21,1.783,15.278,1.428,21.204c34.482-13.637,57.186-41.123,67.396-60.614
			c16.777-31.984,45.621-109.947,0-147.145c-45.621-37.268,4.283-67.396,14.422-91.599c10.137-24.203,5.426-54.974,39.623,0
			s39.91,102.665,36.555,172.418c-2.285,47.905-27.131,95.454-59.188,142.646c2-2.143,3.998-4.355,5.926-6.568
			c19.99-22.918,35.127-48.62,46.551-76.821c22.131-54.759,28.699-111.161,15.492-169.062c-10.209-44.907-31.057-85.46-56.83-123.37
			C6140.479,90.615,6119.276,71.339,6094.501,57.417z M6030.96,479.358c-2.783-4.712-5.996-11.065-9.566-18.776
			c-10.424,2.142-21.275,3.142-32.412,2.999c-28.201-0.215-60.615-7.282-86.674-18.349c-6.211-2.642-13.637-3.784-20.063-1.285
			c-3.141,1.285-6.924,3.927-7.354,7.567c-0.428,3.284,2.213,5.997,5.426,7.996c17.207,1.429,44.908,7.426,85.459,18.277
			C5990.337,484.285,6012.112,483.928,6030.96,479.358z M5946.144,499.635c1.928,3.642,3.07,7.496,3.213,11.566
			c0.215,11.137-7.568,19.419-16.277,25.202c-14.85,9.781-36.055,15.278-53.404,18.276c-23.416,4.142-48.119,5.141-71.822,3.428
			c-22.988-1.714-46.763-6.212-68.11-15.064c-17.206-7.211-40.766-7.925-59.186-7.711c-26.131,0.286-52.403,2.713-78.463,4.284
			c-13.493,0.785-28.558,1.642-44.05,1.642c25.059,0.286,88.172,1.143,129.938,2.784c53.117,2.143,74.75,27.63,126.939,24.061
			c52.189-3.642,134.078,0.285,142.146-43.979C5959.065,513.485,5954.354,505.632,5946.144,499.635z M5351.284,496.922
			c-3.783-16.35,13.065-22.989,28.63-12.851c27.558,17.991,68.182,48.19,116.373,51.118c-10.638-2.642-20.633-6.211-29.629-11.138
			c-14.493-7.925-28.7-16.421-42.479-25.631c-9.353-6.211-18.491-12.779-27.701-19.205c-9.139-6.354-20.633-11.637-31.913-11.708
			c-5.997,0-13.28,1.713-16.778,7.067c-2.355,3.57-2.355,7.996-1.356,11.994C5347.358,490.14,5349.143,493.638,5351.284,496.922z"/>
		<path fill="#C3DBF3" d="M6059.446,509.202c0,0-15.207,9.066-41.551,18.134c-26.346,9.067-28.914,34.412-1.143,21.562
			c27.701-12.923,58.258-37.696,76.607-54.688C6111.708,477.217,6059.446,509.202,6059.446,509.202z"/>
		<path fill="#0A35A4" d="M4745.288,239.401c42.622,29.344,55.259,72.68,92.455,168.563
			c37.197,95.955,116.23,131.366,204.546,144.574c88.243,13.208,114.017,78.392,217.968,93.599
			c32.413,4.783,63.541,6.568,91.1,6.782c27.272,0.214,71.108-1.071,0.57-19.205c-27.558-7.068-56.758-18.134-82.175-35.412
			c-76.249-51.761-155.568-62.541-211.827-63.112c-56.26-0.643-117.587-43.051-111.59-122.37
			c5.997-79.248-0.643-105.664-20.419-105.021c-19.776,0.571-16.778,26.987-4.783,43.193c11.994,16.207-31.843,55.188-52.832-13.208
			c-20.99-68.396-45.55-85.745-78.605-98.382c-32.984-12.637-17.349-60.043-32.984-73.821
			C4732.579,144.232,4694.74,204.489,4745.288,239.401z"/>
		<path fill="#0A35A4" d="M4894.503,556.894c-48.049-17.135-111.732-51.689-153.355-120.729
			c-74.394-123.227-39.196-141.29-137.792-196.764c-98.667-55.545-187.411-210.542-170.633-390.171
			c16.777-179.558-15.636-256.663,68.396-320.276c84.031-63.612,108.092-147.572,194.408-190.766
			c86.315-43.194,41.766-87.173-25.203-61.613c-66.968,25.559-90.028,133.579-140.433,169.562
			c-50.333,36.055-65.969-14.351-26.345-76.749c39.553-62.398,0-92.456-45.621-36.055c-45.621,56.402-59.972,159.639-63.612,231.604
			c-3.57,72.037,4.783,169.634-13.208,226.963c-17.992,57.33,25.202,148.43,19.205,192.766s-38.981,25.273-39.553-28.486
			c-0.643-53.761-62.471-37.839-31.199,61.185c31.199,99.024,105.307,191.409,208.186,267.016
			c102.809,75.607,103.88,115.16,173.989,193.194c51.118,56.901,115.802,86.958,179.2,95.098
			C4902.713,574.171,4948.263,576.027,4894.503,556.894z"/>
		<path fill="#C3DBF3" d="M4899.929,566.46c-8.282-2.713-16.421-5.783-24.417-9.066c-58.259-24.132-107.734-63.113-140.576-117.516
			c-16.849-27.987-31.271-56.116-43.979-86.245c-3.998-9.566-7.854-19.276-11.922-28.843c-3.356-7.711-6.926-15.351-11.353-22.49
			c-6.354-10.423-13.922-18.919-23.203-26.844c-13.422-11.494-29.343-21.133-44.692-29.771
			c-58.044-32.699-103.309-92.385-131.51-151.714c-17.277-36.34-29.628-74.964-36.91-114.517
			c-7.996-43.051-9.924-87.244-5.783-130.866c2.784-30.057,4.427-60.186,5.283-90.314c0.714-24.273,0.856-48.477,1.57-72.751
			c0.929-35.697,2.785-75.25,18.42-108.091c10.566-22.204,26.416-39.41,45.907-54.188c26.059-19.705,47.478-42.623,67.968-67.825
			c18.848-23.061,36.482-47.263,56.758-69.109c20.848-22.418,43.337-40.838,70.824-54.617c12.779-6.354,28.7-15.778,37.768-27.13
			c3.498-4.427,7.567-11.28,5.283-17.135c-2.642-6.782-12.494-9.71-18.92-10.638c-14.279-1.999-30.271,1.428-43.551,6.497
			c-3.213,1.285-6.354,2.713-9.424,4.354c-27.986,15.136-48.049,47.406-63.756,74.107c-9.924,16.921-19.348,34.198-30.199,50.548
			c-9.639,14.564-21.133,29.486-35.412,39.695c-7.711,5.568-16.92,10.78-26.273,12.637c-7.567,1.57-15.35,0.856-21.775-3.641
			c-11.994-8.425-13.207-25.274-11.423-38.554c2.642-19.848,12.209-40.195,22.847-56.901c6.711-10.709,13.707-24.56,14.921-37.268
			c0.5-4.998,0.215-12.709-4.426-15.992c-4.427-3.07-11.28-1.071-15.636,0.928c-11.066,4.998-21.347,15.421-28.844,24.702
			c-44.692,55.26-58.543,157.996-61.971,227.392c-1.499,30.343-0.999,60.972-0.999,91.386c-0.071,24.56-0.285,49.262-1.999,73.75
			c-1.499,21.062-4.212,43.479-10.566,63.612c-8.139,26.131-2.428,60.472,2.998,86.745c3.928,18.991,8.711,37.839,12.494,56.901
			c2.928,14.85,6.069,32.842,3.998,47.977c-1.57,11.78-6.639,29.344-20.918,30.771c-10.924,1.071-19.134-8.425-23.703-17.135
			c-6.711-12.779-9.139-28.771-9.281-43.051c-0.071-5.997-1.071-13.279-4.283-18.42c-1.357-2.213-3.57-4.641-6.283-4.854
			c-2.356-0.144-4.498,1.285-6.068,2.855c-3.498,3.427-5.641,8.781-6.854,13.351c-5.354,20.134,0.215,46.692,6.354,66.04
			c33.912,107.734,116.088,197.549,205.545,263.375c23.561,17.277,46.192,35.911,66.54,56.83
			c15.207,15.635,28.486,32.198,41.266,49.833c9.781,13.493,19.276,27.272,29.2,40.695c11.994,16.206,24.631,31.771,38.125,46.763
			c31.913,35.555,71.466,62.756,116.516,78.82C4855.021,559.178,4877.296,564.247,4899.929,566.46z"/>
		<path fill="#5396DC" d="M4420.3-567c-11.78,45.193-16.85,93.884-18.777,132.294c-1.499,30.343-0.999,60.972-0.999,91.386
			c-0.071,24.56-0.285,49.262-1.999,73.75c-1.499,21.062-4.212,43.479-10.566,63.612c-8.139,26.131-2.428,60.472,2.998,86.745
			c2.785,13.493,5.998,26.915,8.996,40.409c-1.785-25.488-5.497-60.828-0.928-87.744c8.139-47.406,8.424-75.821,4.854-169.419
			c-3.641-93.599,41.98-146.787,34.77-179.415c-7.211-32.698,7.211-80.533-8.996-64.826
			C4426.868-577.495,4423.655-572.854,4420.3-567z M4673.679-703.935c-9.353,4.926-20.99,13.494-32.698,28.415
			c-16.85,21.419-22.418,37.482-24.274,46.335c28.059-43.408,94.027-64.755,67.825-73.965
			C4681.604-704.22,4677.963-704.435,4673.679-703.935z M4352.047,56.489c39.909,89.528,112.16,164.85,189.909,222.108
			c23.561,17.277,46.192,35.911,66.54,56.83c15.207,15.635,28.486,32.198,41.266,49.833c5.141,7.14,10.281,14.351,15.35,21.49
			c-4.569-12.994-9.21-25.917-14.064-38.339c-26.487-67.683-51.618-78.605-116.23-109.234
			c-64.612-30.557-95.383-98.096-105.735-159.566c-10.424-61.542-33.983-67.896-46.549-50.048S4362.398,66.556,4352.047,56.489z"/>
		<path fill="#FFFFFF" d="M4899.929,566.46c-8.282-2.713-16.421-5.783-24.417-9.066c-58.259-24.132-107.734-63.113-140.576-117.516
			c-16.849-27.987-31.271-56.116-43.979-86.245c-3.998-9.566-7.854-19.276-11.922-28.843c-3.356-7.711-6.926-15.351-11.353-22.49
			c-6.354-10.423-13.922-18.919-23.203-26.844c-13.422-11.494-29.343-21.133-44.692-29.771
			c-58.044-32.699-103.309-92.385-131.51-151.714c-17.277-36.34-29.628-74.964-36.91-114.517
			c-7.996-43.051-9.924-87.244-5.783-130.866c2.784-30.057,4.427-60.186,5.283-90.314c0.714-24.273,0.856-48.477,1.57-72.751
			c0.929-35.697,2.785-75.25,18.42-108.091c10.566-22.204,26.416-39.41,45.907-54.188c26.059-19.705,47.478-42.623,67.968-67.825
			c18.848-23.061,36.482-47.263,56.758-69.109c20.848-22.418,43.337-40.838,70.824-54.617c12.779-6.354,28.7-15.778,37.768-27.13
			c3.498-4.427,7.567-11.28,5.283-17.135c-2.642-6.782-12.494-9.71-18.92-10.638c-14.279-1.999-30.271,1.428-43.551,6.497
			c-3.213,1.285-6.354,2.713-9.424,4.354c-10.566,5.712-20.063,13.922-28.558,23.347c20.562-11.78,39.624-17.706,49.619-14.137
			c27.13,9.567-44.479,32.057-70.609,78.534c-26.202,46.478-86.03,112.09-130.01,135.007
			c-44.05,22.989-56.045,65.326-59.686,141.361c-3.569,76.035,3.641,136.293-5.997,193.479
			c-9.567,57.187-1.356,157.068,42.622,268.372c43.979,111.375,126.583,137.221,165.636,171.989
			c38.981,34.841,47.334,118.801,109.162,178.844C4797.478,524.409,4819.467,549.111,4899.929,566.46z M4520.895-539.941
			c-4.212,2.07-8.639,3.713-13.065,4.569c-7.567,1.57-15.35,0.856-21.775-3.641c-11.994-8.425-13.207-25.274-11.423-38.554
			c2.642-19.848,12.209-40.195,22.847-56.901c6.711-10.709,13.707-24.56,14.921-37.268c0.5-4.998,0.215-12.709-4.426-15.992
			c-4.427-3.07-11.28-1.071-15.636,0.928c-11.066,4.998-21.347,15.421-28.844,24.702c-11.494,14.279-20.99,31.699-28.771,50.904
			c15.421-21.489,28.415-37.268,35.126-40.409c25.845-11.994-24.846,64.398-8.996,108.163
			C4470.348-517.381,4497.978-520.808,4520.895-539.941z M4400.452,7.155c-3.213,4.926-7.711,8.639-13.922,9.281
			c-10.924,1.071-19.134-8.425-23.703-17.135c-6.711-12.779-9.139-28.771-9.281-43.051c-0.071-5.997-1.071-13.279-4.283-18.42
			c-1.357-2.213-3.57-4.641-6.283-4.854c-2.356-0.144-4.498,1.285-6.068,2.855c-3.498,3.427-5.641,8.781-6.854,13.351
			c-2.642,9.853-2.642,21.133-1.213,32.413c1.999-12.351,4.426-21.561,7.21-23.56c10.21-7.497,7.211,57.687,34.198,66.254
			C4385.174,29.073,4394.955,19.435,4400.452,7.155z"/>
		<path fill="#C3DBF3" d="M5371.704,645.637c-37.269-7.282-74.75-20.205-106.021-41.409
			c-62.256-42.193-133.223-61.042-207.83-61.898c-30.771-0.286-61.685-12.28-84.031-33.627
			c-26.772-25.488-37.41-59.972-34.697-96.383c1-13.137,7.639-89.601-8.854-96.668c-1.284-0.571-2.713-0.714-4.141-0.714
			c-1.928,0.071-3.998,0.499-5.354,1.999c-1.928,2.213-2.142,6.282-1.928,9.066c0.357,5.141,2.142,10.495,4.498,14.993
			c1.071,1.999,2.214,3.927,3.569,5.712c1.214,1.642,2.143,3.498,2.713,5.497c2.071,7.068-0.428,14.636-4.854,20.205
			c-4.569,5.997-11.423,10.209-18.919,11.28c-9.354,1.356-18.063-2.285-24.917-8.567c-9.71-8.925-15.707-22.847-19.491-35.27
			c-6.14-19.919-14.278-41.623-26.416-58.757c-8.281-11.638-17.848-20.276-30.342-27.131c-5.641-3.069-11.566-5.568-17.563-7.854
			c-7.925-3.069-14.351-8.139-18.92-15.35c-4.926-7.639-7.14-16.706-8.425-25.559c-1.142-7.426-1.642-14.922-2.927-22.275
			c-0.714-3.642-1.999-9.353-4.926-11.994c-1.785-1.571-3.927-2.713-6.426-2.642c-3.927,0.071-7.64,2.998-10.066,5.782
			c-3.998,4.57-6.426,10.495-7.425,16.421c-1.214,7.211-0.286,14.564,2.641,21.348c3.855,8.995,10.781,16.135,18.777,21.632
			c7.211,4.998,13.922,10.566,20.062,16.85c16.492,16.992,27.63,37.981,37.126,59.4c6.211,13.851,11.779,28.058,17.277,42.194
			c6.925,17.777,13.636,35.697,20.562,53.475c34.911,90.028,108.091,126.511,198.833,140.075
			c32.628,4.855,58.188,16.707,85.816,34.056c18.991,11.923,37.197,24.846,57.116,35.269c23.988,12.494,48.263,20.348,75.106,24.274
			C5297.667,644.352,5334.864,646.351,5371.704,645.637z"/>
		<path fill="#5396DC" d="M4785.84,270.673c8.21,12.279,14.778,25.559,20.776,39.053c6.211,13.851,11.779,28.058,17.277,42.194
			c6.925,17.777,13.636,35.697,20.562,53.475c23.56,60.756,64.612,97.168,116.658,118.515
			c-36.196-26.273-46.549-60.757-49.048-84.674c-1.428-13.065-1.928-27.487-30.771-36.34
			c-36.34-11.138-49.762-72.608-73.821-106.807C4799.048,284.095,4791.766,276.027,4785.84,270.673z M5097.834,562.177
			c10.495,4.926,20.704,10.709,31.271,17.349c11.566,7.282,22.775,14.85,34.27,22.061c61.613,33.128,118.443,35.341,106.735,29.629
			c-11.709-5.711-46.192-16.206-101.666-49.19C5143.026,566.889,5121.323,563.89,5097.834,562.177z"/>
		<path fill="#FFFFFF" d="M5371.704,645.637c-37.269-7.282-74.75-20.205-106.021-41.409
			c-62.256-42.193-133.223-61.042-207.83-61.898c-30.771-0.286-61.685-12.28-84.031-33.627
			c-26.772-25.488-37.41-59.972-34.697-96.383c1-13.137,7.639-89.601-8.854-96.668c-1.284-0.571-2.713-0.714-4.141-0.714
			c-1.928,0.071-3.998,0.499-5.354,1.999c-0.785,0.928-1.285,2.213-1.642,3.569c8.139,4.498,15.421,16.921,15.278,40.695
			c-0.286,45.835-19.276,103.236,23.988,136.792c43.265,33.627,49.048,46.62,99.881,47.263
			c50.904,0.643,112.232,10.353,155.427,43.693C5256.901,622.22,5328.438,645.494,5371.704,645.637z M4905.354,383.762
			c-9.21,1.143-17.706-2.428-24.417-8.639c-9.71-8.925-15.707-22.847-19.491-35.27c-6.14-19.919-14.278-41.623-26.416-58.757
			c-8.281-11.638-17.848-20.276-30.342-27.131c-5.641-3.069-11.566-5.568-17.563-7.854c-7.925-3.069-14.351-8.139-18.92-15.35
			c-4.926-7.639-7.14-16.706-8.425-25.559c-1.142-7.426-1.642-14.922-2.927-22.275c-0.714-3.642-1.999-9.353-4.926-11.994
			c-1.785-1.571-3.927-2.713-6.426-2.642c-3.927,0.071-7.64,2.998-10.066,5.782c-3.998,4.57-6.426,10.495-7.425,16.421
			c-1.143,6.854-0.357,13.779,2.142,20.205c1.784-9.853,4.569-17.206,8.924-18.063c14.422-2.999,3.355,39.267,46.55,61.185
			c43.193,21.918,53.975,49.762,68.967,93.313C4866.873,382.619,4890.505,391.329,4905.354,383.762z"/>
		<path fill="#C3DBF3" d="M4909.78,480.001c0,0-29.057-28.058-28.486-44.764c0.643-16.707,18.635-13.208,18.635,4.569
			c0,17.849,13.208,36.625,14.35,41.694C4915.492,486.641,4909.78,480.001,4909.78,480.001z"/>
		<path fill="#C3DBF3" d="M4393.384,78.336c2.356-21.562,14.993-21.919,14.064,0c-0.856,21.847,14.137,59.043,11.995,62.97
			C4417.372,145.232,4391.242,97.112,4393.384,78.336z"/>
	</g>
</g>
</svg>
