<?xml version="1.0" encoding="utf-8"?>
<!-- Generator: Adobe Illustrator 16.0.0, SVG Export Plug-In . SVG Version: 6.00 Build 0)  -->
<!DOCTYPE svg PUBLIC "-//W3C//DTD SVG 1.1//EN" "http://www.w3.org/Graphics/SVG/1.1/DTD/svg11.dtd">
<svg version="1.1" id="Layer_1" xmlns="http://www.w3.org/2000/svg" xmlns:xlink="http://www.w3.org/1999/xlink" x="0px" y="0px"
	 width="2200px" height="2200px" viewBox="2841.943 -1223.931 2200 2200" enable-background="new 2841.943 -1223.931 2200 2200"
	 xml:space="preserve">
<g id="Layer_x0020_1">
	<g id="_510218784">
		<path d="M3625.692-679.23l19.296-9.387c25.927-12.517,53.567-22.5,80.984-31.067c24.884-7.749,50.141-14.528,75.546-20.488
			c37.922-29.578,73.608-58.262,108.625-91.564c13.559-12.889,25.182-27.789,38.666-40.901
			c11.771-11.474,24.362-21.233,38.519-29.652c43.658-25.853,99.461-37.177,149.079-43.584c59.453-7.6,127.996-11.176,187.226,0.372
			c25.853,4.992,75.247,18.18,79.792,49.992c3.874,27.417-16.093,37.847-40.231,38.89c-17.806,0.82-20.786,10.654-32.632,24.362
			c-8.717,10.059-17.359,20.265-25.778,30.621c-24.734,30.248-46.489,40.156-37.698,77.408l3.055,13.112
			c26.225,19.669,52.077,39.636,78.451,59.155c23.617,17.434,47.384,34.867,71.075,52.151
			c30.919,22.426,118.683,87.243,135.297,106.465c17.509,20.339,47.607,56.249,34.271,85.156
			c-10.356,22.351-39.412,26.821-61.241,28.311c-16.018,1.118-32.483,0.819-48.576,0.149c-21.308-0.895-42.615-2.533-63.849-4.471
			c-91.042-8.195-181.265-2.905-272.307-0.148c-59.825,1.862-119.502,2.31-179.179-2.831
			c-64.743-5.662-127.697-17.881-189.386-38.518c-69.884-23.395-137.606-60.198-189.46-113.17
			c-27.268-28.013-59.155-71.15-65.786-110.785c-2.831-16.838-4.693-38.369,10.58-50.141c14.677-11.324,34.568-5.066,50.065,0.895
			C3595.369-693.088,3610.568-686.159,3625.692-679.23z"/>
		<path d="M3923.926,692.661c-26.001,7.972-27.64,3.055-57.292-5.29c-12.219-3.502-22.574-10.431-29.279-21.382
			c-18.03-29.28-0.373-73.46,14.006-101.398l6.035-11.771l12.963,2.235c33.899,5.736,68.319,8.94,102.665,10.058l19.296,0.671
			l-2.012,19.222c-0.67,6.481-2.012,19.967-0.67,26.225c3.576,16.316,4.619,34.719-1.714,50.513
			c-5.438,13.56-16.241,24.064-30.919,26.747C3943.445,690.947,3941.435,687.297,3923.926,692.661z M4221.042,692.512
			c-22.648,16.019-30.62,12.069-59.154,12.219c-11.921,0.074-23.171-3.278-32.409-10.952
			c-31.067-25.703-23.468-86.721-16.315-122.185l2.533-12.814l12.963-1.489c35.24-4.173,70.405-9.388,105.197-16.54l18.402-3.726
			l2.98,18.552c1.341,8.567,3.874,24.511,7.524,31.813c8.419,16.763,14.752,36.729,12.293,55.653
			c-2.086,15.795-10.653,30.174-25.853,36.357C4234.453,685.285,4236.763,681.411,4221.042,692.512z"/>
		<path fill="#FFD7E0" d="M3871.551,670.012c-6.78-14.155-10.729-43.36,4.247-53.12c-5.066,30.844,1.639,71.15,42.913,58.56
			c-10.058-18.775-16.316-42.02,0-59.453c0,0-0.894,27.64,8.94,41.721c18.849,26.821,56.846,13.709,44.403-42.615
			c-1.564-7.227-0.819-20.413,0.372-31.962c-39.561-1.341-74.651-5.215-105.048-10.355
			C3849.87,606.834,3831.841,658.763,3871.551,670.012z M4161.813,686.7c-10.951-13.187-23.319-43.732-11.175-59.006
			c3.874,35.091,22.276,76.738,59.975,50.141c-15.497-17.285-28.46-40.529-17.21-64.594c0,0,7.077,30.248,21.084,42.467
			c26.672,23.244,60.943-2.906,32.185-60.198c-3.874-7.823-7.077-23.618-9.238-37.103c-29.949,6.109-65.264,11.846-106.613,16.763
			C4122.252,617.487,4116.143,686.924,4161.813,686.7z"/>
		<path fill="#FFA3B9" d="M3871.551,670.012c-2.086-4.396-3.948-10.355-5.066-16.688c-2.16,0.298-5.513-0.745-10.505-4.619
			c-3.725-2.831-6.332-7.077-8.27-11.771C3847.859,652.43,3854.267,665.095,3871.551,670.012z M3877.66,657.197
			c5.364,15.497,17.657,25.405,41.051,18.254c-3.576-6.706-6.705-13.933-8.419-21.233c-3.353,4.768-8.717,8.643-17.284,7.674
			C3885.855,661.146,3881.013,659.284,3877.66,657.197z M3923.032,648.257c1.191,3.428,2.757,6.706,4.619,9.462
			c18.849,26.821,56.846,13.709,44.403-42.615c-1.564-7.227-0.819-20.413,0.372-31.962c-7.151-0.223-14.155-0.596-21.009-0.968
			c-1.416,29.279,12.963,65.413-3.8,70.479C3936.442,656.006,3928.321,652.504,3923.032,648.257z M4129.404,661.966
			c3.427,2.235,6.779,3.8,9.909,4.47c5.364,1.044,9.089,1.342,11.548,1.342c3.055,7.524,7.077,14.304,10.951,18.923
			C4144.379,686.775,4134.545,676.792,4129.404,661.966z M4163.824,670.31c6.184,2.385,15.497,4.694,25.853,2.683
			c6.258-1.192,10.133-3.353,12.442-5.736c2.682,3.725,5.513,7.301,8.493,10.579C4188.932,693.108,4173.659,685.881,4163.824,670.31
			z M4216.87,657.645c9.164-0.819,19.818-5.513,14.528-23.915c-7.674-26.672-17.583-46.267-16.838-70.927
			c7.972-1.415,15.571-2.905,22.872-4.396c2.161,13.484,5.364,29.279,9.238,37.103
			C4274.61,651.163,4243.095,677.388,4216.87,657.645z"/>
		<path fill="#EB0032" d="M3771.419-636.838c0,0-53.046,20.041-134.03-15.943c-80.984-36.06-108.028-54.015-99.014,0
			c7.674,46.116,73.087,152.134,242.357,208.83c226.115,75.77,418.928,21.085,636.55,40.604
			c156.009,14.006,191.1,1.564,123.078-77.483c-67.946-78.973-214.418-126.952-318.945-142.97
			c-104.602-16.019-133.062-11.026-133.062-11.026s91.563-9.983,183.5,8.493c92.011,18.551,136.563,42.02,136.563,42.02
			s-99.536-72.491-131.498-97.524c-32.035-24.958-72.044-52.449-72.044-52.449l43.51,14.453c0,0-9.983-42.467-6.481-72.938
			c3.502-30.546-27.045-65.562-27.045-65.562s15.497,9.536,30.025,24.064c14.527,14.453,18.029,35.984,18.029,35.984
			s10.505-14.528,11.474-47.532c0.968-33.005-10.505-47.012-10.505-47.012s6.481,4.023,18.998,26.523
			c12.516,22.499,7.003,52.523,7.003,52.523s42.541-52.002,52.972-59.006c10.505-7.003,44.999,4.471,41.572-20.041
			c-3.502-24.512-86.572-54.462-245.561-33.973c-158.988,20.487-174.485,70.032-215.462,108.997
			c-41.051,38.965-81.506,70.479-81.506,70.479s46.49-7.972,90.521-7.972c43.957,0,60.496,2.979,60.496,2.979
			c-98.269,8.419-251.968,38.593-339.508,80.984C3653.407-671.333,3685.369-641.83,3771.419-636.838z"/>
		<path fill="#BC0028" d="M3538.375-652.781c7.674,46.116,73.087,152.134,242.357,208.83
			c226.115,75.77,418.928,21.085,636.55,40.604c72.715,6.556,119.204,7.301,141.183-1.714c7.227-13.932,3.65-31.813-16.167-54.834
			c-104.08-120.694-309.931-152.209-556.386-152.209c-246.454,0-312.166-9.238-405.741-53.939
			C3549.997-680.497,3532.117-690.405,3538.375-652.781z M4319.237-615.382c59.975,15.646,89.18,31.068,89.18,31.068
			s-99.536-72.491-131.498-97.524c-11.473-8.94-23.989-18.179-35.313-26.374c4.47,4.471,9.536,10.059,15.348,16.987
			C4279.08-665.074,4306.199-631.623,4319.237-615.382z M4226.481-727.136l21.903,7.302c0,0-9.983-42.467-6.481-72.938
			c1.415-12.814-3.055-26.373-8.791-37.772c1.937,11.399,3.129,28.312-2.832,41.572
			C4223.277-773.178,4214.71-747.102,4226.481-727.136z M4235.646-842.838c3.054,2.607,6.184,5.438,9.238,8.568
			c14.527,14.453,18.029,35.984,18.029,35.984s10.505-14.528,11.474-47.532c0.074-3.278,0.074-6.408-0.075-9.388
			c-2.607,3.65-6.258,7.152-11.026,9.238C4254.644-842.167,4242.499-842.316,4235.646-842.838z M4283.104-865.934
			c12.218,22.425,6.779,52.151,6.779,52.151s42.541-52.002,52.972-59.006c9.164-6.109,36.506,1.788,41.125-12.218
			c-4.843,0.894-12.293,0.968-23.766-1.043c-33.602-5.737-43.212,10.728-54.611,18.774
			C4297.259-861.314,4287.647-864.071,4283.104-865.934z"/>
		<path fill="#FFA3B9" d="M3538.375-652.781c7.674,46.116,73.087,152.134,242.357,208.83c33.675,11.325,66.604,19.669,99.014,25.853
			c95.885-42.765,370.278-176.124,235.279-174.56c-128.815,1.49-307.473-19.37-374.003-27.789
			c-57.591-6.407-106.763-19.743-160.852-45.596C3549.997-680.497,3532.117-690.405,3538.375-652.781z"/>
		<path fill="#FFA3B9" d="M4375.71-905.494c-25.331-20.563-104.899-38.295-236.844-21.308
			c-158.988,20.487-174.485,70.032-215.462,108.997c-41.051,38.965-81.506,70.479-81.506,70.479s39.338-6.78,79.867-7.823
			c-4.321-4.768-5.364-13.634,6.407-30.248c24.586-34.644,49.172-63.551,86.423-93.649
			C4048.122-906.165,4274.685-942.522,4375.71-905.494z M3888.091-738.311c-83.146,14.453-174.561,37.848-234.684,66.978
			c0,0,8.419,7.823,28.386,16.093c14.453-9.015,51.481-29.876,120.471-54.908C3838.77-723.41,3867.155-732.351,3888.091-738.311z"/>
		<path d="M4032.401-598.842c316.115-8.27,492.463,133.062,506.99,159.063c14.528,26.001-26.001,26.448-108.028,19.967
			c-81.953-6.482-284.973,3.501-414.979,3.501s-260.089-35.612-347.48-95.512c-87.392-59.9-115.255-138.203-111.53-149.751
			c2.31-7.003,31.143,5.737,53.046,16.688C3723.887-588.263,3911.261-595.638,4032.401-598.842z"/>
		<path fill="#640015" d="M3597.53-609.123c21.01,32.558,49.693,60.646,81.506,82.475c93.575,64.146,225.296,92.309,337.348,92.309
			c55.653,0,111.382-1.49,167.035-2.831c47.16-1.118,94.469-2.31,141.703-2.683c35.39-0.372,72.343-0.67,107.656,2.086
			c45.373,3.576,120.322,21.755,54.462-24.958c-29.801-21.084-63.179-38.815-96.556-53.418
			c-48.65-21.308-100.057-36.879-152.06-47.458c-67.648-13.783-136.861-18.999-205.776-17.211
			c-128.964,3.353-313.507,10.356-430.476-47.979C3571.23-644.363,3582.555-632.219,3597.53-609.123z"/>
		<path d="M3736.03-594.744l-0.894-13.634c100.131,15.869,214.27,11.771,297.265,9.536c114.586-2.98,210.769,13.709,287.58,37.4
			c-7.972,22.724-20.189,54.313-30.77,66.978c5.886-1.862,11.102-4.022,15.795-6.705c-2.086,15.869-6.779,40.231-14.23,72.565
			c-6.184,26.896-16.837,51.556-36.282,80.463c-51.929,77.408-134.552,114.213-225.146,123.451
			c-75.174,7.674-159.734,0.148-217.846-53.493c-30.397-28.013-47.086-61.912-56.995-101.621c-3.799-15.05-8.567-31.59-2.979-46.788
			c4.619-12.293,14.527-20.19,25.777-25.778C3750.708-499.977,3738.937-549.596,3736.03-594.744z"/>
		<path fill="#C7738A" d="M4239.966-563.379c-17.582-3.576-35.239-6.556-52.971-9.089c14.08,35.91,17.582,55.951,17.582,55.951
			S4227.748-525.903,4239.966-563.379z M3789.971-553.022c2.086,6.481,4.396,12.665,6.705,18.327
			c1.192-4.693,2.458-9.61,3.948-14.825C3800.624-549.521,3796.526-550.266,3789.971-553.022z"/>
		<path fill="#FFD7E0" d="M3811.65-581.78c-20.265,8.567-40.529,7.227-40.529,7.227c30.695,20.265,89.478,17.284,118.235-3.726
			c-8.939,12.666-12.814,31.813-6.705,46.49c9.983-25.183,42.616-45,69.213-39.264c-61.986,14.528-54.535,59.975-61.241,65.712
			c-3.725,3.278-12.293-7.972-14.304-11.25c-7.749-12.666-8.94-21.681-7.823-40.604c-16.093,6.184-33.974,8.12-51.108,7.896
			c-8.717,25.778-16.242,66.531-11.995,93.501c18.402-3.8,60.57-6.258,77.482,0c0,0-49.246,2.98-83.964,15.273
			c-36.954,12.963-33.452,25.405-25.778,56.025c9.164,36.805,43.137,162.267,254.277,140.661
			c131.944-13.484,232.075-89.627,251.298-222.763c-20.414,15.124-39.338,25.479-63.477,28.684c0,0,50.736-40.827,76.737-113.021
			c-12.367-3.353-24.81-6.481-37.325-9.238c-0.597,2.086-1.192,4.098-1.863,5.96c-13.037,36.283-59.751,77.334-61.763,54.238
			c-0.968-11.026-7.674-40.827-19.594-74.503c-45.968-5.588-92.384-7.524-138.575-6.333
			C3967.957-579.099,3888.984-576.491,3811.65-581.78z M3772.313-585.208c-5.29-0.521-10.505-1.117-15.721-1.788l0,0
			c0,0,0,1.192,0.224,3.502C3760.69-582.898,3770.376-583.047,3772.313-585.208z M3756.966-581.259
			c1.415,15.57,7.227,60.421,31.067,108.773c0,0-0.894-15.273,4.769-44.329c-6.482-13.708-11.324-28.386-14.9-42.243
			c-0.82-0.521-1.64-0.969-2.459-1.49C3764.49-567.327,3759.052-576.863,3756.966-581.259z"/>
		<path fill="#FFA3B9" d="M4052.518-247.189c119.428-20.19,208.16-94.842,226.19-219.41c-20.414,15.124-39.338,25.479-63.477,28.684
			c0,0,50.736-40.827,76.737-113.021c-12.367-3.353-24.81-6.481-37.325-9.238c-0.597,2.086-1.192,4.098-1.863,5.96
			c-13.037,36.283-59.751,77.334-61.763,54.238c-0.968-11.026-7.674-40.827-19.594-74.503c-17.062-2.086-34.122-3.65-51.258-4.693
			c29.503,96.183,48.65,239.078-56.398,322.521C4059.596-253.299,4055.944-250.17,4052.518-247.189z"/>
		<path fill="#C7738A" d="M3881.236-535.887c0.372,1.415,0.819,2.756,1.415,4.098c0.224-0.597,0.447-1.118,0.671-1.714
			C3882.651-534.322,3881.981-535.142,3881.236-535.887z M3935.251-549.521c-6.482,11.101-3.8,25.33,2.532,26.448
			c6.631,1.267,12.517-16.316,22.873-25.629c7.003-6.333,20.339-8.195,21.01-10.804
			C3983.007-564.646,3947.097-569.935,3935.251-549.521z M3875.574-517.932c-4.769-8.121-6.78-14.826-7.302-23.99
			c-10.877-1.564-21.68,3.204-20.563,5.96c0.819,2.161,11.101,2.161,17.136,6.705
			C3868.868-526.276,3872.37-521.806,3875.574-517.932z"/>
		<path fill="#FFFFFF" d="M3771.121-574.554c30.695,20.265,89.478,17.284,118.235-3.726c-8.939,12.666-12.814,31.813-6.705,46.49
			c8.419-21.233,32.855-38.593,56.25-40.157l0,0c0,0-10.505-1.862-25.182,2.086c-14.752,3.874-26.449,17.359-26.449,17.359
			s-0.894-0.298,3.353-9.462c2.533-5.588,7.228-12.293,10.505-16.688c-12.293-0.149-24.66-0.298-37.102-0.671
			c-7.45,2.757-17.434,5.737-30.845,8.419C3795.633-563.527,3771.121-574.554,3771.121-574.554z M3788.928-491.409
			c-5.961-13.336-17.732-42.765-22.426-76.29c-5.141-5.216-8.121-10.58-9.536-13.56c1.415,15.57,7.227,60.421,31.067,108.773
			C3788.033-472.485,3787.661-478.893,3788.928-491.409z M3764.863-583.271c-0.075-0.895-0.149-1.862-0.149-2.757
			c-2.757-0.298-5.438-0.671-8.121-0.969l0,0c0,0,0,1.192,0.224,3.502C3758.68-583.196,3761.809-583.047,3764.863-583.271z
			 M3863.505-324.3c0.596,11.026,4.32,22.127,15.57,28.014c26.672,13.932,74.503-29.057,83.146-57.219l0,0
			c-14.305,30.695-50.588,51.854-77.408,51.854C3871.253-301.651,3865.591-312.23,3863.505-324.3z M3830.798-549.596
			c-4.47,0.224-8.94,0.373-13.41,0.298c-8.717,25.778-16.242,66.531-11.995,93.501c13.485-2.757,39.636-4.843,59.378-3.278
			c3.055-21.531-4.619-32.632-7.45-37.102c-10.206-16.019-34.941-21.159-33.973-28.833
			C3824.093-531.193,3828.936-544.529,3830.798-549.596z M3874.978-455.201c-15.272,1.416-49.842,5.364-76.066,14.678
			c-36.954,12.963-33.452,25.405-25.778,56.025c8.121,32.633,35.761,134.701,188.641,142.673
			c-16.465-1.267-61.315-7.227-91.042-33.974c-38.369-34.569-60.943-83.219-60.049-103.335
			c0.894-20.115,17.061-32.632,17.061-32.632s-33.303,7.897-30.024-11.548C3801.071-442.759,3874.903-455.126,3874.978-455.201z"/>
		<path d="M3772.388-402.08c10.281,11.548,27.045,18.625,30.546,17.434c3.428-1.267,12.069-18.7,24.81-27.119
			c11.324-7.524,14.23-25.331-6.705-21.829c-11.548,1.937-32.036,5.438-42.541,4.917
			C3769.333-429.125,3763.447-412.063,3772.388-402.08z"/>
		<path d="M3614.814,441.885c7.972,74.727,29.205,148.187,66.605,218.591l20.414,38.369l-42.169-10.803
			c-53.418-13.709-99.237-41.647-127.697-89.999c-47.532-80.836-30.546-191.845-4.991-277.15
			c16.912-56.249,40.678-113.243,68.766-165.768c-7.6,1.639-15.05,2.086-22.574-1.565c-11.176-5.513-15.198-16.837-18.552-28.013
			c-6.332-21.084-9.536-43.956-11.622-65.935c-3.278-35.091-3.203-69.586-3.055-104.751c0.075-7.524,0-14.975-0.074-22.499
			l-0.224-37.624c2.905,2.16,54.685,19.445,54.685-16.316c0.075-14.975-0.148-29.95-0.596-44.701l-0.745-29.057l26.523,10.505
			l-3.13-14.229l53.046-0.447c-4.917-11.697-9.536-23.543-14.006-35.165c-17.062-44.851-31.59-91.862-40.529-139.022
			c-1.342-7.227-2.608-14.527-3.651-21.829l-5.065-33.898l31.515,13.41c28.758,12.219,79.047,14.528,109.593,8.643l13.709-2.682
			c-0.597,30.918,23.096,100.802,71.001,136.786c0.67-0.148,12.591-2.979,12.665-3.129c17.583-3.576,35.091-7.674,52.301-11.846
			c51.929-12.367,105.942-18.328,159.287-18.774c20.487-0.149,42.764,0.298,63.55,2.458c-0.223-1.862-0.446-3.725-0.67-5.513
			c-4.098-35.612-8.94-71.076-13.857-106.613c63.923-2.607,125.536-2.906,189.534,2.086c29.503,2.31,57.144,5.736,86.199,10.431
			c-2.979,16.688-5.438,30.396-10.951,46.713c-7.6,22.648-17.881,44.776-29.652,65.563c-13.336,23.766-29.131,46.563-45.819,68.021
			c-4.321,5.514-8.717,11.101-13.187,16.539c12.293-1.415,27.193-6.184,38.07-12.069l38.519-21.084
			c-11.847,26.076-16.316,52.152-18.104,75.396c-1.117,14.081-0.148,30.695,0.521,44.851c0.596,14.305,1.416,28.535,2.459,42.765
			c27.863-9.61,53.716-14.007,80.463-26.821l0.596,29.876c0.224,12.367-0.224,24.958-0.671,37.326
			c-1.267,31.961-3.948,63.997-7.748,95.81c-2.979,25.183-6.034,51.929-10.952,77.334c11.921,4.917,24.064,11.176,35.314,17.359
			c27.566,14.9,54.164,32.26,78.824,51.63c68.616,53.94,123.748,125.313,137.457,213.45
			c13.112,83.965-19.222,155.487-83.145,209.055c-21.383,17.881-45.447,33.153-70.479,45.521
			c-10.804,5.29-22.724,10.729-34.197,14.603l-32.036,10.729l7.152-33.005c4.769-22.425,3.726-53.418-0.148-75.62
			c-2.235-13.037-4.619-25.479-8.419-38.22c-5.737-19.37-13.857-37.922-23.021-55.877c-0.224-0.446-0.447-0.894-0.671-1.341
			l-1.043,1.043c-14.305,14.603-46.639,28.46-65.115,35.389c-30.472,11.474-62.656,19.817-94.469,26.598
			c-50.364,10.729-101.994,17.731-153.252,22.723c-94.693,9.164-194.154,6.109-286.687-17.508
			c-25.107-6.407-50.289-14.379-74.13-24.586c-8.866-3.725-18.477-8.12-26.821-13.038l-8.493-4.991l-0.819-9.909
			c-3.204-36.953-5.215-74.502-6.481-111.754c-27.119,7.45-51.556,20.563-73.236,38.667L3614.814,441.885z"/>
		<path fill="#EB0032" d="M3664.434,669.416c-84.337-158.765-93.054-339.881-36.953-531.874
			C3541.206,286.547,3422.598,607.43,3664.434,669.416z"/>
		<path fill="#FFA3B9" d="M3612.654,194.388c4.321-18.85,9.238-37.773,14.826-56.846
			c-63.998,110.487-145.728,315.593-85.008,439.491c-7.674-41.796-11.026-87.169-6.407-134.403
			C3548.582,316.721,3589.037,233.576,3612.654,194.388z"/>
		<path fill="#89001D" d="M3630.162-398.355c32.558,13.857,86.944,16.316,120.769,9.835c7.674,33.079,20.042,56.771,40.008,83.964
			c0,0-33.525,20.488-48.501,35.762c-10.877,11.101-9.015,23.394-6.184,32.93c5.216,17.583,7.674,24.214,15.348,38.891
			c-3.204,16.241-8.717,49.991-6.854,82.921c3.055,55.133-8.791,89.18-22.798,142.523c-18.998,63.924-25.777,153.923-26.97,219.262
			c-1.043,52.151-0.819,128.293-0.819,130.678c-33.898,8.344-62.284,24.139-85.827,43.882
			c-3.055-50.141-2.459-140.065,23.394-260.313c30.248-140.884,37.698-208.309,8.493-342.041l58.783-0.521
			C3699.003-180.584,3646.181-290.55,3630.162-398.355z"/>
		<path fill="#FFA3B9" d="M3630.162-398.355c32.483,13.783,86.722,16.316,120.546,9.835c-3.651,0.744-45.298,9.387-67.053,9.387
			c-23.096,0-33.601,0-33.601,0s8.419,55.877,20.413,108.252c6.408,27.864,12.368,49.321,16.54,63.328
			C3670.468-246.817,3641.338-323.107,3630.162-398.355z M3618.764,232.31c3.353-22.128,7.599-45.596,12.963-70.331
			c30.248-140.884,37.698-208.309,8.493-342.041l58.783-0.521l-48.948,8.419c20.637,85.976,20.712,186.256,0.372,272.604
			C3641.04,140.299,3628.226,184.776,3618.764,232.31z"/>
		<path fill="#FFA3B9" d="M3802.338-290.55c0,0-13.857,6.779-29.131,18.253c-7.003,5.29-12.218,9.61-15.794,12.74
			c-18.998,16.614,27.193,87.466,39.561,101.547c31.962,36.432,59.006,44.999,59.006,44.999
			c30.845-20.711,95.215-46.639,126.506-46.042c-35.762,11.622-79.048,28.832-123.525,62.508
			c-34.569-13.336-78.377-49.769-96.034-83.146c-4.917,26.672-6.184,48.65-3.055,75.396c2.683,24.661,1.267,62.731-14.9,116.225
			c-32.11,106.018-34.494,295.999-32.483,367c1.938,71.001,7.004,129.485,7.004,129.485s128.964,76.514,375.939,52.524
			c247.051-23.99,303.449-85.306,303.449-85.306c-107.954-234.981-290.485-315.891-327.438-689.671h57.516
			c0,0-1.49-34.047-3.278-51.779c-1.713-17.731-2.234-18.998-2.234-18.998s-104.006-12.963-222.018,15.273
			c-117.938,28.236-135.446,23.021-124.196,12.219c11.25-10.729,34.196-22.724,34.196-22.724L3802.338-290.55z"/>
		<path fill="#F58EAA" d="M3855.979-113.011c30.845-20.711,95.215-46.639,126.506-46.042c-19.297,6.258-40.828,14.229-63.551,25.479
			c21.233-3.129,44.553-2.16,63.849,9.388c45.372,27.193,47.831,349.566,183.946,676.483
			c186.854-27.491,232.15-76.663,232.15-76.663c-107.954-234.981-290.485-315.891-327.438-689.671h57.516
			c0,0-1.49-34.047-3.278-51.779c-1.713-17.731-2.234-18.998-2.234-18.998s-24.362-3.055-62.881-2.979
			c7.302,6.854,12.07,17.061,3.204,31.142c-18.85,30.1-109.221,40.679-152.358,77.408
			C3868.198-142.438,3855.979-113.011,3855.979-113.011z"/>
		<path fill="#C7738A" d="M4364.013,498.358c26.002-13.113,34.867-22.724,34.867-22.724
			c-54.237-118.012-127.176-197.134-191.174-293.987c39.785,87.615,84.188,179.7,121.439,245.561
			C4343.897,453.135,4355.296,476.901,4364.013,498.358z"/>
		<path fill="#FFD7E0" d="M3759.871-104.294c2.683,24.661,1.267,62.731-14.9,116.225c-32.11,106.018-34.494,295.999-32.483,367
			c1.938,71.001,7.004,129.485,7.004,129.485s7.077,4.247,21.158,10.431c-25.629-141.183-11.846-380.634,10.059-477.413
			C3770.674-46.777,3764.416-90.063,3759.871-104.294z"/>
		<path fill="#FFD7E0" d="M3802.338-290.55c0,0-13.857,6.779-29.131,18.253c-7.003,5.29-12.218,9.61-15.794,12.74
			c-18.402,16.093,24.362,82.995,38.294,99.982c-23.691-36.134-35.239-80.463-23.989-77.558
			c16.018,4.247,49.469-0.298,127.548-24.586c37.326-11.622,83.518-19.668,121.514-24.884c-35.016,1.938-76.216,6.78-119.353,17.062
			c-41.35,9.908-70.405,15.646-90.148,18.551l0,0c0,0-0.373,0.074-1.043,0.149c-15.721,2.235-25.405,2.607-30.695,1.713
			c-8.94-0.596-15.869-2.756-14.379-8.344c2.459-9.462,25.033-22.574,39.636-30.248L3802.338-290.55z"/>
		<path fill="#EB0032" d="M4127.169-398.355c0,0,16.019,114.511,17.509,157.052c1.489,42.541,0,48.277,0,48.277l-53.94-3.055
			c31.067,394.193,328.109,533.439,371.47,782.501c7.972,46.043,0,82.996,0,82.996s203.02-67.946,175.007-247.944
			s-240.792-267.986-240.792-267.986s-6.035,52.972-31.143,41.945c-25.107-10.952-103.559-67.946-132.614-100.951
			c-28.981-33.005-21.979-54.015-21.979-54.015s10.505,31.888,49.991,64.52c39.486,32.558,91.191,71.001,104.602,73.46
			c13.411,2.532,21.904-43.957,31.143-121.961c8.12-68.543,9.015-122.185,9.089-134.328c-4.47,1.341-9.089,2.533-13.484,3.948
			c0,0-9.909,131.349-18.328,191.845s-30.993-30.472-40.008-94.022c-9.015-63.477-14.975-164.502-12.964-190.503
			c1.938-26.002,7.972-35.985,7.972-35.985s-21.01,11.548-44.999,14.23c-23.99,2.756-44.776-5.439-44.776-5.439
			s-17.955,0.969-30.993,11.25c-12.963,10.207-16.465,15.944-16.465,15.944s6.481-23.692,28.758-33.452
			c22.202-9.76,35.985-7.524,35.985-7.524s38.965-43.212,67.499-93.725c28.46-50.513,35.017-87.02,35.017-87.02
			S4262.392-403.943,4127.169-398.355z"/>
		<path fill="#FFA3B9" d="M4637.959,427.208c-0.224-1.938-0.447-3.8-0.745-5.736c-28.013-179.998-240.792-267.986-240.792-267.986
			s-0.895,7.748-3.353,16.688C4420.858,184.031,4596.014,276.341,4637.959,427.208z M4380.999,153.262
			c5.588-20.935,10.431-54.163,15.423-96.778c8.12-68.543,9.015-122.185,9.089-134.328c-2.31,0.67-4.693,1.341-7.078,2.012
			C4399.029-41.487,4399.401,73.544,4380.999,153.262z"/>
		<path fill="#FFA3B9" d="M4127.169-398.355c0,0,16.019,114.511,17.509,157.052c1.489,42.541,0,48.277,0,48.277l-41.274,6.557
			c0,0,1.489,133.434,82.474,290.038c41.722,80.612,101.92,159.511,152.805,236.397
			c-101.174-138.128-228.201-285.644-247.944-536.047l53.94,3.055c0,0,7.301-24.437,6.705-67.35
			c-0.597-42.84-10.059-127.922-10.059-127.922s45-3.129,92.086-3.129c47.085,0,125.313,3.129,125.313,3.129
			S4262.392-403.943,4127.169-398.355z M4323.633-187.215c2.384-10.803,5.065-15.348,5.065-15.348s-21.01,11.548-44.999,14.23
			c-23.99,2.756-44.776-5.439-44.776-5.439s-9.089,0.447-19.072,4.471c5.736-1.341,12.293-1.267,19.146,2.012
			C4256.953-178.647,4291.447-175.667,4323.633-187.215z"/>
		<path fill="#EB0032" d="M3612.952-166.801c0,0,4.917,1.937,13.188,3.874c14.825,51.928,20.265,99.237,19.296,146.919l0,0
			c-3.576,65.786-23.841,118.831-37.4,147.59c-3.874,1.267-7.524,2.384-10.803,3.353c-15.943,4.396-18.626,3.65-24.214-14.9
			c-15.943-53.121-14.006-137.682-13.857-165.098c0-1.416,0-10.281-0.074-17.955c4.172,1.862,6.929,3.948,10.132,6.556
			c-0.074,57.963,2.087,140.735,14.678,169.94C3594.923,80.026,3617.423,3.14,3612.952-166.801z"/>
		<path fill="#FFA3B9" d="M3612.952-166.801c0,0,4.917,1.937,13.188,3.874c1.341,4.545,2.532,9.089,3.725,13.56
			c-5.29-0.745-11.398-2.533-16.614-4.321C3613.176-158.01,3613.102-162.331,3612.952-166.801z M3576.371,129.72
			c-1.043-2.459-2.16-5.663-3.353-9.686c-15.943-53.121-14.006-137.682-13.857-165.098c0-1.416,0-10.281-0.074-17.955
			c1.862,0.819,3.353,1.639,4.843,2.607C3562.589-31.653,3558.938,75.184,3576.371,129.72z"/>
		<path d="M3417.979-221.411l4.619-14.752c4.992-15.72,14.379-30.919,29.131-38.891c13.112-7.077,29.875-7.375,40.828,3.8
			c12.293,12.665,9.014,30.472,0.074,43.882c-0.895,1.342-1.564,2.757-2.086,4.321c4.172-1.341,8.418-3.129,12.59-4.246
			c10.133-2.906,19.818-3.428,30.174-1.267l1.564,0.298c2.459-2.086,6.78-5.662,9.09-8.121c-4.693-20.86,0.149-48.799,25.256-52.227
			c26.523-3.65,39.04,30.472,42.765,50.96c1.192,6.705,1.863,13.634,1.714,20.488c-0.149,5.736-0.894,12.293-2.16,19.072
			c-4.694,25.183,7.673,97.077-5.961,165.173c-51.406-26.374-26.299-29.577-79.941-37.996
			c-30.844-4.843-61.465-18.477-77.334-44.553l-18.178-13.933c-17.285-13.336-25.406-33.377-23.916-55.057
			C3407.176-197.422,3410.678-210.534,3417.979-221.411z"/>
		<path fill="#FFD7E0" d="M3579.202-151.081c0,0,16.019-42.69,16.466-66.456c0.521-23.767-11.25-54.983-23.99-53.27
			c-12.665,1.788-12.964,21.01-9.462,33.005c4.917,16.912-35.239,26.373-28.013,50.513c-8.568-3.874-9.983-17.359-4.471-23.692
			c-24.139-4.991-35.239,11.921-54.759,6.333c0,0,11.696,4.247,16.688,15.72c5.066,11.474-1.714,29.279,15.273,22.128
			c16.986-7.152,35.016-1.342,39.485,5.587c4.545,7.004,1.49,15.497,1.49,15.497s-6.407-16.241-26.821-12.219
			c-20.413,4.023-22.648,11.995-31.663,8.493c-9.015-3.501,0.298-36.208-14.453-40.977c-14.752-4.768-24.288,19.521-18.253,47.757
			c5.96,28.236,31.738,47.756,71.746,54.015c36.356,5.662,39.411,16.167,67.275,30.471c2.831-35.984,3.8-70.33-0.298-106.314
			C3595.444-164.491,3589.186-153.912,3579.202-151.081z M3472.59-225.732c0.894-3.576,2.458-7.674,5.065-11.623
			c19.371-28.981-23.468-39.113-37.847,6.557C3452.92-237.43,3465.66-237.728,3472.59-225.732z M3460.743-200.923
			c1.49-7.451,3.427-22.352-5.886-23.245c-12.441-1.267-28.684,12.218-30.695,40.977c-1.191,17.508,5.887,30.993,16.912,39.486
			C3440.404-166.727,3445.023-191.685,3460.743-200.923z"/>
		<path fill="#FFA3B9" d="M3464.17-124.186c11.549,18.253,33.75,30.77,64.297,35.538c36.356,5.662,39.411,16.167,67.275,30.471
			c0.596-8.418,1.192-16.763,1.639-25.032c-25.853-6.854-44.254-32.558-78.302-26.896
			C3494.643-106.081,3476.389-114.873,3464.17-124.186z M3426.1-195.336c2.16,12.964,6.779,27.045,16.316,28.312l0,0
			c-1.192,7.524-1.564,15.57-1.342,23.319c-11.025-8.493-18.104-21.979-16.912-39.486
			C3424.535-187.587,3425.131-191.685,3426.1-195.336z"/>
		<path fill="#FFFFFF" d="M3583.002-264.027c-3.427-4.619-7.301-7.301-11.324-6.779c-12.665,1.788-12.964,21.01-9.462,33.005
			c4.917,16.912-35.239,26.373-28.013,50.513c-8.568-3.874-9.983-17.359-4.471-23.692c-24.139-4.991-35.239,11.921-54.759,6.333
			c0,0,11.696,4.247,16.688,15.72c5.066,11.474-1.714,29.279,15.273,22.128c12.814-5.364,26.225-3.428,33.973,0.819
			c-3.948-12.964-7.45-34.197,7.524-41.647c22.202-11.101,24.214-20.115,20.712-41.722
			C3567.059-262.239,3574.658-266.709,3583.002-264.027z M3537.854-156.147c-4.023-2.086-9.536-3.203-16.764-1.788
			c-20.413,4.023-22.648,11.995-31.663,8.493c-9.015-3.501,0.298-36.208-14.453-40.977c-7.6-2.458-13.783,2.757-17.21,12.293
			c6.705-6.258,15.869-12.367,15.869,0.969c0,21.01,4.32,49.396,32.035,32.855C3521.389-153.688,3531.744-155.998,3537.854-156.147z
			 M3456.273-256.577c7.375-0.074,13.336,1.342,15.198,5.588c4.321,9.462-1.862,12.591-2.905,20.19
			c1.49,1.341,2.831,3.055,4.023,5.066c0.894-3.576,2.458-7.674,5.065-11.623C3491.662-258.365,3473.036-269.466,3456.273-256.577z
			 M3444.65-222.156c5.365,0.372,9.463,3.203,9.164,11.175c-0.298,7.376-0.67,12.964-0.969,17.062
			c2.235-2.831,4.844-5.216,7.897-7.003c1.49-7.451,3.427-22.352-5.886-23.245C3451.654-224.541,3448.152-223.796,3444.65-222.156z"
			/>
		<path d="M3836.534-368.554c22.947-0.299,65.786-8.717,95.065-22.202c23.617-10.952,42.69-18.924,35.985,20.413
			c-6.78,39.562-51.333,68.691-82.772,68.691c-31.515,0-20.414-57.366-20.414-57.366S3844.655-355.963,3836.534-368.554z"/>
		<path fill="#FF547D" d="M3882.354-312.528c0,0,3.353-31.813,30.024-45c10.133-4.991,18.7-7.301,25.405-8.27
			c-5.289,4.545-11.473,11.399-10.728,21.383c4.768-7.823,18.029-24.288,27.938-20.936
			C3954.993-365.351,3931.525-312.603,3882.354-312.528z"/>
		<path fill="#FFFFFF" d="M3837.279-507.203c-5.886-0.745-11.846-0.075-17.657,2.458l-0.372,2.384
			c-0.596,4.023-0.596,8.047-0.224,12.07c0.969,9.685,6.407,25.256,16.465,29.428c1.863,0.224,3.8,0.224,5.886,0.075
			c2.831-0.299,5.29-0.82,7.45-1.564c-12.591-3.055-18.402-18.03-17.061-29.95C3832.437-497.891,3834.374-502.957,3837.279-507.203
			L3837.279-507.203z"/>
		<path fill="#FFFFFF" d="M3843.314-503.181c2.16,0.671,3.055,4.247,2.012,8.047c-1.043,3.799-3.576,6.332-5.662,5.662
			c-2.087-0.597-2.98-4.173-2.012-7.972C3838.695-501.243,3841.229-503.776,3843.314-503.181z"/>
		<g>
			<path fill="#BC0028" d="M4210.687,40.465c0,0,10.505,31.888,49.991,64.52c39.486,32.558,91.191,71.001,104.602,73.46
				c5.216,0.968,9.611-5.364,13.709-18.03l0,0c6.407-20.115,11.771-56.101,17.434-103.931c8.12-68.543,9.015-122.185,9.089-134.328
				c-4.47,1.341-9.089,2.533-13.484,3.948c0,0-9.909,131.349-18.328,191.845s-30.993-30.472-40.008-94.022
				c-9.015-63.477-14.975-164.502-12.964-190.503c0.373-4.843,0.82-9.09,1.416-12.89l0,0c0,0-11.771,45.372-5.215,135.371
				c2.086,28.312-61.465,25.107-96.258,17.657C4180.364-35.006,4200.927,14.464,4210.687,40.465z M3644.839-53.185
				c0.671,12.441,0.895,24.81,0.597,37.251c-3.576,65.786-23.841,118.832-37.4,147.516c-3.874,1.267-7.524,2.384-10.803,3.353
				c-12.814,3.502-17.062,3.725-21.159-5.961c2.235,1.714,4.843,2.311,7.674,1.268c14.454-5.066,32.707-104.081,35.762-136.489
				c2.979-32.409,3.576-47.979,3.576-47.979S3634.707-51.173,3644.839-53.185z M4197.053-179.02
				c4.396-7.227,11.696-16.019,23.17-21.01c22.202-9.76,35.985-7.524,35.985-7.524s37.772-41.871,66.084-91.341
				C4236.465-275.724,4197.053-179.02,4197.053-179.02z M4197.053-179.02L4197.053-179.02L4197.053-179.02z"/>
		</g>
		<path fill="#640015" d="M3580.097-47.97c0.745,23.319,2.757,85.156,3.948,103.41c1.49,23.021,9.313-62.061,10.803-92.384l0,0
			C3588.59-41.189,3583.821-44.841,3580.097-47.97z"/>
		<path fill="#640015" d="M4344.419-48.417c1.937,36.209,7.003,111.978,17.284,136.639c9.09,21.754,13.634-82.549,15.721-155.487
			C4364.758-59.22,4352.614-52.663,4344.419-48.417z"/>
		<path fill="#FFCD54" d="M3369.553-508.843c0,0-3.726-44.254-47.012-49.768c-43.286-5.588-50.141-35.463-59.677-59.006
			c-9.462-23.617-37.996-34.793-37.996-34.793s25.257,14.081,26.522,45.894c1.342,31.813,8.568,44.627,39.711,54.089
			C3322.243-542.891,3303.245-514.058,3369.553-508.843z M3580.097-557.791c0,0,18.626,35.24-8.195,44.851
			c-26.896,9.686-50.812-38.965-58.038-69.139c-7.227-30.173-37.475-40.306-37.475-40.306s23.767,20.041,11.921,37.698
			c-11.921,17.657-45.894,2.607-57.367-14.453c-11.474-17.062-34.942-19.296-61.39-27.864
			c-26.449-8.493-34.346-29.801-34.346-29.801s1.639,38.22,44.553,55.355c42.987,17.21,79.643,55.132,66.232,79.718
			s-36.06-4.619-36.06-4.619s-4.917,22.276,13.112,36.357c18.029,14.155,10.952,43.808-15.57,44.925
			c-26.598,1.192-26.226-25.257-26.226-25.257s-10.653,29.354,5.364,45.298c16.093,15.869,12.963,40.306,3.129,53.27
			c-9.834,12.889-15.422,41.945,3.949,65.189c19.37,23.319,0.969,57.069,55.728,81.357c54.759,24.213,60.347-6.557,106.241,8.791
			c45.894,15.422,74.428-8.791,74.428-8.791s-29.205,3.874-29.876-20.34c-0.67-24.287,39.04-50.959,45.894-96.331
			c6.929-45.298-2.905-62.284-32.78-98.717C3583.523-477.03,3625.767-494.985,3580.097-557.791z"/>
		<path fill="#FF3B59" d="M3592.837-308.505c-48.353,46.341,2.979,21.829,2.979,21.829s-39.337,62.731-113.393,41.646
			c-39.412-11.175-74.131-62.806-74.131-103.26c1.938,10.132,19.297,46.116,22.053,8.194c1.49-20.413,6.109-38.22,8.42-46.563
			c6.556-23.245-8.866-38.667-8.866-38.667s14.379,6.258,20.041,23.394c5.588,17.21,27.343-18.7,15.72-60.049
			c-11.622-41.274,4.545-53.791,4.545-53.791s-12.219,22.5,6.184,43.212c18.402,20.786,40.381-16.391,24.959-43.212
			c-15.348-26.896-42.914-43.658-42.914-43.658s50.588,14.826,60.422,56.175c9.76,41.274,12.665,62.656,34.644,62.656
			s4.917-35.537,4.917-35.537C3595.892-434.787,3641.188-354.846,3592.837-308.505z"/>
		<path fill="#FF6F89" d="M3566.313-387.701c0,0,13.112,40.156-12.814,70.777c-45.521,53.939-110.114-5.588-57.517-52.524
			c12.219-10.952,23.618-10.505,23.618-66.158c0,0,18.179,27.565,14.751,56.846C3530.851-349.481,3563.333-349.481,3566.313-387.701
			z"/>
		<g id="_510224664">
			<path d="M4006.251-530.15c7.228,7.302,11.847,18.924,11.847,32.036c0,22.053-13.188,40.008-29.429,40.008
				c-16.316,0-29.503-17.955-29.503-40.008c0-7.301,1.49-14.155,3.948-20.115C3972.8-521.284,3989.638-526.351,4006.251-530.15z"/>
			<path fill="#FFFFFF" d="M3974.763-502.493c3.631-0.797,7.316,3.082,8.232,8.664c0.915,5.582-1.285,10.755-4.916,11.552
				c-3.631,0.798-7.316-3.081-8.232-8.663C3968.931-496.523,3971.132-501.695,3974.763-502.493z"/>
			<path d="M3944.563-503.628c-2.086,1.565-5.066,1.044-6.631-1.043c-1.564-2.16-1.043-5.141,1.043-6.705
				c0.149-0.074,27.789-20.339,92.085-26.896c2.607-0.298,4.917,1.64,5.216,4.247c0.223,2.682-1.64,4.991-4.321,5.29
				C3970.267-522.477,3944.638-503.628,3944.563-503.628z"/>
		</g>
		<g id="_510224592">
			<path d="M3821.708-506.757c-4.47,7.823-6.481,19.222-4.991,31.291c1.043,7.897,3.427,14.9,6.705,20.414
				c6.929-0.298,14.454-0.224,22.351,0.149c3.428,0.224,6.78,0.446,9.983,0.745c4.023-7.749,5.812-18.626,4.321-30.1
				c-0.819-6.705-2.682-12.814-5.289-17.881C3847.337-503.553,3834.374-505.714,3821.708-506.757z"/>
			<path fill="#FFFFFF" d="M3831.096-489.323c2.98,0.447,5.438,4.843,5.438,9.909c-0.074,5.066-2.533,8.866-5.587,8.419
				c-2.98-0.447-5.439-4.843-5.439-9.909C3825.583-485.971,3828.041-489.77,3831.096-489.323z"/>
			<path d="M3867.9-500.722c-5.812-3.278-25.405-12.442-60.198-9.76c-6.854,0.521-6.109,9.387-0.074,8.94
				c32.558-2.608,50.959,5.364,56.994,8.567C3872.743-488.578,3873.935-497.295,3867.9-500.722z"/>
		</g>
		<g id="_510219456">
			<g>
				<polygon fill="#FFA3B9" points="4332.052,432.274 4341.886,336.985 4379.36,381.538 				"/>
				<polygon fill="#FF144D" points="4315.288,295.86 4317.896,361.944 4332.052,432.274 4341.886,336.985 				"/>
				<path fill="#FF144D" d="M4341.886,336.985l59.006-89.03l-28.013-17.881l-24.586,4.843
					C4346.803,256.448,4341.886,336.985,4341.886,336.985z"/>
				<polygon fill="#FF547D" points="4341.886,336.985 4315.288,295.86 4319.609,255.629 4335.553,237.376 4348.442,234.917 				"/>
				<polygon fill="#FF547D" points="4400.892,247.955 4341.886,336.985 4379.36,381.538 				"/>
				<polygon fill="#FFA3B9" points="4379.36,381.538 4419.368,270.454 4400.892,247.955 				"/>
				<path fill-opacity="0.2" d="M4366.62,366.34l32.111-104.9l-3.129-16.837l-22.724-14.528l-30.993,6.109l-4.843,7.524
					l-8.493,72.715l7.972,72.342L4366.62,366.34z M4392.846,223.741l-3.8-28.236l-18.253-4.098l-16.912,26.3
					c11.324-0.149,23.244-0.075,26.82,0.968C4383.384,219.42,4387.705,221.208,4392.846,223.741z"/>
			</g>
			<g>
				<polygon fill="#EB0032" points="4548.034,-566.061 4517.339,-490.664 4467.571,-499.381 4476.587,-565.763 4541.329,-618.883 
									"/>
				<path fill="#FFA3B9" d="M4513.54-737.938l27.789,119.056l-41.051,62.656c0,0-27.268-53.939-26.746-57.292
					S4513.54-737.938,4513.54-737.938z"/>
				<polygon fill="#FF547D" points="4428.234,-582.749 4473.532,-613.519 4500.278,-556.227 4473.457,-498.338 4457.439,-501.169 
									"/>
				<polygon fill="#FF144D" points="4513.54,-737.938 4454.608,-691.15 4428.234,-582.749 4473.532,-613.519 				"/>
				<polygon fill="#FFA3B9" points="4549.674,-883.739 4513.54,-737.938 4589.532,-784.056 				"/>
				<polygon fill="#FF547D" points="4454.608,-691.15 4549.674,-883.739 4513.54,-737.938 				"/>
				<polygon fill="#FF547D" points="4541.329,-618.883 4513.54,-737.938 4589.532,-784.056 				"/>
				<polygon fill="#FF547D" points="4541.329,-618.883 4513.912,-491.26 4522.331,-489.77 4587.372,-581.036 				"/>
				<polygon fill="#FFA3B9" points="4589.532,-784.056 4587.372,-581.036 4541.329,-618.883 				"/>
				<polygon fill-opacity="0.2" points="4563.68,-768.335 4557.124,-605.92 4505.643,-504.372 4477.853,-507.948 4457.812,-602.865 
					4484.036,-714.544 4533.134,-817.209 				"/>
				<polygon fill="#FFD7E0" points="4589.532,-784.056 4551.983,-842.986 4536.114,-751.646 4513.54,-737.938 4549.674,-883.739 
									"/>
			</g>
			<path d="M4316.405,324.767c0,0-4.619-33.451-9.089-59.825s48.725-101.92,74.651-214.344
				c25.928-112.425,63.477-325.13,69.512-411.18c6.034-86.051-2.311-97.896-25.555-121.515
				c-23.245-23.542-18.998-40.529-14.23-71.373c4.843-30.77-8.195-45,6.78-71.299c15.05-26.3,16.018-54.238,27.641-70.182
				c11.622-15.943,26.597-32.93,26.597-32.93s-11.548,30.396-17.061,49.842c-5.588,19.445,1.043,23.319-5.216,46.564
				c-6.184,23.319-14.379,28.236-6.034,48.277c8.344,20.116,9.686,34.941,14.528,50.736c4.768,15.795,6.258,33.377,18.327-19.594
				c12.145-53.046,4.917-58.857,11.697-81.729c6.779-22.872,17.508-54.462,17.508-54.462s4.992,28.535,1.267,49.843
				c-3.726,21.233-5.588,31.589,4.172,54.014c9.76,22.5,7.376,47.98,11.697,66.979c4.246,18.998,2.682,17.21,18.774-4.619
				c16.019-21.829,23.469-36.357,25.405-61.315c1.938-24.959,15.72-37.103,15.273-58.857c-0.447-21.681,5.736-68.766,5.736-68.766
				s5.662,19.594,9.611,33.451c3.948,13.783-6.184,21.383-3.726,43.51c2.533,22.053,9.909,52.599,0.819,69.883
				c-9.163,17.285-13.038,36.954-11.995,54.238c0.969,17.21-7.524,28.534-27.044,44.255c-19.52,15.794-41.274,23.468-55.43,83.145
				c-14.23,59.677-62.88,318.499-76.291,439.268c-13.336,120.694,4.545,183.574,0,211.065c-4.545,27.492-26.97,62.582-26.97,62.582
				s12.889-34.867,7.376-51.704c-5.588-16.838-13.933-36.879-18.626-32.855c-4.619,4.098-19.445,27.342-21.903,37.921
				c-2.459,10.506-3.8,14.826-3.8,14.826s-9.388-16.241-6.259-33.973c3.13-17.731-0.596-34.569-13.038-20.936
				c-12.441,13.709-17.955,24.288-20.935,39.263C4317.673,298.021,4316.405,324.767,4316.405,324.767z"/>
			<path fill="#4D4D4D" d="M4412.813-611.284c1.117-4.172,2.979-8.642,5.662-13.484c15.05-26.3,16.018-54.238,27.641-70.182
				c11.622-15.943,26.597-32.93,26.597-32.93s-11.548,30.396-17.061,49.842c-5.588,19.445,1.043,23.319-5.216,46.564
				c-6.184,23.319-14.379,28.236-6.034,48.277c4.768,11.474,7.227,21.233,9.387,30.397c-3.725-8.643-8.046-18.179-11.771-24.362
				c-8.271-13.635-6.929-20.563-4.247-32.26c2.682-11.697,12.144-27.269,9.909-38.891c-2.161-11.697,0-18.327,1.564-26.746
				c1.564-8.345,0.074-7.302-4.917,0.969c-4.918,8.27-6.407,36.506-25.853,55.951
				C4416.239-615.903,4414.377-613.668,4412.813-611.284z M4486.197-620.522c0.447-4.098,1.267-8.27,2.757-13.261
				c6.779-22.872,17.508-54.462,17.508-54.462s4.992,28.535,1.267,49.843c-3.726,21.233-5.588,31.589,4.172,54.014
				c9.09,21.01,7.674,44.553,10.878,63.104c-2.086-4.918-4.098-11.771-5.141-21.159c-2.98-24.734-7.152-36.06-14.826-45.894
				c-7.748-9.909-4.321-25.629-2.607-46.639c1.713-21.01-0.075-24.064-7.973-3.353
				C4489.699-631.771,4487.688-625.737,4486.197-620.522z M4583.497-658.369c1.416-23.096,5.29-52.599,5.29-52.599
				s5.662,19.594,9.611,33.451c3.948,13.783-6.184,21.383-3.726,43.51c2.012,17.582,7.152,40.604,4.471,57.963
				c-0.82-10.431-4.471-19.445-7.228-30.621c-4.991-20.041-5.065-25.106-1.862-43.584c3.278-18.477,0.521-29.651-0.819-24.362
				C4588.937-673.717,4586.851-667.607,4583.497-658.369z M4522.331-434.861c-7.972,11.175-15.348,27.119-21.308,52.375
				c-14.23,59.677-62.88,318.499-76.291,439.268c-13.336,120.694,4.545,183.574,0,211.065c-1.639,9.909-5.588,20.787-9.983,30.621
				c1.64-7.897,2.98-16.465,3.726-25.48c3.576-42.689-13.933-86.869-8.792-150.569c5.141-63.625,52.6-343.457,74.205-465.79
				C4492.679-393.14,4507.654-420.259,4522.331-434.861z M4392.771,249.668c-2.384-3.575-4.544-5.215-6.258-3.799
				c-4.619,4.098-19.445,27.342-21.903,37.921c-2.459,10.506-3.8,14.826-3.8,14.826s-1.342-5.736,1.415-21.232
				c2.757-15.497,17.136-44.404,24.661-38.369C4389.642,241.25,4391.505,245.348,4392.771,249.668z"/>
		</g>
		<path d="M4333.988-43.276c0,0,21.681-9.982,44.851-24.883c13.709-8.792,40.827-9.984,49.842-20.936
			c-8.344-1.49-16.166-3.65-22.425-6.035c-19.669-7.45-32.706-27.417-26.076-48.427c13.709-43.658-33.153,0.224-34.048-70.852
			c-0.074-2.98,0.075-6.035,0.299-9.09C4317.673-186.47,4332.871-51.173,4333.988-43.276z"/>
		<path d="M4388.896-259.854c1.043-0.969,2.087-2.012,3.278-2.906c25.033-20.115,60.198-15.124,85.156,2.161
			c19.222,13.261,43.436,40.008,36.655,65.711c-3.427,12.964-8.717,16.838-6.556,31.589c3.278,22.426-4.619,52.078-20.936,68.319
			c-18.625,18.626-61.39,13.038-84.113,4.396c-19.669-7.524-32.707-27.491-26.076-48.501c13.709-43.659-33.153,0.298-34.122-70.853
			c-0.224-16.539,4.098-35.537,18.774-45.297c7.6-4.992,16.54-6.482,25.406-5.066L4388.896-259.854z"/>
		<path fill="#FFD7E0" d="M4469.732-196.825c0,0-1.788-14.007-23.543-21.979s-42.02-2.757-42.02-2.757s-14.007-14.976,0-26.225
			c14.007-11.25,38.741-13.262,62.284,2.979c23.469,16.242,31.515,35.464,28.981,45c-2.459,9.536-9.983,18.774-7.003,39.263
			c2.979,20.488-6.259,42.765-15.497,52.003s-40.753,8.717-63.774,0c-22.946-8.791-19.222-37.177,4.769-37.177
			s38.518,5.141,38.518,5.141s0.224-12.74-19.52-15.497c-19.743-2.756-48.203-3.203-45.446-28.013
			C4390.163-208.82,4425.403-223.125,4469.732-196.825z M4383.16-241.304c0,0-0.969,9.909,2.533,15.869
			c3.501,6.034,5.215,7.972,5.215,7.972s-7.972,7.003-12.814,16.688c-4.917,9.611-4.022,21.531-4.022,21.531
			C4359.99-176.934,4351.348-246.594,4383.16-241.304z"/>
		<path fill="#FFA3B9" d="M4469.732-196.825c0,0-1.788-14.007-23.543-21.979s-42.02-2.757-42.02-2.757s-4.396-4.769-5.812-10.952
			c8.568-4.098,26.076-9.536,47.086,1.192C4475.319-216.048,4469.732-196.825,4469.732-196.825z M4485.676-131.636
			c-3.055,9.834-7.897,18.253-12.74,23.096c-9.238,9.238-40.753,8.717-63.774,0c-22.946-8.791-19.222-37.177,4.769-37.177
			s38.518,5.141,38.518,5.141s0.224-12.74-19.52-15.497c-19.743-2.756-48.203-3.203-45.446-28.013
			c0.224-2.607,0.894-5.066,1.937-7.45c7.525-2.757,22.5-6.258,45.074,0.074C4460.494-184.086,4486.793-165.013,4485.676-131.636z
			 M4361.703-204.276c2.086,1.342,4.843,1.938,8.717,0.597c6.407-2.086,12.219-6.184,16.316-9.462
			c-2.683,2.98-6.109,7.301-8.643,12.367c-4.917,9.611-4.022,21.531-4.022,21.531
			C4368.036-178.274,4363.044-190.419,4361.703-204.276z"/>
		<path fill="#FFD7E0" d="M4344.94-186.47l-2.086,0.819c-1.714,7.003-2.607,15.571-2.98,20.563
			c-1.117,14.081-0.148,30.695,0.521,44.851c0.745,17.359,1.788,34.719,3.129,52.078c18.402-5.439,25.331-19.967,54.908-24.14
			c-17.434-8.567-28.311-27.193-22.127-46.787C4388.077-176.636,4354.998-149.293,4344.94-186.47z"/>
		<path fill="#FFA3B9" d="M4340.396-119.641c0.745,17.136,1.862,34.346,3.129,51.481c18.402-5.439,25.331-19.967,54.908-24.14
			c-16.315-8.046-26.97-24.958-23.096-43.137C4363.343-127.24,4350.229-122.397,4340.396-119.641z"/>
	</g>
</g>
</svg>
