<?xml version="1.0" encoding="utf-8"?>
<!-- Generator: Adobe Illustrator 16.0.0, SVG Export Plug-In . SVG Version: 6.00 Build 0)  -->
<!DOCTYPE svg PUBLIC "-//W3C//DTD SVG 1.1//EN" "http://www.w3.org/Graphics/SVG/1.1/DTD/svg11.dtd">
<svg version="1.1" id="Layer_1" xmlns="http://www.w3.org/2000/svg" xmlns:xlink="http://www.w3.org/1999/xlink" x="0px" y="0px"
	 width="2200px" height="2200px" viewBox="5241.943 -1223.931 2200 2200" enable-background="new 5241.943 -1223.931 2200 2200"
	 xml:space="preserve">
<g id="Layer_x0020_1">
</g>
<g id="Layer_x0020_1_1_">
	<g id="_324826832">
		<g>
			<path fill="#FFCD54" d="M5652.228-311.022c0,0-128.691,190.143-32.952,369.151c65.903,122.902,116.223,164.315,137.151,215.524
				c60.115,150.065-164.76,179.455-134.034-65.459c-141.605,252.93,16.921,248.922,83.271,460.438
				c48.092,152.737,218.195,312.599,688.875,280.538c386.519-25.828,533.912-132.254,589.129-238.234
				c63.232-120.676-4.898-154.964,77.036-291.67c70.357-116.668,90.396-229.328-19.593-323.731
				c73.474,145.167-162.533,272.077-198.603,39.632c-15.586-97.075,27.163-207.509,111.77-254.265
				c154.519-86.833,82.38-232.445,82.38-232.445s19.593,84.606-61.451,96.629c-81.044,12.023-131.362-154.518-40.967-253.374
				c164.314-179.9-145.613-411.9-47.647-602.933c0,0-94.403,64.567-112.215,169.658c-18.257,105.09-213.298,79.263-243.132-44.976
				c-30.281-124.683,58.334-214.633,58.334-214.633s-170.995,81.935-212.853,233.781c-41.858,152.291-248.922,154.518-284.99,85.497
				c-36.069-68.576,37.404-164.761,37.404-164.761s-172.33,88.614-122.901,232.445c60.115,192.814-256.492,264.953-265.397,33.843
				c-139.823,163.87,49.428,322.396,45.42,467.117C5781.81-159.621,5624.174-165.855,5652.228-311.022z M5936.327-908.166
				c-61.896,38.295-71.248,98.855-59.67,138.487c21.374,72.584,80.153,51.209,80.153-6.234
				C5956.811-814.654,5898.031-858.738,5936.327-908.166z M6393.647-1119.683c-87.278,35.624-55.217,164.314-111.77,166.986
				c-21.374,1.336-44.084-25.382-21.374-73.474C6297.909-1104.988,6393.647-1119.683,6393.647-1119.683z M6956.059-4.212
				c-61.896,38.295-71.248,98.855-59.67,138.042c21.374,72.583,80.153,51.654,80.153-5.789
				C6976.542,89.3,6917.763,45.216,6956.059-4.212z"/>
			<path d="M5901.148-561.279l19.148-9.352c25.827-12.468,53.436-22.71,81.044-31.171c24.937-8.015,50.318-14.694,75.7-20.483
				c37.851-29.835,73.475-58.334,108.652-91.731c13.359-12.913,24.937-27.608,38.296-40.967
				c12.023-11.133,24.491-20.93,38.741-29.39c43.639-25.828,99.301-37.405,149.175-43.64c59.225-7.57,127.8-11.133,187.024,0.445
				c25.827,4.898,75.255,18.257,79.708,49.873c4.008,27.608-16.03,37.851-40.076,38.741c-17.813,0.891-20.93,10.688-32.507,24.491
				c-8.906,10.242-17.366,20.483-25.827,30.726c-24.937,30.28-46.757,40.077-37.851,77.481l3.117,12.914
				c26.272,19.593,52.1,39.632,78.372,59.225c23.602,17.366,47.201,34.733,71.248,52.1
				c30.726,22.265,118.449,87.278,134.925,106.427c17.812,20.483,47.647,56.107,34.733,85.052
				c-10.688,22.265-39.632,26.718-61.451,28.499c-16.031,0.891-32.507,0.891-48.537,0c-21.375-0.891-42.749-2.672-63.678-4.453
				c-91.286-8.016-181.236-2.672-272.522,0c-59.67,1.781-119.34,2.227-179.009-3.117c-65.014-5.344-127.801-17.813-189.697-38.296
				c-69.467-23.601-137.597-60.115-189.252-113.105c-27.162-28.054-59.225-71.247-65.903-110.879
				c-2.672-16.922-4.453-38.296,10.687-49.873c14.695-11.578,34.734-5.344,49.874,0.445
				C5870.868-575.084,5886.009-568.404,5901.148-561.279z"/>
			<path d="M6199.498,810.236c-26.272,8.016-27.608,3.117-57.443-5.343c-12.023-3.117-22.71-10.242-29.39-20.93
				c-17.813-29.39-0.445-73.919,14.249-101.527l5.789-12.023l12.914,2.227c33.843,5.789,68.575,8.906,102.863,10.242l19.148,0.445
				l-1.781,19.593c-0.891,6.234-2.227,19.594-0.891,26.272c3.562,16.031,4.452,34.288-1.781,50.319
				c-5.344,13.358-16.031,24.046-30.726,26.718C6218.646,808.901,6216.864,804.894,6199.498,810.236z M6496.512,810.236
				c-22.711,16.031-30.726,12.023-59.225,12.023c-12.023,0.445-23.155-3.117-32.507-10.688
				c-31.171-25.827-23.601-86.832-16.477-122.011l2.672-12.914l12.914-1.781c35.179-4.008,70.356-9.351,105.09-16.476l18.703-3.563
				l2.672,18.257c1.781,8.906,4.007,24.937,7.569,32.062c8.461,16.922,15.141,36.515,12.469,55.662
				c-2.227,15.586-10.688,30.28-25.827,36.515C6509.87,803.112,6512.097,799.104,6496.512,810.236z"/>
			<path fill="#FFD7E0" d="M6146.953,787.526c-6.68-13.804-10.688-43.193,4.008-52.99c-4.898,31.171,1.78,71.248,43.193,58.779
				c-10.242-19.147-16.476-42.303,0-59.67c0,0-0.891,27.608,8.906,41.858c18.702,26.718,56.553,13.804,44.529-42.749
				c-1.781-7.124-0.891-20.483,0-32.062c-39.186-1.336-74.364-4.898-105.09-10.241
				C6125.134,724.74,6107.321,776.395,6146.953,787.526z M6437.287,804.448c-11.133-13.359-23.601-43.64-11.133-59.225
				c3.563,35.179,22.265,77.036,59.67,50.318c-15.14-17.366-28.499-40.522-16.921-64.568c0,0,7.124,30.28,20.929,42.304
				c26.718,23.601,61.006-2.672,32.062-60.115c-3.563-7.57-7.125-23.601-8.906-36.96c-30.28,6.234-65.459,12.023-106.871,16.477
				C6397.655,735.427,6391.421,804.894,6437.287,804.448z"/>
			<path fill="#FFA3B9" d="M6146.953,787.526c-2.227-4.007-4.008-10.241-4.898-16.476c-2.227,0.445-5.789-0.891-10.688-4.453
				c-3.563-3.117-6.233-7.125-8.46-12.023C6123.353,770.16,6129.586,782.629,6146.953,787.526z M6153.187,775.059
				c5.344,15.585,17.367,25.382,40.968,18.257c-3.563-6.68-6.68-14.249-8.461-21.374c-3.562,4.898-8.905,8.461-17.366,7.57
				C6161.202,779.066,6156.304,776.84,6153.187,775.059z M6198.607,766.152c0.891,3.117,2.672,6.68,4.453,9.352
				c18.702,26.718,56.553,13.804,44.529-42.749c-1.781-7.124-0.891-20.483,0-32.062c-7.124,0-13.804-0.445-20.929-0.891
				c-1.336,29.39,12.914,65.459-3.563,70.357C6211.966,773.723,6203.506,770.16,6198.607,766.152z M6404.78,779.512
				c3.563,2.227,6.68,4.008,9.797,4.452c5.343,1.336,9.351,1.781,11.577,1.336c3.117,7.57,7.125,14.695,11.133,19.148
				C6419.92,804.448,6409.679,794.651,6404.78,779.512z M6439.068,787.972c6.233,2.672,15.585,4.898,25.827,2.672
				c6.234-0.891,10.241-3.117,12.468-5.789c2.672,4.008,5.789,7.57,8.461,10.688C6464.45,810.682,6448.864,803.558,6439.068,787.972
				z M6492.059,775.504c9.351-0.891,20.038-5.789,14.694-24.047c-7.57-26.717-17.812-46.311-16.921-70.802
				c8.016-1.336,15.585-3.117,23.155-4.453c1.781,13.359,5.344,29.39,8.906,36.96
				C6549.947,768.824,6518.331,795.097,6492.059,775.504z"/>
			<path fill="#EB0032" d="M6046.761-518.977c0,0-52.99,20.039-134.034-16.03s-107.763-53.881-98.856,0
				c7.57,46.311,73.029,152.292,242.242,208.845c226.211,75.7,419.024,20.929,636.33,40.521
				c156.299,14.25,191.032,1.781,123.348-77.481c-68.131-78.817-214.634-126.91-319.278-142.94
				c-104.2-16.03-132.699-11.133-132.699-11.133s91.286-9.796,183.463,8.906c91.731,18.257,136.261,41.858,136.261,41.858
				s-99.301-72.584-131.362-97.521s-72.139-52.545-72.139-52.545l43.64,14.694c0,0-9.797-42.748-6.234-73.028
				c3.117-30.726-27.163-65.459-27.163-65.459s15.585,9.352,29.835,23.601c14.694,14.695,18.257,36.069,18.257,36.069
				s10.242-14.25,11.133-47.201c1.336-32.952-10.242-47.202-10.242-47.202s6.68,4.008,19.147,26.718
				c12.469,22.266,6.68,52.546,6.68,52.546s42.749-52.101,52.99-59.225c10.688-7.125,44.976,4.452,41.858-20.039
				c-3.563-24.491-86.833-54.326-245.804-33.843c-158.972,20.484-174.557,69.912-215.524,109.099
				c-40.968,38.74-81.489,70.356-81.489,70.356s46.756-8.016,90.841-8.016c43.639,0,60.115,3.117,60.115,3.117
				c-97.966,8.016-251.594,38.296-339.317,80.6C5928.757-553.709,5960.818-523.874,6046.761-518.977z"/>
			<path fill="#BC0028" d="M5813.87-535.007c7.57,46.311,73.029,152.292,242.242,208.845c226.211,75.7,419.024,20.929,636.33,40.521
				c73.028,6.68,119.34,7.57,141.159-1.781c7.57-13.804,4.008-31.615-16.03-54.771c-104.2-120.676-309.928-152.291-556.177-152.291
				c-246.695,0-312.153-8.906-405.666-53.882C5825.448-562.615,5807.636-572.412,5813.87-535.007z M6594.477-497.602
				c60.115,15.585,89.06,31.171,89.06,31.171s-99.301-72.584-131.362-97.521c-11.578-8.906-24.046-18.257-35.179-26.272
				c4.453,4.453,9.352,9.797,15.141,16.921C6554.4-547.476,6581.563-513.633,6594.477-497.602z M6501.854-609.371l21.82,7.569
				c0,0-9.797-42.748-6.234-73.028c1.336-12.914-3.117-26.272-8.906-37.851c1.781,11.133,3.117,28.054-3.117,41.413
				C6498.737-655.237,6490.277-629.41,6501.854-609.371z M6510.761-725.148c3.117,2.671,6.234,5.788,9.352,8.46
				c14.694,14.695,18.257,36.069,18.257,36.069s10.242-14.25,11.133-47.201c0.445-3.563,0.445-6.68,0-9.352
				c-2.672,3.563-6.234,7.125-10.688,8.906C6529.909-724.258,6517.886-724.703,6510.761-725.148z M6558.407-748.305
				c12.469,22.711,6.68,52.546,6.68,52.546s42.749-52.101,52.99-59.225c9.352-6.234,36.515,1.781,41.413-12.023
				c-4.898,0.891-12.468,0.891-24.046-1.336c-33.397-5.789-43.194,10.688-54.326,19.147
				C6572.657-743.406,6562.86-746.078,6558.407-748.305z"/>
			<path fill="#FFA3B9" d="M5813.87-535.007c7.57,46.311,73.029,152.292,242.242,208.845c33.843,11.132,66.795,19.593,98.855,25.827
				c96.185-42.749,370.488-175.893,235.563-174.557c-129.136,1.336-307.7-19.147-374.05-27.608
				c-57.889-6.68-106.871-20.038-160.752-45.866C5825.448-562.615,5807.636-572.412,5813.87-535.007z"/>
			<path fill="#FFA3B9" d="M6651.029-787.49c-25.382-20.93-105.09-38.296-236.897-21.375
				c-158.972,20.484-174.557,69.912-215.524,109.099c-40.968,38.74-81.489,70.356-81.489,70.356s39.631-6.68,80.153-8.016
				c-4.453-4.452-5.344-13.358,6.234-30.279c24.491-34.733,49.428-63.232,86.388-93.513
				C6323.291-788.381,6549.947-824.45,6651.029-787.49z M6163.429-620.504c-83.271,14.694-174.557,37.851-234.672,66.795
				c0,0,8.461,8.015,28.499,16.476c14.25-9.352,51.21-30.28,120.23-55.217C6114.001-605.364,6142.5-614.715,6163.429-620.504z"/>
			<path d="M6307.705-481.126c316.161-8.016,492.499,133.144,507.194,158.972c14.249,26.272-26.273,26.718-108.207,20.038
				c-81.936-6.234-284.991,3.563-415.018,3.563c-130.027,0-260.054-35.624-347.332-95.294
				c-87.278-60.115-115.332-138.487-111.77-150.065c2.672-6.679,31.17,5.789,53.436,16.922
				C5999.114-470.438,6186.584-478.009,6307.705-481.126z"/>
			<path fill="#640015" d="M5873.095-491.367c20.929,32.506,49.428,60.56,81.489,82.38c93.513,64.122,225.321,92.621,337.091,92.621
				c55.662,0,111.324-1.78,166.986-3.116c47.201-0.891,94.403-2.227,141.604-2.672c35.624-0.445,72.583-0.445,107.762,2.227
				c45.421,3.562,120.23,21.819,54.327-24.938c-29.391-21.374-62.787-38.74-96.185-53.436
				c-48.983-21.374-100.192-36.959-152.292-47.646c-67.686-13.805-136.706-18.702-205.728-16.922
				c-128.69,3.117-313.489,10.242-430.157-48.092C5846.377-526.546,5857.954-514.523,5873.095-491.367z"/>
			<path d="M6011.582-477.118l-0.891-13.359c99.747,15.586,214.188,11.578,297.014,9.352
				c114.441-2.672,210.626,13.805,287.662,37.405c-8.015,22.71-20.483,54.326-30.726,67.24c5.789-2.227,11.133-4.008,15.586-6.68
				c-1.781,15.585-6.68,40.076-14.25,72.583c-6.234,26.718-16.921,51.21-36.068,80.153
				c-52.101,77.482-134.48,114.441-225.321,123.348c-75.255,8.016-159.861,0.445-217.75-53.436
				c-30.28-28.054-47.202-61.896-56.998-101.527c-3.563-15.141-8.461-31.616-3.117-46.757c4.898-12.468,14.694-20.038,25.827-25.827
				C6026.277-382.27,6014.254-431.698,6011.582-477.118z"/>
			<path fill="#C7738A" d="M6515.214-445.502c-17.366-3.563-35.179-6.68-52.99-8.906c14.249,35.624,17.812,55.662,17.812,55.662
				S6503.19-408.097,6515.214-445.502z M6065.464-435.26c1.781,6.679,4.452,12.913,6.679,18.257
				c0.891-4.453,2.227-9.352,4.008-14.695C6076.15-431.698,6071.697-432.589,6065.464-435.26z"/>
			<path fill="#FFD7E0" d="M6086.838-463.76c-20.038,8.461-40.522,7.125-40.522,7.125c30.726,20.039,89.505,17.367,118.449-4.008
				c-8.906,12.914-12.913,32.062-6.68,46.757c9.797-25.382,42.304-44.976,69.021-39.187c-61.896,14.25-54.326,59.67-61.006,65.459
				c-4.008,3.563-12.469-8.016-14.249-11.133c-8.016-12.913-8.906-21.819-8.016-40.521c-16.031,6.233-33.843,8.015-51.209,7.569
				c-8.461,25.827-16.031,66.795-12.023,93.513c18.702-3.563,60.561-6.234,77.481,0c0,0-48.982,3.117-83.716,15.586
				c-36.96,12.913-33.397,25.382-25.827,56.107c8.906,36.514,43.194,162.088,254.265,140.269
				c131.809-13.359,232-89.505,251.148-222.648c-20.484,15.14-39.187,25.382-63.232,28.944c0,0,50.764-40.968,76.591-113.106
				c-12.468-3.562-24.937-6.679-37.404-9.351c-0.445,2.227-1.336,4.008-1.781,6.234c-12.914,36.068-59.67,77.036-61.896,53.881
				c-0.891-10.688-7.57-40.522-19.594-74.365c-45.865-5.789-92.176-7.569-138.487-6.234
				C6243.137-461.088,6164.319-458.861,6086.838-463.76z M6047.651-467.321c-5.344-0.445-10.688-1.336-15.585-1.781l0,0
				c0,0,0,1.336,0,3.563C6036.074-465.095,6045.87-465.095,6047.651-467.321z M6032.512-463.314
				c1.336,15.586,7.124,60.115,30.726,108.653c0,0-0.891-15.141,4.897-44.53c-6.679-13.358-11.132-28.054-14.694-41.857
				c-0.891-0.891-1.781-1.336-2.672-1.781C6040.081-449.51,6034.293-458.861,6032.512-463.314z"/>
			<path d="M6121.126-267.828c15.585-7.125,43.193-17.367,64.122-12.914c17.367,4.008,28.499,16.922,32.952,30.726
				c16.031,49.873-70.802,103.755-83.271,38.741c-2.672-12.469-0.891-23.601-14.249-38.296
				C6108.657-263.375,6101.978-258.923,6121.126-267.828z"/>
			<path fill="#FF547D" d="M6156.749-191.683c0.891,0.445,1.781,0.891,2.672,1.336c7.57,2.227,16.477-0.891,22.711-4.008
				c8.905-4.898,16.921-12.468,22.265-20.929c4.898-8.016,7.569-17.366,6.233-26.272c-6.679,2.672-14.249,14.249-17.366,20.483
				c-0.891-9.797,4.453-16.921,8.906-21.374c-5.789,0.891-12.914,3.117-20.929,8.461
				C6162.538-223.299,6157.64-199.253,6156.749-191.683z"/>
			<path fill="#FFA3B9" d="M6327.743-129.341c119.34-20.038,208.399-94.849,226.212-219.531
				c-20.484,15.14-39.187,25.382-63.232,28.944c0,0,50.764-40.968,76.591-113.106c-12.468-3.562-24.937-6.679-37.404-9.351
				c-0.445,2.227-1.336,4.008-1.781,6.234c-12.914,36.068-59.67,77.036-61.896,53.881c-0.891-10.688-7.57-40.522-19.594-74.365
				c-16.921-2.227-33.842-3.563-51.209-4.898c29.39,96.185,48.537,239.125-56.107,322.841
				C6334.868-135.575,6331.306-132.458,6327.743-129.341z"/>
			<path fill="#FFFFFF" d="M6046.315-456.635c30.726,20.039,89.505,17.367,118.449-4.008c-8.906,12.914-12.913,32.062-6.68,46.757
				c8.461-21.374,32.952-38.741,56.107-40.077l0,0c0,0-10.241-2.227-24.937,1.781c-14.694,4.008-26.718,17.367-26.718,17.367
				s-0.891,0,3.563-9.352c2.227-5.344,7.125-12.469,10.242-16.922c-12.023,0-24.491,0-36.96-0.445
				c-7.57,2.672-17.366,5.789-30.726,8.461C6071.252-445.502,6046.315-456.635,6046.315-456.635z M6064.128-373.364
				c-5.789-13.804-17.367-43.193-22.266-76.591c-5.344-5.344-8.015-10.688-9.351-13.359c1.336,15.586,7.124,60.115,30.726,108.653
				C6063.237-354.661,6063.237-360.896,6064.128-373.364z M6040.081-465.54c0-0.891,0-1.781,0-2.672
				c-2.672-0.445-5.343-0.445-8.015-0.891l0,0c0,0,0,1.336,0,3.563C6033.848-465.54,6037.409-465.095,6040.081-465.54z
				 M6105.985-431.698c-4.453,0-8.906,0.445-13.358,0c-8.461,25.827-16.031,66.795-12.023,93.513
				c13.805-2.672,39.632-4.453,59.67-3.117c3.117-21.374-4.898-32.507-7.57-36.959c-10.241-16.031-35.179-21.375-33.843-28.944
				C6099.306-413.44,6104.204-426.8,6105.985-431.698z M6150.516-337.295c-15.586,1.336-49.874,5.344-76.146,14.695
				c-36.96,12.913-33.397,25.382-25.827,56.107c8.016,32.507,35.624,134.479,188.361,142.495
				c-16.031-1.336-61.006-7.125-90.841-33.843c-38.296-34.733-61.006-83.271-60.115-103.309
				c0.891-20.484,17.366-32.952,17.366-32.952s-33.397,8.015-30.28-11.578C6076.596-324.826,6150.07-337.295,6150.516-337.295z"/>
			<path d="M6047.651-284.305c10.242,11.578,27.163,18.703,30.726,17.367s12.023-18.703,24.937-27.163
				c11.133-7.57,13.805-25.382-7.125-21.82c-11.132,2.227-31.615,5.789-42.303,4.898
				C6044.534-311.468,6038.745-294.101,6047.651-284.305z"/>
			<path d="M5890.017,559.534c8.015,74.811,29.39,148.284,66.794,218.642l20.484,38.295l-42.304-10.687
				c-53.436-13.805-99.301-41.858-127.801-89.95c-47.201-81.044-30.279-191.924-4.898-276.976
				c16.922-56.553,40.968-113.551,69.021-166.096c-7.57,1.781-15.14,2.227-22.71-1.336c-11.132-5.789-15.14-16.921-18.702-28.054
				c-6.234-20.929-9.352-44.084-11.578-65.904c-3.117-35.178-3.117-69.466-3.117-104.645c0-7.57,0-15.141,0-22.71V12.709
				c2.672,1.781,54.326,19.147,54.326-16.476c0-15.141,0-29.835-0.445-44.53l-0.891-29.39l26.718,10.688l-3.116-14.25l52.99-0.445
				c-4.898-11.577-9.352-23.601-13.805-35.179c-17.366-44.975-31.616-91.73-40.521-138.933c-1.336-7.124-2.672-14.694-4.008-21.819
				l-4.898-33.843l31.616,13.359c28.499,12.022,78.817,14.249,109.543,8.46l13.804-2.671
				c-0.89,31.171,22.711,101.082,70.803,136.706c0.891,0,12.469-2.672,12.914-3.117c17.366-3.563,34.732-7.57,52.1-11.578
				c52.1-12.468,105.98-18.702,159.416-18.702c20.484-0.445,42.749,0,63.232,2.227c0-1.781-0.445-3.563-0.445-5.344
				c-4.008-35.624-8.906-71.247-13.804-106.871c63.677-2.672,125.573-2.672,189.251,2.227c29.835,2.227,57.443,5.789,86.388,10.241
				c-3.117,16.922-5.344,30.726-11.132,46.757c-7.57,22.71-17.813,44.975-29.391,65.903c-13.358,23.602-29.389,46.312-45.865,67.686
				c-4.453,5.789-8.906,11.133-13.359,16.477c12.469-1.336,27.164-5.789,38.296-12.023l38.296-20.929
				c-11.578,25.827-16.477,52.1-18.258,75.255c-0.891,14.25,0,30.726,0.891,44.976c0.445,14.249,1.336,28.499,2.227,42.748
				c28.055-9.796,53.881-13.804,80.6-26.718l0.445,29.835c0.445,12.469,0,24.937-0.445,37.405
				c-1.336,31.616-4.008,63.678-8.016,95.738c-2.672,24.938-5.789,51.655-10.688,77.037c12.023,5.344,24.047,11.577,35.179,17.366
				c27.608,15.141,54.326,32.507,78.817,51.654c68.576,53.882,123.793,125.574,137.598,213.743
				c12.913,83.716-19.148,155.409-83.271,208.845c-21.374,17.812-45.42,33.397-70.356,45.42
				c-10.688,5.344-22.71,10.688-34.288,14.695l-32.062,10.687l7.125-32.951c4.898-22.266,3.563-53.437,0-75.701
				c-2.227-12.914-4.898-25.382-8.461-38.296c-5.788-19.147-13.804-37.85-23.155-55.662c0-0.445-0.445-0.891-0.445-1.336
				l-1.336,0.891c-14.25,14.695-46.311,28.499-65.014,35.624c-30.279,11.578-62.787,19.593-94.402,26.718
				c-50.319,10.688-101.974,17.367-153.183,22.265c-94.849,9.352-194.149,6.234-286.771-17.366
				c-24.937-6.234-50.318-14.249-73.92-24.491c-8.905-3.563-18.702-8.016-27.163-12.914l-8.46-5.344l-0.891-9.796
				c-3.117-36.96-4.898-74.365-6.234-111.77c-27.163,7.569-51.654,20.929-73.475,38.74L5890.017,559.534z"/>
			<path fill="#EB0032" d="M5939.89,787.081c-84.606-158.525-93.067-339.762-36.96-531.685
				C5816.542,404.125,5698.093,725.186,5939.89,787.081z"/>
			<path fill="#FFA3B9" d="M5888.235,311.949c4.008-18.703,8.905-37.405,14.694-56.553
				c-64.122,110.434-145.612,315.716-85.052,439.508c-7.57-41.857-11.133-87.277-6.234-134.479
				C5824.112,434.406,5864.188,351.135,5888.235,311.949z"/>
			<path fill="#89001D" d="M5905.602-280.742c32.507,13.805,86.833,16.477,120.676,9.797c7.57,33.397,20.038,56.998,40.077,84.161
				c0,0-33.397,20.483-48.538,35.624c-11.132,11.132-8.905,23.601-6.234,32.952c5.344,17.812,7.57,24.491,15.586,39.186
				c-3.563,16.031-8.906,49.874-7.125,82.825c3.117,55.217-8.906,89.06-22.71,142.496c-19.147,63.677-25.827,154.072-27.163,219.086
				c-0.891,52.1-0.445,128.246-0.445,130.917c-34.288,8.016-62.342,24.046-85.942,43.64c-3.117-49.873-2.672-139.823,23.155-260.054
				c30.28-141.159,37.851-208.399,8.461-341.988l58.779-0.445C5974.178-62.546,5921.632-172.535,5905.602-280.742z"/>
			<path fill="#FFA3B9" d="M5905.602-280.742c32.507,13.805,86.833,16.477,120.676,10.242c-4.008,0.445-45.421,9.352-67.24,9.352
				c-23.155,0-33.397,0-33.397,0s8.016,55.662,20.039,108.207c6.679,27.608,12.468,48.982,16.921,63.232
				C5945.679-128.896,5916.734-205.486,5905.602-280.742z M5894.023,350.244c3.563-22.265,7.57-45.865,12.914-70.356
				c30.28-141.159,37.851-208.399,8.461-341.988l58.779-0.445l-48.538,8.015c20.484,85.942,20.484,186.58,0,272.522
				C5916.289,258.068,5903.82,302.598,5894.023,350.244z"/>
			<path fill="#FFA3B9" d="M6077.486-172.535c0,0-13.804,6.68-28.944,17.813c-7.125,5.344-12.023,9.797-15.585,12.913
				c-19.148,16.477,27.163,87.278,39.186,101.528c32.062,36.515,59.225,44.975,59.225,44.975
				c30.726-20.483,95.294-46.756,126.465-45.865c-35.624,11.578-78.817,28.944-123.348,62.342
				c-34.733-13.359-78.372-49.873-96.185-83.271c-4.897,26.718-6.233,48.982-3.116,75.7c2.671,24.491,1.335,62.787-14.695,116.223
				c-32.062,105.98-34.733,295.678-32.507,366.925c1.781,70.803,6.68,129.582,6.68,129.582s129.137,76.146,376.276,52.545
				c246.694-24.046,303.247-85.497,303.247-85.497c-107.762-235.117-290.333-315.716-327.293-689.766h57.443
				c0,0-1.336-33.843-3.117-51.654c-1.781-17.813-2.227-19.148-2.227-19.148s-104.199-12.913-222.203,15.586
				c-118.004,28.054-135.371,22.71-124.238,12.022c11.133-10.687,34.288-22.71,34.288-22.71L6077.486-172.535z"/>
			<path fill="#F58EAA" d="M6131.367,4.693c30.726-20.483,95.294-46.756,126.465-45.865c-19.147,6.234-40.968,14.25-63.678,25.382
				c21.374-3.117,44.53-2.227,64.123,9.352c45.42,27.163,47.646,349.559,183.907,676.406c186.58-27.608,232-76.591,232-76.591
				c-107.762-235.117-290.333-315.716-327.293-689.766h57.443c0,0-1.336-33.843-3.117-51.654
				c-1.781-17.813-2.227-19.148-2.227-19.148s-24.491-2.672-63.232-2.672c7.57,6.68,12.023,16.922,3.563,31.171
				c-19.147,29.835-109.543,40.522-152.737,77.482C6143.391-24.696,6131.367,4.693,6131.367,4.693z"/>
			<path fill="#C7738A" d="M6639.452,616.087c25.827-12.913,34.732-22.71,34.732-22.71
				c-54.326-118.004-127.354-197.267-191.032-293.896c39.632,87.724,84.161,179.455,121.566,245.359
				C6619.413,571.112,6630.546,594.713,6639.452,616.087z"/>
			<path fill="#FFD7E0" d="M6035.184,13.6c2.671,24.491,1.335,62.787-14.695,116.223c-32.062,105.98-34.733,295.678-32.507,366.925
				c1.781,70.803,6.68,129.582,6.68,129.582s7.125,4.008,21.374,10.241c-25.827-141.159-12.022-380.729,10.242-477.358
				C6045.87,71.043,6039.636,27.85,6035.184,13.6z"/>
			<path fill="#FFD7E0" d="M6077.486-172.535c0,0-13.804,6.68-28.944,17.813c-7.125,5.344-12.023,9.797-15.585,12.913
				c-18.703,16.031,24.046,83.271,38.295,100.192c-24.046-36.515-35.178-80.599-24.046-77.481
				c16.031,4.007,49.428-0.445,127.355-24.937c37.404-11.578,83.716-19.594,121.566-24.938
				c-35.179,2.227-76.146,7.125-119.34,17.367c-41.413,9.796-70.357,15.585-89.95,18.257l0,0c0,0-0.445,0-1.336,0.445
				c-15.586,2.227-25.382,2.227-30.726,1.336c-8.906-0.445-15.586-2.672-14.25-8.016c2.672-9.351,24.938-22.71,39.632-30.28
				L6077.486-172.535z"/>
			<path fill="#EB0032" d="M6402.554-280.742c0,0,16.03,114.887,17.366,157.19c1.781,42.748,0,48.092,0,48.092l-53.881-2.672
				c31.171,394.089,328.185,533.021,371.378,782.388c8.016,45.866,0,82.825,0,82.825s203.056-67.685,175.002-248.03
				c-28.054-179.9-240.461-267.624-240.461-267.624s-6.233,52.99-31.17,41.858c-25.383-11.133-103.755-68.131-132.699-101.083
				s-22.265-53.881-22.265-53.881s10.688,31.616,50.318,64.568c39.187,32.507,90.841,70.802,104.646,73.474
				c13.358,2.227,21.819-44.084,31.17-122.012c8.016-68.575,8.906-122.456,8.906-134.479c-4.453,1.336-9.352,2.672-13.358,4.008
				c0,0-10.242,131.362-18.702,191.923c-8.016,60.561-30.727-30.726-39.632-93.957c-9.352-63.678-15.141-164.761-13.359-190.588
				c2.227-25.827,8.016-36.068,8.016-36.068s-20.929,11.577-44.976,14.249c-23.601,2.672-44.529-5.344-44.529-5.344
				s-18.257,0.891-31.171,11.133c-12.913,10.241-16.476,16.03-16.476,16.03s6.679-23.601,28.944-33.397
				c22.265-9.796,36.069-7.569,36.069-7.569s38.74-43.194,67.239-93.958c28.499-50.318,35.179-86.833,35.179-86.833
				S6537.924-286.086,6402.554-280.742z"/>
			<path fill="#FFA3B9" d="M6913.31,544.84c-0.445-1.781-0.445-3.563-0.891-5.789c-28.054-179.9-240.461-267.624-240.461-267.624
				s-0.891,7.57-3.562,16.477C6696.005,301.707,6871.452,393.884,6913.31,544.84z M6656.373,270.981
				c5.344-20.929,10.242-54.326,15.585-96.63c8.016-68.575,8.906-122.456,8.906-134.479c-2.227,0.891-4.898,1.336-7.125,2.227
				C6674.185,76.387,6674.63,191.273,6656.373,270.981z"/>
			<path fill="#FFA3B9" d="M6402.554-280.742c0,0,16.03,114.887,17.366,157.19c1.781,42.748,0,48.092,0,48.092l-41.412,6.68
				c0,0,1.781,133.589,82.825,289.889c41.412,81.044,101.973,159.861,152.736,236.453
				c-101.082-138.042-228.438-285.436-248.03-535.693l53.881,2.672c0,0,7.57-24.046,6.68-67.239
				c-0.445-42.749-9.797-127.801-9.797-127.801s44.976-3.117,92.177-3.117c46.757,0,125.129,3.117,125.129,3.117
				S6537.924-286.086,6402.554-280.742z M6598.93-69.671c2.227-10.688,4.898-15.14,4.898-15.14s-20.929,11.577-44.976,14.249
				c-23.601,2.672-44.529-5.344-44.529-5.344s-9.352,0.445-19.147,4.453c5.788-1.336,12.468-1.336,19.147,1.781
				C6532.136-60.765,6566.868-57.648,6598.93-69.671z"/>
			<path fill="#EB0032" d="M5888.235-49.188c0,0,4.898,2.227,13.358,4.008c14.695,52.1,20.038,99.302,19.148,146.948l0,0
				c-3.563,65.904-23.602,118.895-37.405,147.394c-4.008,1.336-7.57,2.672-10.688,3.563c-16.03,4.453-18.702,3.563-24.046-14.695
				c-16.03-53.436-14.249-138.042-14.249-165.205c0-1.336,0-10.242,0-18.257c4.453,2.226,7.125,4.007,10.241,6.679
				c0,57.889,2.227,140.715,14.694,170.104C5870.423,197.953,5892.688,120.916,5888.235-49.188z"/>
			<path fill="#FFA3B9" d="M5888.235-49.188c0,0,4.898,2.227,13.358,4.008c1.336,4.453,2.672,8.906,3.563,13.805
				c-5.344-0.891-11.133-2.672-16.476-4.453C5888.681-40.281,5888.235-44.734,5888.235-49.188z M5851.721,247.381
				c-0.891-2.227-2.227-5.344-3.117-9.352c-16.03-53.436-14.249-138.042-14.249-165.205c0-1.336,0-10.242,0-18.257
				c1.781,0.891,3.563,1.781,4.898,2.671C5837.917,86.184,5834.354,193.055,5851.721,247.381z"/>
			<path fill="#FFFFFF" d="M6112.665-389.395c-5.789-0.891-12.023,0-17.813,2.227l-0.444,2.672c-0.445,4.008-0.445,8.016,0,12.022
				c0.89,9.797,6.233,25.382,16.476,29.39c1.781,0,3.563,0.445,5.789,0c2.672,0,5.344-0.891,7.57-1.336
				c-12.469-3.117-18.258-18.257-16.922-29.835C6107.767-380.043,6109.548-384.941,6112.665-389.395L6112.665-389.395z"/>
			<path fill="#FFFFFF" d="M6118.899-385.387c1.781,0.445,2.672,4.453,1.781,8.016c-0.891,4.007-3.563,6.233-5.789,5.788
				c-1.781-0.891-2.672-4.452-1.781-8.015C6114.001-383.605,6116.673-385.832,6118.899-385.387z"/>
			<path d="M6609.172,74.605c0,0,21.819-10.242,44.975-24.937c13.805-8.906,40.968-10.242,49.874-20.929
				c-8.461-1.336-16.031-3.563-22.266-6.234c-20.038-7.125-32.951-27.163-26.272-48.093c13.805-43.639-32.952,0-33.843-71.247
				c-0.445-2.672,0-5.789,0-8.906C6593.141-68.78,6608.281,66.59,6609.172,74.605z"/>
			<g>
				<path fill="#BC0028" d="M6485.824,158.321c0,0,10.688,31.616,50.318,64.568c39.187,32.507,90.841,70.802,104.646,73.474
					c4.898,0.891,9.351-5.344,13.358-18.257l0,0c6.68-20.038,12.023-56.107,17.812-103.755
					c8.016-68.575,8.906-122.456,8.906-134.479c-4.453,1.336-9.352,2.672-13.358,4.008c0,0-10.242,131.362-18.702,191.923
					c-8.016,60.561-30.727-30.726-39.632-93.957c-9.352-63.678-15.141-164.761-13.359-190.588c0.445-4.898,0.891-9.352,1.781-12.913
					l0,0c0,0-12.022,45.42-5.344,135.37c2.227,28.499-61.45,24.937-96.184,17.812
					C6455.544,82.621,6476.027,132.049,6485.824,158.321z M5920.297,64.809c0.445,12.469,0.891,24.491,0.445,36.96
					c-3.563,65.904-23.602,118.895-37.405,147.394c-4.008,1.336-7.57,2.672-10.688,3.563c-12.914,3.563-16.921,3.563-21.374-5.789
					c2.227,1.336,4.898,2.227,8.015,0.891c14.25-4.898,32.508-103.754,35.624-136.261c3.117-32.507,3.563-48.093,3.563-48.093
					S5910.055,66.59,5920.297,64.809z M6472.466-61.21c4.452-7.125,11.577-16.031,23.155-20.93
					c22.265-9.796,36.069-7.569,36.069-7.569s37.404-41.858,65.903-91.286C6511.651-157.84,6472.466-61.21,6472.466-61.21z
					 M6472.466-61.21L6472.466-61.21L6472.466-61.21z"/>
			</g>
			<path fill="#640015" d="M5855.283,69.707c0.891,23.601,3.116,85.052,4.007,103.309c1.781,23.156,9.352-61.896,11.133-92.176l0,0
				C5863.743,76.387,5859.29,72.824,5855.283,69.707z"/>
			<path fill="#640015" d="M6619.858,69.262c1.781,36.515,7.125,112.215,17.367,136.706c8.906,21.82,13.358-82.38,15.585-155.408
				C6639.897,58.574,6627.874,65.254,6619.858,69.262z"/>
			<path d="M6284.104-409.433c0.445,0.445,0.891,0.891,1.336,1.336c0,0.445,0,0.445,0.445,0.891
				c4.453,7.124,7.57,16.476,7.57,26.718c0,22.265-13.359,40.076-29.39,40.076c-16.477,0-29.39-17.812-29.39-40.076
				c0-1.781,0-3.563,0-5.789c-2.672,1.781-5.344,3.563-7.57,5.344h-0.445c-29.835,20.038-24.046-20.039-24.046-20.484
				c0.445-2.672,2.672-4.453,5.344-4.008c2.671,0.445,4.452,2.672,4.007,5.344c0,0-2.671,19.148,9.352,11.133h0.445
				c21.374-14.25,61.451-40.968,93.958-40.968c2.672,0,4.453,2.227,4.453,4.898s-1.781,4.453-4.453,4.453
				c-10.688,0-22.71,3.563-34.288,8.461C6282.323-411.214,6283.214-410.769,6284.104-409.433z"/>
			<path fill="#FFFFFF" d="M6250.262-384.496c3.563-0.891,7.125,3.117,8.016,8.461c0.891,5.788-1.336,10.687-4.898,11.577
				s-7.125-3.117-8.016-8.461C6244.473-378.707,6246.699-384.051,6250.262-384.496z"/>
			<path d="M6264.066-413.44c2.227-0.445,4.452-0.891,6.679-1.336c5.789-0.445,10.688,1.336,14.695,6.68l0,0
				c-22.265,4.007-38.296,9.351-48.982,13.804l0,0C6236.458-394.293,6250.262-408.542,6264.066-413.44z"/>
			<path d="M6094.853-383.605c-3.116,7.125-4.007,16.476-2.671,25.827c0.891,8.016,3.116,15.14,6.679,20.483
				c6.68-0.445,14.25,0,22.266,0.445c3.563,0,6.679,0,10.241,0.445c3.563-7.57,5.344-18.702,4.008-29.835c0-0.891,0-1.336,0-2.227
				c25.382,12.469,10.688-24.491,10.688-24.491c-0.891-2.227-3.563-3.117-5.789-2.227c-1.781,0.891-3.117,3.117-2.227,5.344
				c0,0,7.125,17.812-2.227,12.469c-10.242-5.789-21.374-10.242-31.616-12.914c-10.687-2.672-20.038-3.117-27.163-0.891
				c-2.227,0.445-3.117,2.672-2.672,4.898c0.891,2.227,3.117,3.563,5.344,3.117C6083.275-384.496,6088.619-384.496,6094.853-383.605
				z"/>
			<path fill="#FFFFFF" d="M6106.431-371.583c3.117,0.445,5.344,4.898,5.344,9.797c0,5.344-2.227,8.906-5.344,8.461
				s-5.789-4.898-5.344-9.797C6101.087-368.021,6103.313-372.028,6106.431-371.583z"/>
			<path d="M6094.408-384.051c17.812-0.445,30.28,2.672,38.295,5.789l0,0c-12.468-10.688-38.295-6.234-38.295-6.234V-384.051z"/>
			<path d="M5879.774,83.957c0,0-19.594-8.906-40.967-22.711c-12.914-8.015-37.852-9.351-45.866-19.147
				c7.569-1.336,14.694-3.563,20.483-5.789c18.258-6.679,30.28-25.382,24.047-44.529c-12.914-40.077,30.279,0,31.17-65.459
				c0-2.672,0-5.344,0-8.016C5894.914-47.852,5881.11,76.832,5879.774,83.957z"/>
			<path d="M5829.456-115.537c-0.891-0.891-2.227-1.78-3.117-2.671c-23.156-18.258-55.662-13.805-78.373,2.226
				c-17.812,12.023-40.076,36.96-33.842,60.561c3.117,12.023,8.016,15.586,6.234,28.944c-3.117,20.484,4.008,48.093,19.147,63.232
				c16.921,16.922,56.553,11.578,77.481,4.008c18.258-7.125,30.28-25.382,24.047-44.975c-12.469-40.077,30.279,0.445,31.17-65.014
				c0.445-15.585-3.563-32.952-16.921-41.858c-7.125-4.453-15.585-6.233-23.601-4.453H5829.456z"/>
			<path fill="#FFD7E0" d="M5755.091-57.203c0,0,1.336-12.913,21.375-20.483c20.038-7.124,38.74-2.227,38.74-2.227
				s12.914-13.804,0-24.491c-12.914-10.242-35.623-12.023-57.443,3.117c-21.374,14.695-28.944,32.507-26.718,41.413
				c2.672,8.46,9.352,16.921,6.68,36.068c-2.672,18.703,5.788,39.187,14.249,47.647c8.461,8.905,37.405,8.46,58.779,0
				c20.93-8.016,17.813-33.843-4.453-33.843c-22.265,0-35.623,4.453-35.623,4.453s0-11.578,18.257-14.25s44.53-3.117,41.858-25.827
				S5795.613-81.694,5755.091-57.203z M5834.8-98.17c0,0,0.891,8.906-2.672,14.694c-3.117,5.344-4.453,7.125-4.453,7.125
				s7.125,6.68,11.578,15.586c4.452,8.46,3.562,19.593,3.562,19.593C5856.174-38.945,5864.188-103.068,5834.8-98.17z"/>
			<path fill="#FFA3B9" d="M5755.091-57.203c0,0,1.336-12.913,21.375-20.483c20.038-7.124,38.74-2.227,38.74-2.227
				s4.008-4.453,5.344-10.241c-7.57-4.008-24.046-8.906-43.193,0.891C5749.747-75.015,5755.091-57.203,5755.091-57.203z
				 M5740.396,2.912c2.671,8.906,7.124,16.477,11.577,20.93c8.461,8.905,37.405,8.46,58.779,0
				c20.93-8.016,17.813-33.843-4.453-33.843c-22.265,0-35.623,4.453-35.623,4.453s0-11.578,18.257-14.25s44.53-3.117,41.858-25.827
				c-0.445-2.227-0.891-4.453-1.781-6.68c-7.125-2.672-20.93-5.789-41.858,0C5763.552-45.625,5739.061-27.813,5740.396,2.912z
				 M5854.393-64.327c-1.781,1.336-4.453,1.781-8.016,0.891c-5.788-2.227-11.132-5.789-15.14-8.906
				c2.672,2.672,5.789,6.68,8.016,11.578c4.452,8.46,3.562,19.593,3.562,19.593C5848.604-40.281,5853.057-51.414,5854.393-64.327z"
				/>
			<path fill="#FFD7E0" d="M5869.978-47.852l1.781,0.891c1.781,6.234,2.672,14.25,2.672,18.703c1.336,13.358,0,28.498-0.445,41.412
				c-0.445,16.031-1.781,32.062-2.672,48.092c-16.921-4.897-23.601-18.257-50.764-22.265c16.031-8.015,26.272-24.937,20.484-43.193
				C5829.901-38.5,5860.626-13.563,5869.978-47.852z"/>
			<path fill="#FFA3B9" d="M5873.985,13.6c-0.445,16.031-1.781,32.062-2.672,47.646c-16.921-4.897-23.601-18.257-50.764-22.265
				c15.141-7.57,24.937-23.155,21.374-39.632C5853.057,6.92,5865.079,11.373,5873.985,13.6z"/>
			<g>
				<g>
					<polygon fill="#FFA3B9" points="6608.281,551.965 6618.077,456.671 6655.928,501.2 					"/>
					<polygon fill="#FF144D" points="6591.805,415.258 6594.477,481.607 6608.281,551.965 6618.077,456.671 					"/>
					<path fill="#FF144D" d="M6618.077,456.671l59.225-89.06l-28.053-17.813l-24.492,4.898
						C6622.976,376.072,6618.077,456.671,6618.077,456.671z"/>
					<polygon fill="#FF547D" points="6618.077,456.671 6591.805,415.258 6595.813,375.182 6611.844,356.924 6624.757,354.697 					
						"/>
					<polygon fill="#FF547D" points="6677.302,367.611 6618.077,456.671 6655.928,501.2 					"/>
					<polygon fill="#FFA3B9" points="6655.928,501.2 6695.56,389.876 6677.302,367.611 					"/>
					<path fill-opacity="0.2" d="M6643.015,486.061l32.061-105.091l-3.117-16.921l-22.709-14.25l-31.172,5.789l-4.898,7.57
						l-8.46,73.029l8.016,72.138L6643.015,486.061z M6669.287,343.565l-4.008-28.499l-18.257-4.008l-16.922,26.272
						c11.578,0,23.601,0,27.163,0.891C6659.936,339.112,6663.943,340.894,6669.287,343.565z"/>
				</g>
				<g>
					<polygon fill="#EB0032" points="6824.25,-446.393 6793.524,-371.138 6744.097,-379.598 6753.003,-445.947 6817.571,-499.383 
											"/>
					<path fill="#FFA3B9" d="M6789.962-618.277l27.609,118.895l-40.968,62.787c0,0-27.163-53.882-26.718-57.443
						C6750.331-497.156,6789.962-618.277,6789.962-618.277z"/>
					<polygon fill="#FF547D" points="6704.466,-463.314 6749.886,-494.039 6776.604,-436.596 6749.886,-378.707 6733.854,-381.379 
											"/>
					<polygon fill="#FF144D" points="6789.962,-618.277 6730.737,-571.521 6704.466,-463.314 6749.886,-494.039 					"/>
					<polygon fill="#FFA3B9" points="6826.031,-763.89 6789.962,-618.277 6866.108,-664.144 					"/>
					<polygon fill="#FF547D" points="6730.737,-571.521 6826.031,-763.89 6789.962,-618.277 					"/>
					<polygon fill="#FF547D" points="6817.571,-499.383 6789.962,-618.277 6866.108,-664.144 					"/>
					<polygon fill="#FF547D" points="6817.571,-499.383 6790.407,-371.583 6798.868,-370.247 6863.882,-461.533 					"/>
					<polygon fill="#FFA3B9" points="6866.108,-664.144 6863.882,-461.533 6817.571,-499.383 					"/>
					<polygon fill-opacity="0.2" points="6839.836,-648.558 6833.602,-486.024 6781.947,-384.941 6754.339,-388.059 
						6734.3,-483.353 6760.573,-594.677 6809.556,-697.54 					"/>
					<polygon fill="#FFD7E0" points="6866.108,-664.144 6828.258,-723.367 6812.673,-632.082 6789.962,-618.277 6826.031,-763.89 
											"/>
				</g>
				<path d="M6592.695,444.202c0,0-4.452-33.397-8.905-59.67s48.537-101.973,74.364-214.188
					c26.272-112.661,63.678-325.067,69.467-411.455c6.233-85.942-2.227-97.521-25.382-121.121
					c-23.156-23.601-19.148-40.522-14.25-71.692c4.898-30.726-8.016-44.976,6.68-71.248c15.14-26.272,16.03-54.326,27.608-69.912
					c12.022-16.03,26.718-32.951,26.718-32.951s-11.578,30.279-16.922,49.873c-5.788,19.147,0.891,23.155-5.343,46.311
					c-6.234,23.155-14.25,28.499-5.789,48.537c8.015,20.039,9.351,34.733,14.249,50.319c4.898,16.03,6.234,33.397,18.258-19.594
					c12.468-52.99,4.898-58.778,12.022-81.489c6.68-22.71,17.367-54.326,17.367-54.326s4.897,28.499,1.336,49.873
					c-4.008,20.93-5.789,31.616,4.007,53.882c9.797,22.265,7.57,47.646,11.578,66.794c4.453,19.148,3.117,17.367,19.148-4.453
					c16.03-21.819,23.155-36.514,25.382-61.451c1.78-24.937,15.585-36.959,15.14-58.778c-0.445-21.82,5.789-68.576,5.789-68.576
					s5.344,19.593,9.352,33.397c4.008,13.804-6.234,21.374-3.563,43.193c2.672,22.266,9.797,52.99,0.891,69.912
					c-9.352,17.366-12.914,36.96-12.023,54.326s-7.57,28.499-27.163,44.529c-19.593,15.586-41.413,23.156-55.217,82.826
					c-14.249,59.67-63.232,318.388-76.591,439.508c-13.359,120.676,4.898,183.463,0,211.071
					c-4.453,27.163-26.719,62.342-26.719,62.342s12.914-34.733,7.125-51.654c-5.344-16.922-13.804-36.96-18.257-32.952
					c-4.898,4.008-19.593,27.608-22.265,37.851c-2.227,10.687-3.563,15.14-3.563,15.14s-9.352-16.476-6.234-34.288
					c3.117-17.812-0.445-34.288-12.914-20.929c-12.468,13.805-18.257,24.491-20.929,39.632
					C6594.031,417.484,6592.695,444.202,6592.695,444.202z"/>
				<path fill="#4D4D4D" d="M6689.325-491.813c0.891-4.008,2.672-8.461,5.344-13.359c15.14-26.272,16.03-54.326,27.608-69.912
					c12.022-16.03,26.718-32.951,26.718-32.951s-11.578,30.279-16.922,49.873c-5.788,19.147,0.891,23.155-5.343,46.311
					c-6.234,23.155-14.25,28.499-5.789,48.537c4.453,11.133,7.125,20.93,9.351,30.28c-4.007-8.905-8.015-18.257-12.022-24.491
					c-8.016-13.804-6.68-20.483-4.008-32.062c2.672-12.022,12.023-27.608,9.797-39.186c-2.227-11.578,0-18.258,1.336-26.718
					c1.781-8.461,0.445-7.125-4.898,0.891c-4.898,8.46-6.234,36.514-25.827,56.107
					C6692.442-496.266,6690.661-494.039,6689.325-491.813z M6762.354-500.719c0.445-4.008,1.336-8.461,3.116-13.359
					c6.68-22.71,17.367-54.326,17.367-54.326s4.897,28.499,1.336,49.873c-4.008,20.93-5.789,31.616,4.007,53.882
					c9.352,20.929,7.57,44.529,11.133,62.786c-2.227-4.897-4.453-11.577-5.344-20.929c-3.117-24.491-7.125-36.069-14.694-45.865
					c-8.016-9.797-4.453-25.827-2.672-46.757c1.781-20.929,0-24.046-8.016-3.117
					C6765.916-512.297,6764.136-506.063,6762.354-500.719z M6859.874-538.569c1.336-23.155,5.344-52.545,5.344-52.545
					s5.344,19.593,9.352,33.397c4.008,13.804-6.234,21.374-3.563,43.193c2.227,17.813,7.125,40.968,4.453,58.334
					c-0.891-10.687-4.453-19.593-7.125-30.726c-4.898-20.038-5.344-25.382-1.781-43.639c3.117-18.702,0.445-29.835-0.891-24.491
					C6865.218-554.154,6862.991-547.921,6859.874-538.569z M6798.868-315.03c-8.016,11.133-15.585,27.163-21.374,52.101
					c-14.249,59.67-63.232,318.388-76.591,439.508c-13.359,120.676,4.898,183.463,0,211.071c-1.336,9.797-5.344,20.483-9.797,30.28
					c1.781-7.57,3.117-16.476,3.563-25.382c3.563-42.749-13.805-86.833-8.461-150.511c4.898-63.678,52.545-343.324,73.92-465.781
					C6769.033-273.617,6784.174-300.78,6798.868-315.03z M6669.287,369.393c-2.672-3.563-4.898-5.344-6.234-4.008
					c-4.898,4.008-19.593,27.608-22.265,37.851c-2.227,10.687-3.563,15.14-3.563,15.14s-1.336-5.789,1.336-21.374
					c2.672-15.586,16.921-44.53,24.491-38.296C6666.17,360.932,6667.951,364.939,6669.287,369.393z"/>
			</g>
			<path d="M6664.389-142.255c0.891-0.89,1.781-1.78,3.117-2.671c24.937-20.039,60.115-15.141,85.052,2.227
				c19.147,13.358,43.639,40.076,36.959,65.458c-3.562,12.914-8.905,16.922-6.679,31.616c3.117,22.71-4.898,52.1-20.929,68.576
				c-18.703,18.257-61.451,12.913-84.162,4.008c-19.593-7.125-32.951-27.164-26.272-48.093c13.805-43.639-32.952,0-33.843-70.802
				c-0.445-16.922,4.008-35.624,18.703-45.421c7.57-4.898,16.476-6.679,25.382-5.343L6664.389-142.255z"/>
			<path fill="#FFA3B9" d="M6744.987-79.022c0,0-1.781-13.804-23.601-21.819s-41.858-3.117-41.858-3.117s-4.453-4.453-5.789-10.688
				c8.461-4.007,26.273-9.796,47.202,1.336C6750.776-98.17,6744.987-79.022,6744.987-79.022z M6761.019-14.009
				c-3.117,9.797-8.016,18.257-12.914,23.155c-8.906,9.352-40.522,8.906-63.678,0c-22.71-8.461-19.147-36.959,4.898-36.959
				s38.296,4.897,38.296,4.897s0.445-12.468-19.148-15.14c-20.038-3.117-48.537-3.563-45.865-28.054
				c0.445-2.672,0.891-5.344,2.227-7.57c7.569-2.672,22.265-6.234,44.975,0C6735.636-66.108,6761.909-47.406,6761.019-14.009z
				 M6637.226-86.592c1.781,1.336,4.898,1.781,8.461,0.891c6.233-2.227,12.468-6.234,16.476-9.797
				c-2.672,3.117-6.234,7.57-8.906,12.468c-4.897,9.797-4.007,21.82-4.007,21.82C6643.46-60.319,6638.562-72.788,6637.226-86.592z"
				/>
			<path fill="#FFD7E0" d="M6620.304-68.78l-2.227,0.891c-1.781,7.125-2.672,15.585-3.117,20.483
				c-0.891,14.25,0,30.726,0.891,44.976c0.445,17.366,1.781,34.732,3.117,52.1c18.258-5.344,25.383-20.038,54.771-24.046
				c-17.366-8.906-28.498-27.163-22.265-46.757C6663.498-58.984,6630.101-31.375,6620.304-68.78z"/>
			<path fill="#FFA3B9" d="M6615.851-1.985c0.445,17.366,1.781,34.287,3.117,51.654c18.258-5.344,25.383-20.038,54.771-24.046
				c-16.476-8.016-26.717-24.938-23.155-43.194C6638.562-9.556,6625.647-4.657,6615.851-1.985z"/>
			<path fill="#FFD7E0" d="M6744.987-79.022c0,0-1.781-13.804-23.601-21.819s-41.858-3.117-41.858-3.117s-13.804-14.694,0-26.272
				c13.805-11.133,38.741-12.913,62.342,3.117c23.601,16.476,31.171,35.624,28.944,44.975c-2.672,9.797-10.241,18.703-7.124,39.187
				c3.116,20.483-6.234,42.748-15.586,52.1c-8.906,9.352-40.522,8.906-63.678,0c-22.71-8.461-19.147-36.959,4.898-36.959
				s38.296,4.897,38.296,4.897s0.445-12.468-19.148-15.14c-20.038-3.117-48.537-3.563-45.865-28.054
				C6665.725-91.045,6700.903-105.295,6744.987-79.022z M6658.6-123.552c0,0-0.891,9.796,2.227,16.03
				c3.563,5.789,5.344,8.016,5.344,8.016s-8.016,6.68-12.914,16.476c-4.897,9.797-4.007,21.82-4.007,21.82
				C6635.444-58.984,6626.538-128.896,6658.6-123.552z"/>
		</g>
		<path fill="#FFA3B9" d="M6744.987-79.022c0,0-1.781-13.804-23.601-21.819s-41.858-3.117-41.858-3.117s-4.453-4.453-5.789-10.688
			c8.461-4.007,26.273-9.796,47.202,1.336C6750.776-98.17,6744.987-79.022,6744.987-79.022z M6761.019-14.009
			c-3.117,9.797-8.016,18.257-12.914,23.155c-8.906,9.352-40.522,8.906-63.678,0c-22.71-8.461-19.147-36.959,4.898-36.959
			s38.296,4.897,38.296,4.897s0.445-12.468-19.148-15.14c-20.038-3.117-48.537-3.563-45.865-28.054
			c0.445-2.672,0.891-5.344,2.227-7.57c7.569-2.672,22.265-6.234,44.975,0C6735.636-66.108,6761.909-47.406,6761.019-14.009z
			 M6637.226-86.592c1.781,1.336,4.898,1.781,8.461,0.891c6.233-2.227,12.468-6.234,16.476-9.797
			c-2.672,3.117-6.234,7.57-8.906,12.468c-4.897,9.797-4.007,21.82-4.007,21.82C6643.46-60.319,6638.562-72.788,6637.226-86.592z"/>
	</g>
</g>
</svg>
