<svg width="260" height="260" viewBox="0 0 260 260" fill="none" xmlns="http://www.w3.org/2000/svg">
<path d="M130 9L234.789 69.5V190.5L130 251L25.2109 190.5V69.5L130 9Z" fill="black"/>
<path fill-rule="evenodd" clip-rule="evenodd" d="M136.499 3.75266C132.477 1.43043 127.522 1.43043 123.499 3.75266L23.916 61.2471C19.8938 63.5693 17.416 67.861 17.416 72.5054V187.494C17.416 192.139 19.8938 196.43 23.916 198.753L123.499 256.247C127.522 258.569 132.477 258.569 136.499 256.247L236.083 198.753C240.105 196.43 242.583 192.139 242.583 187.494V72.5054C242.583 67.861 240.105 63.5693 236.083 61.2471L136.499 3.75266ZM102.643 31.7856L110.802 27.1234C111.331 27.8815 112.03 28.5383 112.883 29.0308L202.773 80.929L194.736 85.5219C194.232 84.8657 193.593 84.2954 192.832 83.8559L102.643 31.7856ZM80.4382 44.4743L89.5764 39.2525L182.162 92.7069L172.719 98.1031C172.28 97.6218 171.76 97.1991 171.166 96.8559L80.4382 44.4743ZM58.2323 57.1634L67.3712 51.9412L159.957 105.396L150.818 110.618L58.2323 57.1634ZM229.583 80.5823L141.825 130.73C140.126 131.7 138.337 132.446 136.5 132.967V143.066L228.925 89.7041C229.141 89.5799 229.36 89.4693 229.583 89.3722V80.5823ZM136.5 168.085V158.077L229.583 104.336V114.468C229.214 114.599 228.852 114.765 228.502 114.968L136.5 168.085ZM136.5 183.096V193.102L229.583 139.361V129.355L136.5 183.096ZM123.5 241.236V204.47C123.499 204.433 123.499 204.395 123.499 204.357C123.499 204.326 123.499 204.294 123.5 204.263V132.967C121.663 132.446 119.875 131.7 118.176 130.73L114.834 128.82V236.167L114.834 236.195L114.834 236.233L123.5 241.236ZM229.583 154.372L136.5 208.114V218.121L229.583 164.379V154.372ZM229.583 179.39L136.5 233.132V241.236L229.583 187.494V179.39ZM93.166 116.438L101.834 121.391V228.728L93.1436 223.71C93.1585 223.531 93.166 223.35 93.166 223.167V116.438ZM80.166 109.01L71.5 104.058V211.214L80.166 216.217V109.01ZM49.834 91.6772L58.5 96.6292V203.709L49.834 198.705V91.6772ZM36.834 84.2486L30.416 80.5812V187.494L36.834 191.2V84.2486ZM45.1653 64.6303L137.751 118.085L135.375 119.442C132.045 121.346 127.956 121.346 124.625 119.442L36.9348 69.3334L45.1653 64.6303ZM215.84 73.4622L123.255 20.0077L124.625 19.2245C127.956 17.3213 132.045 17.3213 135.375 19.2245L223.066 69.3334L215.84 73.4622Z" fill="#00FB82"/>
</svg>
