<svg width="260" height="260" viewBox="0 0 260 260" fill="none" xmlns="http://www.w3.org/2000/svg">
<path d="M23.0287 57.7321L118.769 2.66807C124.879 -0.846549 132.389 -0.884507 138.535 2.56816L236.796 57.7675C243.099 61.3083 247 67.975 247 75.2045V184.796C247 192.025 243.099 198.692 236.796 202.233L138.535 257.432C132.389 260.885 124.879 260.847 118.769 257.332L23.0287 202.268C16.8245 198.7 13 192.088 13 184.931V75.0692C13 67.912 16.8245 61.3004 23.0287 57.7321Z" fill="url(#paint0_radial_14792_1837)"/>
<path d="M106.254 75.5L135.746 75.5L135.746 124.127L161.335 75.5L191 75.5V180.5H161.343V131.841L135.746 180.483V180.5H106.089L106.08 180.5L106.089 180.483V132.172L80.6568 180.5L51 180.5L106.254 75.5Z" fill="black"/>
<defs>
<radialGradient id="paint0_radial_14792_1837" cx="0" cy="0" r="1" gradientUnits="userSpaceOnUse" gradientTransform="translate(130 130) rotate(90) scale(133 133)">
<stop offset="0.315" stop-color="#00FB82"/>
<stop offset="1" stop-color="#00DD73"/>
</radialGradient>
</defs>
</svg>
