<svg xmlns="http://www.w3.org/2000/svg" width="120" height="60"><path d="M14.612 47.39l-9.24-16c-.494-.855-.494-1.91 0-2.765l9.24-16.007c.493-.854 1.404-1.38 2.4-1.382h18.493c.983.005 1.89.53 2.38 1.382l9.25 16.008c.494.855.494 1.91 0 2.765L37.875 47.39c-.493.854-1.404 1.38-2.4 1.382h-18.49c-.984-.003-1.892-.53-2.385-1.382z" fill="#4386fa"/><path d="M32.017 24.834s2.57 6.162-.933 9.656-9.88 1.257-9.88 1.257L34.177 48.77h1.317c.986-.002 1.897-.528 2.4-1.382l6.118-10.594z" opacity=".1"/><path d="M35.052 37.455l-2.84-2.827a.44.44 0 0 0-.104-.08 7.72 7.72 0 0 0-11.587-10.159c-2.873 2.895-3 7.533-.288 10.57a7.73 7.73 0 0 0 10.533.941.49.49 0 0 0 .075.1l2.84 2.84a.44.44 0 0 0 .314.129.45.45 0 0 0 .314-.129l.753-.753a.44.44 0 0 0 .129-.314.45.45 0 0 0-.129-.314zm-9.047-1.836a5.81 5.81 0 0 1-5.366-3.586c-.9-2.17-.402-4.67 1.26-6.33a5.81 5.81 0 0 1 9.916 4.107c-.002 3.207-2.6 5.806-5.808 5.808zM22.293 29.5v2.4c.37.653.905 1.196 1.552 1.577v-3.982zm2.9-1.99v6.487c.513.094 1.04.094 1.552 0V27.5zm4.492 4.387v-1.42h-1.552v2.994c.646-.38 1.18-.92 1.552-1.572z" fill="#fff"/><path d="M69.59 19.556H62.58v2.082h4.982c-.248 2.924-2.68 4.17-4.972 4.17-1.455.01-2.855-.56-3.89-1.583s-1.62-2.417-1.624-3.872v-.094c-.025-1.474.544-2.896 1.578-3.945s2.448-1.64 3.922-1.635c1.403.002 2.75.548 3.758 1.525l1.46-1.503a7.42 7.42 0 0 0-5.283-2.082 7.66 7.66 0 0 0-6.732 11.595 7.66 7.66 0 0 0 6.841 3.714c4.084-.008 7.1-2.815 7.1-6.968a6.24 6.24 0 0 0-.128-1.383zm5.767-1.503a4.86 4.86 0 0 0-4.96 4.78v.105c-.016 2.73 2.185 4.956 4.915 4.972s4.956-2.185 4.972-4.915c0-3.26-2.56-4.942-4.917-4.942zm.027 1.94c1.417 0 2.75 1.128 2.75 3.006s-1.338 2.984-2.765 2.984c-1.57 0-2.8-1.25-2.8-3.006S73.778 20 75.372 20zm10.712-1.94a4.86 4.86 0 0 0-4.945 4.78v.105c-.016 2.73 2.185 4.956 4.915 4.972s4.956-2.185 4.972-4.915c0-3.25-2.563-4.937-4.937-4.937zm.03 1.94c1.417 0 2.75 1.128 2.75 3.006s-1.338 2.984-2.765 2.984c-1.57 0-2.8-1.25-2.8-3.006S84.52 20 86.113 20zm10.52-1.94c-2.63 0-4.723 2.314-4.723 4.92-.04 2.64 2.038 4.83 4.678 4.927a3.25 3.25 0 0 0 2.698-1.203v.973c0 1.7-1.03 2.72-2.585 2.72-1.118-.014-2.115-.708-2.518-1.75l-1.88.782c.667 1.417 2.007 2.912 4.41 2.912 2.63 0 4.64-1.657 4.64-5.13v-8.85H99.3v.827a3.48 3.48 0 0 0-2.653-1.128zm.192 1.92c1.296 0 2.63 1.108 2.63 3.006s-1.33 2.965-2.66 2.965c-1.417 0-2.72-1.128-2.72-2.96 0-1.88 1.364-3.006 2.755-3.006zm13.7-1.92c-2.495 0-4.584 1.984-4.584 4.915a4.76 4.76 0 0 0 4.828 4.93 4.99 4.99 0 0 0 4.133-2.16l-1.702-1.128c-.5.85-1.416 1.365-2.4 1.353a2.53 2.53 0 0 1-2.412-1.503l6.598-2.735-.333-.8c-.65-1.708-2.276-2.846-4.103-2.87zm.087 1.88c.76-.032 1.47.378 1.823 1.052l-4.417 1.85c-.192-1.428 1.16-2.894 2.585-2.894zm-7.824 7.674h2.167V13.104H102.8zm-47.698 16.7V34.8h3.442a2.73 2.73 0 0 1 1.939.752c.532.465.83 1.142.812 1.85a2.01 2.01 0 0 1-1.289 1.98v.053c.467.146.877.437 1.168.83a2.2 2.2 0 0 1 .439 1.35c.018.737-.286 1.445-.833 1.94a2.9 2.9 0 0 1-2.034.752h-3.634zm1.22-8.335v2.917h2.217a1.47 1.47 0 0 0 1.089-.439c.562-.54.584-1.43.05-1.995l-.038-.038c-.272-.288-.653-.448-1.048-.44H56.34zm0 4.055v3.12h2.46c.864.008 1.572-.684 1.582-1.55a1.49 1.49 0 0 0-.467-1.089 1.59 1.59 0 0 0-1.168-.467H56.32zm8.043-4.467a.86.86 0 0 1-1.656.323.86.86 0 0 1 1.405-.935c.165.16.256.382.252.613zm-.252 2.254v6.5h-1.225v-6.5zm4.4 9.582c-.346.003-.7-.044-1.022-.14a3.31 3.31 0 0 1-.872-.376 2.97 2.97 0 0 1-.677-.613c-.184-.224-.327-.48-.424-.752l1.167-.48a1.82 1.82 0 0 0 .692.917c.33.23.725.35 1.128.346.58.033 1.147-.183 1.556-.598.393-.455.594-1.045.56-1.646v-.642h-.053a2.4 2.4 0 0 1-.936.815c-.398.2-.837.303-1.28.3-.842.004-1.643-.36-2.194-.996a3.61 3.61 0 0 1-.906-2.465 3.56 3.56 0 0 1 .902-2.459c.547-.644 1.35-1.014 2.194-1.01a2.8 2.8 0 0 1 1.281.301 2.4 2.4 0 0 1 .936.815h.053V37.8h1.168v6.23c.05.907-.27 1.795-.89 2.458a3.26 3.26 0 0 1-2.371.894zm.042-3.987a1.88 1.88 0 0 0 1.473-.65 2.7 2.7 0 0 0 0-3.382c-.365-.433-.907-.677-1.473-.665-.565-.008-1.105.236-1.473.665-.417.467-.623 1.083-.598 1.694a2.4 2.4 0 0 0 .598 1.687c.37.426.908.668 1.473.66zm15.913.903l-.962.623-.653-.97a5.15 5.15 0 0 1-2.284.545c-1.3.028-2.572-.494-3.48-1.44-1.88-1.982-1.88-5.087 0-7.068a4.91 4.91 0 0 1 6.963 0 4.8 4.8 0 0 1 1.409 3.52 5.09 5.09 0 0 1-.432 2.082 4.98 4.98 0 0 1-1.217 1.699zm-3.892-.97a3.6 3.6 0 0 0 1.601-.376L81.07 41.3l.962-.65 1.1 1.66a3.66 3.66 0 0 0 1.089-2.762c.037-1.012-.333-1.995-1.048-2.72a3.45 3.45 0 0 0-2.589-1.074 3.49 3.49 0 0 0-2.604 1.074c-1.38 1.55-1.38 3.9 0 5.44a3.49 3.49 0 0 0 2.615 1.082zm11.835.963h-1.17v-.91h-.053c-.207.34-.503.617-.857.8a2.46 2.46 0 0 1-1.203.319 2.41 2.41 0 0 1-1.841-.684c-.458-.54-.688-1.24-.638-1.946v-4.088h1.22v4q.042 1.6 1.6 1.6a1.54 1.54 0 0 0 1.217-.593 2.14 2.14 0 0 0 .493-1.417V37.8h1.22v6.5zm4.344.214c-.892.026-1.753-.333-2.364-.984-.625-.673-.958-1.566-.928-2.484-.028-.91.298-1.798.908-2.475a3.25 3.25 0 0 1 4.618-.053c.616.732.924 1.676.857 2.63v.132H94.73a2.12 2.12 0 0 0 .638 1.54 2.06 2.06 0 0 0 3.295-.583l1.09.53c-.278.533-.698.98-1.214 1.29-.536.312-1.147.47-1.766.458zm-1.954-4.25h3.73c-.026-.435-.225-.84-.553-1.128-.373-.3-.85-.468-1.334-.443-.434-.01-.857.142-1.188.424-.34.297-.57.7-.658 1.143zm7.376 4.036h-1.22v-6.5h1.168v1.063h.053c.143-.37.417-.682.752-.883.333-.23.723-.36 1.128-.375a2.29 2.29 0 0 1 .902.162l-.375 1.184a1.84 1.84 0 0 0-.717-.094c-.464.002-.903.206-1.203.56a1.88 1.88 0 0 0-.511 1.3v3.59zm9.553-6.5l-4.07 9.395h-1.263l1.503-3.28-2.667-6.113h1.33l1.94 4.678h.027l1.88-4.678h1.32z" fill="#767677"/></svg>