<?xml version="1.0" encoding="UTF-8"?>
<svg xmlns="http://www.w3.org/2000/svg" xmlns:xlink="http://www.w3.org/1999/xlink" width="200px" height="px" viewBox="0 0 200 200" version="1.1">
<g id="surface1">
<path style=" stroke:none;fill-rule:nonzero;fill:rgb(0%,0%,0%);fill-opacity:1;" d="M 112.105469 166.167969 C 111.519531 166.902344 110.652344 167.429688 109.664062 167.617188 C 107.773438 167.972656 105.652344 167.132812 104.011719 166.269531 C 103.59375 166.058594 102.945312 165.914062 102.488281 165.828125 L 99.726562 165.265625 C 95.222656 167.097656 90.746094 168.894531 85.953125 169.820312 C 83.558594 170.28125 81.335938 170.453125 78.917969 170.171875 C 76.773438 169.925781 74.226562 169.191406 73.503906 166.875 C 73.308594 166.253906 73.28125 165.605469 73.394531 164.976562 C 73.09375 164.765625 72.832031 164.507812 72.601562 164.226562 C 71.597656 164.195312 70.582031 164.160156 69.578125 164.101562 L 67.96875 165.15625 C 61.480469 169.429688 53.808594 170.101562 46.300781 170.484375 C 46.292969 168.109375 46.359375 165.761719 45.832031 163.417969 C 36.023438 166.46875 29.867188 166.960938 20.144531 164.039062 C 22.578125 161.742188 24.792969 159.613281 27 157.066406 C 36.464844 146.152344 34.722656 145.179688 38.390625 133.210938 C 39.359375 130.058594 40.527344 126.902344 41.976562 123.9375 C 42.765625 122.320312 43.695312 120.652344 44.785156 119.109375 C 49.355469 112.664062 46.605469 109.234375 54.855469 103.894531 C 54.472656 102.753906 54.261719 101.570312 54.183594 100.378906 C 53.0625 100.019531 51.945312 99.65625 50.828125 99.265625 C 47.074219 97.925781 44.726562 97.433594 41.933594 96.777344 C 45.089844 92.519531 48.421875 83.996094 49.988281 79.210938 L 50.148438 78.71875 C 45.226562 74.25 42.070312 64.96875 40.007812 58.574219 C 42.425781 58.070312 44.648438 57.664062 47.125 57.414062 C 50.328125 57.109375 53.648438 57.042969 56.859375 57.390625 L 57.089844 56.9375 C 60.425781 50.238281 65.074219 44.015625 70.167969 38.539062 C 71.878906 36.707031 73.65625 34.929688 75.511719 33.234375 C 76.945312 31.914062 78.40625 30.730469 79.914062 29.515625 C 81.003906 32.441406 81.78125 34.289062 83.59375 36.964844 C 86.460938 41.195312 90.183594 44.933594 94.210938 48.050781 L 94.628906 48.375 C 97.523438 46.59375 100.742188 45.207031 103.949219 44.109375 C 106.308594 43.296875 108.496094 42.761719 110.898438 42.21875 C 111.613281 48.46875 112.355469 55.542969 110.957031 61.691406 L 111.605469 62.320312 C 117.308594 67.820312 123.390625 74.929688 125.707031 82.644531 L 126.039062 83.742188 L 125.238281 84.578125 C 120.859375 89.15625 115.828125 92.945312 110.3125 95.917969 C 111.070312 96.25 111.808594 96.605469 112.585938 96.980469 C 113.257812 97.304688 114.277344 97.808594 115.046875 97.816406 C 115.734375 97.816406 116.339844 97.363281 116.824219 96.914062 C 119.804688 94.128906 124.546875 90.136719 128.898438 91.039062 C 129.765625 91.277344 130.449219 91.609375 131.164062 92.152344 C 132.5 91.300781 133.878906 90.605469 135.234375 90.101562 C 136.9375 89.464844 138.757812 88.3125 140.265625 87.292969 L 141.644531 86.371094 L 142.792969 87.574219 C 143.449219 88.253906 144.367188 88.390625 145.269531 88.261719 C 146.4375 88.085938 147.671875 88.160156 148.277344 89.386719 C 148.753906 90.347656 148.40625 91.191406 147.886719 92 C 147.730469 92.238281 147.5625 92.503906 147.46875 92.765625 C 147.253906 93.40625 147.851562 93.984375 148.277344 94.367188 C 148.601562 94.664062 148.984375 94.878906 149.382812 95.03125 L 151.300781 95.765625 L 150.507812 97.644531 C 148.726562 101.878906 146.652344 105.625 143.332031 108.824219 C 143.910156 111.097656 144.34375 113.335938 144.660156 115.660156 C 145.476562 121.765625 145.519531 128.101562 145.125 134.25 C 144.886719 138.097656 144.4375 141.671875 143.839844 145.472656 C 141.066406 144.246094 139.632812 143.632812 136.433594 143.519531 C 136.46875 146.652344 135.992188 149.8125 135.257812 152.648438 C 133.855469 158.132812 133.113281 162.746094 133 168.382812 C 130.386719 168.597656 128.242188 168.792969 125.570312 168.664062 C 121.117188 168.46875 116.320312 167.683594 112.105469 166.167969 Z M 112.105469 166.167969 "/>
<path style=" stroke:none;fill-rule:nonzero;fill:rgb(0%,0%,0%);fill-opacity:1;" d="M 162.402344 63.65625 C 161.449219 58.886719 159.125 54.859375 156.050781 52.253906 C 156.945312 53.855469 157.472656 55.898438 157.472656 58.128906 C 157.472656 62.40625 155.511719 65.996094 152.832031 67.105469 C 156.160156 67.488281 159.4375 67.046875 162.136719 66.210938 C 169.460938 71.371094 167.679688 76.65625 167.679688 76.65625 C 164.179688 73.703125 161.097656 73.285156 158.042969 73.925781 C 153.554688 74.863281 154.289062 77.363281 154.289062 82.4375 L 154.289062 133.941406 C 154.382812 138.148438 156.21875 142.804688 159.449219 145.648438 C 156.066406 153.855469 148.0625 155.03125 147.824219 159.648438 C 147.542969 165.0625 155.417969 165.898438 155.265625 158.855469 C 158.691406 162.347656 156.304688 168.628906 149.851562 168.324219 C 146.351562 168.160156 142.835938 165.121094 142.726562 160.730469 C 142.496094 151.226562 147.875 147.625 147.875 139.101562 L 147.875 80.4375 C 147.875 74.316406 148.226562 75.058594 143.660156 72.496094 C 139.667969 70.253906 137.539062 66.015625 139.882812 59.203125 C 141.898438 62.320312 144.488281 64.371094 147.273438 65.613281 C 145.707031 63.910156 144.691406 61.195312 144.691406 58.128906 C 144.691406 53.863281 146.660156 50.261719 149.339844 49.15625 C 146.105469 48.714844 142.605469 49.617188 139.226562 52.289062 C 136.519531 48.628906 131.960938 41.808594 131.402344 37.390625 C 131.402344 37.390625 134.824219 39.203125 136.117188 39.664062 C 137.402344 40.113281 140.273438 39.375 144.128906 37.953125 C 147.996094 36.53125 158.128906 36.46875 163.882812 45.589844 C 169.640625 54.699219 167.6875 55.210938 172.550781 59.902344 C 177.414062 64.601562 179.855469 66.160156 179.855469 66.160156 C 179.855469 66.160156 170.78125 66.355469 162.402344 63.65625 Z M 162.402344 63.65625 "/>
<path style=" stroke:none;fill-rule:nonzero;fill:rgb(30.196078%,30.196078%,30.196078%);fill-opacity:1;" d="M 134.414062 40.949219 C 134.78125 41.109375 135.148438 41.265625 135.503906 41.390625 C 137.890625 42.226562 142.496094 40.507812 144.769531 39.671875 C 147.109375 38.804688 150.472656 38.992188 152.847656 39.59375 C 156.882812 40.617188 160.101562 43.042969 162.324219 46.566406 C 163.59375 48.570312 164.769531 50.605469 165.78125 52.75 C 166.378906 53.992188 166.898438 55.304688 167.535156 56.523438 C 168.515625 58.359375 169.785156 59.78125 171.273438 61.222656 C 172.277344 62.191406 173.300781 63.15625 174.347656 64.082031 C 174.347656 64.082031 168.589844 61.96875 164.886719 54.496094 C 162.726562 50.136719 160.058594 46.050781 156.75 43.605469 C 154.390625 41.867188 150.414062 40.820312 147.355469 41.238281 C 140.007812 42.234375 137.4375 44.507812 134.414062 40.949219 Z M 140.800781 63.296875 C 143.355469 65.914062 146.554688 67.691406 150.269531 68.535156 C 153.996094 69.378906 158.066406 69.226562 161.78125 68.230469 C 161.78125 68.230469 156.007812 71.03125 149.503906 69.914062 C 143.007812 68.789062 140.800781 63.296875 140.800781 63.296875 Z M 140.800781 63.296875 "/>
<path style=" stroke:none;fill-rule:nonzero;fill:rgb(96.470588%,75.294118%,0%);fill-opacity:1;" d="M 156.628906 58.128906 C 156.628906 53.445312 154.148438 49.648438 151.085938 49.648438 C 148.023438 49.648438 145.542969 53.445312 145.542969 58.128906 C 145.542969 62.8125 148.023438 66.609375 151.085938 66.609375 C 154.148438 66.609375 156.628906 62.8125 156.628906 58.128906 Z M 156.628906 58.128906 "/>
<path style=" stroke:none;fill-rule:nonzero;fill:rgb(85.882353%,64.705882%,0%);fill-opacity:1;" d="M 151.085938 51.632812 C 145.925781 51.632812 145.925781 64.625 151.085938 64.625 C 156.246094 64.625 156.246094 51.632812 151.085938 51.632812 Z M 151.085938 51.632812 "/>
<path style=" stroke:none;fill-rule:nonzero;fill:rgb(73.72549%,52.941176%,0%);fill-opacity:1;" d="M 152.660156 58.128906 C 152.660156 55.636719 151.957031 53.617188 151.085938 53.617188 C 150.214844 53.617188 149.511719 55.636719 149.511719 58.128906 C 149.511719 60.621094 150.214844 62.644531 151.085938 62.644531 C 151.957031 62.644531 152.660156 60.621094 152.660156 58.128906 Z M 152.660156 58.128906 "/>
<path style=" stroke:none;fill-rule:nonzero;fill:rgb(100%,100%,100%);fill-opacity:1;" d="M 150.804688 51.046875 C 150.023438 50.664062 148.898438 51.351562 148.308594 52.585938 C 147.714844 53.8125 147.867188 55.117188 148.660156 55.5 C 149.441406 55.875 150.566406 55.195312 151.164062 53.957031 C 151.75 52.734375 151.597656 51.429688 150.804688 51.046875 Z M 148.285156 56.265625 C 147.773438 56.019531 147.152344 56.230469 146.90625 56.75 C 146.660156 57.261719 146.871094 57.882812 147.390625 58.128906 C 147.902344 58.378906 148.523438 58.164062 148.769531 57.644531 C 149.015625 57.132812 148.804688 56.511719 148.285156 56.265625 Z M 148.285156 56.265625 "/>
<path style=" stroke:none;fill-rule:nonzero;fill:rgb(77.647059%,93.333333%,85.882353%);fill-opacity:1;" d="M 57.972656 88.28125 C 58.457031 89.242188 58.996094 90.144531 59.574219 91.003906 C 59.847656 90.910156 60.128906 90.835938 60.40625 90.78125 C 61.480469 90.578125 62.722656 90.664062 63.574219 91.429688 C 63.976562 91.789062 64.265625 92.230469 64.4375 92.742188 C 64.765625 93.789062 64.496094 94.871094 63.96875 95.867188 C 64.597656 96.386719 65.246094 96.871094 65.917969 97.3125 C 66.53125 97.042969 67.160156 96.871094 67.78125 96.886719 C 69.273438 96.929688 70.488281 98.039062 71.160156 99.296875 C 72.269531 99.347656 73.375 99.960938 74.191406 100.777344 C 74.21875 100.804688 74.253906 100.839844 74.277344 100.863281 C 89.273438 104.3125 107.59375 95.382812 108.539062 79.3125 C 107.28125 80.378906 106.328125 80.652344 106.328125 80.652344 C 106.523438 79.910156 106.597656 78.828125 106.597656 77.558594 C 105.425781 77.246094 104.265625 76.9375 103.152344 76.640625 C 97.761719 75.167969 92.753906 73.523438 88.121094 70.511719 L 80.441406 84.320312 L 66.761719 75.566406 C 64.980469 79.425781 62.121094 83.5625 58.882812 87.207031 C 59.105469 87.640625 59.335938 88.058594 59.589844 88.460938 C 59.589844 88.457031 58.882812 88.484375 57.972656 88.28125 Z M 57.972656 88.28125 "/>
<path style=" stroke:none;fill-rule:nonzero;fill:rgb(61.568627%,87.45098%,74.901961%);fill-opacity:1;" d="M 57.972656 88.28125 C 58.457031 89.242188 58.996094 90.144531 59.574219 91.003906 C 59.847656 90.910156 60.128906 90.835938 60.40625 90.78125 C 61.480469 90.578125 62.722656 90.664062 63.574219 91.429688 C 63.636719 91.480469 63.6875 91.53125 63.738281 91.582031 C 64.238281 86.882812 70.269531 82.8125 73.230469 79.714844 L 66.757812 75.566406 C 64.980469 79.425781 62.121094 83.5625 58.882812 87.207031 C 59.105469 87.640625 59.335938 88.058594 59.589844 88.457031 C 59.589844 88.457031 58.882812 88.484375 57.972656 88.28125 Z M 64.375 94.929688 C 64.265625 95.246094 64.128906 95.558594 63.96875 95.867188 C 64.597656 96.386719 65.246094 96.871094 65.917969 97.3125 C 65.96875 97.296875 66.019531 97.269531 66.070312 97.253906 C 65.3125 96.460938 64.75 95.6875 64.375 94.929688 Z M 103.210938 92.109375 C 106.257812 88.644531 108.242188 84.328125 108.539062 79.3125 C 107.28125 80.378906 106.328125 80.652344 106.328125 80.652344 C 106.523438 79.910156 106.597656 78.828125 106.597656 77.558594 C 105.421875 77.246094 104.265625 76.9375 103.148438 76.640625 C 97.761719 75.167969 92.753906 73.523438 88.121094 70.511719 L 80.441406 84.320312 L 89.621094 76.300781 C 89.621094 76.300781 95.792969 79.441406 101.617188 80.609375 C 106.199219 81.519531 106.027344 87.0625 103.210938 92.109375 Z M 103.210938 92.109375 "/>
<path style=" stroke:none;fill-rule:nonzero;fill:rgb(0%,0%,0%);fill-opacity:1;" d="M 73.65625 82.261719 C 74.039062 83.785156 74.234375 86.132812 71.742188 86.722656 C 69.144531 87.335938 67.636719 83.964844 67.136719 82.582031 C 66.972656 82.6875 66.820312 82.804688 66.683594 82.941406 C 65.535156 84.039062 64.324219 83.683594 65.378906 82.199219 C 66.019531 81.304688 67.28125 80.507812 69.425781 80.285156 C 73.128906 79.910156 75.871094 81.46875 75.863281 82.054688 C 75.863281 82.566406 75.070312 82.675781 73.65625 82.261719 Z M 73.65625 82.261719 "/>
<path style=" stroke:none;fill-rule:nonzero;fill:rgb(100%,100%,100%);fill-opacity:1;" d="M 68.410156 82.90625 C 69.40625 85.46875 70.796875 84.320312 70.097656 82.363281 C 70.003906 82.105469 69.910156 81.894531 69.816406 81.707031 C 69.253906 81.757812 68.703125 81.875 68.199219 82.054688 C 68.222656 82.3125 68.292969 82.601562 68.410156 82.90625 Z M 68.410156 82.90625 "/>
<path style=" stroke:none;fill-rule:nonzero;fill:rgb(0%,0%,0%);fill-opacity:1;" d="M 89.210938 76.480469 C 89.824219 78.003906 91.085938 80.199219 93.46875 79.605469 C 95.957031 78.980469 95.140625 75.285156 94.710938 73.832031 C 94.910156 73.855469 95.105469 73.890625 95.292969 73.949219 C 96.902344 74.410156 97.675781 73.550781 95.914062 72.699219 C 94.847656 72.1875 93.34375 72.035156 91.460938 72.800781 C 88.207031 74.136719 86.65625 77.058594 86.988281 77.550781 C 87.320312 78.039062 88.308594 77.484375 89.210938 76.480469 Z M 89.210938 76.480469 "/>
<path style=" stroke:none;fill-rule:nonzero;fill:rgb(100%,100%,100%);fill-opacity:1;" d="M 91.714844 75.535156 C 92.457031 78.277344 90.695312 78.089844 90.082031 76.011719 C 90.054688 75.925781 90.03125 75.824219 89.996094 75.710938 C 90.351562 75.40625 90.832031 75.058594 91.398438 74.742188 C 91.527344 74.972656 91.628906 75.234375 91.714844 75.535156 Z M 91.714844 75.535156 "/>
<path style=" stroke:none;fill-rule:nonzero;fill:rgb(0%,58.431373%,29.803922%);fill-opacity:1;" d="M 51.492188 97.398438 C 46.785156 95.722656 44.726562 95.515625 44.726562 95.515625 C 44.726562 95.515625 48.214844 90.988281 51.867188 79.824219 C 52.261719 80.0625 52.472656 80.191406 52.890625 80.335938 C 52.839844 80.71875 52.675781 81.316406 52.675781 81.316406 C 52.675781 81.316406 55.46875 80.609375 58.476562 69.796875 C 61.488281 58.980469 64.0625 58.003906 64.0625 58.003906 C 64.0625 58.003906 63.132812 57.910156 62.09375 58.582031 C 61.011719 58.277344 59.964844 58.011719 58.859375 57.816406 C 66.078125 43.308594 79.019531 32.785156 79.019531 32.785156 C 79.019531 32.785156 82.152344 41.203125 93 49.617188 C 91.816406 50.449219 90.695312 51.386719 89.6875 52.425781 L 88.957031 53.191406 C 87.976562 52.894531 86.988281 53.054688 86.4375 53.507812 C 86.4375 53.507812 89.058594 52.722656 97.886719 59.75 C 106.726562 66.773438 110.21875 66.492188 110.710938 66.167969 C 110.335938 65.988281 109.917969 65.769531 109.460938 65.511719 C 109.757812 64.949219 110.011719 64.363281 110.234375 63.742188 C 116.355469 69.652344 121.753906 76.367188 123.804688 83.207031 C 117.300781 90.027344 109.441406 94.878906 100.917969 97.925781 C 113 92.035156 121.25 82.636719 121.25 82.636719 C 113.171875 74.511719 99.082031 76.445312 87.5 67.847656 L 79.785156 81.722656 L 65.898438 72.84375 C 63.199219 80.285156 55.222656 89.683594 48.546875 93.898438 C 48.546875 93.898438 50.625 95.347656 54.535156 97.058594 C 54.449219 97.484375 54.378906 97.917969 54.347656 98.351562 C 53.382812 98.054688 52.4375 97.738281 51.492188 97.398438 Z M 51.492188 97.398438 "/>
<path style=" stroke:none;fill-rule:nonzero;fill:rgb(0%,47.45098%,23.921569%);fill-opacity:1;" d="M 51.492188 97.398438 C 46.785156 95.722656 44.726562 95.515625 44.726562 95.515625 C 53.699219 90.367188 61.011719 79.441406 64.546875 69.769531 L 78.960938 78.113281 L 86.894531 64.738281 C 99.054688 75.117188 115.894531 73.066406 123.804688 83.207031 C 117.300781 90.027344 109.441406 94.878906 100.917969 97.925781 C 113 92.035156 121.25 82.636719 121.25 82.636719 C 113.171875 74.511719 99.082031 76.445312 87.5 67.847656 L 79.785156 81.722656 L 65.898438 72.84375 C 63.199219 80.285156 55.222656 89.683594 48.546875 93.898438 C 48.546875 93.898438 50.625 95.347656 54.53125 97.058594 C 54.449219 97.484375 54.378906 97.917969 54.347656 98.351562 C 53.382812 98.054688 52.4375 97.738281 51.492188 97.398438 Z M 51.492188 97.398438 "/>
<path style=" stroke:none;fill-rule:nonzero;fill:rgb(41.960784%,74.901961%,58.823529%);fill-opacity:1;" d="M 109.929688 64.515625 C 110.039062 64.261719 110.140625 64.003906 110.234375 63.742188 C 116.355469 69.652344 121.753906 76.367188 123.804688 83.207031 C 120.621094 75.671875 115.554688 69.648438 109.929688 64.515625 Z M 109.929688 64.515625 "/>
<path style=" stroke:none;fill-rule:nonzero;fill:rgb(0%,47.45098%,23.921569%);fill-opacity:1;" d="M 86.4375 53.507812 C 86.4375 53.507812 89.058594 52.722656 97.886719 59.75 C 106.726562 66.773438 110.21875 66.492188 110.710938 66.167969 C 105.550781 70.09375 91.46875 55.761719 86.4375 53.507812 Z M 86.4375 53.507812 "/>
<path style=" stroke:none;fill-rule:nonzero;fill:rgb(0%,47.45098%,23.921569%);fill-opacity:1;" d="M 52.675781 81.316406 C 52.675781 81.316406 55.46875 80.609375 58.476562 69.796875 C 61.03125 60.640625 63.261719 58.539062 63.890625 58.105469 C 64 58.035156 64.0625 58.003906 64.0625 58.003906 C 60.980469 63.605469 57.898438 81.410156 52.675781 81.316406 Z M 52.675781 81.316406 "/>
<path style=" stroke:none;fill-rule:nonzero;fill:rgb(41.960784%,74.901961%,58.823529%);fill-opacity:1;" d="M 59.820312 58.003906 C 59.503906 57.933594 59.183594 57.875 58.859375 57.816406 C 66.078125 43.308594 79.019531 32.785156 79.019531 32.785156 C 79.019531 32.785156 82.152344 41.203125 93 49.617188 C 92.59375 49.90625 92.191406 50.203125 91.808594 50.511719 C 85.414062 45.792969 80.203125 41.410156 78.425781 36.308594 C 71.878906 41.347656 65.566406 49.378906 59.820312 58.003906 Z M 59.820312 58.003906 "/>
<path style=" stroke:none;fill-rule:nonzero;fill:rgb(77.647059%,93.333333%,85.882353%);fill-opacity:1;" d="M 42.5625 60.0625 C 42.5625 60.0625 52.976562 57.902344 61.039062 60.183594 C 60.144531 61.1875 59.191406 62.617188 58.390625 64.679688 C 57.769531 66.253906 57.199219 67.949219 56.671875 69.640625 C 49.59375 63.785156 44.214844 61.296875 44.214844 61.296875 C 48.898438 64.457031 52.839844 68.355469 55.9375 72.027344 C 55.199219 74.46875 54.507812 76.8125 53.792969 78.710938 C 52.234375 78.199219 47.515625 75.40625 42.5625 60.0625 Z M 91.007812 53.703125 C 97.140625 47.34375 109.1875 44.625 109.1875 44.625 C 110.574219 56.769531 109.109375 62.292969 107.800781 64.738281 C 105.332031 63.246094 102.246094 60.753906 99.046875 58.394531 C 101.328125 54.316406 104.34375 49.914062 108.164062 46.039062 C 108.164062 46.039062 103.191406 49.675781 97.25 57.101562 C 96.484375 56.5625 95.71875 56.042969 94.953125 55.558594 C 93.46875 54.613281 92.140625 54.042969 91.007812 53.703125 Z M 91.007812 53.703125 "/>
<path style=" stroke:none;fill-rule:nonzero;fill:rgb(41.960784%,74.901961%,58.823529%);fill-opacity:1;" d="M 44.214844 61.296875 C 48.898438 64.457031 52.839844 68.355469 55.9375 72.027344 C 55.199219 74.46875 54.507812 76.8125 53.792969 78.710938 C 52.234375 78.199219 47.515625 75.40625 42.5625 60.0625 C 43.492188 60.941406 43.667969 60.941406 44.214844 61.296875 Z M 108.164062 46.039062 C 108.164062 46.039062 108.871094 45.519531 109.1875 44.625 C 110.574219 56.769531 109.109375 62.292969 107.800781 64.738281 C 105.332031 63.246094 102.246094 60.753906 99.046875 58.394531 C 101.328125 54.316406 104.34375 49.914062 108.164062 46.039062 Z M 108.164062 46.039062 "/>
<path style=" stroke:none;fill-rule:nonzero;fill:rgb(100%,100%,100%);fill-opacity:1;" d="M 42.5625 60.0625 C 42.5625 60.0625 52.976562 57.902344 61.039062 60.183594 C 60.613281 60.660156 60.179688 61.230469 59.753906 61.917969 C 51.121094 59.3125 42.5625 60.0625 42.5625 60.0625 Z M 93.734375 54.84375 C 96.015625 51.820312 100.476562 47.980469 109.1875 44.625 C 109.1875 44.625 97.140625 47.34375 91.007812 53.703125 C 91.828125 53.941406 92.738281 54.308594 93.734375 54.84375 Z M 93.734375 54.84375 "/>
<path style=" stroke:none;fill-rule:nonzero;fill:rgb(77.647059%,93.333333%,85.882353%);fill-opacity:1;" d="M 67.347656 112.527344 C 67.347656 112.527344 57.53125 109.507812 56.296875 101.460938 C 55.054688 93.414062 61.199219 91.769531 62.351562 92.800781 C 63.5 93.824219 61.882812 95.882812 60.875 96.949219 C 59.878906 98.003906 60.691406 100.226562 61.011719 100.632812 C 61.335938 101.050781 61.539062 101.316406 61.539062 101.316406 C 61.539062 101.316406 60.953125 101.886719 60.410156 102.234375 C 59.863281 102.59375 61.148438 103.027344 63.160156 101.460938 C 65.175781 99.902344 66.554688 98.691406 67.730469 98.726562 C 68.90625 98.753906 69.644531 100.371094 69.644531 100.371094 C 69.644531 100.371094 68.128906 101.867188 66.964844 102.796875 C 65.804688 103.726562 65.304688 104.335938 66.394531 104.074219 C 67.484375 103.808594 69.40625 102.21875 70.214844 101.460938 C 71.027344 100.710938 72.21875 101.398438 72.898438 102.074219 C 73.570312 102.753906 73.921875 103.578125 73.546875 104.753906 C 73.164062 105.929688 72.054688 105.691406 72.054688 105.691406 C 72.054688 105.691406 72.542969 103.886719 72.117188 104.132812 C 71.691406 104.390625 71.058594 106.058594 71 106.542969 C 70.941406 107.027344 72.660156 106.925781 73.511719 106.382812 C 74.363281 105.84375 74.558594 105.25 74.558594 105.25 C 74.558594 105.25 77.070312 106.882812 75.511719 109.710938 C 73.953125 112.527344 73.597656 112.707031 73.570312 116.914062 C 73.546875 120.421875 74.117188 129.371094 71.519531 134.539062 C 71.324219 134.929688 71.101562 135.289062 70.871094 135.621094 C 70.660156 135.515625 70.4375 135.414062 70.21875 135.304688 C 66.855469 133.679688 63.40625 131.839844 59.710938 131.125 C 58.355469 130.859375 57.011719 130.757812 55.648438 130.824219 C 55.316406 129.027344 55.425781 126.984375 56.125 124.753906 C 56.125 124.753906 56.585938 125.894531 57.011719 126.390625 C 57.4375 126.882812 57.4375 126.882812 57.4375 126.882812 C 57.4375 126.882812 57.863281 121.902344 60.605469 117.320312 C 63.335938 112.734375 63.6875 112.316406 63.6875 112.316406 C 63.6875 112.316406 65.859375 112.996094 67.347656 112.527344 Z M 67.347656 112.527344 "/>
<path style=" stroke:none;fill-rule:nonzero;fill:rgb(100%,100%,100%);fill-opacity:1;" d="M 59.566406 92.988281 C 60.765625 92.402344 61.914062 92.410156 62.351562 92.800781 C 63.5 93.824219 61.882812 95.882812 60.875 96.949219 C 59.878906 98.003906 60.691406 100.226562 61.011719 100.632812 C 61.335938 101.050781 61.539062 101.316406 61.539062 101.316406 C 61.539062 101.316406 61.25 101.597656 60.894531 101.886719 C 60.527344 101.613281 59.652344 100.839844 59.234375 99.355469 C 58.707031 97.476562 59.175781 96.710938 60.910156 94.394531 C 61.667969 93.371094 60.808594 93.03125 59.566406 92.988281 Z M 74.023438 105.988281 C 74.449219 105.589844 74.558594 105.25 74.558594 105.25 C 74.558594 105.25 77.011719 106.847656 75.5625 109.609375 C 75.691406 107.871094 74.628906 106.578125 74.023438 105.988281 Z M 60.84375 102.566406 C 61.355469 102.515625 62.164062 102.234375 63.160156 101.460938 C 65.175781 99.902344 66.554688 98.691406 67.730469 98.726562 C 68.90625 98.753906 69.644531 100.371094 69.644531 100.371094 C 69.644531 100.371094 67.457031 99.035156 65.226562 100.964844 C 62.988281 102.890625 60.84375 102.566406 60.84375 102.566406 Z M 66.265625 104.109375 C 66.308594 104.097656 66.351562 104.089844 66.394531 104.074219 C 67.484375 103.808594 69.40625 102.21875 70.21875 101.460938 C 71.027344 100.710938 72.21875 101.398438 72.898438 102.074219 C 73.238281 102.414062 73.496094 102.796875 73.613281 103.238281 C 72.804688 102.371094 71.453125 101.859375 70.285156 102.695312 C 68.753906 103.792969 66.265625 104.109375 66.265625 104.109375 Z M 66.265625 104.109375 "/>
<path style=" stroke:none;fill-rule:nonzero;fill:rgb(61.568627%,87.45098%,74.901961%);fill-opacity:1;" d="M 67.347656 112.527344 C 67.347656 112.527344 57.53125 109.507812 56.296875 101.460938 C 56.277344 101.390625 56.269531 101.316406 56.261719 101.246094 C 56.867188 102.941406 57.898438 104.59375 59.640625 105.640625 C 63.53125 107.992188 68.222656 108.324219 69.605469 110.171875 C 70.371094 111.738281 69.355469 112.742188 66.863281 113.535156 C 63.003906 114.757812 60.484375 125.324219 60.230469 131.234375 C 60.058594 131.191406 59.878906 131.15625 59.710938 131.125 C 58.355469 130.859375 57.011719 130.757812 55.648438 130.824219 C 55.316406 129.03125 55.425781 126.984375 56.125 124.753906 C 56.125 124.753906 56.585938 125.894531 57.011719 126.390625 C 57.4375 126.882812 57.4375 126.882812 57.4375 126.882812 C 57.4375 126.882812 57.863281 121.902344 60.605469 117.320312 C 63.335938 112.734375 63.6875 112.316406 63.6875 112.316406 C 63.6875 112.316406 65.859375 112.996094 67.347656 112.527344 Z M 67.347656 112.527344 "/>
<path style=" stroke:none;fill-rule:nonzero;fill:rgb(77.647059%,93.333333%,85.882353%);fill-opacity:1;" d="M 54.328125 117.507812 C 53.648438 121.078125 53.058594 126.1875 53.929688 131.003906 L 53.9375 131.003906 C 53.316406 126.953125 54.882812 122.703125 56.089844 119.6875 C 56.703125 121.246094 56.953125 121.453125 57.207031 120.914062 C 58.203125 118.777344 58.832031 117.253906 59.640625 115.628906 C 57.75 115.917969 55.972656 116.574219 54.328125 117.507812 Z M 54.328125 117.507812 "/>
<path style=" stroke:none;fill-rule:nonzero;fill:rgb(61.568627%,87.45098%,74.901961%);fill-opacity:1;" d="M 54.328125 117.507812 C 53.648438 121.078125 53.058594 126.1875 53.929688 131.003906 L 53.9375 131.003906 C 53.316406 126.953125 54.882812 122.703125 56.089844 119.6875 C 56.238281 118.453125 56.730469 117.152344 57.128906 116.242188 C 56.160156 116.574219 55.222656 117 54.328125 117.507812 Z M 54.328125 117.507812 "/>
<path style=" stroke:none;fill-rule:nonzero;fill:rgb(41.960784%,74.901961%,58.823529%);fill-opacity:1;" d="M 60.648438 113.679688 C 57.921875 113.867188 54.40625 114.8125 50.804688 117.714844 C 43.160156 123.894531 39.097656 138.125 39.097656 138.125 C 39.097656 138.125 42.492188 123.070312 48.980469 117.304688 C 55.46875 111.542969 60.304688 111.660156 60.304688 111.660156 C 60.304688 111.660156 58.519531 110.800781 55.46875 111.660156 C 52.421875 112.511719 49.007812 115.59375 49.007812 115.59375 C 49.695312 110.980469 52.300781 107.898438 55.792969 105.640625 C 57.148438 108.144531 59.335938 110.144531 61.839844 111.730469 C 61.445312 112.359375 61.046875 113.015625 60.648438 113.679688 Z M 60.648438 113.679688 "/>
<path style=" stroke:none;fill-rule:nonzero;fill:rgb(21.568627%,64.313725%,43.529412%);fill-opacity:1;" d="M 60.648438 113.679688 C 58.332031 113.832031 55.425781 114.546875 52.394531 116.546875 C 55.980469 113.644531 59.257812 112.894531 61.21875 112.742188 C 61.019531 113.046875 60.835938 113.363281 60.648438 113.679688 Z M 60.648438 113.679688 "/>
<path style=" stroke:none;fill-rule:nonzero;fill:rgb(77.647059%,93.333333%,85.882353%);fill-opacity:1;" d="M 49.007812 115.59375 C 49.695312 110.980469 52.300781 107.898438 55.792969 105.640625 C 56.015625 106.050781 56.261719 106.449219 56.527344 106.839844 C 51.679688 109.71875 49.007812 115.59375 49.007812 115.59375 Z M 49.007812 115.59375 "/>
<path style=" stroke:none;fill-rule:nonzero;fill:rgb(41.960784%,74.901961%,58.823529%);fill-opacity:1;" d="M 75.417969 115.773438 C 76.175781 116.046875 76.996094 116.378906 77.863281 116.785156 C 82.613281 119.023438 85.277344 115.320312 84.265625 111.667969 C 83.652344 109.453125 82.144531 105.894531 81.054688 103.433594 C 79.148438 103.453125 77.277344 103.300781 75.445312 102.976562 C 75.496094 103.214844 75.519531 103.453125 75.53125 103.699219 L 75.554688 103.714844 C 76.210938 104.140625 76.839844 104.847656 77.226562 105.523438 C 78.152344 107.15625 78.015625 108.96875 77.121094 110.597656 C 76.613281 111.515625 76.253906 112.136719 76.007812 112.664062 C 77.183594 113.355469 78.621094 114.070312 79.789062 113.917969 C 82.09375 113.609375 81.40625 109.726562 81.40625 109.726562 C 81.40625 109.726562 83.320312 114.488281 80.230469 114.871094 C 78.425781 115.09375 76.945312 114.351562 75.640625 113.660156 C 75.496094 114.214844 75.445312 114.828125 75.417969 115.773438 Z M 75.417969 115.773438 "/>
<path style=" stroke:none;fill-rule:nonzero;fill:rgb(21.568627%,64.313725%,43.529412%);fill-opacity:1;" d="M 75.417969 115.773438 C 76.175781 116.046875 76.996094 116.378906 77.863281 116.785156 C 82.613281 119.023438 85.277344 115.320312 84.265625 111.667969 C 83.652344 109.453125 82.144531 105.894531 81.054688 103.433594 C 80.296875 103.445312 79.539062 103.417969 78.789062 103.375 C 80.425781 105.878906 81.941406 108.476562 82.503906 110.222656 C 83.90625 114.625 82.085938 117.015625 79.652344 116.328125 C 78.289062 115.933594 76.917969 115.167969 75.480469 114.625 C 75.453125 114.945312 75.425781 115.320312 75.417969 115.773438 Z M 75.417969 115.773438 "/>
<path style=" stroke:none;fill-rule:nonzero;fill:rgb(96.470588%,75.294118%,0%);fill-opacity:1;" d="M 96.515625 100.226562 C 96.601562 100.667969 96.652344 101.128906 96.652344 101.605469 C 96.652344 105.46875 93.519531 108.605469 89.65625 108.605469 C 86.402344 108.605469 83.667969 106.382812 82.878906 103.375 C 83.59375 103.332031 84.308594 103.273438 85.03125 103.179688 C 85.6875 105.105469 87.507812 106.484375 89.65625 106.484375 C 92.355469 106.484375 94.535156 104.304688 94.535156 101.605469 C 94.535156 101.253906 94.5 100.921875 94.433594 100.601562 C 94.433594 100.601562 95.222656 100.480469 96.515625 100.226562 Z M 96.515625 100.226562 "/>
<path style=" stroke:none;fill-rule:nonzero;fill:rgb(100%,90.196078%,38.431373%);fill-opacity:1;" d="M 83.90625 103.300781 C 84.28125 103.265625 84.65625 103.230469 85.03125 103.179688 C 85.6875 105.105469 87.507812 106.484375 89.65625 106.484375 C 92.355469 106.484375 94.535156 104.304688 94.535156 101.605469 C 94.535156 101.253906 94.5 100.921875 94.433594 100.601562 C 94.433594 100.601562 94.839844 100.539062 95.554688 100.414062 C 95.617188 100.753906 95.648438 101.109375 95.648438 101.46875 C 95.648438 104.789062 92.960938 107.480469 89.636719 107.480469 C 86.957031 107.480469 84.683594 105.726562 83.90625 103.300781 Z M 83.90625 103.300781 "/>
<path style=" stroke:none;fill-rule:nonzero;fill:rgb(41.960784%,74.901961%,58.823529%);fill-opacity:1;" d="M 98.210938 99.859375 C 98.578125 102.089844 98.894531 104.601562 98.996094 107.078125 C 99.292969 114.214844 103.464844 118.726562 109.757812 114.964844 C 116.058594 111.199219 121.40625 99.289062 124.582031 95.910156 C 127.757812 92.519531 129.816406 93.609375 129.816406 93.609375 C 129.816406 93.609375 125.816406 90.5625 121.523438 96.078125 C 117.234375 101.605469 110.882812 111.550781 107.289062 112.554688 C 103.703125 113.550781 102.757812 108.605469 102.757812 108.605469 C 102.757812 108.605469 104.785156 112.886719 108.539062 110.222656 C 112.285156 107.554688 118.171875 98.351562 118.171875 98.351562 C 114.652344 101.628906 112.335938 98.472656 107.621094 97.007812 C 104.199219 98.371094 100.730469 99.296875 98.210938 99.859375 Z M 98.210938 99.859375 "/>
<path style=" stroke:none;fill-rule:nonzero;fill:rgb(21.568627%,64.313725%,43.529412%);fill-opacity:1;" d="M 98.210938 99.859375 C 98.578125 102.089844 98.894531 104.601562 98.996094 107.078125 C 99.292969 114.214844 103.464844 118.726562 109.757812 114.964844 C 110.378906 114.597656 110.992188 114.148438 111.589844 113.628906 C 109.910156 114.570312 107.917969 115.421875 106.410156 115.269531 C 103.234375 114.945312 100.851562 112.691406 100.671875 104.550781 C 100.628906 102.566406 101.011719 100.703125 101.617188 99.007812 C 100.375 99.347656 99.214844 99.636719 98.210938 99.859375 Z M 98.210938 99.859375 "/>
<path style=" stroke:none;fill-rule:nonzero;fill:rgb(77.647059%,93.333333%,85.882353%);fill-opacity:1;" d="M 126.691406 94.15625 C 128.640625 92.988281 129.816406 93.609375 129.816406 93.609375 C 129.816406 93.609375 125.816406 90.5625 121.523438 96.078125 C 117.234375 101.605469 110.882812 111.550781 107.289062 112.554688 C 107.1875 112.578125 107.085938 112.605469 106.992188 112.621094 C 108.515625 112.351562 112.015625 110.960938 116.765625 104.414062 C 122.1875 96.929688 124.375 94.113281 126.691406 94.15625 Z M 106.582031 112.683594 C 106.429688 112.691406 106.285156 112.691406 106.140625 112.671875 C 106.140625 112.671875 106.292969 112.699219 106.582031 112.683594 Z M 116.414062 100.964844 C 117.480469 99.441406 118.167969 98.351562 118.167969 98.351562 C 114.652344 101.628906 112.335938 98.472656 107.621094 97.007812 C 106.9375 97.277344 106.25 97.535156 105.566406 97.773438 C 106.699219 97.984375 107.882812 98.394531 109.058594 99.09375 C 112.414062 101.09375 114.773438 101.527344 116.414062 100.964844 Z M 116.414062 100.964844 "/>
<path style=" stroke:none;fill-rule:nonzero;fill:rgb(77.647059%,93.333333%,85.882353%);fill-opacity:1;" d="M 110.488281 117.824219 C 113.171875 118.0625 115.402344 118.496094 122.699219 117.550781 C 130.003906 116.605469 134.753906 114.496094 134.753906 114.496094 C 134.753906 114.496094 133.265625 114.292969 132.328125 114.011719 C 131.402344 113.730469 131.402344 113.730469 131.402344 113.730469 C 131.402344 113.730469 137.503906 112.265625 143.097656 106.246094 C 145.441406 103.726562 147.304688 100.164062 148.683594 96.878906 C 148.054688 96.640625 147.46875 96.300781 146.957031 95.839844 C 142.871094 92.164062 148.667969 89.753906 145.570312 90.214844 C 144.011719 90.441406 142.46875 90.085938 141.371094 88.9375 C 139.445312 90.222656 137.523438 91.355469 135.921875 91.949219 C 130.371094 94.027344 124.957031 98.34375 123.804688 106.269531 C 123.855469 103.332031 124.257812 101.042969 124.957031 98.34375 C 124.214844 99.355469 123.507812 100.53125 122.914062 101.484375 C 121.542969 103.664062 120.203125 105.863281 118.75 107.992188 C 116.671875 111.011719 113.691406 114.707031 110.523438 116.640625 C 110.523438 117.117188 110.507812 117.375 110.488281 117.824219 Z M 110.488281 117.824219 "/>
<path style=" stroke:none;fill-rule:nonzero;fill:rgb(61.568627%,87.45098%,74.901961%);fill-opacity:1;" d="M 110.488281 117.824219 C 113.171875 118.0625 115.402344 118.496094 122.699219 117.550781 C 130.003906 116.605469 134.753906 114.496094 134.753906 114.496094 C 134.753906 114.496094 133.265625 114.292969 132.328125 114.011719 C 131.402344 113.730469 131.402344 113.730469 131.402344 113.730469 C 131.402344 113.730469 137.503906 112.265625 143.097656 106.246094 C 145.441406 103.726562 147.304688 100.164062 148.683594 96.878906 C 148.054688 96.640625 147.46875 96.300781 146.957031 95.839844 C 146.523438 95.449219 146.199219 95.074219 145.96875 94.707031 C 145.882812 95.195312 145.824219 95.492188 145.824219 95.492188 C 145.824219 95.492188 137.914062 109.660156 126.4375 111.328125 C 121.335938 112.078125 119.21875 110.46875 118.433594 108.449219 C 116.382812 111.378906 113.539062 114.800781 110.523438 116.640625 C 110.523438 117.117188 110.507812 117.375 110.488281 117.824219 Z M 146.214844 90.9375 C 146.546875 90.425781 146.726562 90.152344 146.140625 90.152344 C 146.171875 90.410156 146.207031 90.671875 146.214844 90.9375 Z M 146.214844 90.9375 "/>
<path style=" stroke:none;fill-rule:nonzero;fill:rgb(100%,100%,100%);fill-opacity:1;" d="M 142.09375 89.539062 C 141.890625 89.414062 141.695312 89.257812 141.515625 89.082031 C 141.464844 89.039062 141.414062 88.988281 141.371094 88.9375 C 139.445312 90.222656 137.523438 91.355469 135.921875 91.949219 C 131.453125 93.617188 127.066406 96.75 124.929688 102.046875 C 126.097656 100.363281 129.304688 96.121094 133.496094 94.402344 C 138.136719 92.496094 142.726562 90.730469 142.09375 89.539062 Z M 142.09375 89.539062 "/>
<path style=" stroke:none;fill-rule:nonzero;fill:rgb(0%,0%,0%);fill-opacity:1;" d="M 145.628906 90.707031 L 144.511719 90.867188 C 142.929688 91.105469 141.355469 90.730469 140.246094 89.515625 C 138.910156 88.058594 138.730469 85.914062 139.292969 84.082031 C 139.90625 82.066406 141.363281 80.414062 143.3125 79.613281 L 144.539062 79.109375 C 144.675781 78.921875 144.820312 78.742188 144.980469 78.574219 C 146.386719 77.109375 148.457031 76.699219 150.40625 76.980469 C 156.050781 77.816406 159.480469 82.839844 159.394531 88.332031 C 159.304688 94.460938 156.800781 97.707031 150.480469 97.96875 C 148.839844 98.039062 147.152344 97.613281 145.910156 96.496094 C 144.785156 95.492188 144.15625 93.949219 144.574219 92.460938 C 144.777344 91.746094 145.167969 91.175781 145.679688 90.742188 C 145.664062 90.730469 145.644531 90.714844 145.628906 90.707031 Z M 145.628906 90.707031 "/>
<path style=" stroke:none;fill-rule:nonzero;fill:rgb(77.647059%,93.333333%,85.882353%);fill-opacity:1;" d="M 150.125 78.941406 C 145.484375 78.257812 144.375 82.992188 147.304688 83.101562 C 148.558594 83.15625 150.78125 83.316406 152.21875 83.84375 C 154.296875 84.617188 153.207031 85.460938 151.539062 85.1875 C 149.867188 84.917969 145.902344 84.203125 145.816406 86.890625 C 145.730469 89.582031 148.558594 90.101562 150.652344 90.050781 C 154.414062 89.957031 153.078125 91.378906 150.78125 91.566406 C 149.988281 91.636719 149.085938 91.644531 148.320312 91.726562 C 145.058594 92.09375 146.164062 96.164062 150.394531 95.996094 C 155.605469 95.773438 157.34375 93.429688 157.421875 88.304688 C 157.488281 83.929688 154.890625 79.636719 150.125 78.941406 Z M 144.222656 88.910156 C 143.636719 87.417969 143.867188 85.707031 144.828125 84.421875 C 144.171875 83.65625 143.695312 82.421875 144.070312 81.433594 C 139.976562 83.121094 139.847656 89.566406 144.222656 88.910156 Z M 144.222656 88.910156 "/>
<path style=" stroke:none;fill-rule:nonzero;fill:rgb(61.568627%,87.45098%,74.901961%);fill-opacity:1;" d="M 145.902344 87.777344 C 146.402344 89.703125 148.8125 90.09375 150.652344 90.050781 C 154.414062 89.957031 153.078125 91.378906 150.78125 91.566406 C 149.988281 91.632812 149.085938 91.644531 148.320312 91.726562 C 145.058594 92.09375 146.164062 96.164062 150.394531 95.992188 C 154.183594 95.832031 156.136719 94.546875 156.953125 91.890625 C 156.527344 89.25 153.785156 88.167969 150.414062 87.667969 C 147.859375 87.273438 146.554688 87.503906 145.902344 87.777344 Z M 145.902344 87.777344 "/>
<path style=" stroke:none;fill-rule:nonzero;fill:rgb(100%,100%,100%);fill-opacity:1;" d="M 150.125 78.941406 C 147.527344 78.554688 146.035156 79.867188 145.738281 81.121094 C 148.378906 79.542969 152.976562 80.191406 155.785156 82.53125 C 154.550781 80.675781 152.636719 79.3125 150.125 78.941406 Z M 141.34375 87.667969 C 141.355469 86.867188 141.558594 85.835938 142.289062 84.867188 C 142.988281 83.929688 143.660156 83.511719 144.171875 83.324219 C 143.925781 82.710938 143.847656 82.03125 144.070312 81.433594 C 141.328125 82.566406 140.367188 85.828125 141.34375 87.667969 Z M 141.34375 87.667969 "/>
<path style=" stroke:none;fill-rule:nonzero;fill:rgb(0%,58.431373%,29.803922%);fill-opacity:1;" d="M 106.046875 129.523438 C 106.828125 127.34375 108.523438 122.863281 108.667969 117.535156 C 106.667969 118.292969 104.511719 118.453125 102.46875 117.492188 C 98.671875 115.695312 97.316406 111.03125 97.164062 107.15625 C 97.148438 106.882812 97.140625 106.601562 97.121094 106.332031 C 95.980469 108.125 94.210938 109.480469 92.117188 110.09375 C 91.398438 113.347656 89.035156 122.679688 83.253906 131.449219 L 83.226562 131.488281 C 93.265625 131.636719 101.539062 130.390625 106.046875 129.523438 Z M 91.164062 110.304688 C 90.667969 110.390625 90.164062 110.441406 89.65625 110.441406 C 88.15625 110.441406 86.726562 110.058594 85.464844 109.386719 C 85.679688 109.984375 85.875 110.585938 86.035156 111.183594 C 86.667969 113.449219 86.25 116.019531 84.539062 117.722656 C 82.46875 119.765625 79.558594 119.613281 77.078125 118.445312 C 76.527344 118.191406 75.972656 117.953125 75.402344 117.722656 C 75.410156 118.941406 75.445312 120.15625 75.445312 121.375 C 75.4375 123.417969 75.367188 125.460938 75.164062 127.488281 C 75.042969 128.644531 74.867188 129.847656 74.617188 131.03125 C 76.925781 131.25 79.191406 131.386719 81.371094 131.449219 C 82.972656 129.558594 86.375 124.855469 89.203125 116.640625 C 90.0625 114.136719 90.695312 112.042969 91.164062 110.304688 Z M 91.164062 110.304688 "/>
<path style=" stroke:none;fill-rule:nonzero;fill:rgb(0%,47.45098%,23.921569%);fill-opacity:1;" d="M 108.539062 119.5625 C 108.597656 118.90625 108.640625 118.226562 108.667969 117.535156 C 106.667969 118.292969 104.511719 118.453125 102.46875 117.492188 C 98.671875 115.695312 97.316406 111.03125 97.164062 107.15625 C 97.148438 106.882812 97.140625 106.601562 97.121094 106.332031 C 95.980469 108.125 94.210938 109.480469 92.117188 110.09375 C 91.972656 110.75 91.757812 111.652344 91.46875 112.742188 C 91.527344 112.722656 91.578125 112.707031 91.640625 112.691406 C 95.648438 111.269531 97.222656 108.125 97.222656 108.125 C 97.8125 114.914062 100.289062 125.121094 108.539062 119.5625 Z M 75.445312 121.1875 C 77.582031 122.234375 80.015625 122.90625 81.796875 121.886719 C 82.960938 121.214844 83.5 119.910156 83.679688 118.421875 C 81.703125 119.707031 79.226562 119.460938 77.078125 118.445312 C 76.527344 118.191406 75.972656 117.953125 75.402344 117.722656 C 75.410156 118.878906 75.445312 120.03125 75.445312 121.1875 Z M 86.257812 112.273438 C 87.535156 112.765625 88.992188 113.117188 90.394531 112.960938 C 90.695312 112 90.941406 111.113281 91.164062 110.304688 C 90.667969 110.390625 90.164062 110.441406 89.65625 110.441406 C 88.15625 110.441406 86.726562 110.058594 85.464844 109.386719 C 85.679688 109.984375 85.875 110.585938 86.035156 111.183594 C 86.140625 111.542969 86.207031 111.90625 86.257812 112.273438 Z M 86.257812 112.273438 "/>
<path style=" stroke:none;fill-rule:nonzero;fill:rgb(41.960784%,74.901961%,58.823529%);fill-opacity:1;" d="M 105.960938 132.765625 C 105.875 132.308594 105.738281 131.601562 105.671875 131.082031 C 94.617188 134.003906 80.425781 133.277344 74.175781 132.757812 C 73.902344 133.660156 73.570312 134.546875 73.152344 135.363281 C 72.976562 135.722656 72.777344 136.0625 72.566406 136.402344 C 75.683594 137.800781 78.773438 138.90625 82.265625 139.511719 L 83.125 139.65625 L 84.070312 139.773438 C 85.542969 139.945312 87.03125 140.03125 88.515625 140.023438 C 93.222656 140.003906 97.191406 138.957031 101.148438 136.402344 C 102.84375 135.3125 104.394531 134.035156 105.960938 132.765625 Z M 105.960938 132.765625 "/>
<path style=" stroke:none;fill-rule:nonzero;fill:rgb(77.647059%,93.333333%,85.882353%);fill-opacity:1;" d="M 105.960938 132.765625 C 105.875 132.308594 105.738281 131.601562 105.671875 131.082031 C 94.617188 134.003906 80.425781 133.277344 74.175781 132.757812 C 74.175781 132.757812 80.886719 134.359375 90.472656 134.15625 C 100.066406 133.949219 104.386719 132.683594 104.386719 132.683594 L 104.640625 133.832031 C 105.082031 133.484375 105.515625 133.125 105.960938 132.765625 Z M 105.960938 132.765625 "/>
<path style=" stroke:none;fill-rule:nonzero;fill:rgb(0%,58.431373%,29.803922%);fill-opacity:1;" d="M 54.761719 132.742188 C 63.644531 131.675781 69.757812 139.203125 81.949219 141.316406 C 82.332031 141.996094 83.054688 143.050781 84.359375 144.6875 C 85.195312 145.726562 86.257812 146.832031 87.304688 147.855469 C 86.949219 147.734375 86.574219 147.597656 86.171875 147.445312 C 80.707031 145.386719 74.492188 141.5625 68.113281 138.121094 C 61.726562 134.691406 55.46875 137.09375 55.46875 137.09375 C 55.46875 137.09375 62.578125 136.742188 66.640625 139.449219 C 70.703125 142.148438 74.492188 143.683594 74.492188 143.683594 C 74.492188 143.683594 60.289062 143.445312 55.46875 156.097656 C 52.8125 163.0625 50.140625 166.507812 48.273438 168.203125 C 48.265625 165.035156 47.824219 161.929688 46.519531 159.679688 C 40.757812 149.675781 39.753906 134.539062 54.761719 132.742188 Z M 83.847656 141.597656 C 85.320312 141.765625 86.871094 141.867188 88.523438 141.859375 C 105.347656 141.800781 107.289062 128.917969 119.644531 128.332031 C 131.996094 127.742188 136.875 138.386719 133.351562 152.15625 C 131.578125 159.042969 131.09375 163.785156 131.050781 166.800781 C 122.308594 159.570312 124.667969 151.234375 120.9375 145.597656 C 116.585938 139.007812 108.667969 140.566406 108.667969 140.566406 C 108.667969 140.566406 111.027344 138.445312 114.585938 135.628906 C 118.144531 132.800781 123.226562 132.179688 123.226562 132.179688 C 123.226562 132.179688 119.402344 131.449219 115.292969 133.269531 C 111.171875 135.101562 100.050781 145.035156 96.585938 146.796875 C 94.660156 147.777344 93.359375 148.5 91.648438 148.605469 C 87.628906 146.347656 84.929688 143.0625 83.847656 141.597656 Z M 83.847656 141.597656 "/>
<path style=" stroke:none;fill-rule:nonzero;fill:rgb(0%,47.45098%,23.921569%);fill-opacity:1;" d="M 59.089844 150.179688 C 57.648438 151.746094 56.390625 153.6875 55.46875 156.097656 C 52.8125 163.0625 50.140625 166.507812 48.277344 168.203125 C 48.265625 165.035156 47.824219 161.929688 46.523438 159.679688 C 42.953125 153.484375 41.207031 145.300781 43.976562 139.554688 C 44 142.5 44.527344 145.8125 46.34375 148.253906 C 51.765625 155.578125 51.410156 160.285156 54.21875 155.796875 C 55.316406 154.042969 56.976562 151.820312 59.089844 150.179688 Z M 123.398438 152.546875 C 124.042969 154.359375 124.820312 156.292969 125.664062 157.355469 C 127.5625 159.765625 128.046875 151.796875 130.839844 148.253906 C 132.457031 146.195312 133.691406 143.34375 134.210938 140.363281 C 134.730469 143.820312 134.457031 147.828125 133.351562 152.15625 C 131.578125 159.042969 131.09375 163.785156 131.050781 166.800781 C 125.449219 162.167969 124.402344 157.085938 123.398438 152.546875 Z M 123.398438 152.546875 "/>
<path style=" stroke:none;fill-rule:nonzero;fill:rgb(41.960784%,74.901961%,58.823529%);fill-opacity:1;" d="M 54.761719 132.742188 C 63.644531 131.675781 69.757812 139.203125 81.949219 141.316406 C 82.171875 141.714844 82.511719 142.226562 83.003906 142.917969 C 74.464844 141.535156 66.84375 136.121094 58.296875 134.171875 C 52.6875 132.894531 48.472656 134.828125 45.839844 136.804688 C 47.773438 134.707031 50.675781 133.234375 54.761719 132.742188 Z M 57.191406 137.09375 C 59.546875 137.167969 63.832031 137.570312 66.640625 139.449219 C 70.703125 142.148438 74.492188 143.683594 74.492188 143.683594 C 74.492188 143.683594 73.46875 143.664062 71.867188 143.886719 C 70.394531 143.28125 68.285156 142.269531 66.710938 140.890625 C 64.035156 138.539062 57.207031 137.101562 57.191406 137.09375 Z M 110.832031 140.40625 C 112.6875 138.726562 114.269531 137.210938 115.300781 136.179688 C 116.636719 134.84375 117.640625 134.011719 118.375 133.492188 C 117.097656 134.003906 115.761719 134.691406 114.585938 135.628906 C 111.027344 138.445312 108.667969 140.566406 108.667969 140.566406 C 108.667969 140.566406 109.519531 140.394531 110.832031 140.40625 Z M 85.109375 143.164062 C 86.019531 143.230469 86.949219 143.257812 87.882812 143.214844 C 98.492188 142.738281 102.316406 140.78125 107.839844 135.203125 C 113.367188 129.625 122.851562 126.925781 130.839844 132.519531 C 128.34375 129.667969 124.597656 128.09375 119.644531 128.332031 C 107.289062 128.917969 105.347656 141.800781 88.523438 141.859375 C 86.871094 141.871094 85.320312 141.765625 83.847656 141.597656 C 84.144531 141.996094 84.570312 142.542969 85.109375 143.164062 Z M 85.109375 143.164062 "/>
<path style=" stroke:none;fill-rule:nonzero;fill:rgb(77.647059%,93.333333%,85.882353%);fill-opacity:1;" d="M 121.667969 154.683594 C 121.667969 154.683594 120.902344 146.152344 115.726562 143.683594 C 110.550781 141.214844 104.90625 143.476562 101.320312 146.332031 C 97.726562 149.183594 88.316406 155.449219 83.550781 155.859375 C 78.789062 156.277344 77.785156 154.980469 76.226562 155.210938 C 74.652344 155.449219 73.921875 157.023438 74.429688 158.445312 C 74.429688 158.445312 75.921875 157.902344 77.402344 158.609375 C 78.894531 159.316406 79.523438 159.980469 78.816406 159.902344 C 78.109375 159.835938 75.613281 158.828125 74.253906 159.511719 C 72.6875 160.285156 73.648438 163.078125 74.875 163.546875 C 74.875 163.546875 75.554688 162.40625 77.886719 163.0625 C 80.230469 163.726562 79.402344 164.269531 78.550781 164.082031 C 77.699219 163.886719 75.613281 163.785156 75.351562 165.257812 C 75.078125 166.730469 76.023438 167.847656 79.140625 168.203125 C 82.257812 168.5625 86.785156 168.476562 98.3125 163.707031 C 109.84375 158.949219 111.671875 159.945312 121.667969 154.683594 Z M 121.667969 154.683594 "/>
<path style=" stroke:none;fill-rule:nonzero;fill:rgb(61.568627%,87.45098%,74.901961%);fill-opacity:1;" d="M 121.667969 154.683594 C 121.667969 154.683594 121.191406 149.3125 118.40625 145.863281 C 118.09375 147.769531 116.765625 150.894531 110.949219 154.640625 C 101.789062 160.550781 82.921875 166.757812 79.746094 166.109375 C 77.820312 165.71875 77.429688 164.703125 77.410156 163.972656 C 76.519531 163.988281 75.523438 164.269531 75.351562 165.257812 C 75.078125 166.730469 76.023438 167.847656 79.140625 168.203125 C 82.257812 168.5625 86.785156 168.476562 98.3125 163.707031 C 109.84375 158.949219 111.671875 159.945312 121.667969 154.683594 Z M 75.265625 155.578125 C 74.378906 156.183594 74.039062 157.355469 74.429688 158.445312 C 74.429688 158.445312 75.15625 158.183594 76.089844 158.257812 C 75.84375 157.96875 75.554688 157.476562 75.359375 156.667969 C 75.265625 156.277344 75.242188 155.910156 75.265625 155.578125 Z M 76.039062 159.304688 C 75.386719 159.238281 74.746094 159.265625 74.253906 159.511719 C 72.6875 160.285156 73.648438 163.078125 74.875 163.546875 C 74.875 163.546875 75.425781 162.617188 77.242188 162.917969 C 76.757812 162.558594 75.878906 161.75 75.878906 160.542969 C 75.878906 159.988281 75.945312 159.585938 76.039062 159.304688 Z M 76.039062 159.304688 "/>
<path style=" stroke:none;fill-rule:nonzero;fill:rgb(77.647059%,93.333333%,85.882353%);fill-opacity:1;" d="M 91.152344 150.886719 C 88.710938 150.289062 81.871094 148.519531 78.230469 146.355469 C 73.742188 143.707031 63.457031 147.0625 59.464844 152.765625 C 57.214844 155.976562 56.695312 158.054688 56.101562 159.945312 C 59.378906 160.90625 64.546875 161.988281 71.765625 162.21875 C 71.433594 160.898438 71.621094 159.46875 72.542969 158.515625 C 72.011719 156.15625 73.445312 153.78125 75.957031 153.398438 C 76.253906 153.355469 76.550781 153.335938 76.847656 153.355469 C 77.734375 153.398438 78.570312 153.710938 79.429688 153.882812 C 80.742188 154.15625 82.070312 154.148438 83.398438 154.027344 C 85.3125 153.867188 88.226562 152.539062 91.152344 150.886719 Z M 91.152344 150.886719 "/>
<path style=" stroke:none;fill-rule:nonzero;fill:rgb(61.568627%,87.45098%,74.901961%);fill-opacity:1;" d="M 67 147.0625 C 63.976562 148.367188 61.15625 150.359375 59.464844 152.765625 C 57.214844 155.976562 56.695312 158.054688 56.101562 159.945312 C 59.378906 160.90625 64.546875 161.988281 71.765625 162.21875 C 71.519531 161.246094 71.5625 160.21875 71.960938 159.359375 C 69.09375 158.804688 66.65625 157.816406 65.746094 156.105469 C 63.898438 152.632812 65.628906 149.070312 67 147.0625 Z M 67 147.0625 "/>
<path style=" stroke:none;fill-rule:nonzero;fill:rgb(61.568627%,87.45098%,74.901961%);fill-opacity:1;" d="M 102.878906 163.886719 C 103.710938 164.058594 104.425781 164.261719 104.921875 164.515625 C 106.886719 165.539062 108.320312 165.855469 109.296875 165.675781 C 110.269531 165.488281 111.144531 164.679688 110.796875 163.648438 C 110.796875 163.648438 109.757812 163.988281 108.496094 163.683594 C 107.226562 163.375 106.488281 162.925781 106.835938 162.5 C 106.683594 162.550781 106.523438 162.601562 106.367188 162.652344 C 105.195312 163.042969 104.035156 163.453125 102.878906 163.886719 Z M 107.085938 162.414062 C 107.933594 162.390625 110.550781 163.367188 112.167969 162.167969 C 112.78125 161.714844 112.957031 161.128906 112.925781 160.542969 C 112.523438 160.675781 112.125 160.8125 111.722656 160.941406 C 110.183594 161.445312 108.632812 161.910156 107.085938 162.414062 Z M 107.085938 162.414062 "/>
<path style=" stroke:none;fill-rule:nonzero;fill:rgb(21.568627%,64.313725%,43.529412%);fill-opacity:1;" d="M 23.992188 163.128906 C 23.992188 163.128906 33.851562 153.855469 38.226562 143.5625 C 42.121094 134.417969 46.726562 123.570312 52.21875 118.949219 C 51.578125 123.007812 51.398438 127.328125 52.125 131.335938 C 38.269531 134.5625 38.730469 149.828125 44.9375 160.601562 C 45.097656 160.882812 45.242188 161.179688 45.371094 161.496094 C 39.234375 163.410156 30.746094 165.15625 23.992188 163.128906 Z M 23.992188 163.128906 "/>
<path style=" stroke:none;fill-rule:nonzero;fill:rgb(19.607843%,58.039216%,39.215686%);fill-opacity:1;" d="M 48.140625 123.640625 C 49.441406 121.75 50.804688 120.140625 52.21875 118.949219 C 51.578125 123.007812 51.398438 127.328125 52.125 131.335938 C 49.75 131.890625 47.789062 132.800781 46.214844 133.984375 C 46.699219 130.078125 47.289062 126.628906 48.140625 123.640625 Z M 43.023438 156.691406 C 43.574219 158.039062 44.214844 159.347656 44.9375 160.601562 C 45.097656 160.882812 45.242188 161.179688 45.371094 161.496094 C 43.863281 161.964844 42.203125 162.429688 40.476562 162.824219 C 41.402344 161.058594 42.289062 159.027344 43.023438 156.691406 Z M 43.023438 156.691406 "/>
<path style=" stroke:none;fill-rule:nonzero;fill:rgb(21.568627%,64.313725%,43.529412%);fill-opacity:1;" d="M 136.195312 141.539062 C 139.964844 141.605469 142.289062 142.628906 142.289062 142.628906 C 142.289062 142.628906 145.203125 124.183594 141.507812 109.660156 C 140.578125 110.441406 139.609375 111.167969 138.605469 111.832031 C 136.773438 113.03125 135.148438 113.398438 139.285156 113.976562 C 136.773438 115.089844 134.492188 116.171875 131.851562 116.980469 C 128.929688 117.875 125.898438 118.515625 122.878906 118.90625 C 120.382812 119.230469 117.835938 119.492188 115.324219 119.5 C 113.691406 119.511719 112.046875 119.355469 110.414062 119.195312 C 110.105469 123.035156 109.101562 126.476562 107.765625 130.144531 L 107.492188 130.894531 C 107.527344 131.082031 107.550781 131.277344 107.585938 131.472656 C 108.453125 130.800781 109.339844 130.144531 110.277344 129.546875 C 113.164062 127.699219 116.109375 126.664062 119.558594 126.5 C 123.855469 126.296875 128.082031 127.335938 131.28125 130.339844 C 134.414062 133.285156 135.835938 137.3125 136.195312 141.539062 Z M 136.195312 141.539062 "/>
<path style=" stroke:none;fill-rule:nonzero;fill:rgb(19.607843%,58.039216%,39.215686%);fill-opacity:1;" d="M 125.058594 118.582031 C 124.335938 118.703125 123.601562 118.8125 122.878906 118.90625 C 120.382812 119.230469 117.835938 119.492188 115.324219 119.5 C 113.691406 119.511719 112.046875 119.355469 110.414062 119.195312 C 110.105469 123.035156 109.101562 126.476562 107.765625 130.144531 L 107.492188 130.894531 C 107.527344 131.082031 107.550781 131.277344 107.585938 131.472656 C 108.453125 130.800781 109.339844 130.144531 110.277344 129.550781 C 113.164062 127.703125 116.109375 126.664062 119.558594 126.5 C 121.644531 126.398438 123.710938 126.59375 125.664062 127.164062 C 125.621094 123.777344 125.398438 120.949219 125.058594 118.582031 Z M 125.058594 118.582031 "/>
<path style=" stroke:none;fill-rule:nonzero;fill:rgb(0%,0%,0%);fill-opacity:1;" d="M 80.015625 89.175781 C 79.351562 89.972656 82.207031 91.183594 83.285156 91.328125 C 84.375 91.472656 84.996094 89.703125 85.773438 88.65625 C 87.59375 86.183594 81.4375 87.460938 80.015625 89.175781 Z M 80.015625 89.175781 "/>
<path style=" stroke:none;fill-rule:nonzero;fill:rgb(0%,0%,0%);fill-opacity:1;" d="M 83.773438 94.144531 C 85.132812 94.1875 87.039062 93.804688 88.820312 91.335938 C 91.136719 88.09375 94.167969 88.695312 94.875 89.308594 C 95.582031 89.914062 94.890625 90.296875 93.886719 89.992188 C 92.890625 89.683594 91.1875 90.042969 89.636719 92.09375 C 88.097656 94.144531 86.707031 94.886719 84.859375 94.945312 C 84.121094 94.972656 83.667969 94.851562 83.421875 94.699219 C 82.628906 94.214844 83.414062 94.128906 83.773438 94.144531 Z M 83.773438 94.144531 "/>
</g>
</svg>
