<?xml version="1.0" encoding="UTF-8"?>
<svg xmlns="http://www.w3.org/2000/svg" xmlns:xlink="http://www.w3.org/1999/xlink" width="200px" height="px" viewBox="0 0 200 204" version="1.1">
<g id="surface1">
<path style=" stroke:none;fill-rule:nonzero;fill:rgb(0%,0%,0%);fill-opacity:1;" d="M 92.90625 146.40625 C 91.960938 142.367188 89.355469 140.453125 85.273438 139.128906 C 83.496094 138.558594 81.796875 138.445312 79.960938 138.25 C 76.265625 140.097656 72.574219 141.992188 69.039062 144.109375 C 63.535156 147.40625 60.371094 150.113281 56.199219 154.816406 C 55.085938 149.132812 55.691406 144.484375 58.453125 138.308594 C 63.023438 128.082031 70.820312 123.316406 81.492188 120.488281 C 85.054688 119.539062 89.039062 118.3125 92.304688 116.558594 C 92.949219 116.214844 94.332031 115.421875 94.820312 114.832031 C 95.976562 113.273438 95.566406 111.480469 94.644531 107.476562 L 94.15625 107.476562 C 88.328125 107.46875 83.015625 108.320312 78.238281 111.832031 C 75.113281 114.136719 72.421875 117.320312 69.8125 120.175781 C 68.125 122.03125 66.414062 123.851562 64.609375 125.589844 C 62.429688 127.6875 60.144531 129.660156 57.742188 131.5 C 54.234375 134.179688 49.890625 135.886719 45.542969 136.570312 C 40.671875 137.328125 35.488281 136.835938 31.042969 134.640625 C 27.320312 132.8125 24.441406 129.941406 22.574219 126.246094 C 22.3125 125.734375 22.070312 125.214844 21.835938 124.6875 C 20.230469 121.019531 19.207031 116.980469 18.574219 113.03125 C 18.160156 110.457031 17.976562 108.105469 17.867188 105.515625 C 22.039062 106.019531 24.820312 106.183594 28.710938 104.007812 C 31.265625 102.578125 33.464844 100.558594 35.894531 98.929688 C 42.195312 94.714844 45.4375 95.929688 52.195312 97.332031 C 48.367188 98.402344 46.601562 102.976562 45.859375 109.128906 C 45.28125 113.933594 46.132812 118.164062 50.996094 120.15625 C 51.832031 119.21875 52.65625 118.285156 53.476562 117.363281 C 56.289062 114.214844 59.128906 111.144531 62.28125 108.320312 C 65.90625 105.074219 69.824219 102.261719 74.160156 100.027344 C 79.675781 97.191406 86.574219 96.941406 92.664062 97.617188 C 92.597656 96.96875 92.546875 96.320312 92.492188 95.683594 C 92.253906 92.328125 92.179688 88.808594 92.285156 85.4375 L 92.605469 80.144531 C 94.050781 83.378906 93.800781 83.457031 94.289062 79.4375 C 94.53125 77.496094 94.785156 75.5625 95.105469 73.632812 C 95.253906 72.710938 95.421875 71.796875 95.605469 70.878906 C 97.589844 60.953125 97.902344 65.628906 97.902344 59.070312 C 97.804688 57.09375 98.484375 55.109375 100.039062 54.207031 L 100.253906 53.316406 C 100.5 52.277344 101.035156 51.121094 101.730469 50.316406 C 102.566406 49.355469 103.691406 48.824219 104.953125 48.925781 L 105.566406 48.402344 C 106.582031 47.519531 108.113281 47.03125 109.433594 47.40625 C 111.496094 47.984375 112.101562 50.511719 112.011719 52.425781 C 112.695312 52.679688 113.289062 53.101562 113.722656 53.707031 C 114.5625 54.875 114.601562 56.382812 114.160156 57.707031 C 113.679688 59.167969 112.648438 60.414062 111.398438 61.296875 C 110.988281 61.582031 110.109375 66.5625 110 67.339844 C 109.785156 68.867188 109.628906 70.414062 109.523438 71.964844 C 109.804688 71.800781 110.085938 71.644531 110.378906 71.511719 C 110.730469 71.335938 111.085938 71.164062 111.445312 71.011719 C 113.664062 70.015625 116.183594 69.140625 118.542969 68.515625 L 123.136719 67.308594 C 124.335938 66.757812 125.558594 66.261719 126.804688 65.828125 C 128.59375 65.21875 130.585938 64.589844 132.609375 64.09375 L 133.59375 62.757812 C 136.5625 58.738281 140.597656 54.863281 145.175781 52.726562 C 146.613281 52.058594 148.320312 51.464844 149.914062 51.386719 C 151.296875 51.324219 152.824219 51.679688 153.488281 53.019531 C 153.757812 53.570312 153.894531 54.152344 153.847656 54.765625 C 153.757812 56.113281 152.773438 57.277344 152.050781 58.367188 C 151.003906 59.945312 150.332031 61.472656 149.894531 63.320312 C 149.179688 66.359375 148.054688 69.355469 146.511719 72.074219 C 145.925781 73.105469 145.164062 74.320312 144.375 75.222656 L 143.496094 76.222656 C 143.5625 76.367188 143.621094 76.507812 143.679688 76.652344 C 144.070312 77.585938 144.480469 78.507812 144.890625 79.429688 C 145.929688 81.761719 146.984375 84.082031 147.988281 86.425781 C 148.800781 88.3125 149.589844 90.230469 150.292969 92.164062 C 150.878906 93.773438 151.453125 95.496094 151.769531 97.183594 C 152.128906 99.09375 151.886719 100.980469 151.09375 102.753906 C 150.011719 105.167969 147.882812 107.273438 145.4375 108.6875 C 145.886719 109.6875 145.695312 110.863281 144.679688 111.773438 C 144.796875 111.941406 144.894531 112.128906 144.96875 112.3125 C 145.261719 113.058594 145.195312 113.804688 144.910156 114.488281 L 145.050781 115.078125 C 145.9375 118.628906 146.367188 122.214844 145.957031 125.871094 C 145.878906 126.539062 145.773438 127.1875 145.652344 127.832031 C 146.414062 127.875 147.175781 127.84375 147.921875 127.726562 C 148.933594 127.578125 149.96875 127.390625 150.945312 127.101562 C 151.015625 127.082031 151.085938 127.0625 151.164062 127.039062 C 150.734375 126.175781 150.46875 125.238281 150.398438 124.246094 C 150.292969 122.933594 150.554688 121.746094 151.28125 120.640625 C 153.378906 117.5 157.605469 118.472656 156.355469 122.285156 C 156.835938 122.121094 157.421875 121.933594 157.941406 121.6875 C 157.742188 121.527344 157.566406 121.332031 157.421875 121.105469 C 156.726562 119.988281 157.160156 118.628906 157.902344 117.664062 C 158.671875 116.675781 159.8125 115.96875 161.042969 115.734375 C 162.246094 115.511719 163.46875 115.734375 164.386719 116.570312 C 165.792969 117.851562 165.867188 119.890625 165.28125 121.585938 C 166.75 123.234375 165.851562 125.855469 164.835938 127.492188 L 164.785156 127.570312 C 165.089844 128.558594 164.949219 129.792969 164.246094 131.050781 C 162.804688 133.617188 157.878906 136.589844 155.363281 138.285156 C 154.265625 139.03125 152.957031 139.59375 151.71875 140.070312 C 151.589844 140.113281 151.464844 140.160156 151.335938 140.207031 L 147.101562 142.257812 C 146.464844 142.570312 145.722656 142.828125 144.960938 143.035156 C 146.074219 143.769531 147 144.765625 147.585938 146.09375 C 148.390625 147.90625 149.160156 149.738281 149.921875 151.570312 C 150.984375 154.125 152.023438 156.703125 153.046875 159.28125 C 155.457031 165.359375 150.664062 169.46875 145.046875 170.195312 C 146.0625 172.230469 147.304688 174.144531 148.320312 176.191406 C 153.875 187.339844 149.640625 198.097656 141.59375 188.007812 C 140.730469 186.929688 139.8125 185.890625 138.917969 184.832031 C 137.84375 183.566406 136.789062 182.289062 135.8125 180.9375 C 134.707031 179.410156 133.671875 177.769531 132.929688 176.035156 C 132.589844 175.242188 132.304688 174.425781 132.117188 173.59375 C 131.28125 173.839844 130.449219 174.085938 129.617188 174.332031 C 122.121094 176.554688 119.941406 181.085938 110.449219 181.085938 C 110.066406 183.761719 109.640625 186.429688 109.160156 189.085938 C 108.683594 191.746094 107.78125 197.5 106.542969 199.804688 C 104.972656 202.714844 101.914062 203.371094 98.71875 200.84375 C 95.644531 198.414062 94.773438 193.34375 94.8125 189.753906 C 94.835938 186.890625 95.3125 183.941406 95.800781 181.117188 C 91.164062 180.441406 86.757812 178.410156 83.847656 174.652344 C 82.898438 173.425781 82.097656 171.976562 81.679688 170.46875 C 80.578125 166.503906 83.722656 163.164062 85.722656 160.082031 C 88.066406 156.464844 90.15625 152.652344 91.945312 148.746094 C 92.300781 147.976562 92.617188 147.199219 92.90625 146.40625 Z M 92.90625 146.40625 "/>
<path style=" stroke:none;fill-rule:nonzero;fill:rgb(30.588235%,19.607843%,73.72549%);fill-opacity:1;" d="M 57.007812 151.609375 C 57.007812 151.609375 56.03125 147.472656 59.84375 138.933594 C 63.667969 130.390625 69.988281 125.117188 81.882812 121.960938 C 93.777344 118.804688 96.035156 115.753906 96.035156 115.753906 C 96.035156 115.753906 94.019531 119.183594 96.523438 118.3125 C 99.039062 117.441406 104 112.792969 106.949219 107.839844 C 109.890625 102.890625 111.910156 99 111.910156 99 C 111.910156 99 112.96875 100.820312 113.652344 102.507812 C 114.335938 104.203125 114.585938 105.015625 114.585938 105.015625 C 114.585938 105.015625 115.371094 114.011719 102.117188 124.078125 C 88.863281 134.140625 67.15625 140.179688 57.007812 151.609375 Z M 57.007812 151.609375 "/>
<path style=" stroke:none;fill-rule:nonzero;fill:rgb(65.098039%,59.607843%,86.666667%);fill-opacity:1;" d="M 98.0625 117.511719 C 100.730469 115.785156 104.519531 111.917969 106.949219 107.839844 C 108.882812 104.59375 110.410156 101.792969 111.238281 100.261719 C 108.90625 111.84375 98.0625 117.511719 98.0625 117.511719 Z M 98.0625 117.511719 "/>
<path style=" stroke:none;fill-rule:nonzero;fill:rgb(22.352941%,14.509804%,53.72549%);fill-opacity:1;" d="M 111.5625 99.652344 C 111.792969 99.234375 111.910156 99 111.910156 99 C 111.910156 99 112.96875 100.820312 113.652344 102.507812 C 114.335938 104.203125 114.585938 105.015625 114.585938 105.015625 C 114.585938 105.015625 114.976562 109.539062 110.484375 115.765625 C 113.699219 108.34375 112.496094 102.398438 111.5625 99.652344 Z M 111.5625 99.652344 "/>
<path style=" stroke:none;fill-rule:nonzero;fill:rgb(65.098039%,59.607843%,86.666667%);fill-opacity:1;" d="M 57.007812 151.609375 C 57.007812 151.609375 56.03125 147.472656 59.84375 138.933594 C 63.667969 130.390625 69.988281 125.117188 81.882812 121.960938 C 93.777344 118.804688 96.035156 115.753906 96.035156 115.753906 C 91.960938 121.609375 78.628906 122.273438 69.839844 128.234375 C 59.316406 135.382812 57.007812 151.609375 57.007812 151.609375 Z M 57.007812 151.609375 "/>
<path style=" stroke:none;fill-rule:nonzero;fill:rgb(14.509804%,9.411765%,35.294118%);fill-opacity:1;" d="M 82.421875 136.980469 C 83.484375 137.089844 84.605469 137.308594 85.742188 137.679688 C 92.136719 139.746094 93.777344 144.316406 93.777344 144.316406 C 93.777344 144.316406 95.957031 136.226562 95.3125 130.292969 C 91.230469 132.621094 86.816406 134.796875 82.421875 136.980469 Z M 82.421875 136.980469 "/>
<path style=" stroke:none;fill-rule:nonzero;fill:rgb(65.098039%,59.607843%,86.666667%);fill-opacity:1;" d="M 96.71875 129.410156 C 96.71875 129.410156 97.75 139.746094 93.335938 149.375 C 88.925781 159.003906 83.953125 165.261719 83.953125 165.261719 C 83.953125 165.261719 87.828125 164.222656 94.207031 172.113281 C 100.59375 180.003906 114.226562 183.046875 125.25 174.125 C 136.265625 165.203125 142.644531 162.046875 146.679688 161.398438 C 150.71875 160.742188 152.519531 162.105469 152.519531 162.105469 C 152.519531 162.105469 148.757812 152.476562 146.191406 146.710938 C 143.628906 140.945312 132.773438 143.0625 132.773438 143.0625 C 132.773438 143.0625 134.519531 142.058594 136.316406 141.785156 C 138.121094 141.511719 139.480469 141.730469 139.480469 141.730469 C 139.480469 141.730469 137.597656 138.195312 137.820312 132.539062 C 137.984375 128.234375 138.6875 124.421875 138.632812 120.078125 C 138.632812 120.078125 135.230469 124 127.207031 121.332031 C 119.195312 118.667969 115.484375 107.242188 115.484375 107.242188 C 115.484375 107.242188 115.15625 119.316406 96.71875 129.410156 Z M 96.71875 129.410156 "/>
<path style=" stroke:none;fill-rule:nonzero;fill:rgb(52.54902%,48.235294%,70.196078%);fill-opacity:1;" d="M 108.082031 179.429688 C 113.640625 180.039062 119.765625 178.558594 125.25 174.125 C 129.910156 170.347656 133.746094 167.605469 136.921875 165.644531 C 137.839844 163.21875 138.492188 160.757812 138.640625 158.464844 C 139.285156 148.347656 134.042969 140.511719 126.773438 157.269531 C 121.460938 169.523438 115.796875 176.074219 108.082031 179.429688 Z M 108.082031 179.429688 "/>
<path style=" stroke:none;fill-rule:nonzero;fill:rgb(80%,75.686275%,95.686275%);fill-opacity:1;" d="M 150.957031 161.464844 C 152.019531 161.730469 152.519531 162.105469 152.519531 162.105469 C 152.519531 162.105469 148.757812 152.476562 146.191406 146.710938 C 144.039062 141.875 136.0625 142.582031 133.542969 142.941406 C 133.601562 142.941406 141.8125 142.441406 144.78125 146.386719 C 146.832031 149.113281 148.347656 156.894531 150.957031 161.464844 Z M 150.957031 161.464844 "/>
<path style=" stroke:none;fill-rule:nonzero;fill:rgb(52.54902%,48.235294%,70.196078%);fill-opacity:1;" d="M 96.71875 129.410156 C 96.71875 129.410156 97.007812 132.3125 96.621094 136.472656 C 97.957031 135.292969 99.273438 134.335938 100.535156 133.679688 C 113.574219 126.929688 115.660156 112.453125 115.660156 112.453125 C 115.660156 112.453125 119.695312 122.273438 127.222656 122.851562 C 129.355469 123.011719 131.050781 122.738281 132.382812 122.257812 C 130.9375 122.253906 129.21875 122 127.207031 121.332031 C 119.195312 118.667969 115.484375 107.242188 115.484375 107.242188 C 115.484375 107.242188 115.15625 119.316406 96.71875 129.410156 Z M 138.210938 137.730469 C 137.929688 136.316406 137.742188 134.5625 137.820312 132.539062 C 137.984375 128.234375 138.683594 124.421875 138.632812 120.078125 C 138.632812 120.078125 138.183594 120.597656 137.226562 121.128906 C 137.371094 122.835938 137.371094 125.390625 136.824219 128.734375 C 136.277344 132.050781 137.175781 135.304688 138.210938 137.730469 Z M 138.210938 137.730469 "/>
<path style=" stroke:none;fill-rule:nonzero;fill:rgb(14.509804%,9.411765%,35.294118%);fill-opacity:1;" d="M 83.140625 167.679688 C 82.070312 169.4375 85.007812 178.054688 96.109375 179.625 L 96.785156 176.15625 C 91.25 171.546875 85.320312 164.082031 83.140625 167.679688 Z M 129.179688 172.871094 C 130.117188 172.601562 131.003906 172.332031 131.835938 172.085938 C 131.816406 171.625 131.835938 171.171875 131.875 170.730469 C 130.964844 171.425781 130.066406 172.140625 129.179688 172.871094 Z M 144.917969 168.679688 C 144.960938 168.671875 145 168.664062 145.046875 168.660156 C 150.230469 168.007812 154.648438 162.976562 149.246094 162.566406 C 148.042969 162.476562 146.582031 162.730469 144.960938 163.261719 C 144.859375 163.925781 144.761719 164.679688 144.664062 165.503906 C 144.53125 166.671875 144.675781 167.761719 144.917969 168.679688 Z M 144.917969 168.679688 "/>
<path style=" stroke:none;fill-rule:nonzero;fill:rgb(93.333333%,91.764706%,100%);fill-opacity:1;" d="M 98.09375 177.191406 C 97.3125 181.046875 96.367188 186.390625 96.335938 189.765625 C 96.289062 194.554688 97.789062 198.859375 100.546875 200.207031 C 96.699219 195.667969 98.53125 189.332031 98.53125 189.332031 C 98.425781 191.535156 98.941406 199.714844 102.851562 200.589844 C 101.855469 198.273438 101.101562 194.339844 103.648438 189.273438 C 103.648438 189.273438 102.515625 193.980469 103.085938 197.558594 C 104.644531 207.3125 107.722656 189.34375 108.925781 180.9375 C 102.371094 180.625 98.101562 177.191406 98.09375 177.191406 Z M 98.09375 177.191406 "/>
<path style=" stroke:none;fill-rule:nonzero;fill:rgb(80%,75.686275%,95.686275%);fill-opacity:1;" d="M 98.09375 177.191406 C 97.871094 178.289062 97.636719 179.503906 97.417969 180.753906 C 98.71875 181.710938 100.066406 182.554688 101.230469 183 C 104.941406 184.417969 106.363281 184.828125 105.816406 188.890625 C 105.347656 192.390625 104.421875 198.402344 103.230469 198.339844 C 104.820312 206.277344 107.753906 189.105469 108.925781 180.9375 C 102.371094 180.625 98.101562 177.191406 98.09375 177.191406 Z M 97.527344 196.605469 C 98.238281 198.285156 99.253906 199.570312 100.546875 200.207031 C 99.785156 199.304688 99.246094 198.339844 98.875 197.363281 C 98.628906 197.390625 98.203125 197.183594 97.527344 196.605469 Z M 99.550781 196.707031 C 100.203125 198.625 101.238281 200.234375 102.851562 200.589844 C 102.617188 200.050781 102.402344 199.421875 102.234375 198.707031 C 101.519531 198.488281 100.425781 197.96875 99.550781 196.707031 Z M 99.550781 196.707031 "/>
<path style=" stroke:none;fill-rule:nonzero;fill:rgb(93.333333%,91.764706%,100%);fill-opacity:1;" d="M 142.988281 164.003906 C 142.683594 166.203125 142.636719 168.710938 143.503906 170.523438 C 145.410156 174.496094 148.300781 177.8125 149.507812 184.558594 C 149.53125 184.730469 149.566406 184.898438 149.585938 185.058594 C 148.367188 180.714844 146.453125 179.566406 146.453125 179.566406 C 147.671875 181.371094 151.542969 188.398438 148.300781 189.929688 C 148.855469 188.054688 148.589844 184.371094 143.613281 180.695312 C 148.71875 186.734375 148.691406 194.457031 142.785156 187.058594 C 139.40625 182.828125 132.148438 175.847656 133.515625 169.523438 C 133.589844 169.46875 139.246094 165.449219 142.988281 164.003906 Z M 142.988281 164.003906 "/>
<path style=" stroke:none;fill-rule:nonzero;fill:rgb(80%,75.686275%,95.686275%);fill-opacity:1;" d="M 142.988281 164.003906 C 142.878906 164.828125 142.792969 165.699219 142.789062 166.554688 C 140.738281 167.429688 138.476562 168.640625 136.960938 170.164062 C 133.542969 173.585938 141.84375 184.46875 144.433594 186.59375 C 145.945312 187.832031 146.902344 188.242188 147.265625 187.921875 C 147.667969 190.546875 146.226562 191.363281 142.785156 187.058594 C 139.40625 182.828125 132.148438 175.847656 133.515625 169.523438 C 133.589844 169.46875 139.246094 165.449219 142.988281 164.003906 Z M 148.972656 182.144531 C 149.175781 182.898438 149.351562 183.703125 149.507812 184.558594 C 149.53125 184.730469 149.566406 184.898438 149.585938 185.058594 C 149.304688 184.058594 148.992188 183.234375 148.664062 182.554688 C 148.757812 182.457031 148.867188 182.320312 148.972656 182.144531 Z M 149.429688 186.261719 C 149.746094 187.898438 149.566406 189.332031 148.300781 189.929688 C 148.554688 189.074219 148.632812 187.84375 148.179688 186.410156 C 148.484375 186.625 148.796875 186.714844 149.097656 186.59375 C 149.253906 186.519531 149.363281 186.410156 149.429688 186.261719 Z M 149.429688 186.261719 "/>
<path style=" stroke:none;fill-rule:nonzero;fill:rgb(30.588235%,19.607843%,73.72549%);fill-opacity:1;" d="M 139.976562 118.953125 C 139.976562 118.953125 140.027344 125.6875 139.539062 130.292969 C 139.042969 134.886719 139.324219 137.558594 139.976562 139.160156 C 140.625 140.765625 141.394531 142.019531 141.394531 142.019531 C 140.847656 132.351562 146.933594 128.941406 143.574219 115.441406 C 143.574219 115.441406 141.972656 117.15625 139.976562 118.953125 Z M 139.976562 118.953125 "/>
<path style=" stroke:none;fill-rule:nonzero;fill:rgb(65.098039%,59.607843%,86.666667%);fill-opacity:1;" d="M 143.269531 131.097656 C 144.441406 127.109375 145.390625 122.757812 143.574219 115.441406 C 143.574219 115.441406 143.242188 115.792969 142.703125 116.34375 C 143.523438 119.136719 144.550781 124.449219 143.269531 131.097656 Z M 143.269531 131.097656 "/>
<path style=" stroke:none;fill-rule:nonzero;fill:rgb(93.333333%,91.764706%,100%);fill-opacity:1;" d="M 145.191406 129.324219 C 146.03125 129.402344 147.03125 129.402344 148.152344 129.234375 C 151.484375 128.734375 152.519531 128.140625 152.519531 128.140625 C 152.519531 128.140625 152.996094 128.714844 153.746094 128.960938 C 154.492188 129.207031 154.917969 129.070312 154.917969 129.070312 C 154.917969 129.070312 152.164062 127.371094 151.921875 124.136719 C 151.824219 122.871094 152.167969 122.066406 152.558594 121.488281 C 153.589844 119.941406 155.945312 119.546875 154.722656 122.277344 C 154.429688 122.933594 154.207031 123.621094 154.917969 123.988281 C 156.363281 124.71875 157.234375 125.914062 157.234375 125.914062 C 157.324219 125.148438 156.519531 123.785156 156.363281 123.890625 C 157.976562 123.304688 160.007812 122.824219 160.664062 121.125 C 161.089844 121.011719 161.949219 120.226562 161.875 119.53125 C 161.589844 120.039062 160.484375 120.851562 159.335938 120.660156 C 157.695312 120.402344 158.996094 117.667969 161.324219 117.234375 C 163.660156 116.796875 164.6875 118.929688 163.769531 121.277344 C 163.769531 121.277344 161.832031 120.585938 160.195312 122.460938 C 158.5625 124.335938 158.492188 125.382812 158.679688 126.089844 C 158.875 126.796875 159.199219 126.894531 159.199219 126.894531 C 159.199219 126.894531 157.605469 127.832031 157.550781 129.207031 C 157.492188 130.578125 159.269531 131.011719 160.507812 130.335938 C 161.753906 129.65625 161.382812 128.90625 161.382812 128.90625 C 161.382812 128.90625 160.46875 129.816406 159.199219 129.816406 C 157.929688 129.816406 158.4375 127.640625 160.820312 127.121094 C 163.210938 126.609375 164.082031 128.214844 162.910156 130.304688 C 161.738281 132.402344 157.207031 135.207031 154.511719 137.023438 C 151.808594 138.847656 146.269531 140.128906 145.671875 140.453125 C 145.074219 140.777344 146.441406 140.886719 146.441406 140.886719 C 146.441406 140.886719 144.800781 141.679688 142.671875 141.941406 C 142.617188 141.074219 142.644531 139.796875 142.90625 137.992188 C 143.316406 135.179688 144.519531 131.34375 145.191406 129.324219 Z M 161.695312 122.648438 C 160.65625 123.519531 159.648438 124.796875 159.707031 125.53125 C 159.734375 125.921875 159.941406 126.285156 160.304688 126.433594 C 160.730469 126.292969 161.238281 126.167969 161.738281 126.140625 C 162.828125 125.460938 163.171875 124.414062 163.171875 124.414062 C 163.171875 124.414062 163.554688 125.160156 162.8125 126.273438 C 163.074219 126.355469 163.320312 126.492188 163.535156 126.6875 C 164.648438 124.910156 164.792969 123.292969 164.121094 122.570312 C 163.625 122.039062 162.449219 122.019531 161.695312 122.648438 Z M 161.695312 122.648438 "/>
<path style=" stroke:none;fill-rule:nonzero;fill:rgb(100%,100%,100%);fill-opacity:1;" d="M 151.90625 123.988281 C 151.847656 122.804688 152.1875 122.046875 152.558594 121.488281 C 153.457031 120.128906 155.378906 119.664062 155.019531 121.394531 C 154.851562 121.078125 154.40625 120.980469 153.507812 121.492188 C 152.785156 121.910156 152.253906 123.027344 151.90625 123.988281 Z M 158.769531 120.371094 C 158.140625 119.585938 159.371094 117.597656 161.324219 117.234375 C 162.878906 116.941406 163.855469 117.792969 164.0625 119.085938 C 163.59375 118.527344 162.726562 117.941406 161.28125 118.390625 C 160.167969 118.734375 159.335938 119.566406 158.769531 120.371094 Z M 160.351562 124.058594 C 161.515625 122.949219 162.910156 122.21875 164.40625 123.058594 C 164.34375 122.871094 164.246094 122.699219 164.121094 122.570312 C 163.628906 122.039062 162.449219 122.019531 161.695312 122.648438 C 161.207031 123.066406 160.722656 123.566406 160.351562 124.058594 Z M 160.351562 124.058594 "/>
<path style=" stroke:none;fill-rule:nonzero;fill:rgb(80%,75.686275%,95.686275%);fill-opacity:1;" d="M 160.671875 130.238281 C 161.71875 129.582031 161.382812 128.910156 161.382812 128.910156 C 161.382812 128.910156 160.46875 129.816406 159.199219 129.816406 C 159.175781 129.816406 159.148438 129.816406 159.117188 129.816406 C 159.089844 129.714844 159.097656 129.5625 159.160156 129.363281 C 159.550781 128.21875 162.359375 127.601562 163.425781 128.570312 C 163.429688 129.070312 163.269531 129.667969 162.910156 130.304688 C 161.738281 132.402344 157.207031 135.207031 154.511719 137.023438 C 151.808594 138.847656 146.269531 140.128906 145.671875 140.453125 C 145.074219 140.777344 146.441406 140.886719 146.441406 140.886719 C 146.441406 140.886719 144.800781 141.679688 142.671875 141.941406 C 142.617188 141.078125 142.644531 139.796875 142.90625 137.992188 C 142.925781 137.867188 142.945312 137.746094 142.964844 137.617188 C 144.898438 137.375 147.964844 136.777344 152.15625 135.277344 C 158 133.195312 160.027344 131.175781 160.671875 130.238281 Z M 160.421875 126.394531 C 161.023438 125.402344 162.871094 122.648438 164.519531 123.636719 C 164.570312 124.453125 164.257812 125.53125 163.535156 126.6875 C 163.320312 126.492188 163.074219 126.355469 162.8125 126.273438 C 163.554688 125.160156 163.171875 124.414062 163.171875 124.414062 C 163.171875 124.414062 162.828125 125.460938 161.738281 126.140625 C 161.28125 126.167969 160.820312 126.273438 160.421875 126.394531 Z M 160.421875 126.394531 "/>
<path style=" stroke:none;fill-rule:nonzero;fill:rgb(100%,100%,100%);fill-opacity:1;" d="M 145.191406 129.324219 C 146.03125 129.402344 147.03125 129.402344 148.152344 129.234375 C 151.484375 128.734375 152.519531 128.140625 152.519531 128.140625 C 152.519531 128.140625 152.519531 128.734375 148.964844 129.894531 C 147.554688 130.355469 146.070312 130.539062 144.78125 130.582031 C 144.929688 130.117188 145.066406 129.6875 145.191406 129.324219 Z M 145.191406 129.324219 "/>
<path style=" stroke:none;fill-rule:nonzero;fill:rgb(41.960784%,31.372549%,84.313725%);fill-opacity:1;" d="M 19.46875 107.242188 C 19.46875 107.242188 19.898438 117.566406 23.941406 125.5625 C 30.191406 137.941406 47.320312 137.542969 56.8125 130.292969 C 73.972656 117.175781 73.804688 105.9375 94.15625 105.949219 C 93.882812 104.6875 93.640625 103.457031 93.425781 102.292969 C 89.480469 101.675781 85.527344 101.496094 82.125 102.171875 C 69.316406 104.695312 56.894531 118.296875 56.894531 118.296875 C 56.894531 117.316406 67.058594 105.921875 79.605469 101.871094 C 83.296875 100.675781 88.199219 100.703125 93.28125 101.519531 C 93.132812 100.691406 93.003906 99.902344 92.878906 99.175781 C 86.511719 98.421875 79.929688 98.773438 74.859375 101.378906 C 56.894531 110.628906 50.410156 127.824219 40.171875 130.292969 C 29.921875 132.753906 25.71875 123.519531 25.71875 123.519531 C 25.71875 123.519531 30.351562 130.757812 38.101562 129.34375 C 45.839844 127.929688 49.878906 121.34375 49.878906 121.34375 C 39.714844 117.175781 45.566406 100.074219 49.117188 97.734375 C 34.9375 94.800781 33.484375 108.941406 19.46875 107.242188 Z M 19.46875 107.242188 "/>
<path style=" stroke:none;fill-rule:nonzero;fill:rgb(65.098039%,59.607843%,86.666667%);fill-opacity:1;" d="M 93.085938 100.402344 C 93.015625 99.980469 92.945312 99.566406 92.878906 99.175781 C 86.511719 98.421875 79.929688 98.773438 74.859375 101.378906 C 56.894531 110.628906 50.410156 127.824219 40.171875 130.292969 C 33.582031 131.875 29.488281 128.621094 27.410156 126.097656 C 27.410156 126.097656 30.144531 130.542969 35.523438 131.140625 C 43.730469 132.050781 49.234375 125.332031 54.296875 119.617188 C 61.914062 111.027344 74.109375 99 86.777344 99.800781 C 89.394531 99.96875 91.460938 100.175781 93.085938 100.402344 Z M 93.085938 100.402344 "/>
<path style=" stroke:none;fill-rule:nonzero;fill:rgb(65.098039%,59.607843%,86.666667%);fill-opacity:1;" d="M 49.394531 122.039062 C 49.714844 121.609375 49.878906 121.34375 49.878906 121.34375 C 39.714844 117.175781 45.566406 100.074219 49.117188 97.734375 C 43.210938 96.515625 39.511719 98.253906 36.191406 100.578125 C 37.59375 99.976562 39.042969 99.390625 40.234375 99 C 43.671875 97.878906 46.785156 98.273438 46.785156 98.273438 C 42.234375 105.695312 41.074219 119.746094 49.394531 122.039062 Z M 49.394531 122.039062 "/>
<path style=" stroke:none;fill-rule:nonzero;fill:rgb(30.588235%,19.607843%,73.72549%);fill-opacity:1;" d="M 25.972656 128.714844 C 33.339844 137.804688 48.210938 136.863281 56.8125 130.292969 C 73.972656 117.175781 73.804688 105.9375 94.15625 105.949219 C 93.882812 104.6875 93.640625 103.457031 93.425781 102.292969 C 90.828125 101.882812 88.222656 101.671875 85.777344 101.761719 C 65.742188 105.378906 55.242188 132.679688 37.535156 132.679688 C 33.0625 132.679688 29.179688 131.003906 25.972656 128.714844 Z M 25.972656 128.714844 "/>
<path style=" stroke:none;fill-rule:nonzero;fill:rgb(30.588235%,19.607843%,73.72549%);fill-opacity:1;" d="M 108.886719 74.203125 C 109.605469 73.683594 110.339844 73.222656 111.050781 72.875 C 114.589844 71.132812 118.933594 69.992188 118.933594 69.992188 C 118.933594 69.992188 117 71.269531 114.296875 74.042969 C 111.597656 76.820312 111.140625 79.183594 111.140625 79.183594 C 111.140625 79.183594 115.632812 71.296875 127.304688 67.269531 C 138.980469 63.246094 143.726562 64.609375 143.179688 66.398438 C 142.632812 68.199219 140.289062 71.515625 141.484375 75.210938 C 142.691406 78.910156 149.121094 91.371094 150.269531 97.460938 C 151.03125 101.496094 148.535156 104.839844 145.464844 106.871094 C 143.542969 107.996094 140.332031 108.351562 137.917969 108.449219 C 140.253906 107.488281 143.464844 105.851562 145.957031 103.390625 C 150.40625 99 147.1875 92.292969 145.210938 87.996094 C 143.230469 83.699219 138.757812 75.816406 139.578125 71.953125 C 140.398438 68.089844 142.691406 66.1875 137.285156 67.542969 C 131.890625 68.90625 122.007812 72.933594 114.589844 87.996094 C 113.523438 90.171875 112.683594 92.164062 112.03125 93.988281 C 111.519531 93.675781 111.03125 93.425781 110.59375 93.214844 C 111.246094 87.890625 113.582031 84.085938 113.582031 84.085938 C 111.882812 85.832031 110.75 87.886719 110.015625 90.003906 C 109.636719 87.621094 109.277344 84.679688 109.03125 81.132812 C 108.855469 78.621094 108.824219 76.296875 108.886719 74.203125 Z M 108.886719 74.203125 "/>
<path style=" stroke:none;fill-rule:nonzero;fill:rgb(22.352941%,14.509804%,53.72549%);fill-opacity:1;" d="M 147.5 105.226562 C 146.875 105.84375 146.1875 106.398438 145.464844 106.871094 C 143.535156 107.996094 140.332031 108.351562 137.917969 108.449219 C 140.253906 107.488281 143.464844 105.851562 145.957031 103.390625 C 150.40625 99 147.1875 92.292969 145.210938 87.996094 C 143.230469 83.699219 138.757812 75.816406 139.578125 71.953125 C 140.398438 68.089844 142.691406 66.1875 137.285156 67.542969 C 131.890625 68.90625 122.007812 72.933594 114.589844 87.996094 C 113.523438 90.171875 112.683594 92.164062 112.03125 93.988281 C 111.660156 93.761719 111.304688 93.566406 110.964844 93.398438 C 111.460938 91.046875 113.84375 82.390625 123.511719 74.21875 C 134.824219 64.648438 141.992188 65.554688 141.550781 67.171875 C 141.113281 68.789062 138.28125 72.378906 142.261719 80.085938 C 146.246094 87.792969 150.605469 96.289062 149.082031 101.753906 C 148.730469 103.007812 148.164062 104.175781 147.5 105.226562 Z M 112.339844 85.546875 C 111.304688 86.9375 110.554688 88.449219 110.015625 90.003906 C 109.820312 88.773438 109.628906 87.390625 109.453125 85.859375 C 109.820312 85.925781 110.164062 85.964844 110.476562 85.949219 C 111.328125 85.925781 111.929688 85.75 112.339844 85.546875 Z M 112.339844 85.546875 "/>
<path style=" stroke:none;fill-rule:nonzero;fill:rgb(65.098039%,59.607843%,86.666667%);fill-opacity:1;" d="M 108.886719 74.203125 C 109.605469 73.683594 110.339844 73.222656 111.050781 72.875 C 114.589844 71.132812 118.933594 69.992188 118.933594 69.992188 C 118.933594 69.992188 117.457031 70.964844 115.28125 73.0625 C 115.222656 72.800781 114.625 72.816406 112.910156 73.496094 C 111.054688 74.230469 109.761719 75.042969 108.863281 75.75 C 108.863281 75.222656 108.867188 74.703125 108.886719 74.203125 Z M 111.363281 78.828125 C 112.390625 77.25 117.109375 70.789062 127.304688 67.269531 C 138.980469 63.246094 143.726562 64.609375 143.179688 66.398438 C 143.144531 66.515625 143.101562 66.640625 143.046875 66.777344 C 142.382812 65.621094 140.203125 64.9375 134.109375 66.179688 C 121.753906 68.699219 111.367188 78.828125 111.363281 78.828125 Z M 111.363281 78.828125 "/>
<path style=" stroke:none;fill-rule:nonzero;fill:rgb(41.960784%,31.372549%,84.313725%);fill-opacity:1;" d="M 111.460938 96.722656 C 113.816406 99.25 114.394531 101.035156 116.191406 105.449219 C 119.734375 114.148438 121.855469 119.371094 129.628906 120.84375 C 137.410156 122.3125 141.855469 116.027344 143.082031 114.558594 C 144.3125 113.089844 143.082031 112.273438 143.082031 112.273438 C 143.082031 112.273438 138.769531 114.050781 138.171875 114.746094 C 137.574219 115.441406 138.746094 115.8125 138.746094 115.8125 C 138.746094 115.8125 136.511719 116.214844 137.359375 114.449219 C 138.199219 112.683594 142.320312 111.785156 143.628906 110.667969 C 144.9375 109.550781 143.355469 108.570312 143.355469 108.570312 C 138.53125 110.65625 130.410156 109.6875 125.875 107.242188 C 125.875 107.242188 127.730469 110.300781 129.976562 111.28125 C 132.226562 112.261719 133.308594 111.539062 133.308594 111.539062 C 133.308594 111.539062 132.078125 113.15625 129.628906 112.125 C 127.183594 111.089844 124.878906 107.988281 123.082031 105.027344 C 121.277344 102.058594 118.609375 99.066406 117.300781 98.253906 C 115.992188 97.4375 115.46875 97.574219 115.46875 97.574219 C 115.46875 97.574219 117.488281 98.65625 120.132812 104.507812 C 122.78125 110.359375 124.117188 114.871094 128.476562 116.585938 C 132.839844 118.296875 134.257812 117.070312 133.574219 116.261719 C 132.898438 115.441406 131.832031 115.058594 131.832031 115.058594 C 131.832031 115.058594 134.558594 115.511719 134.917969 117.175781 C 135.269531 118.84375 130.957031 118.894531 127.988281 117.480469 C 125.015625 116.066406 122.574219 112.992188 120.40625 107.476562 C 119.488281 105.136719 118.804688 103.171875 117.304688 100.921875 C 115.5625 98.292969 113.082031 95.632812 110.855469 94.410156 C 110.855469 94.417969 111.09375 95.5 111.460938 96.722656 Z M 111.460938 96.722656 "/>
<path style=" stroke:none;fill-rule:nonzero;fill:rgb(30.588235%,19.607843%,73.72549%);fill-opacity:1;" d="M 117.851562 109.449219 C 120.585938 115.761719 123.132812 119.609375 129.628906 120.84375 C 137.410156 122.3125 141.855469 116.027344 143.082031 114.558594 C 144.3125 113.089844 143.082031 112.273438 143.082031 112.273438 C 143.082031 112.273438 141.785156 112.804688 140.523438 113.402344 C 141.441406 113.5 142.167969 114.097656 140.371094 116.453125 C 137.285156 120.488281 129.917969 121.46875 124.472656 118.144531 C 122.449219 116.902344 119.980469 113.207031 117.851562 109.449219 Z M 137.164062 115.148438 C 137.164062 114.96875 137.222656 114.734375 137.359375 114.449219 C 138.199219 112.683594 142.320312 111.785156 143.628906 110.667969 C 144.226562 110.15625 144.21875 109.675781 144.039062 109.300781 C 143.496094 109.921875 142.460938 110.773438 140.535156 111.472656 C 137.046875 112.746094 137.164062 115.148438 137.164062 115.148438 Z M 122.851562 110.578125 C 124.253906 113.414062 125.796875 115.53125 128.476562 116.585938 C 132.839844 118.296875 134.257812 117.070312 133.574219 116.261719 C 133.476562 116.136719 133.367188 116.027344 133.257812 115.921875 C 128.335938 114.1875 126.746094 115.902344 122.851562 110.578125 Z M 122.851562 110.578125 "/>
<path style=" stroke:none;fill-rule:nonzero;fill:rgb(65.098039%,59.607843%,86.666667%);fill-opacity:1;" d="M 142.96875 108.726562 C 138.105469 110.605469 130.292969 109.625 125.875 107.242188 C 125.875 107.242188 126.109375 107.628906 126.511719 108.167969 C 127.859375 108.988281 131.285156 110.648438 136.6875 110.578125 C 140.113281 110.53125 141.96875 109.644531 142.96875 108.726562 Z M 129.941406 112.242188 C 129.84375 112.207031 129.742188 112.167969 129.628906 112.125 C 127.183594 111.089844 124.878906 107.988281 123.082031 105.027344 C 121.277344 102.058594 118.609375 99.066406 117.300781 98.253906 C 115.992188 97.4375 115.46875 97.574219 115.46875 97.574219 C 115.46875 97.574219 116.074219 97.898438 117.058594 99.15625 C 117.957031 99.730469 120.464844 101.859375 122.75 106.039062 C 125.214844 110.539062 128.210938 112.195312 129.941406 112.242188 Z M 129.839844 118.144531 C 129.199219 117.980469 128.570312 117.761719 127.988281 117.480469 C 125.015625 116.066406 122.574219 112.992188 120.40625 107.476562 C 119.488281 105.136719 118.804688 103.171875 117.304688 100.921875 C 115.5625 98.292969 113.082031 95.632812 110.855469 94.410156 C 110.855469 94.410156 111.023438 95.191406 111.296875 96.164062 C 112.320312 96.742188 113.425781 97.644531 114.589844 99 C 120.132812 105.46875 120.835938 113.109375 125.234375 116.242188 C 126.980469 117.480469 128.570312 117.988281 129.839844 118.144531 Z M 129.839844 118.144531 "/>
<path style=" stroke:none;fill-rule:nonzero;fill:rgb(93.333333%,91.764706%,100%);fill-opacity:1;" d="M 129.128906 72.433594 C 131.03125 71.90625 133.101562 71.417969 134.667969 71.296875 C 138.492188 70.996094 137.222656 72.277344 136.277344 72.996094 C 135.339844 73.71875 133.894531 74.042969 133.894531 74.042969 C 133.894531 74.042969 134.957031 74.710938 136.660156 74.640625 C 138.367188 74.574219 139.042969 75.796875 136.960938 76.574219 C 134.871094 77.347656 133.125 76.820312 133.125 76.820312 C 133.125 76.820312 133.550781 78.015625 134.628906 78.527344 C 135.703125 79.046875 133.894531 79.890625 132.324219 79.023438 C 130.757812 78.152344 130.359375 77.320312 130.359375 77.320312 C 130.359375 77.320312 130.484375 79.132812 132.828125 80.152344 C 135.175781 81.171875 136.5625 79.632812 136.074219 78.859375 C 135.582031 78.082031 135.367188 77.828125 135.367188 77.828125 C 135.367188 77.828125 139.5625 79.554688 140.574219 85.484375 C 141.582031 91.410156 142.070312 92.9375 143.113281 95.054688 C 143.71875 96.300781 143.828125 98.363281 142.78125 99.410156 C 142.78125 99.410156 143.445312 99.535156 144.121094 99.152344 C 144.0625 102.027344 142.242188 105.6875 134.6875 108.441406 C 130.914062 108.234375 126.421875 107.167969 124.480469 104.203125 C 121.609375 99.800781 117.75 96.714844 116.191406 96.035156 C 114.636719 95.351562 113.574219 94.410156 113.574219 94.410156 C 117.214844 82.3125 124.371094 75.679688 129.128906 72.433594 Z M 129.128906 72.433594 "/>
<path style=" stroke:none;fill-rule:nonzero;fill:rgb(80%,75.686275%,95.686275%);fill-opacity:1;" d="M 144.117188 99.152344 L 144.121094 99.152344 C 144.0625 102.027344 142.242188 105.6875 134.6875 108.441406 C 133.335938 108.371094 131.882812 108.183594 130.496094 107.839844 C 135.523438 106.976562 141.636719 104.753906 144.117188 99.152344 Z M 116.988281 96.46875 C 116.679688 96.273438 116.414062 96.132812 116.191406 96.035156 C 114.636719 95.351562 113.574219 94.410156 113.574219 94.410156 C 115.113281 89.308594 117.273438 85.179688 119.617188 81.859375 C 117.871094 86.378906 116.445312 91.753906 116.988281 96.46875 Z M 116.988281 96.46875 "/>
<path style=" stroke:none;fill-rule:nonzero;fill:rgb(100%,100%,100%);fill-opacity:1;" d="M 132.046875 71.710938 C 132.988281 71.511719 133.894531 71.359375 134.667969 71.296875 C 138.492188 70.996094 137.222656 72.277344 136.277344 72.996094 C 136.046875 73.171875 135.789062 73.328125 135.523438 73.457031 C 135.773438 73.105469 135.964844 72.691406 135.820312 72.355469 C 135.640625 71.933594 133.707031 71.769531 132.046875 71.710938 Z M 136.050781 79.644531 C 136.199219 79.371094 136.21875 79.082031 136.074219 78.859375 C 135.582031 78.082031 135.367188 77.828125 135.367188 77.828125 C 135.367188 77.828125 139.566406 79.554688 140.574219 85.484375 C 141.582031 91.410156 142.070312 92.9375 143.113281 95.054688 C 143.308594 95.457031 143.453125 95.941406 143.523438 96.457031 C 142.847656 94.625 141.324219 94.328125 140.464844 88.675781 C 139.667969 83.445312 137.167969 80.660156 136.050781 79.644531 Z M 134.117188 74.160156 C 134.511719 74.347656 135.410156 74.691406 136.660156 74.640625 C 138.140625 74.582031 138.84375 75.496094 137.652344 76.242188 C 137.597656 75.769531 136.980469 75.4375 136.070312 75.316406 C 134.625 75.125 134.117188 74.160156 134.117188 74.160156 Z M 133.191406 76.96875 C 133.347656 77.308594 133.789062 78.125 134.628906 78.527344 C 135.320312 78.859375 134.824219 79.328125 133.964844 79.390625 C 134.128906 79.164062 134.1875 78.867188 133.835938 78.527344 C 133.082031 77.800781 133.191406 76.96875 133.191406 76.96875 Z M 133.191406 76.96875 "/>
<path style=" stroke:none;fill-rule:nonzero;fill:rgb(0%,0%,0%);fill-opacity:1;" d="M 120.191406 81.574219 C 121.394531 81.507812 122.984375 81.613281 124.316406 82.351562 C 126.882812 83.769531 127.105469 85.652344 125.875 85.101562 C 125.503906 84.929688 125.136719 84.601562 124.644531 84.25 C 124.609375 85.976562 123.628906 87.359375 122.421875 87.359375 C 121.199219 87.359375 120.203125 85.917969 120.203125 84.144531 C 120.203125 83.761719 120.25 83.398438 120.332031 83.054688 C 120.078125 83.0625 119.8125 83.066406 119.53125 83.085938 C 117.828125 83.210938 118.222656 81.679688 120.191406 81.574219 Z M 120.191406 81.574219 "/>
<path style=" stroke:none;fill-rule:nonzero;fill:rgb(0%,0%,0%);fill-opacity:1;" d="M 139.566406 86.269531 C 139.148438 85.773438 138.394531 85.085938 137.285156 84.9375 C 135.515625 84.699219 134.21875 85.160156 133.648438 86.132812 C 133.355469 86.632812 133.824219 86.851562 134.492188 86.601562 C 134.675781 86.535156 134.859375 86.46875 135.035156 86.417969 C 135 86.613281 134.980469 86.808594 134.980469 87.015625 C 134.980469 88.445312 135.800781 89.605469 136.816406 89.605469 C 137.828125 89.605469 138.648438 88.445312 138.648438 87.015625 C 138.648438 86.964844 138.648438 86.910156 138.648438 86.859375 C 139.136719 87.191406 139.742188 87.730469 140 87.566406 C 140.253906 87.417969 139.785156 86.527344 139.566406 86.269531 Z M 139.566406 86.269531 "/>
<path style=" stroke:none;fill-rule:nonzero;fill:rgb(100%,100%,100%);fill-opacity:1;" d="M 122.042969 83.109375 C 121.679688 83.039062 121.296875 83.4375 121.1875 83.996094 C 121.078125 84.554688 121.285156 85.066406 121.648438 85.136719 C 122.011719 85.207031 122.394531 84.808594 122.503906 84.25 C 122.613281 83.691406 122.40625 83.179688 122.042969 83.109375 Z M 122.042969 83.109375 "/>
<path style=" stroke:none;fill-rule:nonzero;fill:rgb(100%,100%,100%);fill-opacity:1;" d="M 136.523438 86.070312 C 136.21875 86.011719 135.894531 86.34375 135.804688 86.8125 C 135.714844 87.28125 135.886719 87.710938 136.191406 87.769531 C 136.496094 87.828125 136.816406 87.496094 136.90625 87.027344 C 137 86.558594 136.828125 86.128906 136.523438 86.070312 Z M 136.523438 86.070312 "/>
<path style=" stroke:none;fill-rule:nonzero;fill:rgb(0%,0%,0%);fill-opacity:1;" d="M 134.597656 93.261719 C 134.597656 93.261719 134.375 90.605469 133.355469 89.496094 C 131.464844 87.429688 127.050781 89.769531 125.378906 91.210938 C 125.378906 91.210938 127.125 90.308594 128.375 90.078125 C 129.628906 89.847656 130.289062 90.242188 130.800781 91.359375 C 131.324219 92.46875 132.683594 92 133.300781 91.519531 C 133.914062 91.042969 134.597656 93.261719 134.597656 93.261719 Z M 134.597656 93.261719 "/>
<path style=" stroke:none;fill-rule:nonzero;fill:rgb(0%,0%,0%);fill-opacity:1;" d="M 132.917969 95.671875 C 132.226562 94.976562 131.082031 94.171875 129.179688 94.035156 C 125.800781 93.792969 123.535156 95.941406 123.511719 99 C 123.484375 102.058594 124.285156 104.507812 127.136719 105.078125 C 129.988281 105.648438 130.875 104.695312 131.25 102.65625 C 131.941406 98.996094 134.9375 97.691406 132.917969 95.671875 Z M 132.917969 95.671875 "/>
<path style=" stroke:none;fill-rule:nonzero;fill:rgb(100%,100%,100%);fill-opacity:1;" d="M 128.847656 94.9375 C 128.847656 94.9375 128.496094 97.25 128.847656 97.488281 C 129.195312 97.734375 130.054688 98.007812 130.4375 97.75 C 130.816406 97.488281 131.71875 95.808594 131.71875 95.808594 C 131.71875 95.808594 130.964844 95.097656 128.847656 94.9375 Z M 128.847656 94.9375 "/>
<path style=" stroke:none;fill-rule:nonzero;fill:rgb(100%,32.941176%,49.019608%);fill-opacity:1;" d="M 124.472656 101.191406 C 127.5 101.054688 130.066406 104.398438 128.691406 104.410156 C 127.546875 104.429688 124.9375 103.941406 124.472656 101.191406 Z M 124.472656 101.191406 "/>
<path style=" stroke:none;fill-rule:nonzero;fill:rgb(0%,0%,0%);fill-opacity:1;" d="M 113.023438 76.527344 L 112.632812 74.511719 C 112.207031 72.347656 112.234375 69.945312 112.527344 67.777344 C 113.085938 63.628906 114.6875 59.730469 117.011719 56.257812 C 118.609375 53.886719 120.28125 51.492188 122.128906 49.316406 C 123.066406 48.214844 124.042969 47.246094 125.046875 46.214844 C 125.757812 45.484375 126.367188 44.757812 126.953125 43.925781 C 127.890625 42.617188 129.355469 41.058594 131.160156 41.472656 C 134.238281 42.179688 134.160156 47.828125 134.089844 50.1875 C 134.019531 52.484375 133.554688 54.855469 132.988281 57.074219 C 132.242188 60.015625 131.25 62.933594 130.144531 65.761719 C 120.660156 68.167969 115.152344 73.878906 113.023438 76.527344 Z M 113.023438 76.527344 "/>
<path style=" stroke:none;fill-rule:nonzero;fill:rgb(93.333333%,91.764706%,100%);fill-opacity:1;" d="M 114.128906 74.21875 C 113.765625 72.335938 112.871094 65.167969 118.28125 57.109375 C 124.597656 47.695312 125.527344 48.5625 128.199219 44.8125 C 130.875 41.058594 132.78125 42.960938 132.558594 50.140625 C 132.410156 55.152344 130.039062 61.867188 128.621094 65.457031 C 126.054688 66.269531 123.847656 67.242188 121.980469 68.257812 C 123.84375 65.339844 126.152344 62.152344 127.574219 59.25 C 130.078125 54.140625 128.855469 48.796875 128.855469 48.796875 C 128.855469 48.796875 128.847656 52.90625 128.171875 55.328125 C 126.492188 61.378906 122.089844 65.199219 119.304688 69.859375 C 115.816406 72.164062 114.128906 74.21875 114.128906 74.21875 Z M 114.128906 74.21875 "/>
<path style=" stroke:none;fill-rule:nonzero;fill:rgb(80%,75.686275%,95.686275%);fill-opacity:1;" d="M 128.828125 49.875 C 128.785156 51.257812 128.628906 53.6875 128.171875 55.328125 C 126.492188 61.378906 122.089844 65.199219 119.304688 69.859375 C 117.496094 71.054688 116.171875 72.179688 115.320312 72.984375 C 115.722656 69.878906 116.601562 65.953125 118.457031 61.867188 C 121.328125 55.539062 126.113281 51.621094 128.828125 49.875 Z M 128.828125 49.875 "/>
<path style=" stroke:none;fill-rule:nonzero;fill:rgb(100%,100%,100%);fill-opacity:1;" d="M 117.4375 58.453125 C 117.703125 58.003906 117.984375 57.554688 118.28125 57.109375 C 124.597656 47.695312 125.527344 48.5625 128.199219 44.8125 C 130.875 41.058594 132.78125 42.960938 132.558594 50.140625 C 132.410156 55.152344 130.039062 61.867188 128.621094 65.457031 C 128.28125 65.570312 127.949219 65.671875 127.632812 65.789062 C 129.765625 59.238281 132.332031 48.402344 130.855469 46.0625 C 129.128906 43.332031 128.847656 46.117188 124.3125 50.414062 C 122.292969 52.328125 119.695312 55.503906 117.4375 58.453125 Z M 117.4375 58.453125 "/>
<path style=" stroke:none;fill-rule:nonzero;fill:rgb(93.333333%,91.764706%,100%);fill-opacity:1;" d="M 134.824219 63.660156 C 134.824219 63.660156 139.570312 62.40625 142.957031 63.285156 C 143.027344 63.296875 143.101562 63.320312 143.164062 63.339844 C 145.503906 57.621094 149.824219 56.5625 149.824219 56.5625 C 146.597656 58.609375 144.9375 61.386719 144.023438 63.738281 C 145.964844 65.03125 144.753906 67.894531 144.121094 68.9375 C 143.640625 69.71875 142.273438 72.535156 143.222656 74.21875 C 143.222656 74.21875 146.679688 70.28125 148.40625 62.972656 C 149.839844 56.914062 153.210938 55.90625 152.117188 53.691406 C 151.03125 51.472656 142.1875 53.691406 134.824219 63.660156 Z M 134.824219 63.660156 "/>
<path style=" stroke:none;fill-rule:nonzero;fill:rgb(80%,75.686275%,95.686275%);fill-opacity:1;" d="M 147.949219 57.972656 C 145.917969 59.785156 144.742188 61.894531 144.023438 63.738281 C 145.964844 65.03125 144.753906 67.894531 144.121094 68.9375 C 143.769531 69.503906 142.957031 71.152344 142.898438 72.652344 C 146.558594 68.140625 147.683594 61.589844 147.949219 57.972656 Z M 147.949219 57.972656 "/>
<path style=" stroke:none;fill-rule:nonzero;fill:rgb(100%,100%,100%);fill-opacity:1;" d="M 134.824219 63.660156 C 134.824219 63.660156 135.964844 63.359375 137.519531 63.160156 C 139.460938 60.523438 142.253906 57.226562 145.210938 55.328125 C 148.511719 53.226562 151.160156 53.109375 152.296875 54.238281 C 152.273438 54.0625 152.207031 53.882812 152.117188 53.691406 C 151.03125 51.472656 142.1875 53.691406 134.824219 63.660156 Z M 134.824219 63.660156 "/>
<path style=" stroke:none;fill-rule:nonzero;fill:rgb(80%,75.686275%,95.686275%);fill-opacity:1;" d="M 140.71875 6.242188 C 140.71875 6.242188 136.980469 5.125 136.816406 8.441406 C 136.65625 11.761719 139.082031 13.722656 140.332031 13.039062 C 141.589844 12.363281 141.179688 10.15625 141.179688 10.15625 C 141.179688 10.15625 146.0625 19.785156 151.953125 21.585938 C 159.96875 24.027344 155.007812 13.726562 148.902344 9.722656 C 156.101562 13.488281 162.203125 22.480469 157.457031 25.378906 C 153.398438 27.851562 141.121094 21.222656 136.835938 14.566406 C 133.183594 8.890625 132.527344 3.195312 140.71875 6.242188 Z M 140.71875 6.242188 "/>
<path style=" stroke:none;fill-rule:nonzero;fill:rgb(80%,75.686275%,95.686275%);fill-opacity:1;" d="M 47.351562 44.746094 C 59.160156 19.898438 97.476562 10.910156 119.6875 23.648438 C 119.6875 23.648438 114.167969 17.480469 105.953125 14.171875 C 97.730469 10.863281 91.289062 10.558594 91.289062 10.558594 C 91.289062 10.558594 94.363281 12.195312 92.898438 13.136719 C 91.441406 14.078125 59.863281 14.339844 47.351562 44.746094 Z M 47.351562 44.746094 "/>
<path style=" stroke:none;fill-rule:nonzero;fill:rgb(80%,75.686275%,95.686275%);fill-opacity:1;" d="M 166.40625 29.664062 C 166.40625 29.664062 171.285156 37.773438 165.210938 46.550781 C 160.242188 53.730469 147.4375 67.574219 151.464844 77.398438 C 151.464844 77.398438 151.40625 71.25 153.972656 69.398438 C 156.535156 67.550781 158.605469 70.050781 157.296875 78.917969 C 156.160156 86.65625 158.707031 98.007812 165.644531 102.703125 C 165.644531 102.703125 158.445312 93.949219 160.191406 78.757812 C 161.933594 63.5625 164.050781 59.933594 168.253906 49.925781 C 172.460938 39.914062 168.253906 31.046875 166.40625 29.664062 Z M 166.40625 29.664062 "/>
<path style=" stroke:none;fill-rule:nonzero;fill:rgb(80%,75.686275%,95.686275%);fill-opacity:1;" d="M 175.191406 45.628906 C 175.191406 45.628906 180.320312 53.152344 179.335938 64.648438 C 178.351562 76.144531 171.261719 82.347656 171.261719 82.347656 C 171.261719 82.347656 173.378906 81.722656 175.359375 80.929688 C 177.34375 80.144531 178.679688 81.8125 176.496094 86.9375 C 174.316406 92.058594 170.066406 94.9375 170.066406 94.9375 C 184.953125 90.300781 185.34375 56.679688 175.191406 45.628906 Z M 175.191406 45.628906 "/>
<path style=" stroke:none;fill-rule:nonzero;fill:rgb(80%,75.686275%,95.686275%);fill-opacity:1;" d="M 93.777344 5.390625 C 93.777344 5.390625 107.253906 2.367188 116.101562 5.390625 C 124.957031 8.417969 128.445312 12.5 128.445312 12.5 C 128.445312 12.5 123.316406 3.46875 112.246094 1.890625 C 101.171875 0.3125 93.777344 5.390625 93.777344 5.390625 Z M 93.777344 5.390625 "/>
<path style=" stroke:none;fill-rule:nonzero;fill:rgb(65.098039%,59.607843%,87.058824%);fill-opacity:1;" d="M 141.140625 22.566406 C 137.28125 18.4375 130.796875 18.207031 126.65625 22.050781 C 122.515625 25.902344 122.285156 32.371094 126.148438 36.5 C 130.007812 40.628906 136.492188 40.855469 140.625 37.007812 C 144.765625 33.15625 144.996094 26.6875 141.140625 22.566406 Z M 141.140625 22.566406 "/>
<path style=" stroke:none;fill-rule:nonzero;fill:rgb(47.843137%,39.607843%,80.392157%);fill-opacity:1;" d="M 138.921875 24.625 C 136.207031 21.722656 131.640625 21.558594 128.726562 24.265625 C 125.808594 26.972656 125.652344 31.527344 128.367188 34.433594 C 131.082031 37.34375 135.644531 37.5 138.5625 34.792969 C 141.472656 32.085938 141.636719 27.53125 138.921875 24.625 Z M 138.921875 24.625 "/>
<path style=" stroke:none;fill-rule:nonzero;fill:rgb(30.196078%,17.254902%,50.196078%);fill-opacity:0.301961;" d="M 126.65625 22.050781 C 122.515625 25.902344 122.285156 32.371094 126.148438 36.5 C 130.007812 40.628906 136.492188 40.855469 140.625 37.007812 C 141.84375 35.875 140.292969 34.570312 138.863281 34.414062 C 136.855469 34.207031 133.335938 34.253906 130.984375 31.777344 C 128.699219 29.375 128.941406 26.078125 128.902344 24.019531 C 128.875 22.6875 128.203125 20.617188 126.65625 22.050781 Z M 126.65625 22.050781 "/>
<path style=" stroke:none;fill-rule:nonzero;fill:rgb(100%,100%,100%);fill-opacity:0.701961;" d="M 137.976562 21.917969 C 136.40625 20.980469 134.667969 20.785156 134.089844 21.480469 C 133.511719 22.167969 134.316406 23.488281 135.886719 24.421875 C 137.457031 25.351562 139.199219 25.546875 139.773438 24.851562 C 140.351562 24.164062 139.546875 22.84375 137.976562 21.917969 Z M 137.976562 21.917969 "/>
<path style=" stroke:none;fill-rule:nonzero;fill:rgb(0%,0%,0%);fill-opacity:1;" d="M 140.796875 39.804688 C 140.796875 39.804688 142.789062 37.882812 143.769531 37.292969 C 144.746094 36.699219 144.832031 33.066406 144.566406 32.03125 C 144.296875 31 143.425781 30.648438 143.21875 32.164062 C 143.015625 33.667969 141.929688 35.707031 139.480469 37.097656 C 137.03125 38.480469 137.742188 37.253906 135.476562 38.117188 C 133.210938 38.972656 132.28125 38.097656 130.992188 37.902344 C 129.707031 37.707031 129.625 36.96875 130.347656 35.226562 C 131.074219 33.488281 131.519531 31.433594 132.988281 29.421875 C 134.46875 27.414062 136.109375 26.882812 135.710938 26.222656 C 135.308594 25.566406 131.570312 26.792969 129.199219 29 C 126.832031 31.203125 126.167969 33.3125 125.046875 32.109375 C 123.925781 30.910156 124.589844 28.566406 124.492188 26.363281 C 124.429688 24.882812 125.796875 22.746094 126.921875 21.820312 C 128.628906 20.339844 130.703125 19.515625 132.8125 19.34375 C 132.59375 19.148438 132.625 19.125 132.078125 18.84375 C 130.152344 17.859375 127.007812 20.617188 125.117188 21.546875 C 123.652344 22.261719 123.613281 23.472656 122.28125 25.605469 C 120.953125 27.734375 120.507812 28.246094 120.859375 30.84375 C 121.210938 33.433594 121.609375 35.875 119.871094 36.890625 C 118.140625 37.894531 116.960938 37.777344 116.746094 39.003906 C 116.539062 40.234375 116.074219 42.832031 114.578125 44.511719 C 114.285156 44.84375 112.847656 46.207031 110.738281 48.1875 C 111.726562 49.617188 111.832031 51.433594 111.511719 53.269531 L 117.378906 47.816406 C 118.296875 46.964844 121.714844 45.960938 123.0625 45.984375 C 124.410156 46.019531 124.167969 44.421875 125.039062 43.292969 C 125.914062 42.160156 128.6875 42.078125 131.03125 42.523438 C 133.378906 42.980469 135.300781 43.042969 137.148438 41.894531 C 139 40.746094 140.113281 40.714844 140.796875 39.804688 Z M 97.898438 60.121094 C 89.996094 67.433594 82.265625 74.546875 82.265625 74.546875 C 82.265625 74.546875 80.253906 76.632812 77.734375 77.796875 C 75.222656 78.964844 73.335938 79.003906 72.742188 80.164062 C 72.144531 81.320312 70.808594 85.625 69.917969 86.808594 C 69.023438 87.996094 66.082031 89.269531 65.574219 90.671875 C 65.058594 92.074219 65.015625 93.289062 63.242188 94.253906 C 61.480469 95.222656 59.890625 98.800781 59.9375 99.539062 C 59.988281 100.273438 62.457031 97.800781 64.753906 96.554688 C 67.050781 95.3125 72.039062 93.734375 73.542969 91.410156 C 75.046875 89.085938 75.867188 86.332031 78.25 85.683594 C 80.640625 85.027344 81.832031 84.847656 82.644531 82.664062 C 83.457031 80.484375 84.570312 78.316406 85.601562 77.355469 L 100.308594 63.6875 C 100.445312 63.074219 100.546875 62.316406 100.535156 61.433594 C 100.515625 58.917969 97.898438 60.121094 97.898438 60.121094 Z M 97.898438 60.121094 "/>
<path style=" stroke:none;fill-rule:nonzero;fill:rgb(30.196078%,30.196078%,30.196078%);fill-opacity:1;" d="M 121.109375 34.84375 C 120.984375 35.726562 120.632812 36.449219 119.871094 36.890625 C 118.140625 37.894531 116.960938 37.777344 116.746094 39.003906 C 116.539062 40.234375 116.074219 42.832031 114.578125 44.511719 C 114.285156 44.84375 112.847656 46.207031 110.738281 48.1875 C 110.925781 48.453125 111.074219 48.730469 111.199219 49.023438 C 114.214844 46.140625 116.480469 43.660156 116.796875 41.746094 C 117.222656 39.214844 118.210938 39.503906 120.105469 37.640625 C 121.042969 36.714844 121.191406 35.667969 121.109375 34.84375 Z M 97.898438 60.121094 C 89.996094 67.433594 82.265625 74.546875 82.265625 74.546875 C 82.265625 74.546875 80.253906 76.632812 77.734375 77.796875 C 75.222656 78.964844 73.335938 79.003906 72.742188 80.164062 C 72.320312 80.984375 71.53125 83.371094 70.789062 85.121094 L 70.789062 85.125 C 70.046875 87.429688 67.382812 91.671875 67.382812 91.671875 C 69.742188 89.910156 70.476562 88.683594 71.851562 85.023438 C 73.222656 81.367188 74.394531 80.417969 76.972656 79.585938 C 79.550781 78.757812 83.648438 74.660156 83.648438 74.660156 L 99.550781 59.875 C 98.804688 59.707031 97.898438 60.121094 97.898438 60.121094 Z M 143.476562 37.488281 C 143.582031 37.410156 143.679688 37.34375 143.769531 37.292969 C 144.746094 36.699219 144.832031 33.066406 144.566406 32.03125 C 144.296875 31 143.425781 30.648438 143.21875 32.164062 C 143.015625 33.667969 141.929688 35.707031 139.480469 37.097656 C 137.03125 38.480469 137.742188 37.253906 135.476562 38.117188 C 133.277344 38.949219 132.332031 38.140625 131.101562 37.921875 C 131.773438 38.238281 132.605469 38.855469 133.570312 39.429688 C 134.773438 40.140625 136.054688 38.707031 138.066406 38.511719 C 140.074219 38.316406 142.964844 35.292969 143.320312 34.316406 C 143.679688 33.34375 144.207031 33.683594 143.863281 35.988281 C 143.785156 36.507812 143.648438 37.011719 143.476562 37.488281 Z M 134.960938 27.390625 C 135.5625 26.882812 135.917969 26.570312 135.710938 26.222656 C 135.308594 25.566406 131.570312 26.792969 129.199219 29 C 126.832031 31.203125 126.167969 33.3125 125.046875 32.109375 C 124.960938 32.027344 124.890625 31.929688 124.832031 31.832031 C 125.292969 32.824219 126.269531 33.078125 127.207031 32.199219 C 128.757812 30.765625 128.882812 29.519531 132.378906 27.726562 C 134.078125 26.863281 134.832031 26.882812 134.960938 27.390625 Z M 131.082031 19.628906 C 131.648438 19.488281 132.234375 19.390625 132.8125 19.34375 C 132.59375 19.148438 132.625 19.125 132.078125 18.84375 C 130.152344 17.859375 127.007812 20.617188 125.117188 21.546875 C 124.546875 21.824219 124.1875 22.183594 123.886719 22.644531 C 124.707031 22.058594 125.660156 21.871094 127.695312 20.578125 C 129.5 19.449219 130.515625 19.402344 131.082031 19.628906 Z M 131.082031 19.628906 "/>
<path style=" stroke:none;fill-rule:nonzero;fill:rgb(93.333333%,91.764706%,100%);fill-opacity:1;" d="M 110.925781 56.296875 C 110.925781 56.296875 108.394531 58.667969 106.914062 57.199219 C 105.445312 55.726562 108.855469 53.140625 111.285156 53.796875 C 113.707031 54.445312 113.40625 58.011719 110.515625 60.050781 C 107.625 62.089844 106.207031 62.335938 106.207031 62.335938 C 106.207031 62.335938 107.078125 62.660156 108.210938 62.335938 C 109.34375 62.011719 109.558594 61.875 109.558594 61.875 C 109.558594 61.875 107.234375 69.378906 108.046875 81.132812 C 108.867188 92.878906 110.886719 97.996094 110.886719 97.996094 C 110.886719 97.996094 107.730469 104.417969 105.105469 108.167969 C 102.480469 111.921875 98.015625 115.402344 98.015625 115.402344 C 98.015625 115.402344 96.210938 107.402344 94.851562 101.636719 C 93.484375 95.871094 93.816406 85.484375 93.816406 85.484375 C 93.816406 85.484375 94.355469 86.691406 94.824219 86.761719 C 95.195312 86.8125 95.679688 78.308594 97.105469 71.179688 C 97.554688 68.914062 98.417969 66.222656 99.511719 64.171875 C 100.484375 63.972656 101.617188 63.777344 102.964844 62.90625 C 104.3125 62.035156 105.035156 60.433594 105.035156 60.433594 C 105.035156 60.433594 106.53125 59.933594 107.292969 58.855469 C 107.847656 58.75 108.347656 58.660156 108.769531 58.554688 C 111.386719 57.902344 110.925781 56.296875 110.925781 56.296875 Z M 110.925781 56.296875 "/>
<path style=" stroke:none;fill-rule:nonzero;fill:rgb(80%,75.686275%,95.686275%);fill-opacity:1;" d="M 105.074219 108.214844 C 102.441406 111.949219 98.015625 115.402344 98.015625 115.402344 C 98.015625 115.402344 96.210938 107.402344 94.851562 101.636719 C 93.484375 95.871094 93.816406 85.484375 93.816406 85.484375 C 93.816406 85.484375 94.355469 86.691406 94.824219 86.761719 C 95.195312 86.8125 95.679688 78.308594 97.105469 71.179688 C 97.554688 68.914062 98.417969 66.222656 99.511719 64.171875 C 100.484375 63.972656 101.617188 63.777344 102.964844 62.90625 C 104.3125 62.035156 105.035156 60.433594 105.035156 60.433594 C 105.035156 60.433594 106.53125 59.933594 107.292969 58.855469 C 107.292969 58.855469 105.621094 62.628906 103.347656 63.933594 C 101.074219 65.238281 99.109375 72.976562 98.785156 83.121094 C 98.457031 93.261719 96.980469 89.117188 96.980469 89.117188 C 96.980469 89.117188 96.617188 98.519531 100.308594 105.242188 C 101.640625 107.667969 103.386719 108.34375 105.074219 108.214844 Z M 105.074219 108.214844 "/>
<path style=" stroke:none;fill-rule:nonzero;fill:rgb(93.333333%,91.764706%,100%);fill-opacity:1;" d="M 101.960938 61.867188 C 102.183594 60.109375 101.746094 56.84375 99.429688 59.070312 C 99.429688 57.265625 100.085938 55.269531 101.855469 55.210938 C 103.570312 55.148438 104.316406 56.191406 104.453125 57.472656 C 104.65625 59.421875 103.75 61.148438 101.960938 61.867188 Z M 106.5625 49.550781 C 106.5625 49.550781 107.761719 48.519531 109.019531 48.875 C 110.007812 49.15625 110.640625 50.730469 110.464844 52.613281 C 109.726562 52.652344 108.933594 52.828125 108.191406 53.128906 C 108.054688 51.933594 107.625 50.601562 106.5625 49.550781 Z M 101.738281 53.671875 C 101.8125 53.382812 102.671875 50.03125 105.066406 50.480469 C 106.304688 50.707031 107.046875 52.039062 107.304688 53.570312 C 106.070312 54.316406 105.183594 55.492188 105.390625 57.070312 C 105.476562 57.710938 105.820312 58.128906 106.191406 58.394531 C 105.894531 58.699219 105.585938 58.894531 105.300781 59.015625 C 105.476562 58.34375 105.527344 57.421875 105.230469 56.207031 C 104.675781 54.003906 102.695312 53.6875 101.738281 53.671875 Z M 101.738281 53.671875 "/>
<path style=" stroke:none;fill-rule:nonzero;fill:rgb(100%,100%,100%);fill-opacity:1;" d="M 99.695312 57.171875 C 100.035156 56.09375 100.710938 55.25 101.855469 55.210938 C 103.570312 55.148438 104.316406 56.191406 104.453125 57.472656 C 104.480469 57.769531 104.488281 58.0625 104.46875 58.34375 C 104.246094 57.402344 103.707031 56.394531 102.421875 56.199219 C 101.628906 56.074219 100.660156 56.511719 99.695312 57.171875 Z M 108.515625 62.246094 C 109.382812 61.984375 109.558594 61.875 109.558594 61.875 C 109.558594 61.875 107.234375 69.378906 108.046875 81.132812 C 108.160156 82.722656 108.296875 84.199219 108.4375 85.546875 C 105.515625 75.40625 107.839844 64.875 108.515625 62.246094 Z M 106.5625 56.402344 C 106.539062 54.964844 109.253906 53.25 111.285156 53.796875 C 112.65625 54.167969 113.160156 55.472656 112.808594 56.90625 C 112.59375 55.816406 112.011719 54.582031 110.496094 54.523438 C 108.613281 54.445312 107.234375 55.648438 106.5625 56.402344 Z M 102.371094 52.0625 C 103.4375 51.558594 104.832031 51.179688 105.652344 52.078125 C 106.308594 52.777344 106.542969 53.5 106.601562 54.078125 C 106.816406 53.886719 107.050781 53.71875 107.304688 53.570312 C 107.046875 52.039062 106.304688 50.707031 105.066406 50.480469 C 103.738281 50.230469 102.886719 51.148438 102.371094 52.0625 Z M 107.007812 49.246094 C 107.90625 49.214844 109.019531 49.414062 109.449219 50.5 C 109.84375 51.519531 109.6875 52.25 109.488281 52.746094 C 109.820312 52.671875 110.152344 52.632812 110.464844 52.613281 C 110.640625 50.730469 110.007812 49.15625 109.019531 48.875 C 108.230469 48.648438 107.46875 48.972656 107.007812 49.246094 Z M 107.007812 49.246094 "/>
<path style=" stroke:none;fill-rule:nonzero;fill:rgb(80%,75.686275%,95.686275%);fill-opacity:1;" d="M 59.753906 109.550781 C 59.753906 109.550781 52.9375 91.820312 56.894531 74.21875 C 60.855469 56.621094 65.605469 58.738281 66.210938 60.964844 C 66.8125 63.199219 66.210938 68.09375 66.210938 68.09375 C 66.210938 68.09375 68.007812 62.878906 72.265625 52.90625 C 76.519531 42.925781 87.019531 36.058594 107.28125 36.816406 C 127.539062 37.570312 135.757812 40.84375 148.40625 40.410156 C 161.0625 39.964844 161.933594 31.046875 161.933594 31.046875 C 161.933594 31.046875 160.183594 38.070312 145.210938 36.816406 C 130.234375 35.558594 104.664062 26.585938 78.921875 35.835938 C 53.171875 45.082031 43.355469 81.554688 59.753906 109.550781 Z M 59.753906 109.550781 "/>
</g>
</svg>
