<?xml version="1.0" encoding="UTF-8"?>
<svg xmlns="http://www.w3.org/2000/svg" xmlns:xlink="http://www.w3.org/1999/xlink" width="200px" height="px" viewBox="0 0 200 200" version="1.1">
<g id="surface1">
<path style=" stroke:none;fill-rule:nonzero;fill:rgb(0%,0%,0%);fill-opacity:1;" d="M 131.761719 83.554688 C 133.117188 83.675781 134.585938 83.667969 135.8125 83.503906 L 138.746094 83.113281 L 137.371094 85.734375 C 135.960938 88.394531 135.167969 92.074219 135.011719 95.066406 C 134.777344 99.699219 135.859375 104.96875 140.964844 106.324219 L 142.367188 106.703125 L 141.894531 108.945312 C 140.898438 108.699219 139.800781 109.03125 138.542969 110.273438 C 137.769531 111.023438 137.070312 111.890625 136.339844 112.691406 C 134.152344 115.09375 131.871094 116.902344 128.652344 117.722656 L 127.847656 117.925781 L 127.246094 117.363281 C 123.261719 113.710938 121.214844 108.957031 121.085938 103.585938 C 121.011719 100.425781 121.675781 96.457031 123.09375 93.589844 C 123.667969 92.425781 124.21875 91.238281 124.710938 90.042969 C 125.246094 88.742188 125.769531 87.332031 126.066406 85.957031 C 126.167969 85.476562 126.390625 84.222656 126.160156 83.761719 C 125.6875 82.808594 124.015625 82.171875 123.003906 82.023438 L 119.515625 81.515625 L 121.792969 79.699219 C 121.800781 79.515625 121.792969 79.332031 121.792969 79.175781 C 121.785156 78.601562 121.765625 78.027344 121.738281 77.449219 C 121.730469 77.289062 121.722656 77.132812 121.71875 76.96875 C 121.710938 76.976562 121.703125 76.976562 121.695312 76.976562 L 117.632812 78.480469 L 119.855469 74.761719 C 120.207031 74.171875 120.578125 73.589844 120.933594 72.992188 C 121.148438 72.621094 121.644531 71.808594 121.75 71.410156 L 122.015625 70.359375 L 123.09375 70.257812 C 125.109375 70.074219 127.449219 70.019531 129.460938 70.265625 C 130.367188 70.371094 131.28125 70.46875 132.1875 70.523438 C 132.425781 70.535156 132.695312 70.554688 132.925781 70.546875 L 135.589844 70.496094 L 134.296875 72.816406 C 132.304688 76.394531 131.863281 79.683594 131.761719 83.554688 Z M 80.957031 80.707031 L 81.816406 80.890625 L 82.0625 81.792969 C 82.542969 83.59375 82.453125 86.269531 82.246094 88.082031 L 82.054688 89.757812 L 80.410156 89.40625 C 77.84375 88.855469 75.105469 87.847656 73.09375 86.121094 L 72.1875 84.851562 L 72.910156 83.980469 C 74.292969 82.332031 76.710938 80.835938 78.675781 80.066406 L 79.394531 79.785156 L 80.050781 80.199219 C 80.214844 80.300781 80.375 80.402344 80.539062 80.5 C 80.652344 80.566406 80.824219 80.660156 80.957031 80.707031 Z M 80.957031 80.707031 "/>
<path style=" stroke:none;fill-rule:nonzero;fill:rgb(0%,0%,0%);fill-opacity:1;" d="M 67.988281 64.332031 C 69.328125 62.746094 70.878906 61.308594 72.539062 60.070312 C 76.445312 57.144531 77.164062 58.511719 78.390625 53.007812 C 80.273438 44.589844 79.304688 43.316406 85.699219 36.730469 C 91.191406 31.074219 98.113281 25.582031 105.847656 23.503906 C 108.234375 22.859375 111.226562 22.164062 113.710938 22.242188 C 115.359375 22.292969 117.335938 22.804688 117.703125 24.6875 C 118.035156 26.394531 116.53125 27.785156 115.363281 28.78125 C 114.863281 29.214844 114.0625 29.800781 113.664062 30.304688 C 112.609375 31.605469 112.484375 33.082031 112.085938 34.699219 C 111.476562 37.117188 111.011719 37.660156 111.402344 38.582031 C 112.207031 40.464844 112.472656 42.210938 112.710938 44.601562 C 113.96875 44.417969 115.351562 44.363281 116.625 44.335938 C 120.003906 44.269531 123.425781 44.507812 126.769531 44.96875 C 128.890625 45.257812 129.003906 45.570312 130.949219 44.71875 C 136.589844 42.246094 144 44.417969 140.507812 51.542969 C 139.007812 54.585938 135.988281 57.519531 133.441406 59.683594 C 129.824219 62.773438 126.058594 65.613281 121.949219 68.015625 C 116.664062 71.105469 111.105469 73.292969 105.257812 75.074219 C 102.773438 75.832031 100.214844 76.378906 97.648438 76.773438 C 92.878906 77.511719 87.949219 77.769531 83.125 77.648438 C 81.1875 77.59375 79.246094 77.476562 77.320312 77.269531 C 77.1875 77.253906 77.050781 77.242188 76.914062 77.226562 C 76.957031 77.300781 76.996094 77.371094 77.035156 77.445312 L 78.011719 79.226562 L 76.035156 79.671875 C 72.335938 80.503906 68.457031 80.390625 64.796875 79.382812 C 61.941406 78.59375 58.640625 77.144531 56.921875 74.597656 C 55.742188 72.859375 55.398438 70.507812 56.867188 68.816406 C 57.4375 68.164062 58.226562 67.859375 59.09375 67.75 C 63.292969 67.257812 65.164062 67.671875 67.988281 64.332031 Z M 67.988281 64.332031 "/>
<path style=" stroke:none;fill-rule:nonzero;fill:rgb(92.156863%,0%,19.607843%);fill-opacity:1;" d="M 75.695312 78.183594 C 73.285156 78.722656 69.539062 79.101562 65.203125 77.910156 C 57.613281 75.816406 56.472656 71.59375 58.019531 69.816406 C 59.570312 68.042969 65.773438 70.515625 72.1875 72.277344 C 74.707031 72.96875 83.320312 74.890625 88.746094 73.136719 C 82.273438 73.523438 77.597656 72.5 71.585938 70.671875 C 67.480469 69.429688 64.335938 68.503906 64.335938 68.503906 C 64.335938 68.503906 66.160156 68.863281 69.160156 65.320312 C 72.160156 61.769531 75.519531 59.910156 75.519531 59.910156 C 75.519531 59.910156 74.863281 61.453125 74.132812 62.367188 C 73.40625 63.273438 73.085938 63.410156 73.085938 63.410156 C 73.085938 63.410156 77.976562 61.886719 79.882812 53.339844 C 81.792969 44.796875 80.699219 44.066406 86.796875 37.792969 C 92.886719 31.523438 99.476562 26.796875 106.25 24.980469 C 113.019531 23.160156 115.925781 23.570312 116.203125 24.980469 C 116.476562 26.390625 113.425781 28.15625 112.472656 29.34375 C 111.519531 30.519531 111.382812 31.203125 111.382812 31.203125 C 111.382812 31.203125 110.90625 29.59375 110.929688 28.9375 C 110.957031 28.273438 110.957031 28.273438 110.957031 28.273438 C 110.957031 28.273438 109.859375 28.9375 110.320312 31.660156 C 110.773438 34.386719 110.089844 36.433594 110.089844 36.433594 C 110.089844 36.433594 109.085938 35.023438 108.542969 33.773438 C 107.996094 32.523438 108.023438 31.367188 108.023438 31.367188 C 108.023438 31.367188 106.75 33.730469 108.746094 36.867188 C 110.746094 40.003906 110.929688 42.089844 111.199219 44.914062 C 111.476562 47.730469 112.507812 50.554688 114.363281 51.230469 C 116.21875 51.910156 117.632812 51.503906 117.632812 51.503906 C 117.632812 51.503906 115.386719 50.589844 114.199219 49.296875 C 113.019531 48 112.90625 46.113281 112.90625 46.113281 C 112.90625 46.113281 118.289062 45.339844 126.566406 46.476562 C 134.835938 47.617188 135.542969 47.34375 135.542969 47.34375 C 135.542969 47.34375 134.410156 47.046875 133.679688 46.796875 C 132.953125 46.546875 131.566406 46.113281 131.566406 46.113281 C 131.566406 46.113281 135.085938 44.566406 138.039062 45.65625 C 141 46.75 141.089844 51.15625 132.453125 58.527344 C 123.816406 65.890625 116.457031 70.066406 104.820312 73.617188 C 93.175781 77.160156 78.179688 76.300781 73.636719 75.113281 C 69.09375 73.933594 62.496094 71.042969 60.679688 71.117188 C 58.863281 71.183594 59.609375 72.59375 59.609375 72.59375 C 59.609375 72.59375 59.773438 72.25 60.238281 72.050781 C 60.890625 72.941406 62.949219 75.269531 67.136719 76.453125 C 70.191406 77.320312 73.136719 77.160156 75.046875 76.875 C 75.214844 77.242188 75.429688 77.695312 75.695312 78.183594 Z M 75.695312 78.183594 "/>
<path style=" stroke:none;fill-rule:nonzero;fill:rgb(73.72549%,0%,15.686275%);fill-opacity:1;" d="M 116.015625 25.855469 C 115.351562 27.066406 113.238281 28.394531 112.472656 29.34375 C 111.519531 30.519531 111.382812 31.203125 111.382812 31.203125 C 111.382812 31.203125 111.035156 30.019531 110.949219 29.265625 C 111.585938 28.636719 113.015625 27.363281 114.671875 26.714844 C 115.25 26.484375 115.683594 26.179688 116.015625 25.855469 Z M 110.625 28.644531 C 110.347656 29.078125 110.035156 29.980469 110.320312 31.660156 C 110.773438 34.386719 110.089844 36.433594 110.089844 36.433594 C 110.089844 36.433594 109.085938 35.023438 108.542969 33.773438 C 108.511719 33.691406 108.476562 33.609375 108.441406 33.527344 C 108.769531 33.242188 109.207031 32.667969 109.398438 31.550781 C 109.714844 29.699219 110.625 28.644531 110.625 28.644531 Z M 107.683594 32.519531 C 107.527344 33.507812 107.597656 35.058594 108.746094 36.867188 C 110.746094 40.003906 110.929688 42.089844 111.199219 44.914062 C 111.476562 47.730469 112.507812 50.554688 114.363281 51.230469 C 116.21875 51.910156 117.632812 51.503906 117.632812 51.503906 C 117.632812 51.503906 115.386719 50.589844 114.199219 49.296875 C 113.019531 48 112.90625 46.113281 112.90625 46.113281 C 112.90625 46.113281 118.289062 45.339844 126.566406 46.476562 C 134.835938 47.617188 135.542969 47.34375 135.542969 47.34375 C 135.542969 47.34375 134.410156 47.046875 133.679688 46.796875 C 132.953125 46.546875 131.566406 46.113281 131.566406 46.113281 C 131.566406 46.113281 135.085938 44.566406 138.039062 45.65625 C 141 46.75 141.089844 51.15625 132.453125 58.527344 C 129.425781 61.101562 126.558594 63.289062 123.609375 65.199219 C 131.105469 55.660156 119.902344 54.550781 114.246094 53.074219 C 107.980469 51.449219 110.148438 42.800781 108.511719 39.167969 C 106.878906 35.53125 107.683594 32.519531 107.683594 32.519531 Z M 107.683594 32.519531 "/>
<path style=" stroke:none;fill-rule:nonzero;fill:rgb(100%,63.921569%,72.54902%);fill-opacity:1;" d="M 68.339844 78.535156 C 67.335938 78.410156 66.289062 78.210938 65.203125 77.910156 C 59.34375 76.300781 57.335938 73.414062 57.429688 71.367188 C 57.550781 68.679688 62.765625 70.378906 64.234375 70.839844 C 75.464844 74.367188 90.820312 80.585938 119.488281 67.648438 C 115.1875 69.988281 110.515625 71.875 104.820312 73.617188 C 93.175781 77.160156 78.179688 76.300781 73.636719 75.113281 C 69.21875 73.96875 62.886719 71.21875 60.855469 71.117188 C 60.855469 71.117188 58.925781 70.8125 58.871094 72.632812 C 58.835938 73.90625 62.71875 77.320312 68.339844 78.535156 Z M 68.710938 69.808594 C 66.105469 69.023438 64.335938 68.503906 64.335938 68.503906 C 64.335938 68.503906 66.160156 68.863281 69.160156 65.320312 C 72.160156 61.769531 75.519531 59.910156 75.519531 59.910156 C 75.519531 59.910156 74.863281 61.453125 74.132812 62.367188 C 73.40625 63.273438 73.085938 63.410156 73.085938 63.410156 C 73.085938 63.410156 77.976562 61.886719 79.882812 53.339844 C 81.792969 44.796875 80.699219 44.066406 86.796875 37.792969 C 92.886719 31.523438 99.476562 26.796875 106.25 24.980469 C 112.359375 23.339844 115.324219 23.511719 116.042969 24.59375 C 114.789062 23.761719 105.023438 25.070312 100.003906 28.734375 C 94.992188 32.402344 83.925781 38.632812 82.175781 51.230469 C 80.421875 63.824219 74.921875 63.695312 70.417969 66.804688 C 68.652344 68.023438 68.386719 69.03125 68.710938 69.808594 Z M 68.710938 69.808594 "/>
<path style=" stroke:none;fill-rule:nonzero;fill:rgb(39.215686%,0%,8.235294%);fill-opacity:1;" d="M 61.195312 71.949219 C 61.480469 71.976562 61.816406 72.066406 62.203125 72.226562 C 63.679688 72.84375 68.128906 74.863281 73.054688 76.191406 C 71.5625 76.285156 69.789062 76.21875 67.925781 75.777344 C 64.101562 74.871094 61.980469 72.84375 61.195312 71.949219 Z M 61.195312 71.949219 "/>
<path style=" stroke:none;fill-rule:nonzero;fill:rgb(0%,0%,0%);fill-opacity:1;" d="M 96.746094 64.839844 C 96.746094 64.839844 103.613281 63.980469 108.660156 61.066406 C 113.707031 58.160156 114.246094 54.707031 114.246094 54.707031 C 114.246094 54.707031 109.675781 60.4375 96.746094 64.839844 Z M 96.746094 64.839844 "/>
<path style=" stroke:none;fill-rule:nonzero;fill:rgb(78.039216%,45.098039%,54.117647%);fill-opacity:1;" d="M 114.347656 71.566406 C 114.648438 71.964844 114.898438 72.351562 115.058594 72.6875 C 115.769531 74.214844 116.5625 73.867188 117.613281 71.226562 C 117.78125 70.800781 117.910156 70.34375 118.019531 69.878906 C 116.808594 70.480469 115.589844 71.042969 114.347656 71.566406 Z M 114.347656 71.566406 "/>
<path style=" stroke:none;fill-rule:nonzero;fill:rgb(0%,0%,0%);fill-opacity:1;" d="M 113.664062 70.445312 L 114.234375 71.117188 C 114.550781 71.496094 114.863281 71.875 115.15625 72.269531 C 115.40625 72.609375 115.628906 72.953125 115.839844 73.304688 C 116.027344 73.074219 116.199219 72.839844 116.3125 72.660156 C 117.039062 71.578125 117.492188 70.324219 117.695312 69.039062 L 117.769531 68.550781 C 119.949219 67.445312 122.015625 66.246094 124.054688 64.90625 L 123.9375 67.542969 C 123.851562 69.628906 123.457031 71.800781 122.558594 73.703125 C 122.484375 73.855469 122.410156 74.007812 122.328125 74.164062 L 123.527344 72.878906 L 123.835938 76.292969 C 123.925781 77.242188 123.871094 78.316406 123.789062 79.257812 C 123.585938 81.527344 123.046875 83.78125 122.199219 85.902344 C 119.285156 93.125 113.257812 97.546875 105.945312 99.761719 C 99.339844 101.757812 91.558594 102.339844 85.609375 98.210938 C 83.828125 96.96875 82.265625 95.3125 81.25 93.378906 C 80.570312 92.085938 79.957031 90.265625 80.363281 88.796875 C 80.925781 86.777344 80.796875 84.675781 80.496094 82.613281 L 79.664062 82.226562 C 77.542969 81.222656 76.554688 79.746094 75.480469 77.753906 L 75.390625 77.597656 C 75.261719 77.335938 75.148438 77.089844 75.046875 76.875 L 75.003906 76.882812 L 74.109375 75.230469 C 79.148438 76.347656 93.554688 77.042969 104.820312 73.617188 C 108.054688 72.628906 110.96875 71.59375 113.664062 70.445312 Z M 113.664062 70.445312 "/>
<path style=" stroke:none;fill-rule:nonzero;fill:rgb(100%,84.313725%,87.843137%);fill-opacity:1;" d="M 81.566406 77.363281 C 81.453125 78.105469 81.433594 79.050781 81.636719 80.179688 C 82.175781 83.207031 82.664062 86.207031 81.832031 89.207031 C 81 92.207031 87.183594 103.84375 105.496094 98.296875 C 123.816406 92.75 122.3125 76.433594 122.3125 76.433594 C 122.3125 76.433594 121.5 77.320312 119.792969 78.316406 C 118.085938 79.320312 116.949219 79.117188 116.949219 79.117188 C 116.949219 79.117188 119.457031 76.683594 121.183594 73.046875 C 122.0625 71.183594 122.347656 69.085938 122.414062 67.472656 C 122.21875 67.597656 122.027344 67.703125 121.832031 67.820312 C 120.964844 68.328125 120.085938 68.816406 119.207031 69.277344 C 118.621094 72.945312 116.496094 74.972656 115.90625 75.34375 C 115.113281 75.84375 115.113281 74.773438 113.929688 73.183594 C 113.683594 72.851562 113.386719 72.480469 113.0625 72.101562 C 110.5 73.144531 107.878906 74.042969 105.199219 74.863281 C 102.71875 75.613281 100.171875 76.15625 97.613281 76.550781 C 96.800781 76.679688 95.972656 76.792969 95.15625 76.886719 C 96.726562 77.957031 98.316406 77.503906 98.316406 77.503906 C 98.316406 77.503906 97.882812 79.414062 95.453125 80.417969 C 93.019531 81.414062 90.21875 80.105469 90.21875 80.105469 C 90.242188 80.308594 90.65625 80.898438 91.089844 81.027344 C 91.089844 81.027344 85.847656 82.855469 83.484375 77.429688 C 83.371094 77.421875 83.246094 77.421875 83.132812 77.417969 C 82.609375 77.402344 82.089844 77.390625 81.566406 77.363281 Z M 76.820312 77.03125 C 77.171875 77.675781 77.816406 78.796875 78.363281 79.40625 C 79.15625 80.296875 80.316406 80.84375 80.316406 80.84375 C 80.316406 80.84375 80.089844 79.867188 80.03125 78.617188 C 79.699219 78.234375 79.277344 77.707031 79.074219 77.261719 C 78.113281 77.191406 77.367188 77.105469 76.820312 77.03125 Z M 84.8125 77.449219 C 85.625 79.199219 87.011719 80.492188 89.296875 80.410156 C 88.597656 79.921875 88.054688 78.832031 88.136719 77.984375 C 90.441406 80.03125 94.613281 80.429688 97.011719 78.417969 C 97.011719 78.417969 95.011719 78.535156 93.703125 77.050781 C 90.75 77.34375 87.765625 77.472656 84.8125 77.449219 Z M 84.8125 77.449219 "/>
<path style=" stroke:none;fill-rule:nonzero;fill:rgb(100%,63.921569%,72.54902%);fill-opacity:1;" d="M 109.898438 96.589844 C 123.558594 89.992188 122.3125 76.433594 122.3125 76.433594 C 122.421875 79.089844 115.914062 88.976562 109.898438 96.589844 Z M 109.898438 96.589844 "/>
<path style=" stroke:none;fill-rule:nonzero;fill:rgb(100%,100%,100%);fill-opacity:1;" d="M 81.566406 77.363281 C 81.453125 78.105469 81.433594 79.050781 81.636719 80.179688 C 82.175781 83.207031 82.664062 86.207031 81.832031 89.207031 C 81.601562 90.027344 81.898438 91.492188 82.828125 93.074219 C 82.792969 90.367188 83.472656 87.507812 83.789062 85.394531 C 84.195312 82.660156 83.34375 80.273438 83.484375 77.429688 C 83.371094 77.421875 83.246094 77.421875 83.132812 77.417969 C 82.609375 77.402344 82.089844 77.390625 81.566406 77.363281 Z M 120.632812 68.503906 C 120.160156 68.765625 119.679688 69.023438 119.203125 69.273438 C 118.621094 72.945312 116.496094 74.972656 115.90625 75.34375 C 115.222656 75.769531 115.128906 75.039062 114.355469 73.800781 C 114.679688 74.449219 114.984375 75.195312 115.15625 75.972656 C 115.609375 78.113281 120.621094 72.695312 120.632812 68.503906 Z M 77.496094 77.117188 C 77.957031 77.9375 78.945312 79.503906 80.21875 80.316406 C 80.152344 79.914062 80.0625 79.304688 80.03125 78.617188 C 79.699219 78.234375 79.277344 77.707031 79.074219 77.261719 C 78.464844 77.214844 77.9375 77.164062 77.496094 77.117188 Z M 97.011719 78.417969 C 95.351562 79.378906 91.171875 79.300781 89.140625 77.371094 C 88.589844 77.394531 88.050781 77.410156 87.5 77.421875 C 87.507812 78.304688 87.699219 79.027344 88.28125 79.765625 C 88.28125 79.765625 86.296875 79.457031 84.8125 77.449219 C 85.625 79.199219 87.011719 80.492188 89.296875 80.410156 C 88.597656 79.921875 88.054688 78.832031 88.136719 77.984375 C 90.441406 80.03125 94.613281 80.429688 97.011719 78.417969 Z M 89.125 84.757812 C 88.382812 85.292969 88.035156 85.808594 87.878906 86.566406 C 87.039062 86.695312 86.417969 86.6875 86.417969 86.6875 C 86.984375 86.03125 87.609375 85.347656 89.125 84.757812 Z M 89.125 84.757812 "/>
<path style=" stroke:none;fill-rule:nonzero;fill:rgb(0%,0%,0%);fill-opacity:1;" d="M 92.640625 83.898438 C 92.640625 83.898438 89.425781 83.566406 86.824219 85.246094 C 84.695312 86.621094 84.371094 88.382812 85.800781 89.113281 C 87.230469 89.839844 87.601562 89.433594 88.78125 88.3125 C 89.960938 87.203125 90.035156 86.066406 88.78125 86.382812 C 87.527344 86.703125 86.417969 86.6875 86.417969 86.6875 C 87.3125 85.667969 88.320312 84.570312 92.640625 83.898438 Z M 92.640625 83.898438 "/>
<path style=" stroke:none;fill-rule:nonzero;fill:rgb(0%,0%,0%);fill-opacity:1;" d="M 90.757812 91.570312 C 90.757812 91.570312 94.984375 89.730469 97.734375 89.363281 C 100.484375 89 101.167969 89.230469 101.351562 89.867188 C 101.535156 90.5 100.511719 95.363281 97.144531 97.457031 C 93.777344 99.542969 93.101562 93.609375 90.757812 91.570312 Z M 90.757812 91.570312 "/>
<path style=" stroke:none;fill-rule:nonzero;fill:rgb(100%,60%,80%);fill-opacity:1;" d="M 100.234375 90.867188 C 100.234375 90.875 100.015625 93.183594 98.214844 95.132812 C 96.40625 97.09375 94.828125 96.957031 94.597656 95.414062 C 94.246094 92.996094 96.40625 91.890625 98.4375 91.300781 C 97.855469 91.722656 97.402344 92.335938 97.28125 93.210938 C 97.28125 93.210938 98.398438 91.550781 100.234375 90.867188 Z M 100.234375 90.867188 "/>
<path style=" stroke:none;fill-rule:nonzero;fill:rgb(0%,0%,0%);fill-opacity:1;" d="M 52.335938 119.949219 C 52.457031 119.742188 52.574219 119.539062 52.695312 119.335938 C 53.839844 117.382812 55.085938 115.46875 56.460938 113.664062 C 57.128906 112.777344 57.84375 111.917969 58.605469 111.105469 L 60.117188 109.488281 L 61.09375 111.476562 C 62.203125 113.765625 62.988281 116.230469 63.492188 118.71875 C 64.085938 121.679688 63.847656 124.757812 63.105469 127.671875 L 62.5625 129.765625 C 62.542969 129.941406 62.507812 130.109375 62.453125 130.28125 C 62.183594 131.152344 61.511719 131.679688 60.855469 132.265625 C 60.160156 132.886719 59.601562 133.484375 59.09375 134.277344 C 57.265625 137.132812 55.722656 139.125 52.078125 139.316406 C 51.265625 139.363281 50.464844 139.339844 49.667969 139.214844 C 49.320312 139.160156 48.929688 139.050781 48.582031 139.023438 C 48.339844 139.003906 48.082031 139.105469 47.859375 139.199219 C 44.84375 140.472656 41.417969 139.789062 40.273438 136.339844 C 40.144531 135.957031 39.75 134.722656 39.425781 134.445312 C 39.296875 134.34375 39.109375 134.25 38.964844 134.175781 C 38.578125 133.984375 38.195312 133.800781 37.808594 133.597656 C 36.65625 132.996094 35.574219 132.09375 34.835938 131.023438 C 34.082031 129.921875 33.65625 128.546875 34.164062 127.253906 C 34.441406 126.546875 34.964844 125.984375 35.707031 125.769531 C 37.101562 125.363281 38.546875 126.390625 39.453125 127.367188 C 39.554688 127.476562 39.785156 127.660156 40.035156 127.828125 C 39.90625 127.449219 39.75 127.082031 39.675781 126.90625 C 39.101562 125.503906 38.574219 124.191406 38.347656 122.671875 C 38.207031 121.71875 38.261719 120.703125 38.75 119.847656 C 39.195312 119.058594 39.96875 118.523438 40.882812 118.425781 C 42.21875 118.285156 43.429688 119.105469 43.929688 120.324219 C 44.355469 121.367188 44.816406 122.402344 45.359375 123.390625 C 45.523438 123.695312 45.960938 124.453125 46.390625 124.996094 C 46.320312 123.792969 46.015625 121.882812 45.957031 121.304688 C 45.773438 119.679688 46.164062 117.945312 47.695312 117.097656 C 48.832031 116.46875 50.351562 116.570312 51.320312 117.464844 C 51.996094 118.082031 52.21875 119.03125 52.335938 119.949219 Z M 52.335938 119.949219 "/>
<path style=" stroke:none;fill-rule:nonzero;fill:rgb(100%,84.313725%,87.843137%);fill-opacity:1;" d="M 52.519531 122.789062 C 52.519531 122.789062 55.871094 116.246094 59.71875 112.148438 C 60.511719 113.78125 61.398438 116.078125 61.992188 119.023438 C 62.601562 122.035156 62.21875 124.984375 61.621094 127.285156 C 59.054688 124.847656 55.472656 129.644531 54.246094 127.496094 C 53.515625 126.222656 52.519531 123.886719 52.519531 122.789062 Z M 49.335938 131.25 C 49.335938 131.25 51.285156 129.722656 53.792969 130.199219 C 56.289062 130.679688 56.675781 129.019531 58.242188 128.449219 C 59.8125 127.882812 60.902344 128.179688 61.039062 129.386719 C 61.175781 130.585938 59.46875 130.863281 57.816406 133.449219 C 56.15625 136.042969 54.96875 137.636719 51.988281 137.789062 C 49.015625 137.953125 49.035156 137.039062 47.269531 137.789062 C 45.496094 138.542969 42.675781 138.726562 41.722656 135.859375 C 40.765625 132.988281 40.515625 133.292969 38.519531 132.242188 C 36.515625 131.199219 35.039062 129.203125 35.585938 127.8125 C 36.128906 126.425781 37.71875 127.746094 38.335938 128.402344 C 38.945312 129.066406 41.402344 130.746094 41.742188 129.175781 C 42.082031 127.609375 40.285156 125.382812 39.859375 122.449219 C 39.425781 119.515625 41.878906 119.363281 42.515625 120.90625 C 43.152344 122.449219 45.0625 126.972656 46.808594 127.089844 C 48.5625 127.199219 47.8125 124.15625 47.472656 121.128906 C 47.128906 118.109375 49.449219 117.816406 50.289062 118.589844 C 51.128906 119.363281 50.65625 122.152344 51.652344 124.929688 C 52.652344 127.699219 53.332031 128.855469 53.332031 128.855469 C 53.332031 128.855469 50.40625 128.925781 49.335938 131.25 Z M 49.335938 131.25 "/>
<path style=" stroke:none;fill-rule:nonzero;fill:rgb(100%,63.921569%,72.54902%);fill-opacity:1;" d="M 62.117188 119.695312 C 62.542969 122.46875 62.167969 125.160156 61.621094 127.285156 C 59.847656 125.597656 57.585938 127.375 55.953125 127.914062 C 57.828125 126.59375 61.160156 123.757812 62.117188 119.695312 Z M 62.117188 119.695312 "/>
<path style=" stroke:none;fill-rule:nonzero;fill:rgb(100%,100%,100%);fill-opacity:1;" d="M 35.621094 127.726562 C 36.074219 127.863281 36.527344 128.125 36.960938 128.574219 C 38.703125 130.402344 41.539062 131.539062 41.660156 129.417969 C 41.695312 129.351562 41.722656 129.269531 41.742188 129.175781 C 42.082031 127.609375 40.285156 125.382812 39.859375 122.449219 C 39.765625 121.832031 39.804688 121.332031 39.925781 120.953125 C 40.355469 120.582031 41.113281 120.960938 41.667969 121.847656 C 42.914062 123.824219 44.03125 127.578125 46.457031 128.070312 C 47.6875 128.328125 48.054688 126.988281 47.925781 125.214844 C 47.898438 124.097656 47.636719 122.613281 47.472656 121.128906 C 47.40625 120.574219 47.4375 120.105469 47.527344 119.726562 C 47.878906 119.492188 48.324219 119.328125 48.886719 119.347656 C 50.648438 119.414062 50.507812 127.550781 52.59375 128.953125 C 51.652344 129.136719 50.058594 129.671875 49.335938 131.25 C 49.335938 131.25 51.285156 129.722656 53.792969 130.199219 C 56.289062 130.679688 56.675781 129.019531 58.242188 128.449219 C 58.5 128.355469 58.742188 128.289062 58.972656 128.242188 C 59.589844 128.679688 59.90625 129.296875 59.011719 130.117188 C 57.042969 131.917969 56.847656 133.476562 54.070312 135.867188 C 51.300781 138.265625 49.796875 135.578125 46.164062 137.6875 C 45.398438 138.128906 44.640625 138.230469 43.921875 138.117188 C 42.980469 137.84375 42.15625 137.175781 41.722656 135.859375 C 40.765625 132.988281 40.515625 133.292969 38.519531 132.242188 C 36.515625 131.199219 35.039062 129.203125 35.585938 127.8125 C 35.597656 127.785156 35.605469 127.753906 35.621094 127.726562 Z M 35.621094 127.726562 "/>
<path style=" stroke:none;fill-rule:nonzero;fill:rgb(0%,0%,0%);fill-opacity:1;" d="M 122.996094 97.707031 L 123.835938 98.140625 L 123.207031 99.476562 C 122.726562 100.484375 122.53125 102.253906 122.523438 103.328125 C 122.484375 107.082031 123.9375 110.707031 125.964844 113.808594 C 128.625 117.878906 132.742188 120.167969 137.105469 122.023438 C 138.988281 122.824219 140.945312 123.535156 142.796875 124.414062 C 144.296875 125.125 145.980469 126.085938 146.796875 127.597656 C 148.003906 129.796875 147.542969 132.8125 146.925781 135.128906 C 146.058594 138.375 144.757812 141.027344 143.214844 143.949219 C 140.132812 144.15625 137.214844 144.136719 134.125 143.949219 C 128.496094 143.609375 122.652344 142.6875 117.320312 140.796875 C 112.140625 138.960938 107.183594 136.078125 103.898438 131.566406 C 99.421875 125.410156 96.808594 118.117188 95.738281 110.617188 C 95.382812 108.152344 95.1875 105.644531 95.1875 103.160156 C 95.179688 102.902344 95.1875 102.640625 95.1875 102.382812 C 94.957031 102.449219 94.726562 102.515625 94.503906 102.585938 C 93.148438 102.992188 91.449219 103.304688 90.019531 103.316406 L 88.734375 103.328125 L 88.503906 102.070312 C 88.347656 101.203125 88.226562 100.308594 88.128906 99.4375 C 88.035156 98.480469 88.035156 97.390625 88.128906 96.433594 L 88.285156 94.925781 L 89.796875 95.066406 C 91.355469 95.210938 92.972656 95.261719 94.53125 95.289062 C 97.902344 95.34375 101.351562 95.203125 104.691406 94.722656 C 107.019531 94.382812 109.4375 93.863281 111.613281 92.960938 C 114.261719 91.871094 116.890625 90.421875 119.210938 88.699219 C 121.480469 87.019531 122.082031 82.835938 122.320312 80.160156 L 123.253906 80.316406 C 124.0625 80.457031 124.914062 80.660156 125.652344 81.011719 C 126.152344 81.242188 126.601562 81.542969 126.960938 81.960938 C 128.03125 83.207031 127.828125 84.90625 127.476562 86.382812 C 127.210938 87.488281 126.832031 88.585938 126.445312 89.648438 C 125.871094 91.21875 125.238281 92.769531 124.597656 94.316406 C 124.121094 95.460938 123.585938 96.597656 122.996094 97.707031 Z M 122.996094 97.707031 "/>
<path style=" stroke:none;fill-rule:nonzero;fill:rgb(100%,63.921569%,72.54902%);fill-opacity:1;" d="M 123.167969 82.910156 C 123.992188 83.066406 124.828125 83.351562 125.199219 83.859375 C 126.039062 85.03125 120.730469 90.847656 112.203125 94.371094 C 103.667969 97.898438 89.65625 96.585938 89.65625 96.585938 C 89.65625 96.585938 89.519531 97.953125 89.65625 99.28125 C 89.789062 100.605469 90.007812 101.792969 90.007812 101.792969 C 90.007812 101.792969 91.917969 101.773438 94.0625 101.121094 C 96.210938 100.472656 96.8125 100.269531 96.8125 100.269531 C 96.8125 100.269531 96.582031 102.652344 96.832031 106.359375 C 98.445312 106.953125 100.058594 107.265625 101.65625 107.199219 C 100.242188 107.792969 98.609375 107.832031 96.921875 107.507812 C 97.46875 113.636719 99.328125 122.6875 105.128906 130.664062 C 115.054688 144.300781 142.234375 142.484375 142.234375 142.484375 C 135.519531 137.351562 131.445312 132.589844 130.230469 129.035156 C 130.230469 129.035156 133.328125 133.578125 137.777344 137.253906 C 142.234375 140.941406 142.773438 141.507812 142.773438 141.507812 C 142.773438 141.507812 147.644531 132.324219 145.457031 128.328125 C 143.277344 124.328125 130.683594 123.824219 124.683594 114.640625 C 118.691406 105.464844 121.824219 98.824219 121.824219 98.824219 C 121.824219 98.824219 120.234375 101.664062 118.414062 103.324219 C 116.597656 104.984375 114.800781 105.261719 114.800781 105.261719 C 114.800781 105.261719 119.503906 102.558594 123.1875 93.726562 C 126.871094 84.894531 126.871094 83.269531 125.003906 82.394531 C 124.554688 82.179688 123.992188 82.023438 123.398438 81.898438 C 123.328125 82.238281 123.253906 82.578125 123.167969 82.910156 Z M 123.167969 82.910156 "/>
<path style=" stroke:none;fill-rule:nonzero;fill:rgb(96.078431%,55.686275%,66.666667%);fill-opacity:1;" d="M 133.578125 133.199219 C 134.75 134.492188 136.171875 135.933594 137.777344 137.253906 C 142.234375 140.941406 142.773438 141.507812 142.773438 141.507812 C 142.773438 141.507812 144.886719 137.527344 145.707031 133.667969 C 144.8125 134.613281 143.710938 135.480469 142.367188 135.96875 C 139.394531 137.058594 135.59375 134.714844 133.578125 133.199219 Z M 145.316406 128.09375 C 142.773438 124.304688 130.570312 123.640625 124.683594 114.640625 C 118.691406 105.464844 121.824219 98.824219 121.824219 98.824219 C 121.824219 98.824219 120.234375 101.664062 118.414062 103.324219 C 118.269531 103.457031 118.128906 103.582031 117.984375 103.695312 C 117.578125 110.015625 120.628906 116.632812 128.679688 121.007812 C 135.746094 124.839844 141.460938 126.105469 145.316406 128.09375 Z M 118.140625 102.207031 C 119.6875 100.402344 121.542969 97.679688 123.1875 93.726562 C 125.007812 89.355469 125.929688 86.75 126.167969 85.125 C 125.449219 87.574219 124.128906 90.480469 121.847656 93.507812 C 119.910156 96.070312 118.609375 99.078125 118.140625 102.207031 Z M 118.140625 102.207031 "/>
<path style=" stroke:none;fill-rule:nonzero;fill:rgb(78.039216%,45.098039%,54.117647%);fill-opacity:1;" d="M 89.59375 97.910156 C 89.59375 98.332031 89.605469 98.804688 89.65625 99.28125 C 89.789062 100.605469 90.007812 101.792969 90.007812 101.792969 C 90.007812 101.792969 91.53125 101.773438 93.386719 101.3125 C 91.503906 99.355469 90.167969 97.632812 90.167969 97.632812 Z M 96.738281 104.40625 C 96.757812 105.007812 96.785156 105.660156 96.832031 106.359375 C 98.445312 106.953125 100.058594 107.265625 101.65625 107.199219 C 101.65625 107.199219 100.179688 107.15625 96.738281 104.40625 Z M 99.988281 107.644531 C 99.015625 107.773438 97.976562 107.710938 96.921875 107.507812 C 97.46875 113.636719 99.328125 122.6875 105.128906 130.664062 C 106.675781 132.785156 108.632812 134.53125 110.839844 135.96875 C 100.03125 122.910156 99.664062 109.066406 99.988281 107.644531 Z M 99.988281 107.644531 "/>
<path style=" stroke:none;fill-rule:nonzero;fill:rgb(100%,84.313725%,87.843137%);fill-opacity:1;" d="M 120.84375 89.371094 C 118.636719 91.105469 115.691406 92.933594 112.203125 94.371094 C 103.835938 97.824219 90.203125 96.636719 89.667969 96.589844 L 89.601562 97.4375 C 89.601562 97.472656 89.601562 97.511719 89.601562 97.550781 C 99.210938 99.023438 114.484375 97.398438 120.84375 89.371094 Z M 120.84375 89.371094 "/>
<path style=" stroke:none;fill-rule:nonzero;fill:rgb(39.215686%,0%,8.235294%);fill-opacity:1;" d="M 123.28125 71.773438 C 126.890625 71.464844 129.695312 72.148438 132.960938 72.074219 C 130.597656 76.320312 130.433594 80.160156 130.386719 84.921875 C 130.386719 84.921875 133.238281 85.386719 136.015625 85.023438 C 132.941406 90.867188 130.867188 105.226562 140.574219 107.800781 C 136.910156 107.203125 135.324219 114.449219 128.273438 116.238281 C 119.839844 108.496094 122.882812 97.464844 124.460938 94.269531 C 126.253906 90.644531 128.570312 85.171875 127.527344 83.078125 C 126.710938 81.445312 124.535156 80.796875 123.632812 80.59375 C 124.035156 77.863281 123.683594 74.585938 123.527344 72.878906 C 123.105469 73.589844 122.863281 73.820312 122.328125 74.164062 C 122.726562 73.386719 123.039062 72.621094 123.28125 71.773438 Z M 74.082031 84.960938 C 74.082031 84.960938 75.714844 83.011719 78.722656 81.703125 C 78.988281 81.875 79.277344 82.035156 79.597656 82.191406 C 79.617188 82.199219 79.644531 82.210938 79.664062 82.226562 L 80.496094 82.613281 L 80.511719 82.714844 L 80.523438 82.792969 L 80.523438 82.828125 L 80.53125 82.882812 L 80.539062 82.917969 C 80.542969 82.976562 80.550781 83.03125 80.558594 83.085938 L 80.566406 83.097656 L 80.570312 83.195312 L 80.578125 83.214844 L 80.585938 83.28125 L 80.59375 83.316406 L 80.597656 83.371094 L 80.597656 83.410156 L 80.605469 83.464844 L 80.613281 83.503906 L 80.617188 83.546875 L 80.617188 83.59375 L 80.632812 83.652344 L 80.632812 83.695312 L 80.640625 83.769531 L 80.644531 83.816406 L 80.652344 83.855469 L 80.652344 83.90625 L 80.660156 83.945312 L 80.667969 84 L 80.667969 84.035156 L 80.671875 84.085938 L 80.671875 84.113281 C 80.679688 84.175781 80.6875 84.242188 80.695312 84.304688 L 80.695312 84.34375 L 80.699219 84.40625 L 80.699219 84.433594 L 80.707031 84.488281 L 80.707031 84.527344 L 80.714844 84.582031 L 80.714844 84.609375 L 80.71875 84.671875 L 80.71875 84.691406 C 80.71875 84.765625 80.726562 84.832031 80.726562 84.902344 L 80.734375 84.921875 L 80.734375 85.007812 L 80.742188 85.078125 L 80.742188 85.183594 C 80.746094 85.3125 80.746094 85.441406 80.746094 85.570312 L 80.746094 85.761719 C 80.746094 85.863281 80.746094 85.964844 80.746094 86.074219 L 80.742188 86.152344 L 80.742188 86.160156 C 80.742188 86.1875 80.742188 86.214844 80.742188 86.234375 L 80.742188 86.242188 C 80.734375 86.402344 80.726562 86.566406 80.714844 86.730469 L 80.714844 86.734375 C 80.699219 86.898438 80.6875 87.0625 80.667969 87.222656 C 80.660156 87.25 80.660156 87.277344 80.652344 87.304688 C 80.640625 87.441406 80.617188 87.574219 80.597656 87.710938 C 80.589844 87.738281 80.585938 87.765625 80.585938 87.792969 L 80.578125 87.800781 C 80.578125 87.820312 80.570312 87.847656 80.570312 87.875 L 80.566406 87.875 C 78.675781 87.453125 76.015625 86.613281 74.082031 84.960938 Z M 74.082031 84.960938 "/>
<path style=" stroke:none;fill-rule:nonzero;fill:rgb(100%,63.921569%,72.54902%);fill-opacity:1;" d="M 124.40625 71.707031 C 127.488281 71.597656 130.042969 72.140625 132.960938 72.074219 C 130.941406 75.710938 130.53125 79.035156 130.421875 82.902344 C 129.667969 79.074219 131.207031 72.914062 131.207031 72.914062 C 131.207031 72.914062 128.234375 72.6875 125.9375 72.003906 C 125.449219 71.863281 124.929688 71.769531 124.40625 71.707031 Z M 124.40625 71.707031 "/>
<path style=" stroke:none;fill-rule:nonzero;fill:rgb(0%,0%,0%);fill-opacity:1;" d="M 141.941406 72.167969 C 140.398438 72.960938 139.207031 74.214844 138.367188 75.714844 C 138.007812 76.375 137.640625 77.1875 137.476562 77.910156 L 137.308594 78.648438 C 134.835938 79.96875 132.140625 80.84375 131.015625 84.035156 C 131.003906 83.097656 130.96875 82.171875 130.960938 81.242188 C 131.03125 79.582031 131.214844 77.660156 131.6875 76.265625 C 132.710938 73.265625 133.890625 71.734375 133.183594 71.734375 C 132.703125 71.734375 126.914062 71.363281 123.28125 71.117188 L 126.363281 69.222656 C 127.265625 68.671875 128.21875 68.152344 129.160156 67.664062 C 131.179688 66.613281 133.285156 65.660156 135.441406 64.925781 C 138.007812 64.046875 141.257812 63.273438 143.945312 63.953125 C 144.550781 64.109375 145.136719 64.3125 145.699219 64.566406 C 148.476562 65.820312 150.6875 68.210938 152.773438 70.367188 C 155.140625 72.824219 157.429688 75.066406 160.453125 76.730469 C 163.058594 78.175781 165.835938 79.378906 168.75 80.066406 C 169.542969 80.253906 170.328125 80.390625 171.125 80.519531 C 171.714844 80.621094 172.414062 80.714844 172.921875 81.027344 C 173.007812 81.082031 173.089844 81.148438 173.171875 81.214844 C 173.769531 81.738281 173.921875 82.53125 173.714844 83.273438 C 173.558594 83.84375 173.207031 84.34375 172.8125 84.773438 C 171.601562 86.070312 169.601562 87.046875 167.984375 87.703125 C 166.921875 88.136719 165.835938 88.539062 164.738281 88.882812 C 158.636719 90.792969 152.277344 90.800781 145.953125 90.542969 L 143.324219 90.433594 C 146.027344 87.75 149.636719 84.730469 146.027344 78.695312 C 150.328125 77.882812 148.585938 68.761719 141.941406 72.167969 Z M 92.933594 87.472656 C 90.367188 92.289062 89.628906 95.535156 90.441406 101.316406 C 90.710938 101.296875 90.980469 101.269531 91.234375 101.25 C 92.480469 101.128906 93.996094 100.757812 95.207031 100.445312 C 97.578125 99.847656 97.207031 99.542969 97.113281 101.988281 C 97.058594 103.34375 97.132812 104.804688 97.226562 106.160156 C 97.464844 109.472656 97.992188 112.804688 98.824219 116.023438 C 101.046875 124.605469 105.515625 132.535156 113.503906 136.929688 C 120.863281 140.980469 129.167969 142.910156 137.558594 142.753906 C 142.4375 142.660156 148.011719 141.882812 151.816406 140.871094 C 151.398438 142.566406 144.296875 148.582031 142.160156 150.179688 C 136.558594 154.351562 130.429688 158.203125 124.035156 161.015625 C 120.066406 162.761719 115.832031 164.164062 111.53125 164.78125 C 105.765625 165.613281 99.652344 165.835938 93.90625 164.773438 C 88.929688 163.851562 84.128906 161.921875 80.410156 158.394531 C 76.804688 154.972656 74.792969 150.585938 73.988281 145.722656 C 72.945312 139.457031 72.808594 132.902344 74.035156 126.648438 C 74.359375 124.976562 74.789062 123.304688 75.34375 121.699219 C 74.109375 122.367188 72.890625 122.976562 71.773438 123.492188 C 69.660156 124.476562 67.738281 125.964844 66.113281 127.625 C 64.054688 129.730469 64.105469 130.070312 61.464844 131.714844 C 62.0625 129.851562 62.285156 126.5 62.285156 123.453125 C 62.285156 119.335938 61.324219 115.46875 59.597656 111.835938 C 57.449219 114.078125 55.375 117.351562 55.375 117.351562 L 52.476562 122.265625 L 51.359375 119.265625 C 50.945312 118.15625 50.574219 116.921875 50.335938 115.765625 C 49.917969 113.679688 49.53125 111.648438 49.246094 109.535156 C 48.746094 105.828125 48.488281 102.007812 48.707031 98.277344 C 48.773438 97.097656 48.894531 95.921875 49.078125 94.75 C 49.585938 91.46875 50.480469 87.957031 51.9375 84.960938 C 52.371094 84.074219 52.898438 83.125 53.535156 82.367188 C 54.199219 81.570312 55.214844 80.851562 56.292969 81.371094 C 56.621094 81.535156 56.886719 81.796875 57.0625 82.117188 C 57.828125 83.53125 58.554688 84.710938 59.609375 85.949219 C 61.378906 88.003906 63.566406 89.59375 66.167969 90.386719 C 67.683594 90.855469 69.199219 91.179688 70.785156 91.308594 C 71.542969 91.367188 72.300781 91.382812 73.0625 91.394531 C 72.953125 90.929688 72.863281 90.449219 72.789062 90.074219 C 72.53125 88.734375 72.363281 87.320312 72.269531 85.957031 L 72.1875 84.851562 C 78.609375 87.699219 81.554688 88.707031 87.570312 88.199219 C 89.296875 88.132812 91.183594 87.730469 92.933594 87.472656 Z M 135.675781 96.609375 C 136.207031 97.945312 136.996094 99.292969 138.417969 99.792969 C 140.382812 100.492188 143.824219 99.558594 145.835938 99.164062 C 149.5625 98.445312 153.070312 98.15625 156.644531 99.726562 C 161.273438 101.757812 164.300781 105.992188 166.175781 110.535156 C 168.125 115.269531 168.316406 119.753906 168.011719 122.714844 C 164.664062 117.832031 162.34375 113.253906 156.53125 111.195312 C 154.660156 110.523438 152.636719 110.238281 150.664062 110.015625 C 148.011719 109.710938 145.367188 109.480469 142.714844 109.09375 C 138.644531 108.492188 135.480469 106.308594 133.835938 102.511719 C 133.164062 100.964844 132.675781 98.839844 132.730469 97.125 L 132.945312 89.738281 Z M 135.675781 96.609375 "/>
<path style=" stroke:none;fill-rule:nonzero;fill:rgb(39.215686%,0%,8.235294%);fill-opacity:1;" d="M 54.914062 115.8125 C 55.410156 115.082031 55.925781 114.363281 56.460938 113.664062 C 57.128906 112.777344 57.84375 111.917969 58.605469 111.105469 L 59.011719 110.664062 C 58.632812 109.945312 58.226562 109.234375 57.789062 108.53125 C 56.597656 106.621094 55.753906 104.453125 55.144531 102.292969 C 54.375 99.542969 53.925781 96.652344 53.695312 93.808594 C 53.675781 93.5625 53.65625 93.320312 53.644531 93.070312 C 53.25 94.695312 53.019531 96.394531 52.878906 98.027344 C 52.816406 98.792969 52.777344 99.5625 52.769531 100.328125 C 52.707031 104.0625 53.1875 107.894531 53.921875 111.546875 C 54.203125 112.949219 54.523438 114.410156 54.914062 115.8125 Z M 54.914062 115.8125 "/>
<path style=" stroke:none;fill-rule:nonzero;fill:rgb(39.215686%,0%,8.235294%);fill-opacity:1;" d="M 148.171875 86.5 C 152.582031 86.722656 161.527344 86.074219 164.867188 84.332031 C 164.9375 84.292969 165.03125 84.242188 165.132812 84.191406 C 160.574219 82.917969 155.847656 80.5 152.773438 76.828125 C 151.9375 75.832031 150.976562 74.707031 149.894531 73.757812 C 150.152344 75.160156 149.695312 77.28125 148.519531 78.109375 C 149.058594 79.957031 149.25 81.953125 148.925781 83.863281 C 148.78125 84.730469 148.546875 85.652344 148.171875 86.5 Z M 148.171875 86.5 "/>
<path style=" stroke:none;fill-rule:nonzero;fill:rgb(92.156863%,0%,19.607843%);fill-opacity:1;" d="M 146.972656 70.332031 C 149.675781 71.082031 151.789062 73.277344 153.9375 75.84375 C 157.253906 79.792969 162.347656 81.824219 165.574219 82.726562 C 168.804688 83.628906 168.328125 84.25 165.574219 85.6875 C 161.847656 87.628906 151.832031 88.363281 147.277344 87.96875 C 147.199219 88.0625 147.109375 88.164062 147.023438 88.253906 C 146.742188 88.539062 146.390625 88.816406 146.011719 89.019531 C 156.671875 89.453125 161.683594 88.613281 167.40625 86.289062 C 172.019531 84.417969 172.652344 82.652344 172.121094 82.328125 C 171.300781 81.824219 167.152344 82.183594 159.714844 78.066406 C 152.269531 73.957031 149.34375 66.890625 143.574219 65.433594 C 137.804688 63.980469 127.164062 70.523438 127.164062 70.523438 C 127.164062 70.523438 132.847656 70.785156 134.253906 71.050781 C 135.664062 71.308594 134.4375 72.179688 133.78125 73.65625 C 132.5625 76.386719 131.75 78.222656 131.902344 81.148438 C 132.414062 80.476562 133.035156 79.863281 133.765625 79.292969 C 133.828125 77.632812 134.140625 73.460938 135.859375 71.050781 C 138.039062 67.980469 139.566406 67.472656 139.566406 67.472656 C 139.566406 67.472656 134.53125 72.128906 135.332031 78.269531 C 135.515625 78.160156 135.703125 78.058594 135.898438 77.957031 L 135.988281 77.578125 C 136.179688 76.726562 136.613281 75.738281 137.03125 74.976562 C 138.011719 73.203125 139.429688 71.742188 141.246094 70.804688 C 143.011719 69.898438 145.058594 69.539062 146.941406 70.320312 C 146.953125 70.324219 146.960938 70.324219 146.972656 70.332031 Z M 53.722656 117.152344 C 53.722656 117.152344 50.582031 106.972656 51.359375 97.898438 C 52.132812 88.816406 55.222656 85.761719 55.085938 88.3125 C 54.949219 90.867188 55.085938 101.3125 59.082031 107.726562 C 63.085938 114.132812 63.808594 119.71875 63.808594 123.453125 C 63.808594 127.175781 62.71875 129.289062 62.71875 129.289062 C 62.71875 129.289062 65.949219 124.515625 71.128906 122.109375 C 76.3125 119.699219 80.355469 116.96875 82.402344 114.566406 C 84.445312 112.15625 84.445312 110.023438 84.445312 110.023438 C 84.445312 110.023438 85.535156 112.996094 82.765625 116.0625 C 79.996094 119.132812 77.585938 120.203125 77.585938 120.203125 C 77.585938 120.203125 72.859375 129.65625 75.492188 145.472656 C 78.125 161.292969 93.128906 165.886719 111.316406 163.269531 C 129.492188 160.65625 148.855469 142.75 148.855469 142.75 C 148.855469 142.75 130.96875 148.289062 112.765625 138.265625 C 94.566406 128.246094 95.585938 101.929688 95.585938 101.929688 C 95.585938 101.929688 92.8125 102.632812 91.382812 102.769531 C 89.945312 102.902344 89.152344 102.882812 89.152344 102.882812 C 89.152344 102.882812 88.265625 98.351562 88.855469 94.605469 C 89.453125 90.867188 90.3125 89.1875 90.3125 89.1875 C 90.3125 89.1875 86.585938 89.925781 81.222656 88.949219 C 75.859375 87.976562 73.792969 85.847656 73.792969 85.847656 C 73.792969 85.847656 73.949219 88.03125 74.285156 89.777344 C 74.632812 91.53125 74.835938 92.003906 74.835938 92.003906 C 74.835938 92.003906 78.714844 92.609375 81.480469 94.597656 C 84.242188 96.585938 83.980469 99.097656 83.980469 99.097656 C 83.980469 99.097656 83.039062 95.914062 78.492188 93.964844 C 73.949219 92.003906 72.269531 93.847656 65.71875 91.851562 C 59.175781 89.851562 56.222656 83.769531 55.722656 82.847656 C 55.222656 81.925781 51.949219 86.253906 50.589844 94.984375 C 49.21875 103.710938 51.515625 113.894531 51.835938 115.460938 C 52.152344 117.03125 52.789062 118.730469 52.789062 118.730469 Z M 134.253906 97.171875 C 134.253906 97.171875 133.984375 106.261719 142.9375 107.582031 C 154.324219 109.257812 159.441406 107.554688 166.757812 118.21875 C 166.757812 118.21875 165.03125 105.070312 156.03125 101.121094 C 147.027344 97.171875 138.039062 106.722656 134.253906 97.171875 Z M 134.253906 97.171875 "/>
<path style=" stroke:none;fill-rule:nonzero;fill:rgb(100%,63.921569%,72.54902%);fill-opacity:1;" d="M 143.851562 65.507812 C 143.757812 65.484375 143.667969 65.457031 143.574219 65.433594 C 137.804688 63.980469 127.164062 70.523438 127.164062 70.523438 C 127.164062 70.523438 128.320312 70.574219 129.714844 70.65625 C 133.457031 68.265625 138.832031 65.585938 143.851562 65.507812 Z M 143.851562 65.507812 "/>
<path style=" stroke:none;fill-rule:nonzero;fill:rgb(73.72549%,0%,15.686275%);fill-opacity:1;" d="M 146.972656 70.332031 C 149.675781 71.082031 151.789062 73.277344 153.9375 75.84375 C 157.253906 79.792969 162.347656 81.824219 165.574219 82.726562 C 168.804688 83.628906 168.328125 84.25 165.574219 85.6875 C 161.847656 87.628906 151.832031 88.363281 147.277344 87.96875 C 147.199219 88.0625 147.109375 88.164062 147.023438 88.253906 C 146.742188 88.539062 146.390625 88.816406 146.011719 89.019531 C 156.652344 89.453125 161.664062 88.617188 167.382812 86.300781 C 169.832031 84.710938 170.558594 83.253906 167.671875 82.328125 C 157.851562 79.171875 159.402344 79.394531 152.128906 72.527344 C 144.855469 65.664062 139.847656 70.34375 138.554688 71.78125 C 137.269531 73.210938 136.585938 74.03125 136.625 72.777344 C 136.652344 72.121094 136.816406 71.402344 136.964844 70.878906 C 135.878906 72.785156 134.953125 75.359375 135.332031 78.269531 C 135.515625 78.160156 135.703125 78.058594 135.902344 77.957031 L 135.988281 77.578125 C 136.179688 76.726562 136.613281 75.738281 137.03125 74.976562 C 138.011719 73.203125 139.429688 71.742188 141.246094 70.804688 C 143.011719 69.898438 145.058594 69.539062 146.941406 70.320312 C 146.953125 70.324219 146.960938 70.324219 146.972656 70.332031 Z M 134.851562 71.320312 C 135.136719 71.742188 134.289062 72.519531 133.78125 73.65625 C 132.5625 76.386719 131.75 78.222656 131.902344 81.148438 C 132.414062 80.476562 133.035156 79.863281 133.765625 79.292969 C 133.828125 77.632812 134.140625 73.460938 135.859375 71.050781 C 136.082031 70.730469 136.300781 70.441406 136.511719 70.175781 C 136.109375 70.5625 135.527344 70.949219 134.851562 71.320312 Z M 134.851562 71.320312 "/>
<path style=" stroke:none;fill-rule:nonzero;fill:rgb(100%,63.921569%,72.54902%);fill-opacity:1;" d="M 134.261719 97.472656 C 134.808594 100.769531 137.125 106.824219 146.703125 106.890625 C 159.863281 106.988281 164.007812 111.226562 166.757812 118.21875 C 159.441406 107.554688 154.324219 109.257812 142.9375 107.582031 C 134.957031 106.40625 134.308594 99.054688 134.261719 97.472656 Z M 134.261719 97.472656 "/>
<path style=" stroke:none;fill-rule:nonzero;fill:rgb(73.72549%,0%,15.686275%);fill-opacity:1;" d="M 56.988281 85.007812 C 57.816406 86.933594 59.269531 89.378906 61.832031 91.9375 C 67.785156 97.898438 78.316406 95.925781 80.035156 95.960938 C 80.945312 95.980469 81.714844 96.226562 82.238281 96.457031 C 82.171875 96.394531 82.101562 96.328125 82.035156 96.257812 C 81.527344 95.914062 80.855469 95.417969 80.132812 94.800781 C 79.644531 94.503906 79.101562 94.226562 78.492188 93.964844 C 73.949219 92.003906 72.269531 93.847656 65.71875 91.851562 C 61.269531 90.488281 58.480469 87.238281 56.988281 85.007812 Z M 91.429688 162.640625 C 83.023438 160.339844 77.0625 154.898438 75.492188 145.472656 C 74.402344 138.914062 74.570312 133.457031 75.148438 129.304688 C 75.261719 128.511719 75.390625 127.726562 75.546875 126.941406 C 76.398438 122.578125 77.585938 120.203125 77.585938 120.203125 C 77.585938 120.203125 79.996094 119.132812 82.765625 116.0625 C 83.164062 115.621094 83.492188 115.175781 83.742188 114.742188 C 80.078125 130.761719 78.433594 149.867188 91.429688 162.640625 Z M 63.660156 125.796875 C 65.265625 123.433594 67.695312 121.089844 71.402344 119.617188 C 81.335938 115.671875 84.203125 111.34375 84.210938 111.335938 C 83.957031 112.175781 83.449219 113.332031 82.402344 114.566406 C 80.355469 116.96875 76.3125 119.699219 71.128906 122.113281 C 65.949219 124.515625 62.71875 129.289062 62.71875 129.289062 C 62.71875 129.289062 63.363281 128.050781 63.660156 125.796875 Z M 78.214844 92.925781 C 77.21875 91.789062 76.3125 90.449219 75.785156 88.929688 C 75.519531 88.171875 75.34375 87.496094 75.222656 86.878906 C 74.226562 86.296875 73.792969 85.847656 73.792969 85.847656 C 73.792969 85.847656 73.949219 88.03125 74.285156 89.777344 C 74.632812 91.53125 74.835938 92.003906 74.835938 92.003906 C 74.835938 92.003906 76.378906 92.25 78.214844 92.925781 Z M 78.214844 92.925781 "/>
<path style=" stroke:none;fill-rule:nonzero;fill:rgb(100%,63.921569%,72.54902%);fill-opacity:1;" d="M 53.8125 84.675781 C 54.210938 84.296875 54.652344 84.0625 55.078125 84.140625 C 56.445312 84.417969 56.0625 89.351562 56.785156 95.941406 C 57.511719 102.53125 62.828125 109.527344 63.828125 115.257812 C 64.335938 118.148438 64.546875 121.746094 63.699219 125.445312 C 63.769531 124.839844 63.808594 124.175781 63.808594 123.453125 C 63.808594 119.71875 63.085938 114.132812 59.082031 107.726562 C 55.085938 101.3125 54.949219 90.867188 55.085938 88.3125 C 55.222656 85.761719 52.132812 88.816406 51.359375 97.898438 C 50.582031 106.972656 53.722656 117.152344 53.722656 117.152344 L 52.789062 118.730469 C 52.789062 118.730469 52.152344 117.03125 51.835938 115.460938 C 51.515625 113.894531 49.21875 103.710938 50.589844 94.984375 C 51.339844 90.148438 52.679688 86.660156 53.8125 84.675781 Z M 76.546875 87.554688 C 79.933594 89.839844 84.285156 90.808594 88.339844 90.441406 C 87.988281 93.496094 87.507812 100.289062 89.152344 102.882812 C 89.152344 102.882812 88.265625 98.351562 88.855469 94.605469 C 89.453125 90.867188 90.3125 89.1875 90.3125 89.1875 C 90.3125 89.1875 86.585938 89.925781 81.222656 88.949219 C 79.230469 88.585938 77.695312 88.0625 76.546875 87.554688 Z M 89.152344 102.882812 C 90.757812 103.613281 94.566406 103.417969 94.566406 103.417969 C 94.566406 103.417969 94.707031 134.445312 115.914062 139.851562 C 114.871094 139.367188 113.820312 138.847656 112.765625 138.265625 C 94.566406 128.246094 95.585938 101.929688 95.585938 101.929688 C 95.585938 101.929688 92.8125 102.632812 91.382812 102.769531 C 89.945312 102.902344 89.152344 102.882812 89.152344 102.882812 Z M 89.152344 102.882812 "/>
<path style=" stroke:none;fill-rule:nonzero;fill:rgb(0%,0%,0%);fill-opacity:1;" d="M 103.558594 177.324219 C 100.84375 178.304688 99.53125 177.464844 97.105469 176.476562 C 95.058594 175.609375 94.816406 173.800781 94.707031 171.84375 C 94.625 170.417969 94.632812 168.960938 94.652344 167.523438 C 94.660156 166.792969 94.652344 166.0625 94.617188 165.335938 L 94.53125 163.507812 L 96.339844 163.75 C 99.792969 164.207031 103.328125 164.207031 106.789062 163.925781 L 108.410156 163.792969 L 108.441406 165.417969 C 108.46875 167.117188 108.511719 169 108.773438 170.667969 C 109.113281 172.773438 108.640625 175.734375 106.4375 176.679688 C 105.640625 177.027344 104.683594 176.917969 103.558594 177.324219 Z M 127.589844 167.285156 C 126.113281 167.789062 124.339844 168.085938 123.417969 167.746094 C 121.804688 167.164062 121.0625 165.59375 121.0625 163.960938 C 121.0625 163.285156 120.984375 162.585938 120.898438 161.921875 L 120.75 160.765625 L 121.820312 160.316406 C 125.0625 158.957031 128.199219 157.308594 131.21875 155.515625 L 133.042969 154.425781 L 133.496094 156.496094 C 134.363281 160.5 131.273438 166.019531 127.589844 167.285156 Z M 127.589844 167.285156 "/>
<path style=" stroke:none;fill-rule:nonzero;fill:rgb(100%,84.313725%,87.843137%);fill-opacity:1;" d="M 96.144531 165.261719 C 96.171875 165.925781 96.191406 166.691406 96.175781 167.542969 C 96.128906 171.179688 96.246094 173.042969 96.515625 173.863281 C 96.792969 174.683594 97.699219 175.070312 97.699219 175.070312 C 97.699219 175.070312 97.316406 173.113281 97.382812 172.019531 C 97.449219 170.929688 98.105469 170.160156 98.105469 170.160156 C 98.105469 170.160156 97.972656 173.707031 99.0625 175.320312 C 100.152344 176.933594 103.042969 175.890625 103.042969 175.890625 C 103.042969 175.890625 101.554688 174.34375 101.316406 172.617188 C 101.074219 170.890625 102.359375 170.070312 102.359375 170.070312 C 102.359375 170.070312 101.339844 173.253906 103.816406 174.914062 C 106.289062 176.566406 107.726562 173.75 107.269531 170.910156 C 107.035156 169.425781 106.945312 167.226562 106.914062 165.445312 C 103.105469 165.75 99.488281 165.703125 96.144531 165.261719 Z M 122.414062 161.726562 C 122.515625 162.53125 122.585938 163.316406 122.585938 163.960938 C 122.585938 166.570312 124.996094 167.132812 126.472656 165.546875 C 127.949219 163.960938 127.246094 160.75 127.246094 160.75 C 127.246094 160.75 127.882812 161.226562 128.132812 162.816406 C 128.382812 164.410156 127.832031 165.59375 127.832031 165.59375 C 127.832031 165.59375 130.042969 164.542969 130.40625 162.476562 C 130.765625 160.414062 129.925781 158.570312 129.925781 158.570312 C 129.925781 158.570312 130.632812 158.957031 131.015625 159.863281 C 131.402344 160.773438 131.363281 161.476562 131.363281 161.476562 C 131.363281 161.476562 132.566406 159.429688 132.007812 156.824219 C 129.003906 158.609375 125.761719 160.316406 122.414062 161.726562 Z M 122.414062 161.726562 "/>
<path style=" stroke:none;fill-rule:nonzero;fill:rgb(100%,63.921569%,72.54902%);fill-opacity:1;" d="M 96.304688 172.707031 C 96.359375 173.21875 96.425781 173.597656 96.515625 173.863281 C 96.792969 174.683594 97.699219 175.070312 97.699219 175.070312 C 97.699219 175.070312 97.46875 173.917969 97.394531 172.886719 C 97.097656 172.949219 96.691406 172.957031 96.304688 172.707031 Z M 124.066406 161 C 124.140625 161.6875 124.195312 162.375 124.230469 163.039062 C 124.34375 165.574219 126.1875 165.214844 127.183594 164.253906 C 127.035156 164.734375 126.8125 165.179688 126.472656 165.546875 C 124.996094 167.132812 122.585938 166.570312 122.585938 163.960938 C 122.585938 163.316406 122.515625 162.53125 122.414062 161.726562 C 122.972656 161.488281 123.519531 161.253906 124.066406 161 Z M 128.144531 162.890625 C 128.597656 162.90625 129.40625 162.824219 129.925781 162.199219 C 130.25 161.816406 130.402344 161.285156 130.46875 160.796875 C 130.515625 161.3125 130.507812 161.890625 130.40625 162.476562 C 130.042969 164.542969 127.832031 165.59375 127.832031 165.59375 C 127.832031 165.59375 128.367188 164.441406 128.144531 162.890625 Z M 130.859375 159.546875 C 131.179688 159.492188 131.675781 159.328125 132.128906 158.875 C 131.980469 160.425781 131.363281 161.476562 131.363281 161.476562 C 131.363281 161.476562 131.402344 160.769531 131.015625 159.863281 C 130.96875 159.75 130.914062 159.648438 130.859375 159.546875 Z M 98.453125 173.828125 C 98.59375 174.390625 98.792969 174.914062 99.0625 175.320312 C 100.152344 176.933594 103.042969 175.890625 103.042969 175.890625 C 103.042969 175.890625 101.898438 174.703125 101.460938 173.246094 C 101.285156 173.640625 100.964844 174.101562 100.273438 174.335938 C 99.421875 174.628906 98.832031 174.277344 98.453125 173.828125 Z M 102.679688 173.714844 C 102.929688 174.148438 103.296875 174.5625 103.816406 174.914062 C 106.289062 176.566406 107.726562 173.75 107.269531 170.910156 C 107.035156 169.425781 106.945312 167.226562 106.910156 165.445312 C 106.234375 165.5 105.5625 165.546875 104.902344 165.574219 C 104.894531 166.847656 104.902344 169.109375 105.023438 170.953125 C 105.171875 173.152344 103.660156 174.183594 102.679688 173.714844 Z M 102.679688 173.714844 "/>
<path style=" stroke:none;fill-rule:nonzero;fill:rgb(100%,63.921569%,72.54902%);fill-opacity:1;" d="M 101.492188 111.53125 L 112.074219 105.773438 L 105.171875 103.824219 Z M 101.492188 111.53125 "/>
<path style=" stroke:none;fill-rule:nonzero;fill:rgb(100%,23.137255%,34.901961%);fill-opacity:1;" d="M 16.566406 128.246094 C 16.566406 128.246094 15.566406 132.25 18.519531 135.523438 C 21.472656 138.800781 20.0625 151.566406 32.292969 150.890625 C 39.136719 150.503906 43.671875 147.128906 45.351562 142.550781 C 47.039062 137.945312 50.507812 126.996094 43.667969 125.917969 C 45.394531 128.371094 45.339844 132.269531 42.082031 127.855469 C 37.164062 121.191406 33.074219 122.714844 31.929688 119.476562 C 30.65625 115.886719 31.792969 113.929688 31.792969 113.929688 C 31.792969 113.929688 28.339844 115.691406 29.0625 120.105469 C 29.789062 124.523438 27.066406 126.433594 24.382812 124.886719 C 21.703125 123.34375 22.386719 119.4375 22.386719 119.4375 C 22.386719 119.4375 19.839844 121.765625 21.199219 125.574219 C 22.5625 129.371094 22.386719 132.425781 20.246094 132.425781 C 18.113281 132.425781 16.925781 131.25 16.566406 128.246094 Z M 16.566406 128.246094 "/>
<path style=" stroke:none;fill-rule:nonzero;fill:rgb(100%,43.529412%,53.72549%);fill-opacity:1;" d="M 29.566406 130.117188 C 29.566406 130.117188 28.164062 132.777344 29.699219 135.523438 C 31.238281 138.265625 30.390625 139.660156 28.976562 139.890625 C 27.566406 140.113281 26.199219 137.75 26.199219 137.75 C 26.199219 137.75 24.152344 145.527344 32.652344 145.246094 C 39.445312 145.03125 42.683594 136.3125 34.027344 133.847656 C 31.378906 133.097656 30.351562 132.011719 29.566406 130.117188 Z M 29.566406 130.117188 "/>
<path style=" stroke:none;fill-rule:nonzero;fill:rgb(0%,0%,0%);fill-opacity:1;" d="M 139.671875 92.953125 C 139.339844 93.453125 138.921875 93.875 138.417969 94.152344 C 137.632812 94.585938 136.714844 94.824219 135.820312 94.753906 C 134.890625 94.679688 133.984375 94.253906 133.535156 93.402344 C 133.246094 92.839844 133.210938 92.203125 133.402344 91.597656 C 133.585938 91.023438 133.710938 90.402344 133.789062 89.796875 C 133.984375 88.261719 134.152344 87.628906 132.546875 88.621094 L 131.097656 89.566406 C 129.132812 84.488281 131.058594 80.429688 135.902344 77.957031 L 135.988281 77.578125 C 136.179688 76.726562 136.613281 75.738281 137.03125 74.980469 C 138.011719 73.203125 139.429688 71.742188 141.246094 70.804688 C 143.011719 69.898438 145.058594 69.539062 146.941406 70.320312 C 148.34375 70.902344 149.519531 72.113281 149.867188 73.617188 C 150.183594 75.011719 149.746094 77.246094 148.519531 78.109375 C 149.058594 79.957031 149.25 81.953125 148.925781 83.863281 C 148.667969 85.402344 148.132812 87.109375 147.023438 88.253906 C 146.5625 88.722656 145.902344 89.175781 145.242188 89.289062 C 144.746094 90.808594 143.585938 91.84375 142.125 92.425781 C 141.476562 92.691406 140.640625 92.898438 139.929688 92.941406 Z M 139.671875 92.953125 "/>
<path style=" stroke:none;fill-rule:nonzero;fill:rgb(100%,84.313725%,87.843137%);fill-opacity:1;" d="M 139.117188 78.210938 C 135.15625 79.359375 130.867188 82.328125 131.824219 87.582031 C 135.941406 83.945312 135.582031 89.398438 134.753906 92.027344 C 134.371094 93.25 136.117188 93.800781 137.734375 92.914062 C 139.347656 92.027344 139.503906 88.542969 139.503906 88.542969 C 139.503906 88.542969 139.9375 88.613281 140.253906 89.433594 C 140.574219 90.25 139.847656 91.523438 139.847656 91.523438 C 139.847656 91.523438 143.140625 91.339844 143.914062 88.773438 C 144.691406 86.207031 144.230469 85.503906 144.230469 85.503906 C 144.230469 85.503906 144.710938 85.589844 144.96875 86.296875 C 145.234375 87 144.96875 87.902344 144.96875 87.902344 C 144.96875 87.902344 146.84375 87.636719 147.53125 83.628906 C 148.214844 79.617188 146.203125 76.199219 146.203125 76.199219 L 147.671875 77.003906 C 147.671875 77.003906 148.890625 75.730469 148.484375 73.933594 C 148.078125 72.140625 145.53125 70.203125 141.894531 72.074219 C 138.257812 73.933594 137.371094 77.890625 137.371094 77.890625 C 137.371094 77.890625 138.535156 77.808594 139.117188 78.210938 Z M 139.117188 78.210938 "/>
<path style=" stroke:none;fill-rule:nonzero;fill:rgb(100%,100%,100%);fill-opacity:1;" d="M 139.117188 78.210938 C 135.15625 79.359375 130.867188 82.328125 131.824219 87.582031 C 135.941406 83.945312 135.582031 89.398438 134.753906 92.027344 C 134.546875 92.683594 134.957031 93.148438 135.636719 93.300781 C 137.125 90.96875 137.152344 85.699219 135.445312 84.242188 C 134.457031 83.398438 133.414062 83.445312 134.300781 81.898438 C 135.636719 79.5625 139.117188 78.210938 139.117188 78.210938 Z M 139.742188 73.671875 C 137.886719 75.59375 137.371094 77.890625 137.371094 77.890625 C 137.371094 77.890625 137.75 77.863281 138.191406 77.917969 C 138.203125 77.59375 138.269531 77.0625 138.460938 76.3125 C 138.617188 75.675781 139.183594 74.621094 139.742188 73.671875 Z M 139.742188 73.671875 "/>
<path style=" stroke:none;fill-rule:nonzero;fill:rgb(100%,63.921569%,72.54902%);fill-opacity:1;" d="M 140.214844 90.652344 C 140.074219 91.136719 139.847656 91.523438 139.847656 91.523438 C 139.847656 91.523438 143.140625 91.339844 143.914062 88.773438 C 144.097656 88.179688 144.203125 87.691406 144.273438 87.277344 C 143.742188 88.394531 142.585938 90.054688 140.214844 90.652344 Z M 144.957031 86.25 C 144.960938 86.261719 144.96875 86.28125 144.96875 86.296875 C 145.234375 87 144.96875 87.902344 144.96875 87.902344 C 144.96875 87.902344 146.84375 87.636719 147.53125 83.628906 C 147.625 83.050781 147.671875 82.484375 147.671875 81.941406 C 147.542969 82.3125 147.375 82.699219 147.164062 83.105469 C 145.917969 85.496094 145.273438 86.125 144.957031 86.25 Z M 147.027344 76.652344 L 147.671875 77.003906 C 147.671875 77.003906 148.890625 75.730469 148.484375 73.933594 C 148.1875 72.621094 146.742188 71.238281 144.570312 71.3125 C 145.402344 71.59375 146.304688 72.105469 146.710938 73.054688 C 147.367188 74.605469 147.15625 76.082031 147.027344 76.652344 Z M 147.027344 76.652344 "/>
<path style=" stroke:none;fill-rule:nonzero;fill:rgb(0%,0%,0%);fill-opacity:1;" d="M 96.746094 64.839844 C 96.746094 64.839844 103.613281 63.980469 108.660156 61.066406 C 113.707031 58.160156 114.246094 54.707031 114.246094 54.707031 C 114.246094 54.707031 109.675781 60.4375 96.746094 64.839844 Z M 96.746094 64.839844 "/>
<path style=" stroke:none;fill-rule:nonzero;fill:rgb(0%,0%,0%);fill-opacity:1;" d="M 103.296875 76.222656 C 103.945312 76.886719 104.367188 77.945312 104.367188 79.136719 C 104.367188 81.148438 103.167969 82.773438 101.691406 82.773438 C 100.207031 82.773438 99.007812 81.148438 99.007812 79.136719 C 99.007812 78.472656 99.144531 77.851562 99.375 77.316406 C 100.246094 77.039062 101.777344 76.570312 103.296875 76.222656 Z M 103.296875 76.222656 "/>
<path style=" stroke:none;fill-rule:nonzero;fill:rgb(100%,100%,100%);fill-opacity:1;" d="M 100.550781 79.738281 C 100.867188 79.625 101.246094 79.933594 101.390625 80.425781 C 101.535156 80.921875 101.394531 81.410156 101.078125 81.523438 C 100.757812 81.636719 100.382812 81.328125 100.238281 80.835938 C 100.089844 80.34375 100.230469 79.851562 100.550781 79.738281 Z M 100.550781 79.738281 "/>
<path style=" stroke:none;fill-rule:nonzero;fill:rgb(0%,0%,0%);fill-opacity:1;" d="M 97.6875 78.640625 C 97.492188 78.777344 97.21875 78.738281 97.078125 78.539062 C 96.933594 78.34375 96.984375 78.074219 97.179688 77.9375 C 97.1875 77.929688 99.699219 76.082031 105.542969 75.484375 C 105.78125 75.464844 105.992188 75.640625 106.019531 75.878906 C 106.039062 76.117188 105.867188 76.332031 105.625 76.351562 C 100.015625 76.929688 97.695312 78.636719 97.6875 78.640625 Z M 97.6875 78.640625 "/>
<path style=" stroke:none;fill-rule:nonzero;fill:rgb(0%,0%,0%);fill-opacity:1;" d="M 84.445312 78.96875 C 84.167969 79.507812 84.03125 80.246094 84.074219 81.046875 C 84.242188 84.671875 88.636719 85.054688 88.078125 81.128906 C 86.878906 80.945312 85.53125 80.375 84.445312 78.96875 Z M 84.445312 78.96875 "/>
<path style=" stroke:none;fill-rule:nonzero;fill:rgb(100%,100%,100%);fill-opacity:1;" d="M 85.355469 81.261719 C 85.625 81.214844 85.96875 81.542969 86.125 81.980469 C 86.28125 82.421875 86.179688 82.816406 85.910156 82.855469 C 85.636719 82.902344 85.292969 82.578125 85.136719 82.136719 C 84.980469 81.695312 85.082031 81.304688 85.355469 81.261719 Z M 85.355469 81.261719 "/>
<path style=" stroke:none;fill-rule:nonzero;fill:rgb(0%,0%,0%);fill-opacity:1;" d="M 84.132812 78.535156 C 83.835938 78.535156 83.519531 78.546875 83.179688 78.574219 C 82.554688 78.621094 82.664062 79.433594 83.214844 79.386719 C 83.777344 79.347656 84.289062 79.332031 84.765625 79.347656 C 84.546875 79.109375 84.335938 78.839844 84.132812 78.535156 Z M 84.132812 78.535156 "/>
<path style=" stroke:none;fill-rule:nonzero;fill:rgb(100%,63.921569%,72.54902%);fill-opacity:1;" d="M 196.824219 49.382812 L 189.832031 54.578125 L 190.511719 49.328125 Z M 196.824219 49.382812 "/>
<path style=" stroke:none;fill-rule:nonzero;fill:rgb(100%,7.843137%,30.196078%);fill-opacity:1;" d="M 188.710938 58.886719 L 192.976562 54.652344 L 196.824219 49.382812 L 189.832031 54.578125 Z M 188.710938 58.886719 "/>
<path style=" stroke:none;fill-rule:nonzero;fill:rgb(100%,7.843137%,30.196078%);fill-opacity:1;" d="M 189.832031 54.578125 L 180.242188 56.089844 L 180.765625 59.0625 L 182.59375 60.417969 C 184.128906 59.191406 189.832031 54.578125 189.832031 54.578125 Z M 189.832031 54.578125 "/>
<path style=" stroke:none;fill-rule:nonzero;fill:rgb(100%,32.941176%,49.019608%);fill-opacity:1;" d="M 189.832031 54.578125 L 188.710938 58.886719 L 185.75 61.066406 L 183.546875 61.113281 L 182.585938 60.410156 Z M 189.832031 54.578125 "/>
<path style=" stroke:none;fill-rule:nonzero;fill:rgb(100%,32.941176%,49.019608%);fill-opacity:1;" d="M 180.242188 56.089844 L 189.832031 54.578125 L 190.511719 49.328125 Z M 180.242188 56.089844 "/>
<path style=" stroke:none;fill-rule:nonzero;fill:rgb(100%,63.921569%,72.54902%);fill-opacity:1;" d="M 190.511719 49.328125 L 180.609375 53.472656 L 180.242188 56.089844 Z M 190.511719 49.328125 "/>
<path style=" stroke:none;fill-rule:nonzero;fill:rgb(0%,0%,0%);fill-opacity:0.2;" d="M 190.28125 51.117188 L 181.277344 55.410156 L 180.335938 56.652344 L 180.765625 59.0625 L 183.074219 60.769531 L 183.878906 60.632812 L 189.269531 56.730469 L 193.632812 51.753906 Z M 179.117188 58.121094 L 177.460938 60.105469 L 178.300781 61.582031 L 181.101562 61.101562 C 180.390625 60.347656 179.667969 59.542969 179.519531 59.246094 C 179.402344 59.015625 179.261719 58.613281 179.117188 58.121094 Z M 179.117188 58.121094 "/>
<path style=" stroke:none;fill-rule:nonzero;fill:rgb(92.156863%,0%,19.607843%);fill-opacity:1;" d="M 116.652344 96.230469 L 123.59375 93.65625 L 126.058594 97.53125 L 121.0625 101.007812 L 113.523438 99.929688 Z M 116.652344 96.230469 "/>
<path style=" stroke:none;fill-rule:nonzero;fill:rgb(100%,63.921569%,72.54902%);fill-opacity:1;" d="M 107.257812 109.105469 L 113.523438 99.929688 L 120.246094 98.832031 C 120.246094 98.832031 118.304688 103.972656 118.046875 104.144531 C 117.789062 104.3125 107.257812 109.105469 107.257812 109.105469 Z M 107.257812 109.105469 "/>
<path style=" stroke:none;fill-rule:nonzero;fill:rgb(100%,32.941176%,49.019608%);fill-opacity:1;" d="M 122.890625 105.289062 L 118.046875 104.144531 L 120.246094 98.832031 L 125.769531 97.078125 L 126.566406 98.324219 Z M 122.890625 105.289062 "/>
<path style=" stroke:none;fill-rule:nonzero;fill:rgb(100%,7.843137%,30.196078%);fill-opacity:1;" d="M 107.257812 109.105469 L 114.011719 110.183594 L 122.890625 105.289062 L 118.046875 104.144531 Z M 107.257812 109.105469 "/>
<path style=" stroke:none;fill-rule:nonzero;fill:rgb(100%,63.921569%,72.54902%);fill-opacity:1;" d="M 95.261719 115.644531 L 107.257812 109.105469 L 99.496094 106.84375 Z M 95.261719 115.644531 "/>
<path style=" stroke:none;fill-rule:nonzero;fill:rgb(100%,32.941176%,49.019608%);fill-opacity:1;" d="M 114.011719 110.183594 L 95.261719 115.644531 L 107.257812 109.105469 Z M 114.011719 110.183594 "/>
<path style=" stroke:none;fill-rule:nonzero;fill:rgb(100%,32.941176%,49.019608%);fill-opacity:1;" d="M 113.523438 99.929688 L 107.257812 109.105469 L 99.496094 106.84375 Z M 113.523438 99.929688 "/>
<path style=" stroke:none;fill-rule:nonzero;fill:rgb(100%,32.941176%,49.019608%);fill-opacity:1;" d="M 113.523438 99.929688 L 123.761719 93.921875 L 123.34375 93.265625 L 113.238281 94.519531 Z M 113.523438 99.929688 "/>
<path style=" stroke:none;fill-rule:nonzero;fill:rgb(100%,73.72549%,80%);fill-opacity:1;" d="M 99.496094 106.84375 L 113.238281 94.519531 L 113.523438 99.929688 Z M 99.496094 106.84375 "/>
<path style=" stroke:none;fill-rule:nonzero;fill:rgb(0%,0%,0%);fill-opacity:0.2;" d="M 102.136719 107.609375 L 113.425781 98.074219 L 123.390625 95.289062 L 124.859375 97.363281 L 119.726562 104.542969 L 110.628906 109.640625 L 100.734375 112.664062 Z M 102.136719 107.609375 "/>
<path style=" stroke:none;fill-rule:nonzero;fill:rgb(100%,84.313725%,87.843137%);fill-opacity:1;" d="M 99.496094 106.84375 L 97.851562 112.980469 L 104.949219 108.4375 L 107.257812 109.105469 L 95.261719 115.644531 Z M 99.496094 106.84375 "/>
<path style=" stroke:none;fill-rule:nonzero;fill:rgb(0%,0%,0%);fill-opacity:1;" d="M 190.578125 57.03125 C 190.578125 57.03125 188.621094 59.394531 187.132812 61.316406 C 185.632812 63.234375 177.304688 64.3125 168.171875 69.484375 C 163.085938 72.363281 155.683594 76.921875 149.066406 81.242188 C 149.019531 80.375 148.882812 79.515625 148.675781 78.683594 C 148.625 78.488281 148.574219 78.296875 148.519531 78.105469 C 148.742188 77.953125 148.945312 77.742188 149.121094 77.496094 C 155.40625 73.488281 161.882812 69.222656 165.957031 66.234375 C 174.871094 59.71875 177.988281 54.660156 180.113281 53.269531 C 182.234375 51.890625 185.960938 51.230469 185.960938 51.230469 C 185.960938 51.230469 182.832031 52.511719 182.042969 53.921875 C 181.257812 55.324219 180.425781 57.117188 180.980469 57.179688 C 181.542969 57.246094 184.007812 56.804688 184.867188 56.320312 C 185.722656 55.839844 186.101562 55.667969 186.101562 55.667969 C 186.101562 55.667969 185.585938 57.292969 184.207031 58.175781 C 182.824219 59.054688 181.921875 60.328125 183.601562 60.328125 C 185.28125 60.320312 186.332031 60.042969 187.523438 59.320312 C 188.710938 58.59375 190.578125 57.03125 190.578125 57.03125 Z M 133.300781 92.648438 C 130.109375 95.554688 129.898438 96.855469 129.777344 99.257812 C 129.628906 102.265625 128.234375 103.023438 125.871094 104.597656 C 123.511719 106.167969 123.363281 107.910156 120.675781 108.519531 C 117.992188 109.128906 116.054688 110.785156 114.273438 110.984375 C 112.492188 111.179688 110.433594 111.21875 110.433594 111.21875 C 110.433594 111.21875 113.175781 110.128906 114.824219 109.308594 C 116.46875 108.484375 116.320312 107.800781 118.261719 106.789062 C 120.207031 105.78125 121.039062 106.027344 121.875 104.230469 C 122.707031 102.441406 123.621094 101.441406 124.378906 100.148438 C 125.136719 98.851562 126.230469 97.675781 121.933594 100.121094 C 117.640625 102.566406 117.695312 103.40625 115.742188 104.351562 C 113.792969 105.308594 111.015625 106.527344 111.015625 106.527344 C 111.015625 106.527344 112.628906 104.433594 114.28125 103.382812 C 115.933594 102.328125 116.738281 101.8125 117.648438 99.78125 C 118.546875 97.75 120.402344 96.339844 121.414062 94.882812 C 122.429688 93.433594 122.402344 93.644531 119.949219 93.910156 C 117.503906 94.179688 116.074219 94.574219 114.28125 95.972656 C 112.492188 97.375 110.828125 97.199219 109.398438 98.570312 C 107.976562 99.929688 104.441406 102.410156 104.441406 102.410156 C 104.441406 102.410156 105.410156 100.824219 106.085938 99.707031 C 106.769531 98.59375 107.90625 98.804688 109.226562 97.28125 C 110.554688 95.757812 112.148438 93.386719 113.867188 92.941406 C 115.589844 92.484375 117.144531 91.539062 118.238281 90.414062 C 119.332031 89.28125 120.605469 89.160156 122.863281 89.5 C 124.949219 89.816406 126.695312 90.679688 130.785156 88.667969 C 133.292969 87.847656 134.246094 87.148438 133.9375 89.59375 C 133.863281 90.195312 133.585938 91.023438 133.402344 91.597656 C 133.292969 91.945312 133.257812 92.304688 133.300781 92.648438 Z M 133.300781 92.648438 "/>
<path style=" stroke:none;fill-rule:nonzero;fill:rgb(30.196078%,30.196078%,30.196078%);fill-opacity:1;" d="M 121.925781 108.078125 C 121.574219 108.261719 121.167969 108.410156 120.675781 108.519531 C 117.992188 109.128906 116.054688 110.785156 114.273438 110.984375 C 112.492188 111.179688 110.433594 111.21875 110.433594 111.21875 C 110.433594 111.21875 113.175781 110.128906 114.824219 109.308594 C 116.46875 108.484375 116.320312 107.800781 118.261719 106.789062 C 120.207031 105.78125 121.039062 106.027344 121.875 104.230469 C 122.347656 103.214844 122.847656 102.449219 123.328125 101.738281 C 122.976562 102.515625 122.605469 103.390625 122.421875 104.019531 C 122.015625 105.410156 121.46875 105.746094 120.519531 106.28125 C 119.570312 106.824219 117.945312 107.148438 117.300781 108.011719 C 116.660156 108.875 116.082031 109.140625 115.417969 109.554688 C 114.761719 109.960938 114.925781 109.996094 115.785156 109.816406 C 116.644531 109.640625 118.621094 108.011719 121.121094 108.117188 C 121.40625 108.132812 121.675781 108.113281 121.925781 108.078125 Z M 116.800781 103.730469 C 116.503906 103.945312 116.171875 104.148438 115.742188 104.351562 C 113.792969 105.308594 111.015625 106.527344 111.015625 106.527344 C 111.015625 106.527344 112.628906 104.433594 114.28125 103.382812 C 115.933594 102.328125 116.738281 101.8125 117.648438 99.78125 C 118.488281 97.882812 120.160156 96.53125 121.203125 95.175781 C 121 95.617188 120.667969 96.171875 120.105469 96.820312 C 118.628906 98.542969 118.128906 99.515625 117.9375 100.640625 C 117.75 101.757812 116.488281 102.496094 114.972656 103.675781 C 113.460938 104.855469 113.359375 105.152344 115.234375 104.414062 C 115.832031 104.175781 116.359375 103.941406 116.800781 103.730469 Z M 108.285156 99.53125 C 106.65625 100.851562 104.441406 102.410156 104.441406 102.410156 C 104.441406 102.410156 105.410156 100.824219 106.085938 99.707031 C 106.769531 98.59375 107.90625 98.804688 109.230469 97.28125 C 110.292969 96.070312 111.519531 94.308594 112.84375 93.421875 C 112.195312 94.117188 111.816406 94.917969 111.234375 95.792969 C 110.195312 97.355469 109.863281 97.675781 108.429688 98.589844 C 106.988281 99.503906 106.410156 100.375 106.84375 100.148438 C 106.925781 100.105469 107.460938 99.875 108.285156 99.53125 Z M 127.019531 89.898438 C 128.042969 89.769531 129.25 89.425781 130.785156 88.667969 C 132.25 88.183594 133.183594 87.746094 133.652344 87.957031 C 130.738281 89.527344 128.585938 89.972656 127.019531 89.898438 Z M 149.121094 77.496094 C 155.40625 73.488281 161.882812 69.222656 165.957031 66.234375 C 174.871094 59.71875 177.988281 54.660156 180.113281 53.269531 C 180.871094 52.777344 181.847656 52.371094 182.777344 52.058594 C 182.144531 52.4375 181.488281 52.871094 180.839844 53.371094 C 177.757812 55.757812 175.875 59.644531 171.289062 63.214844 C 168.300781 65.542969 158.027344 72.316406 148.605469 78.433594 C 148.578125 78.324219 148.546875 78.214844 148.519531 78.105469 C 148.742188 77.953125 148.945312 77.742188 149.121094 77.496094 Z M 180.859375 56.527344 C 180.765625 56.90625 180.785156 57.160156 180.980469 57.179688 C 181.542969 57.246094 184.007812 56.804688 184.867188 56.320312 C 185.722656 55.839844 186.101562 55.667969 186.101562 55.667969 C 186.101562 55.667969 185.796875 56.101562 184.585938 56.875 C 183.378906 57.644531 180.5625 58.453125 180.5 57.578125 C 180.480469 57.253906 180.640625 56.875 180.859375 56.527344 Z M 180.859375 56.527344 "/>
<path style=" stroke:none;fill-rule:nonzero;fill:rgb(100%,80.392157%,32.941176%);fill-opacity:1;" d="M 20.765625 104.15625 C 21.300781 98.675781 25.980469 94.269531 25.980469 94.269531 C 25.980469 94.269531 20.144531 96.855469 18.660156 103.761719 C 17.882812 107.378906 20.035156 111.722656 20.765625 104.15625 Z M 20.765625 104.15625 "/>
<path style=" stroke:none;fill-rule:nonzero;fill:rgb(100%,80.392157%,32.941176%);fill-opacity:1;" d="M 6.484375 137.351562 C 3.515625 132.71875 4.472656 126.351562 4.472656 126.351562 C 4.472656 126.351562 1.484375 132 4.585938 138.347656 C 6.210938 141.671875 10.585938 143.75 6.484375 137.351562 Z M 6.484375 137.351562 "/>
<path style=" stroke:none;fill-rule:nonzero;fill:rgb(100%,80.392157%,32.941176%);fill-opacity:1;" d="M 38.402344 102.191406 C 40.921875 98.351562 44.167969 98.40625 44.167969 98.40625 C 44.167969 98.40625 40.246094 96.617188 36.667969 100.945312 C 34.800781 103.203125 34.921875 107.503906 38.402344 102.191406 Z M 38.402344 102.191406 "/>
<path style=" stroke:none;fill-rule:nonzero;fill:rgb(100%,80.392157%,32.941176%);fill-opacity:1;" d="M 51.554688 158.042969 C 50.019531 163.324219 44.601562 166.792969 44.601562 166.792969 C 44.601562 166.792969 50.816406 165.328125 53.5625 158.8125 C 54.992188 155.40625 53.683594 150.742188 51.554688 158.042969 Z M 51.554688 158.042969 "/>
<path style=" stroke:none;fill-rule:nonzero;fill:rgb(100%,80.392157%,32.941176%);fill-opacity:1;" d="M 24.613281 165.207031 C 19.386719 166.933594 13.429688 165.207031 13.429688 165.207031 C 13.429688 165.207031 18.449219 169.167969 25.25 167.261719 C 28.8125 166.257812 40.191406 160.074219 24.613281 165.207031 Z M 24.613281 165.207031 "/>
<path style=" stroke:none;fill-rule:nonzero;fill:rgb(100%,80.392157%,32.941176%);fill-opacity:1;" d="M 103.871094 113.792969 C 100.574219 116.238281 97.550781 114.960938 94.503906 116.078125 C 91.457031 117.195312 90.019531 119.347656 87.398438 119.347656 C 87.398438 119.347656 91.972656 117.226562 93.507812 113.320312 C 95.046875 109.40625 98.65625 108.265625 100.539062 105.902344 C 102.429688 103.539062 104.441406 102.410156 104.441406 102.410156 C 102.976562 102.558594 102.015625 102.945312 101.09375 103.5 C 97.722656 105.542969 94.871094 108.835938 90.757812 107.007812 C 88.511719 106.003906 86.042969 106.738281 84.691406 108.117188 C 91.300781 107.324219 92.585938 113.847656 85.609375 117.113281 C 78.582031 120.40625 73.996094 113.320312 68.191406 113.320312 C 71.253906 115.820312 67.515625 117.464844 67.308594 117.554688 C 63.164062 119.089844 59.257812 118.394531 54.476562 111.113281 C 49.246094 103.160156 41.425781 104.886719 41.425781 104.886719 C 41.425781 104.886719 46.382812 107.578125 43.929688 110.671875 C 38.871094 117.039062 25.277344 108.097656 29.746094 96.582031 C 29.746094 96.582031 23.652344 99.929688 24.382812 106.980469 C 25.109375 114.023438 20.0625 116.660156 16.789062 114.84375 C 13.519531 113.023438 14.472656 109.25 14.472656 109.25 C 6.109375 119.339844 9.285156 128.496094 11.859375 135.875 C 13.296875 139.984375 15.640625 144.558594 14.453125 147.230469 C 12.828125 150.917969 9.027344 150.625 7.015625 148.429688 C 13.066406 164.246094 27.300781 158.976562 34.753906 157.5 C 39.359375 156.585938 40.941406 160.148438 38.652344 163.894531 C 43.566406 161.496094 44.804688 157.757812 46.320312 153.511719 C 48.710938 146.792969 63.410156 146.160156 59.417969 158 C 67.390625 150.917969 61.105469 142.464844 66.605469 133.070312 C 72.171875 123.574219 82.0625 119.476562 82.609375 124.433594 C 83.152344 129.386719 77.152344 131.574219 77.152344 131.574219 C 88.0625 130.429688 87.796875 123.308594 93.140625 119.570312 C 95.992188 117.574219 99.589844 118.019531 102.582031 116.800781 C 105.015625 115.8125 105.902344 112.539062 110.433594 111.21875 C 110.433594 111.21875 107.175781 111.355469 103.871094 113.792969 Z M 71.183594 122.816406 C 68.035156 125.28125 63.902344 129.203125 62.296875 133.734375 C 59.570312 141.480469 59.378906 144.699219 54.253906 144.097656 C 49.125 143.5 43.945312 149.371094 42.851562 153.097656 C 41.761719 156.824219 37.230469 152.027344 32.621094 154.425781 C 28.015625 156.824219 20.101562 155.386719 18.253906 152.167969 C 16.308594 148.789062 17.78125 144.992188 15.773438 139.984375 C 13.628906 134.609375 9.699219 117.925781 18.769531 117.925781 C 23.734375 117.925781 27.167969 115.191406 27.714844 111.316406 C 28.257812 107.441406 30.132812 112.054688 35.472656 113.929688 C 40.808594 115.8125 43.855469 116.007812 46.367188 113.332031 C 48.886719 110.660156 51.632812 113.5625 55.375 117.351562 C 62.339844 124.378906 64.371094 120.480469 70.785156 119.742188 C 73.527344 119.421875 74.027344 120.585938 71.183594 122.816406 Z M 71.183594 122.816406 "/>
</g>
</svg>
